<?xml version="1.0" standalone="no"?>
<!DOCTYPE svg PUBLIC "-//W3C//DTD SVG 1.1//EN" "http://www.w3.org/Graphics/SVG/1.1/DTD/svg11.dtd" >
<svg xmlns="http://www.w3.org/2000/svg" xmlns:xlink="http://www.w3.org/1999/xlink" version="1.1">
<metadata>
Created by FontForge 20170731 at Fri Dec 27 09:59:26 2019
 By Aleksey,,,
(c) 2019 SAMSUNG C&#38;T Fashion Group. All rights reserved.
</metadata>
<defs>
<font id="beanpoleM" horiz-adv-x="552" >
  <font-face 
    font-family="BEANPOLE 2020 Medium"
    font-weight="500"
    font-stretch="normal"
    units-per-em="1000"
    panose-1="2 11 6 0 0 1 1 1 1 1"
    ascent="800"
    descent="-200"
    x-height="527"
    cap-height="745"
    bbox="-138 -250 2463 835"
    underline-thickness="50"
    underline-position="-275"
    unicode-range="U+0020-D7A3"
  />
<missing-glyph 
d="M490 -72v823h-428v-823h428zM276 263l113 -272h-227zM310 344l112 268v-536zM242 344l-112 -268v536zM166 688h219l-109 -262z" />
    <glyph glyph-name=".notdef" 
d="M490 -72v823h-428v-823h428zM276 263l113 -272h-227zM310 344l112 268v-536zM242 344l-112 -268v536zM166 688h219l-109 -262z" />
    <glyph glyph-name=".null" horiz-adv-x="0" 
 />
    <glyph glyph-name="nonmarkingreturn" horiz-adv-x="333" 
 />
    <glyph glyph-name="cid1" unicode=" " horiz-adv-x="180" 
 />
    <glyph glyph-name="cid1" unicode="&#xa0;" horiz-adv-x="180" 
 />
    <glyph glyph-name="cid2" unicode="!" horiz-adv-x="220" 
d="M75 146h70l10 609h-90zM61 -67h98v98h-98v-98z" />
    <glyph glyph-name="cid3" unicode="&#x22;" horiz-adv-x="346" 
d="M82 549h52l24 226h-98zM212 549h52l22 226h-98z" />
    <glyph glyph-name="cid4" unicode="#" horiz-adv-x="587" 
d="M255 -42h82l52 233h108v80h-90l35 160h105v80h-87l52 234h-82l-52 -234h-88l52 234h-82l-52 -234h-118v-80h100l-35 -160h-115v-80h97l-52 -233h82l52 233h88zM272 431h88l-35 -160h-88z" />
    <glyph glyph-name="cid5" unicode="$" horiz-adv-x="465" 
d="M138 461v204h189v-151h83v231h-142v90h-72v-90h-141v-332l272 -147v-228h-189v150h-83v-230h141v-90h72v90h142v357z" />
    <glyph glyph-name="cid6" unicode="%" horiz-adv-x="666" 
d="M606 -42v305h-231v-305h231zM60 440h231v305h-231v-305zM159 -42l435 787h-89l-435 -787h89zM528 188v-155h-75v155h75zM138 670h75v-155h-75v155z" />
    <glyph glyph-name="cid7" unicode="&#x26;" horiz-adv-x="585" 
d="M565 384h-100v100h-83v-100h-65v361h-257v-787h405v346h100v80zM143 304h239v-266h-239v266zM143 665h91v-281h-91v281z" />
    <glyph glyph-name="cid8" unicode="'" horiz-adv-x="218" 
d="M82 549h52l24 226h-98z" />
    <glyph glyph-name="cid9" unicode="(" horiz-adv-x="297" 
d="M138 339q0 -87 7.5 -149t21.5 -104t35.5 -66.5t49.5 -35.5v-80q-106 23 -151.5 134.5t-45.5 300.5q0 190 45.5 301.5t151.5 134.5v-80q-28 -11 -49.5 -35.5t-35.5 -66.5t-21.5 -104.5t-7.5 -149.5z" />
    <glyph glyph-name="cid10" unicode=")" horiz-adv-x="297" 
d="M159 339q0 87 -7.5 149.5t-21.5 104.5t-35.5 66.5t-49.5 35.5v80q106 -23 151.5 -134.5t45.5 -301.5q0 -189 -45.5 -300.5t-151.5 -134.5v80q28 11 49.5 35.5t35.5 66.5t21.5 104t7.5 149z" />
    <glyph glyph-name="cid11" unicode="*" horiz-adv-x="502" 
d="M76 678l-26 -79l150 -37l-98 -119l67 -49l82 131l82 -131l67 49l-98 119l150 37l-26 79l-144 -57l10 154h-83l11 -154z" />
    <glyph glyph-name="cid12" unicode="+" horiz-adv-x="497" 
d="M288 548h-80v-149h-148v-80h148v-148h80v148h149v80h-149v149z" />
    <glyph glyph-name="cid13" unicode="," horiz-adv-x="218" 
d="M45 -167h68l50 198h-98z" />
    <glyph glyph-name="cid14" unicode="-" horiz-adv-x="387" 
d="M327 319v80h-267v-80h267z" />
    <glyph glyph-name="cid14" unicode="&#x2011;" horiz-adv-x="387" 
d="M327 319v80h-267v-80h267z" />
    <glyph glyph-name="cid14" unicode="&#x2010;" horiz-adv-x="387" 
d="M327 319v80h-267v-80h267z" />
    <glyph glyph-name="cid14" unicode="&#xad;" horiz-adv-x="387" 
d="M327 319v80h-267v-80h267z" />
    <glyph glyph-name="cid15" unicode="." horiz-adv-x="218" 
d="M60 -67h98v98h-98v-98z" />
    <glyph glyph-name="cid16" unicode="/" horiz-adv-x="377" 
d="M112 -42l235 787h-82l-235 -787h82z" />
    <glyph glyph-name="cid17" unicode="0" horiz-adv-x="495" 
d="M435 745h-375v-787h375v787zM143 38v150l209 241v-391h-209zM143 665h209v-126l-209 -241v367z" />
    <glyph glyph-name="cid18" unicode="1" horiz-adv-x="445" 
d="M40 38v-80h375v80h-149v707h-226v-80h143v-627h-143z" />
    <glyph glyph-name="cid19" unicode="2" horiz-adv-x="460" 
d="M327 461l-272 -146v-357h355v80h-272v228l272 147v332h-355v-231h83v151h189v-204z" />
    <glyph glyph-name="cid20" unicode="3" horiz-adv-x="480" 
d="M148 319h199v-281h-209v151h-83v-231h375v441h-93v346h-282v-231h83v151h116v-266h-106v-80z" />
    <glyph glyph-name="cid21" unicode="4" horiz-adv-x="480" 
d="M40 190h252v-232h83v232h80v80h-80v475h-116l-219 -331v-224zM123 391l169 256v-377h-169v121z" />
    <glyph glyph-name="cid22" unicode="5" horiz-adv-x="480" 
d="M55 189v-231h375v441h-292v266h194v80h-277v-426h292v-281h-209v151h-83z" />
    <glyph glyph-name="cid23" unicode="6" horiz-adv-x="485" 
d="M435 399h-292v266h194v80h-277v-787h375v441zM352 319v-281h-209v281h209z" />
    <glyph glyph-name="cid24" unicode="7" horiz-adv-x="465" 
d="M332 461l-209 -112v-391h83v342l209 113v332h-375v-231h83v151h209v-204z" />
    <glyph glyph-name="cid25" unicode="8" horiz-adv-x="510" 
d="M450 745h-287v-361h-108v-426h395v787zM367 304v-266h-229v266h229zM367 384h-121v281h121v-281z" />
    <glyph glyph-name="cid26" unicode="9" horiz-adv-x="485" 
d="M342 304v-266h-194v-80h277v787h-375v-441h292zM133 665h209v-281h-209v281z" />
    <glyph glyph-name="cid27" unicode=":" horiz-adv-x="238" 
d="M70 -42h98v98h-98v-98zM70 429h98v98h-98v-98z" />
    <glyph glyph-name="cid28" unicode=";" horiz-adv-x="238" 
d="M70 429h98v98h-98v-98zM55 -142h68l50 198h-98z" />
    <glyph glyph-name="cid29" unicode="&#x3c;" horiz-adv-x="340" 
d="M280 523v124l-220 -263v-86l220 -263v124l-152 182z" />
    <glyph glyph-name="cid30" unicode="=" horiz-adv-x="497" 
d="M60 499v-80h377v80h-377zM60 299v-80h377v80h-377z" />
    <glyph glyph-name="cid31" unicode="&#x3e;" horiz-adv-x="340" 
d="M60 523l152 -182l-152 -182v-124l220 263v86l-220 263v-124z" />
    <glyph glyph-name="cid32" unicode="?" horiz-adv-x="465" 
d="M264 146l8 198l133 86v325h-355v-231h83v151h189v-197l-133 -85l5 -247h70zM180 -67h98v98h-98v-98z" />
    <glyph glyph-name="cid33" unicode="@" horiz-adv-x="741" 
d="M158 -124v794h425v-568h-75v395h-180v-74h103v-101h-198v-294h428v717h-581v-944h581v75h-503zM310 248h121v-146h-121v146z" />
    <glyph glyph-name="cid34" unicode="A" horiz-adv-x="470" 
d="M60 745v-787h83v346h184v-346h83v787h-350zM143 665h184v-281h-184v281z" />
    <glyph glyph-name="cid35" unicode="B" horiz-adv-x="480" 
d="M60 745v-787h375v426h-98v361h-277zM352 38h-209v266h209v-266zM254 384h-111v281h111v-281z" />
    <glyph glyph-name="cid36" unicode="C" horiz-adv-x="397" 
d="M357 38h-214v627h214v80h-297v-787h297v80z" />
    <glyph glyph-name="cid37" unicode="D" horiz-adv-x="490" 
d="M435 557l-188 188h-187v-787h375v599zM143 665h70l139 -139v-488h-209v627z" />
    <glyph glyph-name="cid38" unicode="E" horiz-adv-x="402" 
d="M60 -42h297v80h-214v281h204v80h-204v266h214v80h-297v-787z" />
    <glyph glyph-name="cid39" unicode="F" horiz-adv-x="387" 
d="M60 -42h83v361h204v80h-204v266h214v80h-297v-787z" />
    <glyph glyph-name="cid40" unicode="G" horiz-adv-x="480" 
d="M435 399h-219v-80h136v-281h-209v627h194v80h-277v-787h375v441z" />
    <glyph glyph-name="cid41" unicode="H" horiz-adv-x="495" 
d="M60 745v-787h83v361h209v-361h83v787h-83v-346h-209v346h-83z" />
    <glyph glyph-name="cid42" unicode="I" horiz-adv-x="203" 
d="M60 -42h83v787h-83v-787z" />
    <glyph glyph-name="cid43" unicode="J" horiz-adv-x="414" 
d="M354 -42v787h-294v-80h211v-627h-148v150h-83v-230h314z" />
    <glyph glyph-name="cid44" unicode="K" horiz-adv-x="480" 
d="M143 384v361h-83v-787h83v346h209v-346h83v426h-197l195 361h-93l-195 -361h-2z" />
    <glyph glyph-name="cid45" unicode="L" horiz-adv-x="372" 
d="M60 -42h277v80h-194v707h-83v-787z" />
    <glyph glyph-name="cid46" unicode="M" horiz-adv-x="591" 
d="M337 304v361h111v-707h83v787h-471v-787h83v707h111v-361h83z" />
    <glyph glyph-name="cid47" unicode="N" horiz-adv-x="495" 
d="M352 -42h83v787h-83v-209l-209 209h-83v-787h83v673l209 -209v-464z" />
    <glyph glyph-name="cid48" unicode="O" horiz-adv-x="495" 
d="M435 745h-375v-787h375v787zM143 665h209v-627h-209v627z" />
    <glyph glyph-name="cid49" unicode="P" horiz-adv-x="445" 
d="M143 249h262v496h-345v-787h83v291zM143 329v336h179v-336h-179z" />
    <glyph glyph-name="cid50" unicode="Q" horiz-adv-x="495" 
d="M291 -142v100h144v787h-375v-787h154v-100h77zM143 665h209v-627h-61v100h-77v-100h-71v627z" />
    <glyph glyph-name="cid51" unicode="R" horiz-adv-x="460" 
d="M311 -42h94l-166 361h166v426h-345v-787h83v361h2zM143 399v266h179v-266h-179z" />
    <glyph glyph-name="cid52" unicode="S" horiz-adv-x="465" 
d="M138 461v204h189v-151h83v231h-355v-332l272 -147v-228h-189v150h-83v-230h355v357z" />
    <glyph glyph-name="cid53" unicode="T" horiz-adv-x="392" 
d="M25 665h130v-707h83v707h129v80h-342v-80z" />
    <glyph glyph-name="cid54" unicode="U" horiz-adv-x="470" 
d="M60 745v-787h350v787h-83v-707h-184v707h-83z" />
    <glyph glyph-name="cid55" unicode="V" horiz-adv-x="460" 
d="M231 38h-2l-91 125v582h-83v-607l131 -180h88l131 180v607h-83v-582z" />
    <glyph glyph-name="cid56" unicode="W" horiz-adv-x="591" 
d="M254 38h-111v707h-83v-787h471v787h-83v-707h-111v347h-83v-347z" />
    <glyph glyph-name="cid57" unicode="X" horiz-adv-x="450" 
d="M226 428h-2l-91 139v178h-83v-197l125 -191l-125 -190v-209h83v191l91 138h2l91 -138v-191h83v209l-125 190l125 191v197h-83v-178z" />
    <glyph glyph-name="cid58" unicode="Y" horiz-adv-x="420" 
d="M211 428h-2l-91 138v179h-83v-197l134 -205v-385h83v386l133 204v197h-83v-179z" />
    <glyph glyph-name="cid59" unicode="Z" horiz-adv-x="395" 
d="M267 461l-222 -154v-349h305v80h-222v228l222 154v325h-305v-80h222v-204z" />
    <glyph glyph-name="cid60" unicode="[" horiz-adv-x="307" 
d="M60 -86h197v80h-114v691h114v80h-197v-851z" />
    <glyph glyph-name="cid61" unicode="\" horiz-adv-x="711" 
d="M314 38h-111v707h-83v-285h-80v-75h80v-427h471v427h80v75h-80v285h-83v-707h-111v347h-83v-347z" />
    <glyph glyph-name="cid62" unicode="]" horiz-adv-x="307" 
d="M247 765h-197v-80h114v-691h-114v-80h197v851z" />
    <glyph glyph-name="cid63" unicode="^" horiz-adv-x="386" 
d="M258 570h88l-114 205h-78l-114 -205h88l65 119z" />
    <glyph glyph-name="cid64" unicode="_" horiz-adv-x="425" 
d="M375 -42h-325v-77h325v77z" />
    <glyph glyph-name="cid65" unicode="`" horiz-adv-x="264" 
d="M234 587l-104 188h-100l104 -188h100z" />
    <glyph glyph-name="cid66" unicode="a" horiz-adv-x="425" 
d="M143 450h147v-148h-245v-344h325v569h-227v-77zM125 35v190h165v-190h-165z" />
    <glyph glyph-name="cid67" unicode="b" horiz-adv-x="435" 
d="M55 -42h325v569h-245v218h-80v-787zM300 450v-415h-165v415h165z" />
    <glyph glyph-name="cid68" unicode="c" horiz-adv-x="337" 
d="M297 35h-162v415h162v77h-242v-569h242v77z" />
    <glyph glyph-name="cid69" unicode="d" horiz-adv-x="435" 
d="M380 -42v787h-80v-218h-245v-569h325zM135 450h165v-415h-165v415z" />
    <glyph glyph-name="cid70" unicode="e" horiz-adv-x="425" 
d="M282 35h-147v190h245v302h-325v-569h227v77zM300 450v-148h-165v148h165z" />
    <glyph glyph-name="cid71" unicode="f" horiz-adv-x="286" 
d="M256 668v77h-153v-218h-73v-77h73v-492h80v492h73v77h-73v141h73z" />
    <glyph glyph-name="cid72" unicode="g" horiz-adv-x="435" 
d="M380 527h-325v-569h245v-131h-165v-77h245v777zM135 35v415h165v-415h-165z" />
    <glyph glyph-name="cid73" unicode="h" horiz-adv-x="435" 
d="M135 745h-80v-787h80v492h165v-492h80v569h-245v218z" />
    <glyph glyph-name="cid74" unicode="i" horiz-adv-x="200" 
d="M60 527v-569h80v569h-80zM150 642v103h-100v-103h100z" />
    <glyph glyph-name="cid75" unicode="j" horiz-adv-x="202" 
d="M62 527v-700h-87v-77h167v777h-80zM152 642v103h-100v-103h100z" />
    <glyph glyph-name="cid76" unicode="k" horiz-adv-x="430" 
d="M225 276l155 251h-88l-155 -251h-2v469h-80v-787h80v241h165v-241h80v318h-155z" />
    <glyph glyph-name="cid77" unicode="l" horiz-adv-x="190" 
d="M135 745h-80v-787h80v787z" />
    <glyph glyph-name="cid78" unicode="m" horiz-adv-x="580" 
d="M55 527v-569h80v492h115v-492h80v492h115v-492h80v569h-470z" />
    <glyph glyph-name="cid79" unicode="n" horiz-adv-x="415" 
d="M55 527v-569h80v492h145v-492h80v569h-305z" />
    <glyph glyph-name="cid80" unicode="o" horiz-adv-x="435" 
d="M380 -42v569h-325v-569h325zM300 450v-415h-165v415h165z" />
    <glyph glyph-name="cid81" unicode="p" horiz-adv-x="435" 
d="M55 527v-777h80v208h245v569h-325zM300 450v-415h-165v415h165z" />
    <glyph glyph-name="cid82" unicode="q" horiz-adv-x="435" 
d="M380 527h-325v-569h245v-208h80v777zM300 450v-415h-165v415h165z" />
    <glyph glyph-name="cid83" unicode="r" horiz-adv-x="304" 
d="M269 450v77h-214v-569h80v492h134z" />
    <glyph glyph-name="cid84" unicode="s" horiz-adv-x="385" 
d="M335 -42v242l-205 144v106l205 -1v78h-285v-224l205 -144v-124h-205v-77h285z" />
    <glyph glyph-name="cid85" unicode="t" horiz-adv-x="306" 
d="M30 450h83v-492h163v77h-83v415h83v77h-83v169h-80v-169h-83v-77z" />
    <glyph glyph-name="cid86" unicode="u" horiz-adv-x="415" 
d="M280 527v-492h-145v492h-80v-569h305v569h-80z" />
    <glyph glyph-name="cid87" unicode="v" horiz-adv-x="404" 
d="M354 107v420h-80v-395l-71 -88h-2l-71 88v395h-80v-420l120 -149h64z" />
    <glyph glyph-name="cid88" unicode="w" horiz-adv-x="580" 
d="M525 -42v569h-80v-492h-115v492h-80v-492h-115v492h-80v-569h470z" />
    <glyph glyph-name="cid89" unicode="x" horiz-adv-x="382" 
d="M332 134l-92 114l92 115v164h-80v-144l-60 -75h-2l-60 75v144h-80v-164l92 -115l-92 -114v-176h80v156l60 75h2l60 -75v-156h80v176z" />
    <glyph glyph-name="cid90" unicode="y" horiz-adv-x="435" 
d="M300 35h-165v492h-80v-569h245v-131h-165v-77h245v777h-80v-492z" />
    <glyph glyph-name="cid91" unicode="z" horiz-adv-x="355" 
d="M50 -42h255v77h-175v124l175 154v214h-255v-77h175v-106l-175 -154v-232z" />
    <glyph glyph-name="cid92" unicode="{" horiz-adv-x="313" 
d="M159 405q0 -35 -10 -51.5t-35 -24.5q25 -8 35 -23.5t10 -50.5v-214q0 -23 6.5 -35t34.5 -12h63v-80h-69q-58 0 -88 30t-30 96v211q0 38 -46 38v81q46 0 46 38v231q0 66 30 96t88 30h69v-80h-63q-28 0 -34.5 -12t-6.5 -35v-233z" />
    <glyph glyph-name="cid93" unicode="|" horiz-adv-x="223" 
d="M70 -173h83v958h-83v-958z" />
    <glyph glyph-name="cid94" unicode="}" horiz-adv-x="313" 
d="M154 638q0 23 -6.5 35t-34.5 12h-63v80h69q58 0 88 -30t30 -96v-231q0 -38 46 -38v-81q-46 0 -46 -38v-211q0 -66 -30 -96t-88 -30h-69v80h63q28 0 34.5 12t6.5 35v214q0 35 10 50.5t35 23.5q-25 8 -35 24.5t-10 51.5v233z" />
    <glyph glyph-name="cid95" unicode="~" horiz-adv-x="514" 
d="M217 209h247v211h-80v-134h-87v164h-247v-211h80v134h87v-164z" />
    <glyph glyph-name="cid96" unicode="&#xa2;" horiz-adv-x="337" 
d="M297 135h-162v415h162v77h-78v100h-72v-100h-92v-569h92v-100h72v100h78v77z" />
    <glyph glyph-name="cid97" unicode="&#xa3;" horiz-adv-x="534" 
d="M119 745v-360h-79v-75h79v-272h-79v-80h434v80h-272v272h150v75h-150v280h169v-151h83v231h-335z" />
    <glyph glyph-name="cid98" unicode="&#xa4;" horiz-adv-x="570" 
d="M51 329q0 -37 10 -69.5t28 -59.5l-73 -73l58 -57l72 72q55 -40 131 -40q37 0 70.5 10.5t60.5 30.5l74 -73l58 57l-75 75q17 27 27 59.5t10 67.5q0 36 -10.5 69t-29.5 60l77 77l-57 58l-77 -77q-28 19 -60 29.5t-68 10.5q-72 0 -128 -39l-75 76l-57 -58l74 -75
q-40 -57 -40 -131zM427 329q0 -32 -11.5 -59.5t-32 -47.5t-48 -31.5t-58.5 -11.5q-32 0 -59 11.5t-46.5 31.5t-31 47.5t-11.5 59.5t11.5 59.5t31 47.5t46.5 31.5t59 11.5q31 0 58.5 -11.5t48 -31.5t32 -47.5t11.5 -59.5z" />
    <glyph glyph-name="cid99" unicode="&#xa5;" horiz-adv-x="450" 
d="M226 428h-2l-91 138v179h-83v-197l68 -105h-68v-75h117l17 -25v-40h-134v-75h134v-270h83v270h133v75h-133v41l15 24h118v75h-69l69 105v197h-83v-179z" />
    <glyph glyph-name="cid22482" unicode="&#xa7;" 
d="M419 227v224l-205 144v44h205v77h-285v-162l88 -62l-88 -43v-224l205 -144v-44h-205v-77h285v162l-88 62zM339 410v-141l-77 -37l-48 34v141l76 37z" />
    <glyph glyph-name="cid100" unicode="&#xa9;" horiz-adv-x="982" 
d="M491 785q-95 0 -177.5 -35t-143 -96t-95.5 -144t-35 -179t34.5 -178.5t95.5 -144t143 -96.5t178 -35q94 0 176.5 35t143.5 96.5t96 144t35 178.5t-35 179t-96 144t-143.5 96t-176.5 35zM491 -95q-88 0 -164.5 33t-133.5 91t-90 135.5t-33 166.5q0 90 33 167.5t90 134.5
t133.5 90t164.5 33t164.5 -32.5t133.5 -90t90 -135t33 -167.5t-33 -168t-90 -135t-133.5 -90t-164.5 -33zM595 112h-149v439h149v56h-208v-551h208v56z" />
    <glyph glyph-name="cid11878" unicode="&#xab;" horiz-adv-x="535" 
d="M280 523v124l-220 -263v-86l220 -263v124l-152 182zM475 523v124l-220 -263v-86l220 -263v124l-152 182z" />
    <glyph glyph-name="cid101" unicode="&#xae;" horiz-adv-x="531" 
d="M40 558q0 -48 17.5 -89t47.5 -72t71.5 -48.5t89.5 -17.5q47 0 88 17.5t71.5 48.5t48 72t17.5 89t-17.5 89.5t-48 72t-71.5 48t-88 17.5q-48 0 -89 -17.5t-71.5 -48t-48 -72t-17.5 -89.5zM67 558q0 43 15.5 79.5t42.5 63.5t63 42.5t78 15.5t78 -15.5t63 -42.5t42.5 -63.5
t15.5 -79.5t-15.5 -79.5t-42.5 -63.5t-63 -42.5t-78 -15.5t-78 15.5t-63 43t-42.5 64t-15.5 78.5zM229 554l73 -134h34l-73 134h73v142h-138v-276h30v134h1zM306 583h-78v84h78v-84z" />
    <glyph glyph-name="cid102" unicode="&#xb0;" horiz-adv-x="258" 
d="M100 725h58v-58h-58v58zM50 617h158v158h-158v-158z" />
    <glyph glyph-name="cid103" unicode="&#xb1;" horiz-adv-x="497" 
d="M288 548h-80v-149h-148v-80h148v-148h80v148h149v80h-149v149zM437 -42v80h-377v-80h377z" />
    <glyph glyph-name="cid11880" unicode="&#xb2;" horiz-adv-x="371" 
d="M242 582l-172 -96v-227h236v67h-167v123l172 96v225h-241v-150h69v83h103v-121z" />
    <glyph glyph-name="cid11881" unicode="&#xb3;" horiz-adv-x="374" 
d="M135 485h120v-159h-116v83h-69v-150h254v294h-61v217h-193v-150h69v83h55v-150h-59v-68z" />
    <glyph glyph-name="cid104" unicode="&#xb6;" horiz-adv-x="551" 
d="M471 716h-421v-479h224v-277h75v684h45v-684h77v756z" />
    <glyph glyph-name="cid105" unicode="&#xb7;" horiz-adv-x="218" 
d="M60 290h98v98h-98v-98z" />
    <glyph glyph-name="cid11882" unicode="&#xb9;" horiz-adv-x="349" 
d="M60 326v-67h244v67h-90v444h-154v-67h85v-377h-85z" />
    <glyph glyph-name="cid11883" unicode="&#xbb;" horiz-adv-x="535" 
d="M255 523l152 -182l-152 -182v-124l220 263v86l-220 263v-124zM60 523l152 -182l-152 -182v-124l220 263v86l-220 263v-124z" />
    <glyph glyph-name="cid11884" unicode="&#xbc;" horiz-adv-x="760" 
d="M440 99h159v-141h69v141h47v67h-47v303h-91l-137 -222v-148zM303 -42l249 812h-69l-249 -812h69zM45 326v-67h244v67h-90v444h-154v-67h85v-377h-85zM509 166v68l90 146v-214h-90z" />
    <glyph glyph-name="cid11885" unicode="&#xbd;" horiz-adv-x="760" 
d="M657 281l-172 -96v-227h236v67h-167v123l172 96v225h-241v-150h69v83h103v-121zM283 -42l249 812h-69l-249 -812h69zM25 326v-67h244v67h-90v444h-154v-67h85v-377h-85z" />
    <glyph glyph-name="cid11886" unicode="&#xbe;" horiz-adv-x="760" 
d="M440 99h159v-141h69v141h47v67h-47v303h-91l-137 -222v-148zM105 485h120v-159h-116v83h-69v-150h254v294h-61v217h-193v-150h69v83h55v-150h-59v-68zM308 -42l249 812h-69l-249 -812h69zM509 166v68l90 146v-214h-90z" />
    <glyph glyph-name="cid106" unicode="&#xd7;" horiz-adv-x="497" 
d="M120 540l-52 -53l129 -128l-128 -128l52 -53l128 128l128 -128l52 53l-128 128l129 128l-52 53l-129 -129z" />
    <glyph glyph-name="cid107" unicode="&#xf7;" horiz-adv-x="497" 
d="M60 399v-80h377v80h-377zM204 151h88v88h-88v-88zM204 480h88v88h-88v-88z" />
    <glyph glyph-name="cid108" unicode="&#x2002;" horiz-adv-x="276" 
 />
    <glyph glyph-name="cid109" unicode="&#x2003;" 
 />
    <glyph glyph-name="cid110" unicode="&#x2004;" horiz-adv-x="184" 
 />
    <glyph glyph-name="cid111" unicode="&#x2005;" horiz-adv-x="138" 
 />
    <glyph glyph-name="cid112" unicode="&#x2006;" horiz-adv-x="92" 
 />
    <glyph glyph-name="cid113" unicode="&#x2007;" horiz-adv-x="387" 
 />
    <glyph glyph-name="cid114" unicode="&#x2009;" horiz-adv-x="69" 
 />
    <glyph glyph-name="cid115" unicode="&#x200a;" horiz-adv-x="34" 
 />
    <glyph glyph-name="cid116" unicode="&#x2012;" horiz-adv-x="387" 
d="M327 319v80h-267v-80h267z" />
    <glyph glyph-name="cid117" unicode="&#x2013;" horiz-adv-x="654" 
d="M594 319v80h-534v-80h534z" />
    <glyph glyph-name="cid118" unicode="&#x2014;" horiz-adv-x="921" 
d="M861 319v80h-801v-80h801z" />
    <glyph glyph-name="cid119" unicode="&#x2015;" 
d="M512 319v80h-472v-80h472z" />
    <glyph glyph-name="cid11895" unicode="&#x2016;" horiz-adv-x="366" 
d="M70 -173h83v958h-83v-958zM213 -173h83v958h-83v-958z" />
    <glyph glyph-name="cid120" unicode="&#x2018;" horiz-adv-x="218" 
d="M163 775h-68l-50 -198h98z" />
    <glyph glyph-name="cid121" unicode="&#x2019;" horiz-adv-x="218" 
d="M55 577h68l50 198h-98z" />
    <glyph glyph-name="cid122" unicode="&#x201c;" horiz-adv-x="341" 
d="M163 775h-68l-50 -198h98zM286 775h-68l-50 -198h98z" />
    <glyph glyph-name="cid123" unicode="&#x201d;" horiz-adv-x="341" 
d="M178 577h68l50 198h-98zM55 577h68l50 198h-98z" />
    <glyph glyph-name="cid124" unicode="&#x2020;" 
d="M98 527v-80h138v-487h80v487h138v80h-138v189h-80v-189h-138z" />
    <glyph glyph-name="cid125" unicode="&#x2021;" 
d="M98 527v-80h138v-214h-138v-80h138v-193h80v193h138v80h-138v214h138v80h-138v189h-80v-189h-138z" />
    <glyph glyph-name="cid126" unicode="&#x2022;" horiz-adv-x="258" 
d="M60 270h138v138h-138v-138z" />
    <glyph glyph-name="cid127" unicode="&#x2023;" horiz-adv-x="258" 
d="M60 438v-198l158 99z" />
    <glyph glyph-name="cid128" unicode="&#x2025;" 
d="M100 290h98v98h-98v-98zM354 290h98v98h-98v-98z" />
    <glyph glyph-name="cid129" unicode="&#x2026;" horiz-adv-x="614" 
d="M60 -67h98v98h-98v-98zM268 -67h98v98h-98v-98zM466 -67h98v98h-98v-98z" />
    <glyph glyph-name="cid11896" unicode="&#x2030;" horiz-adv-x="957" 
d="M606 -42v305h-231v-305h231zM60 440h231v305h-231v-305zM897 -42v305h-231v-305h231zM159 -42l435 787h-89l-435 -787h89zM138 670h75v-155h-75v155zM819 188v-155h-75v155h75zM528 188v-155h-75v155h75z" />
    <glyph glyph-name="cid130" unicode="&#x2032;" horiz-adv-x="218" 
d="M55 577h68l50 198h-98z" />
    <glyph glyph-name="cid131" unicode="&#x2033;" horiz-adv-x="341" 
d="M178 577h68l50 198h-98zM55 577h68l50 198h-98z" />
    <glyph glyph-name="cid132" unicode="&#x203b;" 
d="M100 -72l176 353l176 -353h62l-207 415l203 408h-62l-172 -346l-172 346h-62l203 -408l-207 -415h62zM227 -72h98v98h-98v-98zM412 290h98v98h-98v-98zM42 290h98v98h-98v-98zM227 653h98v98h-98v-98z" />
    <glyph glyph-name="cid11899" unicode="&#x2044;" horiz-adv-x="40" 
d="M-69 -42l249 812h-69l-249 -812h69z" />
    <glyph glyph-name="cid11903" unicode="&#x2070;" horiz-adv-x="424" 
d="M85 770v-511h254v511h-254zM154 326v83l116 134v-217h-116zM154 703h116v-68l-116 -134v202z" />
    <glyph glyph-name="cid11904" unicode="&#x2074;" horiz-adv-x="365" 
d="M50 400h159v-141h69v141h47v67h-47v303h-91l-137 -222v-148zM119 467v68l90 146v-214h-90z" />
    <glyph glyph-name="cid11905" unicode="&#x2075;" horiz-adv-x="384" 
d="M70 409v-150h254v294h-185v150h116v67h-185v-284h185v-160h-116v83h-69z" />
    <glyph glyph-name="cid11906" unicode="&#x2076;" horiz-adv-x="419" 
d="M85 770v-511h254v294h-185v150h116v67h-185zM270 486v-160h-116v160h116z" />
    <glyph glyph-name="cid11907" unicode="&#x2077;" horiz-adv-x="354" 
d="M235 586l-133 -73v-254h69v222l133 73v216h-254v-150h69v83h116v-117z" />
    <glyph glyph-name="cid11908" unicode="&#x2078;" horiz-adv-x="411" 
d="M326 770h-197v-228h-69v-283h266v511zM257 475v-149h-128v149h128zM257 542h-59v161h59v-161z" />
    <glyph glyph-name="cid11909" unicode="&#x2079;" horiz-adv-x="399" 
d="M245 477v-151h-116v-67h185v511h-254v-293h185zM129 703h116v-159h-116v159z" />
    <glyph glyph-name="cid11910" unicode="&#x207f;" horiz-adv-x="433" 
d="M348 259v511h-263v-511h69v444h125v-444h69z" />
    <glyph glyph-name="cid11911" unicode="&#x2080;" horiz-adv-x="424" 
d="M85 469v-511h254v511h-254zM154 25v83l116 134v-217h-116zM154 402h116v-68l-116 -134v202z" />
    <glyph glyph-name="cid11912" unicode="&#x2081;" horiz-adv-x="349" 
d="M60 25v-67h244v67h-90v444h-154v-67h85v-377h-85z" />
    <glyph glyph-name="cid11913" unicode="&#x2082;" horiz-adv-x="371" 
d="M242 281l-172 -96v-227h236v67h-167v123l172 96v225h-241v-150h69v83h103v-121z" />
    <glyph glyph-name="cid11914" unicode="&#x2083;" horiz-adv-x="374" 
d="M135 184h120v-159h-116v83h-69v-150h254v294h-61v217h-193v-150h69v83h55v-150h-59v-68z" />
    <glyph glyph-name="cid11915" unicode="&#x2084;" horiz-adv-x="365" 
d="M50 99h159v-141h69v141h47v67h-47v303h-91l-137 -222v-148zM119 166v68l90 146v-214h-90z" />
    <glyph glyph-name="cid11916" unicode="&#x2085;" horiz-adv-x="384" 
d="M70 108v-150h254v294h-185v150h116v67h-185v-284h185v-160h-116v83h-69z" />
    <glyph glyph-name="cid11917" unicode="&#x2086;" horiz-adv-x="419" 
d="M85 469v-511h254v294h-185v150h116v67h-185zM270 185v-160h-116v160h116z" />
    <glyph glyph-name="cid11918" unicode="&#x2087;" horiz-adv-x="354" 
d="M235 285l-133 -73v-254h69v222l133 73v216h-254v-150h69v83h116v-117z" />
    <glyph glyph-name="cid11919" unicode="&#x2088;" horiz-adv-x="411" 
d="M326 469h-197v-228h-69v-283h266v511zM257 174v-149h-128v149h128zM257 241h-59v161h59v-161z" />
    <glyph glyph-name="cid11920" unicode="&#x2089;" horiz-adv-x="399" 
d="M245 176v-151h-116v-67h185v511h-254v-293h185zM129 402h116v-159h-116v159z" />
    <glyph glyph-name="cid133" unicode="&#x20a9;" horiz-adv-x="711" 
d="M314 38h-111v707h-83v-285h-80v-75h80v-427h471v427h80v75h-80v285h-83v-707h-111v347h-83v-347z" />
    <glyph glyph-name="cid134" unicode="&#x20ac;" horiz-adv-x="427" 
d="M319 327h-146v64h146v80h-146v194h214v80h-297v-274h-80v-80h80v-64h-80v-80h80v-289h297v80h-214v209h146v80z" />
    <glyph glyph-name="cid137" unicode="&#x2122;" horiz-adv-x="644" 
d="M472 504v206h58v-413h64v473h-309v-473h64v413h59v-206h64zM20 710h75v-413h64v413h75v60h-214v-60z" />
    <glyph glyph-name="cid148" unicode="&#x2212;" horiz-adv-x="654" 
d="M594 319v80h-534v-80h534z" />
    <glyph glyph-name="cid11979" unicode="&#x2252;" horiz-adv-x="497" 
d="M60 499v-80h377v80h-377zM60 299v-80h377v80h-377zM117 564h88v88h-88v-88zM292 66h88v88h-88v-88z" />
    <glyph glyph-name="cid149" unicode="&#x2260;" horiz-adv-x="497" 
d="M60 299v-80h105l-41 -113l55 -22l49 135h209v80h-180l43 120h137v80h-108l41 112l-55 23l-49 -135h-206v-80h177l-43 -120h-134z" />
    <glyph glyph-name="cid150" unicode="&#x2264;" horiz-adv-x="341" 
d="M280 647l-220 -243v-86l220 -243v118l-152 168l152 168v118zM60 38v-80h221v80h-221z" />
    <glyph glyph-name="cid151" unicode="&#x2265;" horiz-adv-x="341" 
d="M61 647v-118l152 -168l-152 -168v-118l220 243v86zM281 38h-221v-80h221v80z" />
    <glyph glyph-name="cid158" unicode="&#x2329;" horiz-adv-x="400" 
d="M274 -102h86l-230 442l230 441h-86l-230 -441z" />
    <glyph glyph-name="cid158" unicode="&#x3008;" horiz-adv-x="400" 
d="M274 -102h86l-230 442l230 441h-86l-230 -441z" />
    <glyph glyph-name="cid159" unicode="&#x232a;" horiz-adv-x="400" 
d="M356 340l-230 441h-86l230 -441l-230 -442h86z" />
    <glyph glyph-name="cid159" unicode="&#x3009;" horiz-adv-x="400" 
d="M356 340l-230 441h-86l230 -441l-230 -442h86z" />
    <glyph glyph-name="cid11451" unicode="&#x2460;" 
d="M522 564q0 49 -19.5 90t-53 70t-78.5 45t-95 16q-51 0 -96 -16t-78 -45t-52.5 -70t-19.5 -90v-466q0 -50 19.5 -90.5t52.5 -69.5t78 -45t96 -16q50 0 95 16t78.5 45t53 69.5t19.5 90.5v466zM492 98q0 -45 -16.5 -80t-45 -60t-68.5 -38t-86 -13q-47 0 -87 13t-68.5 38
t-44.5 60t-16 80v466q0 45 16 80t44.5 60t68.5 38t87 13q46 0 86 -13t68.5 -38t45 -60t16.5 -80v-466zM151 112v-56h263v56h-104v495h-159v-56h101v-439h-101z" />
    <glyph glyph-name="cid11452" unicode="&#x2461;" 
d="M522 564q0 49 -19.5 90t-53 70t-78.5 45t-95 16q-51 0 -96 -16t-78 -45t-52.5 -70t-19.5 -90v-466q0 -50 19.5 -90.5t52.5 -69.5t78 -45t96 -16q50 0 95 16t78.5 45t53 69.5t19.5 90.5v466zM492 98q0 -45 -16.5 -80t-45 -60t-68.5 -38t-86 -13q-47 0 -87 13t-68.5 38
t-44.5 60t-16 80v466q0 45 16 80t44.5 60t68.5 38t87 13q46 0 86 -13t68.5 -38t45 -60t16.5 -80v-466zM342 408l-191 -102v-250h249v56h-190v160l190 103v232h-249v-162h59v106h132v-143z" />
    <glyph glyph-name="cid11453" unicode="&#x2462;" 
d="M522 564q0 49 -19.5 90t-53 70t-78.5 45t-95 16q-51 0 -96 -16t-78 -45t-52.5 -70t-19.5 -90v-466q0 -50 19.5 -90.5t52.5 -69.5t78 -45t96 -16q50 0 95 16t78.5 45t53 69.5t19.5 90.5v466zM492 98q0 -45 -16.5 -80t-45 -60t-68.5 -38t-86 -13q-47 0 -87 13t-68.5 38
t-44.5 60t-16 80v466q0 45 16 80t44.5 60t68.5 38t87 13q46 0 86 -13t68.5 -38t45 -60t16.5 -80v-466zM215 309h139v-197h-146v106h-59v-162h263v309h-65v242h-198v-162h59v106h81v-186h-74v-56z" />
    <glyph glyph-name="cid11454" unicode="&#x2463;" 
d="M522 564q0 49 -19.5 90t-53 70t-78.5 45t-95 16q-51 0 -96 -16t-78 -45t-52.5 -70t-19.5 -90v-466q0 -50 19.5 -90.5t52.5 -69.5t78 -45t96 -16q50 0 95 16t78.5 45t53 69.5t19.5 90.5v466zM492 98q0 -45 -16.5 -80t-45 -60t-68.5 -38t-86 -13q-47 0 -87 13t-68.5 38
t-44.5 60t-16 80v466q0 45 16 80t44.5 60t68.5 38t87 13q46 0 86 -13t68.5 -38t45 -60t16.5 -80v-466zM130 219h177v-163h58v163h56v56h-56v332h-81l-154 -232v-156zM189 359l118 180v-264h-118v84z" />
    <glyph glyph-name="cid11455" unicode="&#x2464;" 
d="M522 564q0 49 -19.5 90t-53 70t-78.5 45t-95 16q-51 0 -96 -16t-78 -45t-52.5 -70t-19.5 -90v-466q0 -50 19.5 -90.5t52.5 -69.5t78 -45t96 -16q50 0 95 16t78.5 45t53 69.5t19.5 90.5v466zM492 98q0 -45 -16.5 -80t-45 -60t-68.5 -38t-86 -13q-47 0 -87 13t-68.5 38
t-44.5 60t-16 80v466q0 45 16 80t44.5 60t68.5 38t87 13q46 0 86 -13t68.5 -38t45 -60t16.5 -80v-466zM145 218v-162h263v309h-204v186h135v56h-194v-298h205v-197h-146v106h-59z" />
    <glyph glyph-name="cid11456" unicode="&#x2465;" 
d="M522 564q0 49 -19.5 90t-53 70t-78.5 45t-95 16q-51 0 -96 -16t-78 -45t-52.5 -70t-19.5 -90v-466q0 -50 19.5 -90.5t52.5 -69.5t78 -45t96 -16q50 0 95 16t78.5 45t53 69.5t19.5 90.5v466zM492 98q0 -45 -16.5 -80t-45 -60t-68.5 -38t-86 -13q-47 0 -87 13t-68.5 38
t-44.5 60t-16 80v466q0 45 16 80t44.5 60t68.5 38t87 13q46 0 86 -13t68.5 -38t45 -60t16.5 -80v-466zM408 365h-204v186h135v56h-194v-551h263v309zM350 309v-197h-146v197h146z" />
    <glyph glyph-name="cid11457" unicode="&#x2466;" 
d="M522 564q0 49 -19.5 90t-53 70t-78.5 45t-95 16q-51 0 -96 -16t-78 -45t-52.5 -70t-19.5 -90v-466q0 -50 19.5 -90.5t52.5 -69.5t78 -45t96 -16q50 0 95 16t78.5 45t53 69.5t19.5 90.5v466zM492 98q0 -45 -16.5 -80t-45 -60t-68.5 -38t-86 -13q-47 0 -87 13t-68.5 38
t-44.5 60t-16 80v466q0 45 16 80t44.5 60t68.5 38t87 13q46 0 86 -13t68.5 -38t45 -60t16.5 -80v-466zM351 408l-146 -78v-274h58v240l146 79v232h-263v-162h59v106h146v-143z" />
    <glyph glyph-name="cid11458" unicode="&#x2467;" 
d="M522 564q0 49 -19.5 90t-53 70t-78.5 45t-95 16q-51 0 -96 -16t-78 -45t-52.5 -70t-19.5 -90v-466q0 -50 19.5 -90.5t52.5 -69.5t78 -45t96 -16q50 0 95 16t78.5 45t53 69.5t19.5 90.5v466zM492 98q0 -45 -16.5 -80t-45 -60t-68.5 -38t-86 -13q-47 0 -87 13t-68.5 38
t-44.5 60t-16 80v466q0 45 16 80t44.5 60t68.5 38t87 13q46 0 86 -13t68.5 -38t45 -60t16.5 -80v-466zM414 607h-201v-253h-76v-298h277v551zM356 298v-186h-160v186h160zM356 354h-85v197h85v-197z" />
    <glyph glyph-name="cid11459" unicode="&#x2468;" 
d="M522 564q0 49 -19.5 90t-53 70t-78.5 45t-95 16q-51 0 -96 -16t-78 -45t-52.5 -70t-19.5 -90v-466q0 -50 19.5 -90.5t52.5 -69.5t78 -45t96 -16q50 0 95 16t78.5 45t53 69.5t19.5 90.5v466zM492 98q0 -45 -16.5 -80t-45 -60t-68.5 -38t-86 -13q-47 0 -87 13t-68.5 38
t-44.5 60t-16 80v466q0 45 16 80t44.5 60t68.5 38t87 13q46 0 86 -13t68.5 -38t45 -60t16.5 -80v-466zM349 298v-186h-136v-56h194v551h-263v-309h205zM203 551h146v-197h-146v197z" />
    <glyph glyph-name="cid11460" unicode="&#x2469;" 
d="M522 564q0 49 -19.5 90t-53 70t-78.5 45t-95 16q-51 0 -96 -16t-78 -45t-52.5 -70t-19.5 -90v-466q0 -50 19.5 -90.5t52.5 -69.5t78 -45t96 -16q50 0 95 16t78.5 45t53 69.5t19.5 90.5v466zM492 98q0 -45 -16.5 -80t-45 -60t-68.5 -38t-86 -13q-47 0 -87 13t-68.5 38
t-44.5 60t-16 80v466q0 45 16 80t44.5 60t68.5 38t87 13q46 0 86 -13t68.5 -38t45 -60t16.5 -80v-466zM454 607h-193v-495h-51v495h-119v-56h61v-439h-61v-56h363v551zM396 112h-76v145l76 89v-234zM320 551h76v-128l-76 -89v217z" />
    <glyph glyph-name="cid11461" unicode="&#x246a;" 
d="M522 564q0 49 -19.5 90t-53 70t-78.5 45t-95 16q-51 0 -96 -16t-78 -45t-52.5 -70t-19.5 -90v-466q0 -50 19.5 -90.5t52.5 -69.5t78 -45t96 -16q50 0 95 16t78.5 45t53 69.5t19.5 90.5v466zM492 98q0 -45 -16.5 -80t-45 -60t-68.5 -38t-86 -13q-47 0 -87 13t-68.5 38
t-44.5 60t-16 80v466q0 45 16 80t44.5 60t68.5 38t87 13q46 0 86 -13t68.5 -38t45 -60t16.5 -80v-466zM107 607v-56h61v-439h-61v-56h356v56h-64v495h-119v-56h61v-439h-115v495h-119z" />
    <glyph glyph-name="cid11462" unicode="&#x246b;" 
d="M522 564q0 49 -19.5 90t-53 70t-78.5 45t-95 16q-51 0 -96 -16t-78 -45t-52.5 -70t-19.5 -90v-466q0 -50 19.5 -90.5t52.5 -69.5t78 -45t96 -16q50 0 95 16t78.5 45t53 69.5t19.5 90.5v466zM492 98q0 -45 -16.5 -80t-45 -60t-68.5 -38t-86 -13q-47 0 -87 13t-68.5 38
t-44.5 60t-16 80v466q0 45 16 80t44.5 60t68.5 38t87 13q46 0 86 -13t68.5 -38t45 -60t16.5 -80v-466zM396 404l-135 -102v-190h-51v495h-119v-56h61v-439h-61v-56h363v56h-134v162l134 103v230h-193v-162h59v106h76v-147z" />
    <glyph glyph-name="cid11463" unicode="&#x246c;" 
d="M522 564q0 49 -19.5 90t-53 70t-78.5 45t-95 16q-51 0 -96 -16t-78 -45t-52.5 -70t-19.5 -90v-466q0 -50 19.5 -90.5t52.5 -69.5t78 -45t96 -16q50 0 95 16t78.5 45t53 69.5t19.5 90.5v466zM492 98q0 -45 -16.5 -80t-45 -60t-68.5 -38t-86 -13q-47 0 -87 13t-68.5 38
t-44.5 60t-16 80v466q0 45 16 80t44.5 60t68.5 38t87 13q46 0 86 -13t68.5 -38t45 -60t16.5 -80v-466zM327 309h72v-197h-79v106h-59v-106h-51v495h-119v-56h61v-439h-61v-56h366v309h-43v242h-153v-162h59v106h36v-186h-29v-56z" />
    <glyph glyph-name="cid11464" unicode="&#x246d;" 
d="M522 564q0 49 -19.5 90t-53 70t-78.5 45t-95 16q-51 0 -96 -16t-78 -45t-52.5 -70t-19.5 -90v-466q0 -50 19.5 -90.5t52.5 -69.5t78 -45t96 -16q50 0 95 16t78.5 45t53 69.5t19.5 90.5v466zM492 98q0 -45 -16.5 -80t-45 -60t-68.5 -38t-86 -13q-47 0 -87 13t-68.5 38
t-44.5 60t-16 80v466q0 45 16 80t44.5 60t68.5 38t87 13q46 0 86 -13t68.5 -38t45 -60t16.5 -80v-466zM239 219h127v-163h58v163h41v56h-41v332h-91l-94 -234v-154zM277 112h-67v495h-119v-56h61v-439h-61v-56h186v56zM298 367l68 172v-264h-68v92z" />
    <glyph glyph-name="cid11465" unicode="&#x246e;" 
d="M522 564q0 49 -19.5 90t-53 70t-78.5 45t-95 16q-51 0 -96 -16t-78 -45t-52.5 -70t-19.5 -90v-466q0 -50 19.5 -90.5t52.5 -69.5t78 -45t96 -16q50 0 95 16t78.5 45t53 69.5t19.5 90.5v466zM492 98q0 -45 -16.5 -80t-45 -60t-68.5 -38t-86 -13q-47 0 -87 13t-68.5 38
t-44.5 60t-16 80v466q0 45 16 80t44.5 60t68.5 38t87 13q46 0 86 -13t68.5 -38t45 -60t16.5 -80v-466zM261 218v-106h-51v495h-119v-56h61v-439h-61v-56h363v309h-134v186h85v56h-144v-298h135v-197h-76v106h-59z" />
    <glyph glyph-name="cid11466" unicode="&#x246f;" 
d="M522 564q0 49 -19.5 90t-53 70t-78.5 45t-95 16q-51 0 -96 -16t-78 -45t-52.5 -70t-19.5 -90v-466q0 -50 19.5 -90.5t52.5 -69.5t78 -45t96 -16q50 0 95 16t78.5 45t53 69.5t19.5 90.5v466zM492 98q0 -45 -16.5 -80t-45 -60t-68.5 -38t-86 -13q-47 0 -87 13t-68.5 38
t-44.5 60t-16 80v466q0 45 16 80t44.5 60t68.5 38t87 13q46 0 86 -13t68.5 -38t45 -60t16.5 -80v-466zM454 365h-134v186h75v56h-134v-495h-51v495h-119v-56h61v-439h-61v-56h363v309zM396 309v-197h-76v197h76z" />
    <glyph glyph-name="cid11467" unicode="&#x2470;" 
d="M522 564q0 49 -19.5 90t-53 70t-78.5 45t-95 16q-51 0 -96 -16t-78 -45t-52.5 -70t-19.5 -90v-466q0 -50 19.5 -90.5t52.5 -69.5t78 -45t96 -16q50 0 95 16t78.5 45t53 69.5t19.5 90.5v466zM492 98q0 -45 -16.5 -80t-45 -60t-68.5 -38t-86 -13q-47 0 -87 13t-68.5 38
t-44.5 60t-16 80v466q0 45 16 80t44.5 60t68.5 38t87 13q46 0 86 -13t68.5 -38t45 -60t16.5 -80v-466zM397 408l-92 -109v-243h58v223l92 109v219h-209v-162h59v106h92v-143zM261 112h-51v495h-119v-56h61v-439h-61v-56h170v56z" />
    <glyph glyph-name="cid11468" unicode="&#x2471;" 
d="M522 564q0 49 -19.5 90t-53 70t-78.5 45t-95 16q-51 0 -96 -16t-78 -45t-52.5 -70t-19.5 -90v-466q0 -50 19.5 -90.5t52.5 -69.5t78 -45t96 -16q50 0 95 16t78.5 45t53 69.5t19.5 90.5v466zM492 98q0 -45 -16.5 -80t-45 -60t-68.5 -38t-86 -13q-47 0 -87 13t-68.5 38
t-44.5 60t-16 80v466q0 45 16 80t44.5 60t68.5 38t87 13q46 0 86 -13t68.5 -38t45 -60t16.5 -80v-466zM454 56v551h-163v-253h-40v-242h-41v495h-119v-56h61v-439h-61v-56h363zM310 298h86v-186h-86v186zM395 354h-45v197h45v-197z" />
    <glyph glyph-name="cid11469" unicode="&#x2472;" 
d="M522 564q0 49 -19.5 90t-53 70t-78.5 45t-95 16q-51 0 -96 -16t-78 -45t-52.5 -70t-19.5 -90v-466q0 -50 19.5 -90.5t52.5 -69.5t78 -45t96 -16q50 0 95 16t78.5 45t53 69.5t19.5 90.5v466zM492 98q0 -45 -16.5 -80t-45 -60t-68.5 -38t-86 -13q-47 0 -87 13t-68.5 38
t-44.5 60t-16 80v466q0 45 16 80t44.5 60t68.5 38t87 13q46 0 86 -13t68.5 -38t45 -60t16.5 -80v-466zM396 298v-186h-76v-56h134v551h-193v-309h135zM277 112h-67v495h-119v-56h61v-439h-61v-56h186v56zM320 551h76v-197h-76v197z" />
    <glyph glyph-name="cid11470" unicode="&#x2473;" 
d="M522 564q0 49 -19.5 90t-53 70t-78.5 45t-95 16q-51 0 -96 -16t-78 -45t-52.5 -70t-19.5 -90v-466q0 -50 19.5 -90.5t52.5 -69.5t78 -45t96 -16q50 0 95 16t78.5 45t53 69.5t19.5 90.5v466zM492 98q0 -45 -16.5 -80t-45 -60t-68.5 -38t-86 -13q-47 0 -87 13t-68.5 38
t-44.5 60t-16 80v466q0 45 16 80t44.5 60t68.5 38t87 13q46 0 86 -13t68.5 -38t45 -60t16.5 -80v-466zM284 56h173v551h-173v-551zM199 400l-105 -104v-240h163v56h-104v162l104 103v230h-163v-162h59v106h46v-151zM399 112h-56v157l56 55v-212zM343 551h56v-146l-56 -56
v202z" />
    <glyph glyph-name="cid11537" unicode="&#x24b6;" 
d="M522 564q0 49 -19.5 90t-53 70t-78.5 45t-95 16q-51 0 -96 -16t-78 -45t-52.5 -70t-19.5 -90v-466q0 -50 19.5 -90.5t52.5 -69.5t78 -45t96 -16q50 0 95 16t78.5 45t53 69.5t19.5 90.5v466zM492 98q0 -45 -16.5 -80t-45 -60t-68.5 -38t-86 -13q-47 0 -87 13t-68.5 38
t-44.5 60t-16 80v466q0 45 16 80t44.5 60t68.5 38t87 13q46 0 86 -13t68.5 -38t45 -60t16.5 -80v-466zM153 607v-551h59v242h128v-242h59v551h-246zM212 551h128v-197h-128v197z" />
    <glyph glyph-name="cid11538" unicode="&#x24b7;" 
d="M522 564q0 49 -19.5 90t-53 70t-78.5 45t-95 16q-51 0 -96 -16t-78 -45t-52.5 -70t-19.5 -90v-466q0 -50 19.5 -90.5t52.5 -69.5t78 -45t96 -16q50 0 95 16t78.5 45t53 69.5t19.5 90.5v466zM492 98q0 -45 -16.5 -80t-45 -60t-68.5 -38t-86 -13q-47 0 -87 13t-68.5 38
t-44.5 60t-16 80v466q0 45 16 80t44.5 60t68.5 38t87 13q46 0 86 -13t68.5 -38t45 -60t16.5 -80v-466zM150 607v-551h263v298h-69v253h-194zM355 112h-146v186h146v-186zM286 354h-77v197h77v-197z" />
    <glyph glyph-name="cid11539" unicode="&#x24b8;" 
d="M522 564q0 49 -19.5 90t-53 70t-78.5 45t-95 16q-51 0 -96 -16t-78 -45t-52.5 -70t-19.5 -90v-466q0 -50 19.5 -90.5t52.5 -69.5t78 -45t96 -16q50 0 95 16t78.5 45t53 69.5t19.5 90.5v466zM492 98q0 -45 -16.5 -80t-45 -60t-68.5 -38t-86 -13q-47 0 -87 13t-68.5 38
t-44.5 60t-16 80v466q0 45 16 80t44.5 60t68.5 38t87 13q46 0 86 -13t68.5 -38t45 -60t16.5 -80v-466zM379 112h-149v439h149v56h-208v-551h208v56z" />
    <glyph glyph-name="cid11540" unicode="&#x24b9;" 
d="M522 564q0 49 -19.5 90t-53 70t-78.5 45t-95 16q-51 0 -96 -16t-78 -45t-52.5 -70t-19.5 -90v-466q0 -50 19.5 -90.5t52.5 -69.5t78 -45t96 -16q50 0 95 16t78.5 45t53 69.5t19.5 90.5v466zM492 98q0 -45 -16.5 -80t-45 -60t-68.5 -38t-86 -13q-47 0 -87 13t-68.5 38
t-44.5 60t-16 80v466q0 45 16 80t44.5 60t68.5 38t87 13q46 0 86 -13t68.5 -38t45 -60t16.5 -80v-466zM410 476l-132 131h-131v-551h263v420zM206 551h49l97 -97v-342h-146v439z" />
    <glyph glyph-name="cid11541" unicode="&#x24ba;" 
d="M522 564q0 49 -19.5 90t-53 70t-78.5 45t-95 16q-51 0 -96 -16t-78 -45t-52.5 -70t-19.5 -90v-466q0 -50 19.5 -90.5t52.5 -69.5t78 -45t96 -16q50 0 95 16t78.5 45t53 69.5t19.5 90.5v466zM492 98q0 -45 -16.5 -80t-45 -60t-68.5 -38t-86 -13q-47 0 -87 13t-68.5 38
t-44.5 60t-16 80v466q0 45 16 80t44.5 60t68.5 38t87 13q46 0 86 -13t68.5 -38t45 -60t16.5 -80v-466zM173 56h208v56h-150v197h143v56h-143v186h150v56h-208v-551z" />
    <glyph glyph-name="cid11542" unicode="&#x24bb;" 
d="M522 564q0 49 -19.5 90t-53 70t-78.5 45t-95 16q-51 0 -96 -16t-78 -45t-52.5 -70t-19.5 -90v-466q0 -50 19.5 -90.5t52.5 -69.5t78 -45t96 -16q50 0 95 16t78.5 45t53 69.5t19.5 90.5v466zM492 98q0 -45 -16.5 -80t-45 -60t-68.5 -38t-86 -13q-47 0 -87 13t-68.5 38
t-44.5 60t-16 80v466q0 45 16 80t44.5 60t68.5 38t87 13q46 0 86 -13t68.5 -38t45 -60t16.5 -80v-466zM173 56h58v253h143v56h-143v186h150v56h-208v-551z" />
    <glyph glyph-name="cid11543" unicode="&#x24bc;" 
d="M522 564q0 49 -19.5 90t-53 70t-78.5 45t-95 16q-51 0 -96 -16t-78 -45t-52.5 -70t-19.5 -90v-466q0 -50 19.5 -90.5t52.5 -69.5t78 -45t96 -16q50 0 95 16t78.5 45t53 69.5t19.5 90.5v466zM492 98q0 -45 -16.5 -80t-45 -60t-68.5 -38t-86 -13q-47 0 -87 13t-68.5 38
t-44.5 60t-16 80v466q0 45 16 80t44.5 60t68.5 38t87 13q46 0 86 -13t68.5 -38t45 -60t16.5 -80v-466zM408 365h-153v-56h95v-197h-146v439h135v56h-194v-551h263v309z" />
    <glyph glyph-name="cid11544" unicode="&#x24bd;" 
d="M522 564q0 49 -19.5 90t-53 70t-78.5 45t-95 16q-51 0 -96 -16t-78 -45t-52.5 -70t-19.5 -90v-466q0 -50 19.5 -90.5t52.5 -69.5t78 -45t96 -16q50 0 95 16t78.5 45t53 69.5t19.5 90.5v466zM492 98q0 -45 -16.5 -80t-45 -60t-68.5 -38t-86 -13q-47 0 -87 13t-68.5 38
t-44.5 60t-16 80v466q0 45 16 80t44.5 60t68.5 38t87 13q46 0 86 -13t68.5 -38t45 -60t16.5 -80v-466zM144 607v-551h59v253h146v-253h58v551h-58v-242h-146v242h-59z" />
    <glyph glyph-name="cid11545" unicode="&#x24be;" 
d="M522 564q0 49 -19.5 90t-53 70t-78.5 45t-95 16q-51 0 -96 -16t-78 -45t-52.5 -70t-19.5 -90v-466q0 -50 19.5 -90.5t52.5 -69.5t78 -45t96 -16q50 0 95 16t78.5 45t53 69.5t19.5 90.5v466zM492 98q0 -45 -16.5 -80t-45 -60t-68.5 -38t-86 -13q-47 0 -87 13t-68.5 38
t-44.5 60t-16 80v466q0 45 16 80t44.5 60t68.5 38t87 13q46 0 86 -13t68.5 -38t45 -60t16.5 -80v-466zM247 56h58v551h-58v-551z" />
    <glyph glyph-name="cid11546" unicode="&#x24bf;" 
d="M522 564q0 49 -19.5 90t-53 70t-78.5 45t-95 16q-51 0 -96 -16t-78 -45t-52.5 -70t-19.5 -90v-466q0 -50 19.5 -90.5t52.5 -69.5t78 -45t96 -16q50 0 95 16t78.5 45t53 69.5t19.5 90.5v466zM492 98q0 -45 -16.5 -80t-45 -60t-68.5 -38t-86 -13q-47 0 -87 13t-68.5 38
t-44.5 60t-16 80v466q0 45 16 80t44.5 60t68.5 38t87 13q46 0 86 -13t68.5 -38t45 -60t16.5 -80v-466zM383 56v551h-206v-56h147v-439h-102v105h-59v-161h220z" />
    <glyph glyph-name="cid11547" unicode="&#x24c0;" 
d="M522 564q0 49 -19.5 90t-53 70t-78.5 45t-95 16q-51 0 -96 -16t-78 -45t-52.5 -70t-19.5 -90v-466q0 -50 19.5 -90.5t52.5 -69.5t78 -45t96 -16q50 0 95 16t78.5 45t53 69.5t19.5 90.5v466zM492 98q0 -45 -16.5 -80t-45 -60t-68.5 -38t-86 -13q-47 0 -87 13t-68.5 38
t-44.5 60t-16 80v466q0 45 16 80t44.5 60t68.5 38t87 13q46 0 86 -13t68.5 -38t45 -60t16.5 -80v-466zM204 354v253h-59v-551h59v242h146v-242h58v298h-138l137 253h-66l-136 -253h-1z" />
    <glyph glyph-name="cid11548" unicode="&#x24c1;" 
d="M522 564q0 49 -19.5 90t-53 70t-78.5 45t-95 16q-51 0 -96 -16t-78 -45t-52.5 -70t-19.5 -90v-466q0 -50 19.5 -90.5t52.5 -69.5t78 -45t96 -16q50 0 95 16t78.5 45t53 69.5t19.5 90.5v466zM492 98q0 -45 -16.5 -80t-45 -60t-68.5 -38t-86 -13q-47 0 -87 13t-68.5 38
t-44.5 60t-16 80v466q0 45 16 80t44.5 60t68.5 38t87 13q46 0 86 -13t68.5 -38t45 -60t16.5 -80v-466zM381 56v56h-135v495h-59v-551h194z" />
    <glyph glyph-name="cid11549" unicode="&#x24c2;" 
d="M522 564q0 49 -19.5 90t-53 70t-78.5 45t-95 16q-51 0 -96 -16t-78 -45t-52.5 -70t-19.5 -90v-466q0 -50 19.5 -90.5t52.5 -69.5t78 -45t96 -16q50 0 95 16t78.5 45t53 69.5t19.5 90.5v466zM492 98q0 -45 -16.5 -80t-45 -60t-68.5 -38t-86 -13q-47 0 -87 13t-68.5 38
t-44.5 60t-16 80v466q0 45 16 80t44.5 60t68.5 38t87 13q46 0 86 -13t68.5 -38t45 -60t16.5 -80v-466zM305 298v253h77v-495h59v551h-330v-551h58v495h78v-253h58z" />
    <glyph glyph-name="cid11550" unicode="&#x24c3;" 
d="M522 564q0 49 -19.5 90t-53 70t-78.5 45t-95 16q-51 0 -96 -16t-78 -45t-52.5 -70t-19.5 -90v-466q0 -50 19.5 -90.5t52.5 -69.5t78 -45t96 -16q50 0 95 16t78.5 45t53 69.5t19.5 90.5v466zM492 98q0 -45 -16.5 -80t-45 -60t-68.5 -38t-86 -13q-47 0 -87 13t-68.5 38
t-44.5 60t-16 80v466q0 45 16 80t44.5 60t68.5 38t87 13q46 0 86 -13t68.5 -38t45 -60t16.5 -80v-466zM349 56h58v551h-58v-146l-146 146h-59v-551h59v471l146 -146v-325z" />
    <glyph glyph-name="cid11551" unicode="&#x24c4;" 
d="M522 564q0 49 -19.5 90t-53 70t-78.5 45t-95 16q-51 0 -96 -16t-78 -45t-52.5 -70t-19.5 -90v-466q0 -50 19.5 -90.5t52.5 -69.5t78 -45t96 -16q50 0 95 16t78.5 45t53 69.5t19.5 90.5v466zM492 98q0 -45 -16.5 -80t-45 -60t-68.5 -38t-86 -13q-47 0 -87 13t-68.5 38
t-44.5 60t-16 80v466q0 45 16 80t44.5 60t68.5 38t87 13q46 0 86 -13t68.5 -38t45 -60t16.5 -80v-466zM407 607h-263v-551h263v551zM203 551h146v-439h-146v439z" />
    <glyph glyph-name="cid11552" unicode="&#x24c5;" 
d="M522 564q0 49 -19.5 90t-53 70t-78.5 45t-95 16q-51 0 -96 -16t-78 -45t-52.5 -70t-19.5 -90v-466q0 -50 19.5 -90.5t52.5 -69.5t78 -45t96 -16q50 0 95 16t78.5 45t53 69.5t19.5 90.5v466zM492 98q0 -45 -16.5 -80t-45 -60t-68.5 -38t-86 -13q-47 0 -87 13t-68.5 38
t-44.5 60t-16 80v466q0 45 16 80t44.5 60t68.5 38t87 13q46 0 86 -13t68.5 -38t45 -60t16.5 -80v-466zM216 260h183v347h-241v-551h58v204zM216 316v235h125v-235h-125z" />
    <glyph glyph-name="cid11553" unicode="&#x24c6;" 
d="M522 564q0 49 -19.5 90t-53 70t-78.5 45t-95 16q-51 0 -96 -16t-78 -45t-52.5 -70t-19.5 -90v-466q0 -50 19.5 -90.5t52.5 -69.5t78 -45t96 -16q50 0 95 16t78.5 45t53 69.5t19.5 90.5v466zM492 98q0 -45 -16.5 -80t-45 -60t-68.5 -38t-86 -13q-47 0 -87 13t-68.5 38
t-44.5 60t-16 80v466q0 45 16 80t44.5 60t68.5 38t87 13q46 0 86 -13t68.5 -38t45 -60t16.5 -80v-466zM306 -14v70h101v551h-263v-551h108v-70h54zM203 551h146v-439h-43v70h-54v-70h-49v439z" />
    <glyph glyph-name="cid11554" unicode="&#x24c7;" 
d="M522 564q0 49 -19.5 90t-53 70t-78.5 45t-95 16q-51 0 -96 -16t-78 -45t-52.5 -70t-19.5 -90v-466q0 -50 19.5 -90.5t52.5 -69.5t78 -45t96 -16q50 0 95 16t78.5 45t53 69.5t19.5 90.5v466zM492 98q0 -45 -16.5 -80t-45 -60t-68.5 -38t-86 -13q-47 0 -87 13t-68.5 38
t-44.5 60t-16 80v466q0 45 16 80t44.5 60t68.5 38t87 13q46 0 86 -13t68.5 -38t45 -60t16.5 -80v-466zM332 56h65l-116 253h116v298h-241v-551h58v253h1zM214 365v186h125v-186h-125z" />
    <glyph glyph-name="cid11555" unicode="&#x24c8;" 
d="M522 564q0 49 -19.5 90t-53 70t-78.5 45t-95 16q-51 0 -96 -16t-78 -45t-52.5 -70t-19.5 -90v-466q0 -50 19.5 -90.5t52.5 -69.5t78 -45t96 -16q50 0 95 16t78.5 45t53 69.5t19.5 90.5v466zM492 98q0 -45 -16.5 -80t-45 -60t-68.5 -38t-86 -13q-47 0 -87 13t-68.5 38
t-44.5 60t-16 80v466q0 45 16 80t44.5 60t68.5 38t87 13q46 0 86 -13t68.5 -38t45 -60t16.5 -80v-466zM210 408v143h132v-106h58v162h-249v-232l191 -103v-160h-132v105h-59v-161h249v250z" />
    <glyph glyph-name="cid11556" unicode="&#x24c9;" 
d="M522 564q0 49 -19.5 90t-53 70t-78.5 45t-95 16q-51 0 -96 -16t-78 -45t-52.5 -70t-19.5 -90v-466q0 -50 19.5 -90.5t52.5 -69.5t78 -45t96 -16q50 0 95 16t78.5 45t53 69.5t19.5 90.5v466zM492 98q0 -45 -16.5 -80t-45 -60t-68.5 -38t-86 -13q-47 0 -87 13t-68.5 38
t-44.5 60t-16 80v466q0 45 16 80t44.5 60t68.5 38t87 13q46 0 86 -13t68.5 -38t45 -60t16.5 -80v-466zM156 551h91v-495h58v495h91v56h-240v-56z" />
    <glyph glyph-name="cid11557" unicode="&#x24ca;" 
d="M522 564q0 49 -19.5 90t-53 70t-78.5 45t-95 16q-51 0 -96 -16t-78 -45t-52.5 -70t-19.5 -90v-466q0 -50 19.5 -90.5t52.5 -69.5t78 -45t96 -16q50 0 95 16t78.5 45t53 69.5t19.5 90.5v466zM492 98q0 -45 -16.5 -80t-45 -60t-68.5 -38t-86 -13q-47 0 -87 13t-68.5 38
t-44.5 60t-16 80v466q0 45 16 80t44.5 60t68.5 38t87 13q46 0 86 -13t68.5 -38t45 -60t16.5 -80v-466zM153 607v-551h246v551h-59v-495h-128v495h-59z" />
    <glyph glyph-name="cid11558" unicode="&#x24cb;" 
d="M522 564q0 49 -19.5 90t-53 70t-78.5 45t-95 16q-51 0 -96 -16t-78 -45t-52.5 -70t-19.5 -90v-466q0 -50 19.5 -90.5t52.5 -69.5t78 -45t96 -16q50 0 95 16t78.5 45t53 69.5t19.5 90.5v466zM492 98q0 -45 -16.5 -80t-45 -60t-68.5 -38t-86 -13q-47 0 -87 13t-68.5 38
t-44.5 60t-16 80v466q0 45 16 80t44.5 60t68.5 38t87 13q46 0 86 -13t68.5 -38t45 -60t16.5 -80v-466zM277 112h-2l-63 88v407h-59v-425l92 -126h62l92 126v425h-59v-407z" />
    <glyph glyph-name="cid11559" unicode="&#x24cc;" 
d="M522 564q0 49 -19.5 90t-53 70t-78.5 45t-95 16q-51 0 -96 -16t-78 -45t-52.5 -70t-19.5 -90v-466q0 -50 19.5 -90.5t52.5 -69.5t78 -45t96 -16q50 0 95 16t78.5 45t53 69.5t19.5 90.5v466zM492 98q0 -45 -16.5 -80t-45 -60t-68.5 -38t-86 -13q-47 0 -87 13t-68.5 38
t-44.5 60t-16 80v466q0 45 16 80t44.5 60t68.5 38t87 13q46 0 86 -13t68.5 -38t45 -60t16.5 -80v-466zM247 112h-78v495h-58v-551h330v551h-59v-495h-77v243h-58v-243z" />
    <glyph glyph-name="cid11560" unicode="&#x24cd;" 
d="M522 564q0 49 -19.5 90t-53 70t-78.5 45t-95 16q-51 0 -96 -16t-78 -45t-52.5 -70t-19.5 -90v-466q0 -50 19.5 -90.5t52.5 -69.5t78 -45t96 -16q50 0 95 16t78.5 45t53 69.5t19.5 90.5v466zM492 98q0 -45 -16.5 -80t-45 -60t-68.5 -38t-86 -13q-47 0 -87 13t-68.5 38
t-44.5 60t-16 80v466q0 45 16 80t44.5 60t68.5 38t87 13q46 0 86 -13t68.5 -38t45 -60t16.5 -80v-466zM277 385h-2l-63 98v124h-59v-138l88 -133l-88 -134v-146h59v134l63 97h2l63 -97v-134h59v146l-88 134l88 133v138h-59v-124z" />
    <glyph glyph-name="cid11561" unicode="&#x24ce;" 
d="M522 564q0 49 -19.5 90t-53 70t-78.5 45t-95 16q-51 0 -96 -16t-78 -45t-52.5 -70t-19.5 -90v-466q0 -50 19.5 -90.5t52.5 -69.5t78 -45t96 -16q50 0 95 16t78.5 45t53 69.5t19.5 90.5v466zM492 98q0 -45 -16.5 -80t-45 -60t-68.5 -38t-86 -13q-47 0 -87 13t-68.5 38
t-44.5 60t-16 80v466q0 45 16 80t44.5 60t68.5 38t87 13q46 0 86 -13t68.5 -38t45 -60t16.5 -80v-466zM276 385h-2l-63 97v125h-58v-138l93 -143v-270h58v270l94 143v138h-59v-125z" />
    <glyph glyph-name="cid11562" unicode="&#x24cf;" 
d="M522 564q0 49 -19.5 90t-53 70t-78.5 45t-95 16q-51 0 -96 -16t-78 -45t-52.5 -70t-19.5 -90v-466q0 -50 19.5 -90.5t52.5 -69.5t78 -45t96 -16q50 0 95 16t78.5 45t53 69.5t19.5 90.5v466zM492 98q0 -45 -16.5 -80t-45 -60t-68.5 -38t-86 -13q-47 0 -87 13t-68.5 38
t-44.5 60t-16 80v466q0 45 16 80t44.5 60t68.5 38t87 13q46 0 86 -13t68.5 -38t45 -60t16.5 -80v-466zM327 408l-155 -107v-245h213v56h-155v160l155 108v227h-213v-56h155v-143z" />
    <glyph glyph-name="cid11563" unicode="&#x24d0;" 
d="M522 564q0 49 -19.5 90t-53 70t-78.5 45t-95 16q-51 0 -96 -16t-78 -45t-52.5 -70t-19.5 -90v-466q0 -50 19.5 -90.5t52.5 -69.5t78 -45t96 -16q50 0 95 16t78.5 45t53 69.5t19.5 90.5v466zM492 98q0 -45 -16.5 -80t-45 -60t-68.5 -38t-86 -13q-47 0 -87 13t-68.5 38
t-44.5 60t-16 80v466q0 45 16 80t44.5 60t68.5 38t87 13q46 0 86 -13t68.5 -38t45 -60t16.5 -80v-466zM232 477h102v-104h-171v-241h227v399h-158v-54zM219 186v133h115v-133h-115z" />
    <glyph glyph-name="cid11564" unicode="&#x24d1;" 
d="M522 564q0 49 -19.5 90t-53 70t-78.5 45t-95 16q-51 0 -96 -16t-78 -45t-52.5 -70t-19.5 -90v-466q0 -50 19.5 -90.5t52.5 -69.5t78 -45t96 -16q50 0 95 16t78.5 45t53 69.5t19.5 90.5v466zM492 98q0 -45 -16.5 -80t-45 -60t-68.5 -38t-86 -13q-47 0 -87 13t-68.5 38
t-44.5 60t-16 80v466q0 45 16 80t44.5 60t68.5 38t87 13q46 0 86 -13t68.5 -38t45 -60t16.5 -80v-466zM163 56h227v399h-171v152h-56v-551zM334 401v-291h-115v291h115z" />
    <glyph glyph-name="cid11565" unicode="&#x24d2;" 
d="M522 564q0 49 -19.5 90t-53 70t-78.5 45t-95 16q-51 0 -96 -16t-78 -45t-52.5 -70t-19.5 -90v-466q0 -50 19.5 -90.5t52.5 -69.5t78 -45t96 -16q50 0 95 16t78.5 45t53 69.5t19.5 90.5v466zM492 98q0 -45 -16.5 -80t-45 -60t-68.5 -38t-86 -13q-47 0 -87 13t-68.5 38
t-44.5 60t-16 80v466q0 45 16 80t44.5 60t68.5 38t87 13q46 0 86 -13t68.5 -38t45 -60t16.5 -80v-466zM362 186h-114v291h114v54h-170v-399h170v54z" />
    <glyph glyph-name="cid11566" unicode="&#x24d3;" 
d="M522 564q0 49 -19.5 90t-53 70t-78.5 45t-95 16q-51 0 -96 -16t-78 -45t-52.5 -70t-19.5 -90v-466q0 -50 19.5 -90.5t52.5 -69.5t78 -45t96 -16q50 0 95 16t78.5 45t53 69.5t19.5 90.5v466zM492 98q0 -45 -16.5 -80t-45 -60t-68.5 -38t-86 -13q-47 0 -87 13t-68.5 38
t-44.5 60t-16 80v466q0 45 16 80t44.5 60t68.5 38t87 13q46 0 86 -13t68.5 -38t45 -60t16.5 -80v-466zM390 56v551h-56v-152h-171v-399h227zM219 401h115v-291h-115v291z" />
    <glyph glyph-name="cid11567" unicode="&#x24d4;" 
d="M522 564q0 49 -19.5 90t-53 70t-78.5 45t-95 16q-51 0 -96 -16t-78 -45t-52.5 -70t-19.5 -90v-466q0 -50 19.5 -90.5t52.5 -69.5t78 -45t96 -16q50 0 95 16t78.5 45t53 69.5t19.5 90.5v466zM492 98q0 -45 -16.5 -80t-45 -60t-68.5 -38t-86 -13q-47 0 -87 13t-68.5 38
t-44.5 60t-16 80v466q0 45 16 80t44.5 60t68.5 38t87 13q46 0 86 -13t68.5 -38t45 -60t16.5 -80v-466zM322 186h-103v133h171v212h-227v-399h159v54zM334 477v-104h-115v104h115z" />
    <glyph glyph-name="cid11568" unicode="&#x24d5;" 
d="M522 564q0 49 -19.5 90t-53 70t-78.5 45t-95 16q-51 0 -96 -16t-78 -45t-52.5 -70t-19.5 -90v-466q0 -50 19.5 -90.5t52.5 -69.5t78 -45t96 -16q50 0 95 16t78.5 45t53 69.5t19.5 90.5v466zM492 98q0 -45 -16.5 -80t-45 -60t-68.5 -38t-86 -13q-47 0 -87 13t-68.5 38
t-44.5 60t-16 80v466q0 45 16 80t44.5 60t68.5 38t87 13q46 0 86 -13t68.5 -38t45 -60t16.5 -80v-466zM354 553v54h-107v-152h-51v-54h51v-345h56v345h51v54h-51v98h51z" />
    <glyph glyph-name="cid11569" unicode="&#x24d6;" 
d="M522 564q0 49 -19.5 90t-53 70t-78.5 45t-95 16q-51 0 -96 -16t-78 -45t-52.5 -70t-19.5 -90v-466q0 -50 19.5 -90.5t52.5 -69.5t78 -45t96 -16q50 0 95 16t78.5 45t53 69.5t19.5 90.5v466zM492 98q0 -45 -16.5 -80t-45 -60t-68.5 -38t-86 -13q-47 0 -87 13t-68.5 38
t-44.5 60t-16 80v466q0 45 16 80t44.5 60t68.5 38t87 13q46 0 86 -13t68.5 -38t45 -60t16.5 -80v-466zM390 603h-227v-399h171v-91h-115v-54h171v544zM219 258v291h115v-291h-115z" />
    <glyph glyph-name="cid11570" unicode="&#x24d7;" 
d="M522 564q0 49 -19.5 90t-53 70t-78.5 45t-95 16q-51 0 -96 -16t-78 -45t-52.5 -70t-19.5 -90v-466q0 -50 19.5 -90.5t52.5 -69.5t78 -45t96 -16q50 0 95 16t78.5 45t53 69.5t19.5 90.5v466zM492 98q0 -45 -16.5 -80t-45 -60t-68.5 -38t-86 -13q-47 0 -87 13t-68.5 38
t-44.5 60t-16 80v466q0 45 16 80t44.5 60t68.5 38t87 13q46 0 86 -13t68.5 -38t45 -60t16.5 -80v-466zM219 607h-56v-551h56v345h115v-345h56v399h-171v152z" />
    <glyph glyph-name="cid11571" unicode="&#x24d8;" 
d="M522 564q0 49 -19.5 90t-53 70t-78.5 45t-95 16q-51 0 -96 -16t-78 -45t-52.5 -70t-19.5 -90v-466q0 -50 19.5 -90.5t52.5 -69.5t78 -45t96 -16q50 0 95 16t78.5 45t53 69.5t19.5 90.5v466zM492 98q0 -45 -16.5 -80t-45 -60t-68.5 -38t-86 -13q-47 0 -87 13t-68.5 38
t-44.5 60t-16 80v466q0 45 16 80t44.5 60t68.5 38t87 13q46 0 86 -13t68.5 -38t45 -60t16.5 -80v-466zM249 455v-399h56v399h-56zM312 535v72h-70v-72h70z" />
    <glyph glyph-name="cid11572" unicode="&#x24d9;" 
d="M522 564q0 49 -19.5 90t-53 70t-78.5 45t-95 16q-51 0 -96 -16t-78 -45t-52.5 -70t-19.5 -90v-466q0 -50 19.5 -90.5t52.5 -69.5t78 -45t96 -16q50 0 95 16t78.5 45t53 69.5t19.5 90.5v466zM492 98q0 -45 -16.5 -80t-45 -60t-68.5 -38t-86 -13q-47 0 -87 13t-68.5 38
t-44.5 60t-16 80v466q0 45 16 80t44.5 60t68.5 38t87 13q46 0 86 -13t68.5 -38t45 -60t16.5 -80v-466zM249 527v-490h-61v-54h117v544h-56zM312 608v72h-70v-72h70z" />
    <glyph glyph-name="cid11573" unicode="&#x24da;" 
d="M522 564q0 49 -19.5 90t-53 70t-78.5 45t-95 16q-51 0 -96 -16t-78 -45t-52.5 -70t-19.5 -90v-466q0 -50 19.5 -90.5t52.5 -69.5t78 -45t96 -16q50 0 95 16t78.5 45t53 69.5t19.5 90.5v466zM492 98q0 -45 -16.5 -80t-45 -60t-68.5 -38t-86 -13q-47 0 -87 13t-68.5 38
t-44.5 60t-16 80v466q0 45 16 80t44.5 60t68.5 38t87 13q46 0 86 -13t68.5 -38t45 -60t16.5 -80v-466zM282 279l108 176h-61l-109 -176h-1v328h-56v-551h56v169h115v-169h56v223h-108z" />
    <glyph glyph-name="cid11574" unicode="&#x24db;" 
d="M522 564q0 49 -19.5 90t-53 70t-78.5 45t-95 16q-51 0 -96 -16t-78 -45t-52.5 -70t-19.5 -90v-466q0 -50 19.5 -90.5t52.5 -69.5t78 -45t96 -16q50 0 95 16t78.5 45t53 69.5t19.5 90.5v466zM492 98q0 -45 -16.5 -80t-45 -60t-68.5 -38t-86 -13q-47 0 -87 13t-68.5 38
t-44.5 60t-16 80v466q0 45 16 80t44.5 60t68.5 38t87 13q46 0 86 -13t68.5 -38t45 -60t16.5 -80v-466zM305 607h-56v-551h56v551z" />
    <glyph glyph-name="cid11575" unicode="&#x24dc;" 
d="M522 564q0 49 -19.5 90t-53 70t-78.5 45t-95 16q-51 0 -96 -16t-78 -45t-52.5 -70t-19.5 -90v-466q0 -50 19.5 -90.5t52.5 -69.5t78 -45t96 -16q50 0 95 16t78.5 45t53 69.5t19.5 90.5v466zM492 98q0 -45 -16.5 -80t-45 -60t-68.5 -38t-86 -13q-47 0 -87 13t-68.5 38
t-44.5 60t-16 80v466q0 45 16 80t44.5 60t68.5 38t87 13q46 0 86 -13t68.5 -38t45 -60t16.5 -80v-466zM111 531v-399h57v345h80v-345h56v345h81v-345h56v399h-330z" />
    <glyph glyph-name="cid11576" unicode="&#x24dd;" 
d="M522 564q0 49 -19.5 90t-53 70t-78.5 45t-95 16q-51 0 -96 -16t-78 -45t-52.5 -70t-19.5 -90v-466q0 -50 19.5 -90.5t52.5 -69.5t78 -45t96 -16q50 0 95 16t78.5 45t53 69.5t19.5 90.5v466zM492 98q0 -45 -16.5 -80t-45 -60t-68.5 -38t-86 -13q-47 0 -87 13t-68.5 38
t-44.5 60t-16 80v466q0 45 16 80t44.5 60t68.5 38t87 13q46 0 86 -13t68.5 -38t45 -60t16.5 -80v-466zM170 531v-399h56v345h101v-345h56v399h-213z" />
    <glyph glyph-name="cid11577" unicode="&#x24de;" 
d="M522 564q0 49 -19.5 90t-53 70t-78.5 45t-95 16q-51 0 -96 -16t-78 -45t-52.5 -70t-19.5 -90v-466q0 -50 19.5 -90.5t52.5 -69.5t78 -45t96 -16q50 0 95 16t78.5 45t53 69.5t19.5 90.5v466zM492 98q0 -45 -16.5 -80t-45 -60t-68.5 -38t-86 -13q-47 0 -87 13t-68.5 38
t-44.5 60t-16 80v466q0 45 16 80t44.5 60t68.5 38t87 13q46 0 86 -13t68.5 -38t45 -60t16.5 -80v-466zM390 132v399h-227v-399h227zM334 477v-291h-115v291h115z" />
    <glyph glyph-name="cid11578" unicode="&#x24df;" 
d="M522 564q0 49 -19.5 90t-53 70t-78.5 45t-95 16q-51 0 -96 -16t-78 -45t-52.5 -70t-19.5 -90v-466q0 -50 19.5 -90.5t52.5 -69.5t78 -45t96 -16q50 0 95 16t78.5 45t53 69.5t19.5 90.5v466zM492 98q0 -45 -16.5 -80t-45 -60t-68.5 -38t-86 -13q-47 0 -87 13t-68.5 38
t-44.5 60t-16 80v466q0 45 16 80t44.5 60t68.5 38t87 13q46 0 86 -13t68.5 -38t45 -60t16.5 -80v-466zM163 603v-544h56v145h171v399h-227zM334 549v-291h-115v291h115z" />
    <glyph glyph-name="cid11579" unicode="&#x24e0;" 
d="M522 564q0 49 -19.5 90t-53 70t-78.5 45t-95 16q-51 0 -96 -16t-78 -45t-52.5 -70t-19.5 -90v-466q0 -50 19.5 -90.5t52.5 -69.5t78 -45t96 -16q50 0 95 16t78.5 45t53 69.5t19.5 90.5v466zM492 98q0 -45 -16.5 -80t-45 -60t-68.5 -38t-86 -13q-47 0 -87 13t-68.5 38
t-44.5 60t-16 80v466q0 45 16 80t44.5 60t68.5 38t87 13q46 0 86 -13t68.5 -38t45 -60t16.5 -80v-466zM390 603h-227v-399h171v-145h56v544zM334 549v-291h-115v291h115z" />
    <glyph glyph-name="cid11580" unicode="&#x24e1;" 
d="M522 564q0 49 -19.5 90t-53 70t-78.5 45t-95 16q-51 0 -96 -16t-78 -45t-52.5 -70t-19.5 -90v-466q0 -50 19.5 -90.5t52.5 -69.5t78 -45t96 -16q50 0 95 16t78.5 45t53 69.5t19.5 90.5v466zM492 98q0 -45 -16.5 -80t-45 -60t-68.5 -38t-86 -13q-47 0 -87 13t-68.5 38
t-44.5 60t-16 80v466q0 45 16 80t44.5 60t68.5 38t87 13q46 0 86 -13t68.5 -38t45 -60t16.5 -80v-466zM370 477v54h-150v-399h56v345h94z" />
    <glyph glyph-name="cid11581" unicode="&#x24e2;" 
d="M522 564q0 49 -19.5 90t-53 70t-78.5 45t-95 16q-51 0 -96 -16t-78 -45t-52.5 -70t-19.5 -90v-466q0 -50 19.5 -90.5t52.5 -69.5t78 -45t96 -16q50 0 95 16t78.5 45t53 69.5t19.5 90.5v466zM492 98q0 -45 -16.5 -80t-45 -60t-68.5 -38t-86 -13q-47 0 -87 13t-68.5 38
t-44.5 60t-16 80v466q0 45 16 80t44.5 60t68.5 38t87 13q46 0 86 -13t68.5 -38t45 -60t16.5 -80v-466zM375 132v170l-143 101v74h143v54h-199v-157l143 -101v-87h-143v-54h199z" />
    <glyph glyph-name="cid11582" unicode="&#x24e3;" 
d="M522 564q0 49 -19.5 90t-53 70t-78.5 45t-95 16q-51 0 -96 -16t-78 -45t-52.5 -70t-19.5 -90v-466q0 -50 19.5 -90.5t52.5 -69.5t78 -45t96 -16q50 0 95 16t78.5 45t53 69.5t19.5 90.5v466zM492 98q0 -45 -16.5 -80t-45 -60t-68.5 -38t-86 -13q-47 0 -87 13t-68.5 38
t-44.5 60t-16 80v466q0 45 16 80t44.5 60t68.5 38t87 13q46 0 86 -13t68.5 -38t45 -60t16.5 -80v-466zM191 417h58v-344h114v54h-58v290h58v54h-58v118h-56v-118h-58v-54z" />
    <glyph glyph-name="cid11583" unicode="&#x24e4;" 
d="M522 564q0 49 -19.5 90t-53 70t-78.5 45t-95 16q-51 0 -96 -16t-78 -45t-52.5 -70t-19.5 -90v-466q0 -50 19.5 -90.5t52.5 -69.5t78 -45t96 -16q50 0 95 16t78.5 45t53 69.5t19.5 90.5v466zM492 98q0 -45 -16.5 -80t-45 -60t-68.5 -38t-86 -13q-47 0 -87 13t-68.5 38
t-44.5 60t-16 80v466q0 45 16 80t44.5 60t68.5 38t87 13q46 0 86 -13t68.5 -38t45 -60t16.5 -80v-466zM327 531v-345h-101v345h-56v-399h213v399h-56z" />
    <glyph glyph-name="cid11584" unicode="&#x24e5;" 
d="M522 564q0 49 -19.5 90t-53 70t-78.5 45t-95 16q-51 0 -96 -16t-78 -45t-52.5 -70t-19.5 -90v-466q0 -50 19.5 -90.5t52.5 -69.5t78 -45t96 -16q50 0 95 16t78.5 45t53 69.5t19.5 90.5v466zM492 98q0 -45 -16.5 -80t-45 -60t-68.5 -38t-86 -13q-47 0 -87 13t-68.5 38
t-44.5 60t-16 80v466q0 45 16 80t44.5 60t68.5 38t87 13q46 0 86 -13t68.5 -38t45 -60t16.5 -80v-466zM383 237v294h-56v-277l-49 -61h-2l-49 61v277h-56v-294l84 -105h44z" />
    <glyph glyph-name="cid11585" unicode="&#x24e6;" 
d="M522 564q0 49 -19.5 90t-53 70t-78.5 45t-95 16q-51 0 -96 -16t-78 -45t-52.5 -70t-19.5 -90v-466q0 -50 19.5 -90.5t52.5 -69.5t78 -45t96 -16q50 0 95 16t78.5 45t53 69.5t19.5 90.5v466zM492 98q0 -45 -16.5 -80t-45 -60t-68.5 -38t-86 -13q-47 0 -87 13t-68.5 38
t-44.5 60t-16 80v466q0 45 16 80t44.5 60t68.5 38t87 13q46 0 86 -13t68.5 -38t45 -60t16.5 -80v-466zM441 132v399h-56v-345h-81v345h-56v-345h-80v345h-57v-399h330z" />
    <glyph glyph-name="cid11586" unicode="&#x24e7;" 
d="M522 564q0 49 -19.5 90t-53 70t-78.5 45t-95 16q-51 0 -96 -16t-78 -45t-52.5 -70t-19.5 -90v-466q0 -50 19.5 -90.5t52.5 -69.5t78 -45t96 -16q50 0 95 16t78.5 45t53 69.5t19.5 90.5v466zM492 98q0 -45 -16.5 -80t-45 -60t-68.5 -38t-86 -13q-47 0 -87 13t-68.5 38
t-44.5 60t-16 80v466q0 45 16 80t44.5 60t68.5 38t87 13q46 0 86 -13t68.5 -38t45 -60t16.5 -80v-466zM374 256l-65 80l65 80v115h-56v-101l-42 -52h-2l-42 52v101h-56v-115l65 -80l-65 -80v-124h56v110l42 52h2l42 -52v-110h56v124z" />
    <glyph glyph-name="cid11587" unicode="&#x24e8;" 
d="M522 564q0 49 -19.5 90t-53 70t-78.5 45t-95 16q-51 0 -96 -16t-78 -45t-52.5 -70t-19.5 -90v-466q0 -50 19.5 -90.5t52.5 -69.5t78 -45t96 -16q50 0 95 16t78.5 45t53 69.5t19.5 90.5v466zM492 98q0 -45 -16.5 -80t-45 -60t-68.5 -38t-86 -13q-47 0 -87 13t-68.5 38
t-44.5 60t-16 80v466q0 45 16 80t44.5 60t68.5 38t87 13q46 0 86 -13t68.5 -38t45 -60t16.5 -80v-466zM334 258h-115v345h-56v-399h171v-91h-115v-54h171v544h-56v-345z" />
    <glyph glyph-name="cid11588" unicode="&#x24e9;" 
d="M522 564q0 49 -19.5 90t-53 70t-78.5 45t-95 16q-51 0 -96 -16t-78 -45t-52.5 -70t-19.5 -90v-466q0 -50 19.5 -90.5t52.5 -69.5t78 -45t96 -16q50 0 95 16t78.5 45t53 69.5t19.5 90.5v466zM492 98q0 -45 -16.5 -80t-45 -60t-68.5 -38t-86 -13q-47 0 -87 13t-68.5 38
t-44.5 60t-16 80v466q0 45 16 80t44.5 60t68.5 38t87 13q46 0 86 -13t68.5 -38t45 -60t16.5 -80v-466zM188 132h179v54h-123v87l123 108v150h-179v-54h123v-74l-123 -108v-163z" />
    <glyph glyph-name="cid11589" unicode="&#x24ea;" 
d="M522 564q0 49 -19.5 90t-53 70t-78.5 45t-95 16q-51 0 -96 -16t-78 -45t-52.5 -70t-19.5 -90v-466q0 -50 19.5 -90.5t52.5 -69.5t78 -45t96 -16q50 0 95 16t78.5 45t53 69.5t19.5 90.5v466zM492 98q0 -45 -16.5 -80t-45 -60t-68.5 -38t-86 -13q-47 0 -87 13t-68.5 38
t-44.5 60t-16 80v466q0 45 16 80t44.5 60t68.5 38t87 13q46 0 86 -13t68.5 -38t45 -60t16.5 -80v-466zM409 607h-263v-551h263v551zM205 112v105l146 169v-274h-146zM205 551h146v-88l-146 -169v257z" />
    <glyph glyph-name="cid11590" unicode="&#x24eb;" 
d="M522 564q0 49 -19.5 90t-53 70t-78.5 45t-95 16q-51 0 -96 -16t-78 -45t-52.5 -70t-19.5 -90v-466q0 -50 19.5 -90.5t52.5 -69.5t78 -45t96 -16q50 0 95 16t78.5 45t53 69.5t19.5 90.5v466zM225 607v-495h115v439h-61v56h119v-495h64v-56h-356v56h61v439h-61v56h119z" />
    <glyph glyph-name="cid11591" unicode="&#x24ec;" 
d="M522 564q0 49 -19.5 90t-53 70t-78.5 45t-95 16q-51 0 -96 -16t-78 -45t-52.5 -70t-19.5 -90v-466q0 -50 19.5 -90.5t52.5 -69.5t78 -45t96 -16q50 0 95 16t78.5 45t53 69.5t19.5 90.5v466zM396 404v147h-76v-106h-59v162h193v-230l-134 -103v-162h134v-56h-363v56h61
v439h-61v56h119v-495h51v190z" />
    <glyph glyph-name="cid11592" unicode="&#x24ed;" 
d="M522 564q0 49 -19.5 90t-53 70t-78.5 45t-95 16q-51 0 -96 -16t-78 -45t-52.5 -70t-19.5 -90v-466q0 -50 19.5 -90.5t52.5 -69.5t78 -45t96 -16q50 0 95 16t78.5 45t53 69.5t19.5 90.5v466zM327 309v56h29v186h-36v-106h-59v162h153v-242h43v-309h-366v56h61v439h-61v56
h119v-495h51v106h59v-106h79v197h-72z" />
    <glyph glyph-name="cid11593" unicode="&#x24ee;" 
d="M522 564q0 49 -19.5 90t-53 70t-78.5 45t-95 16q-51 0 -96 -16t-78 -45t-52.5 -70t-19.5 -90v-466q0 -50 19.5 -90.5t52.5 -69.5t78 -45t96 -16q50 0 95 16t78.5 45t53 69.5t19.5 90.5v466zM239 219v156l94 232h91v-332h41v-56h-41v-163h-58v163h-127zM277 112v-56h-186
v56h61v439h-61v56h119v-495h67zM298 367v-92h68v262z" />
    <glyph glyph-name="cid11594" unicode="&#x24ef;" 
d="M522 564q0 49 -19.5 90t-53 70t-78.5 45t-95 16q-51 0 -96 -16t-78 -45t-52.5 -70t-19.5 -90v-466q0 -50 19.5 -90.5t52.5 -69.5t78 -45t96 -16q50 0 95 16t78.5 45t53 69.5t19.5 90.5v466zM261 218h59v-106h76v197h-135v298h144v-56h-85v-186h134v-309h-363v56h61v439
h-61v56h119v-495h51v106z" />
    <glyph glyph-name="cid11595" unicode="&#x24f0;" 
d="M522 564q0 49 -19.5 90t-53 70t-78.5 45t-95 16q-51 0 -96 -16t-78 -45t-52.5 -70t-19.5 -90v-466q0 -50 19.5 -90.5t52.5 -69.5t78 -45t96 -16q50 0 95 16t78.5 45t53 69.5t19.5 90.5v466zM454 365v-309h-363v56h61v439h-61v56h119v-495h51v495h134v-56h-75v-186h134z
M396 309h-76v-197h76v197z" />
    <glyph glyph-name="cid11596" unicode="&#x24f1;" 
d="M522 564q0 49 -19.5 90t-53 70t-78.5 45t-95 16q-51 0 -96 -16t-78 -45t-52.5 -70t-19.5 -90v-466q0 -50 19.5 -90.5t52.5 -69.5t78 -45t96 -16q50 0 95 16t78.5 45t53 69.5t19.5 90.5v466zM397 408v143h-92v-106h-59v162h209v-219l-92 -109v-223h-58v243zM261 112v-56
h-170v56h61v439h-61v56h119v-495h51z" />
    <glyph glyph-name="cid11597" unicode="&#x24f2;" 
d="M522 564q0 49 -19.5 90t-53 70t-78.5 45t-95 16q-51 0 -96 -16t-78 -45t-52.5 -70t-19.5 -90v-466q0 -50 19.5 -90.5t52.5 -69.5t78 -45t96 -16q50 0 95 16t78.5 45t53 69.5t19.5 90.5v466zM454 56h-363v56h61v439h-61v56h119v-495h41v242h40v253h163v-551zM310 298v-186
h86v186h-86zM395 354v197h-45v-197h45z" />
    <glyph glyph-name="cid11598" unicode="&#x24f3;" 
d="M522 564q0 49 -19.5 90t-53 70t-78.5 45t-95 16q-51 0 -96 -16t-78 -45t-52.5 -70t-19.5 -90v-466q0 -50 19.5 -90.5t52.5 -69.5t78 -45t96 -16q50 0 95 16t78.5 45t53 69.5t19.5 90.5v466zM396 298h-135v309h193v-551h-134v56h76v186zM277 112v-56h-186v56h61v439h-61
v56h119v-495h67zM320 551v-197h76v197h-76z" />
    <glyph glyph-name="cid11599" unicode="&#x24f4;" 
d="M522 564q0 49 -19.5 90t-53 70t-78.5 45t-95 16q-51 0 -96 -16t-78 -45t-52.5 -70t-19.5 -90v-466q0 -50 19.5 -90.5t52.5 -69.5t78 -45t96 -16q50 0 95 16t78.5 45t53 69.5t19.5 90.5v466zM284 56v551h173v-551h-173zM199 400v151h-46v-106h-59v162h163v-230l-104 -103
v-162h104v-56h-163v240zM399 112v212l-56 -55v-157h56zM343 551v-202l56 56v146h-56z" />
    <glyph glyph-name="cid11600" unicode="&#x24ff;" 
d="M522 564q0 49 -19.5 90t-53 70t-78.5 45t-95 16q-51 0 -96 -16t-78 -45t-52.5 -70t-19.5 -90v-466q0 -50 19.5 -90.5t52.5 -69.5t78 -45t96 -16q50 0 95 16t78.5 45t53 69.5t19.5 90.5v466zM409 607v-551h-263v551h263zM205 112h146v274l-146 -169v-105zM205 551v-257
l146 169v88h-146z" />
    <glyph glyph-name="cid11993" unicode="&#x2500;" horiz-adv-x="878" 
d="M0 761v-843h878v843h-878z" />
    <glyph glyph-name="cid11995" unicode="&#x2502;" horiz-adv-x="878" 
 />
    <glyph glyph-name="cid11997" unicode="&#x250c;" horiz-adv-x="878" 
d="M55 -26h47v-56h57v56h46v-56h56v56h47v-56h56v56h47v-56h55v56h48v-56h55v56h48v-56h55v56h48v-56h55v56h47v-56h56v61h-52v52h52v59h-52v52h52v60h-52v52h52v59h-52v53h52v60h-52v52h52v59h-52v52h52v60h-52v51h52v61h-56v-56h-47v56h-55v-56h-48v56h-55v-56h-48v56h-55
v-56h-48v56h-55v-56h-47v56h-56v-56h-47v56h-56v-56h-46v56h-57v-56h-47v56h-55v-61h51v-51h-51v-60h51v-52h-51v-59h51v-52h-51v-60h51v-53h-51v-59h51v-52h-51v-60h51v-52h-51v-59h51v-52h-51v-61h55v56zM106 31h48v-52h-48v52zM106 142h48v-52h-48v52zM106 254h48v-52
h-48v52zM106 366h48v-53h-48v53zM106 478h48v-52h-48v52zM106 589h48v-52h-48v52zM205 533v-51h-46v51h46zM210 589h47v-52h-47v52zM308 533v-51h-47v51h47zM312 589h48v-52h-48v52zM411 533v-51h-47v51h47zM415 589h47v-52h-47v52zM514 533v-51h-48v51h48zM518 589h47v-52
h-47v52zM617 533v-51h-48v51h48zM622 589h46v-52h-46v52zM720 533v-51h-48v51h48zM724 589h47v-52h-47v52zM771 426h-47v52h47v-52zM771 313h-47v53h47v-53zM771 202h-47v52h47v-52zM771 90h-47v52h47v-52zM565 90h-47v52h47v-52zM466 147v50h48v-50h-48zM462 90h-47v52h47
v-52zM364 147v50h47v-50h-47zM360 90h-48v52h48v-52zM261 147v50h47v-50h-47zM257 90h-47v52h47v-52zM159 147v50h46v-50h-46zM159 309h46v-51h-46v51zM159 421h46v-51h-46v51zM210 478h47v-52h-47v52zM308 421v-51h-47v51h47zM312 478h48v-52h-48v52zM411 421v-51h-47v51
h47zM415 478h47v-52h-47v52zM514 421v-51h-48v51h48zM518 478h47v-52h-47v52zM617 421v-51h-48v51h48zM622 478h46v-52h-46v52zM720 421v-51h-48v51h48zM672 147v50h48v-50h-48zM622 202v52h46v-52h-46zM569 258v51h48v-51h-48zM565 202h-47v52h47v-52zM466 258v51h48v-51
h-48zM462 202h-47v52h47v-52zM364 258v51h47v-51h-47zM360 202h-48v52h48v-52zM261 258v51h47v-51h-47zM257 202h-47v52h47v-52zM210 366h47v-53h-47v53zM312 366h48v-53h-48v53zM415 366h47v-53h-47v53zM518 366h47v-53h-47v53zM668 366v-53h-46v53h46zM672 258v51h48v-51
h-48zM569 197h48v-50h-48v50zM622 90v52h46v-52h-46zM159 86h46v-51h-46v51zM210 31h47v-52h-47v52zM261 86h47v-51h-47v51zM312 31h48v-52h-48v52zM364 86h47v-51h-47v51zM415 31h47v-52h-47v52zM466 86h48v-51h-48v51zM518 31h47v-52h-47v52zM569 86h48v-51h-48v51z
M622 31h46v-52h-46v52zM672 86h48v-51h-48v51zM724 31h47v-52h-47v52zM775 86h47v-51h-47v51zM775 147v50h47v-50h-47zM775 258v51h47v-51h-47zM775 370v51h47v-51h-47zM775 482v51h47v-51h-47zM775 594v51h47v-51h-47zM771 649h-47v51h47v-51zM720 594h-48v51h48v-51z
M668 649h-46v51h46v-51zM617 594h-48v51h48v-51zM565 649h-47v51h47v-51zM514 594h-48v51h48v-51zM462 649h-47v51h47v-51zM411 594h-47v51h47v-51zM360 649h-48v51h48v-51zM308 594h-47v51h47v-51zM257 649h-47v51h47v-51zM205 594h-46v51h46v-51zM154 649h-48v51h48v-51z
M102 594h-47v51h47v-51zM102 533v-51h-47v51h47zM102 421v-51h-47v51h47zM102 309v-51h-47v51h47zM102 197v-50h-47v50h47zM102 86v-51h-47v51h47z" />
    <glyph glyph-name="cid12001" unicode="&#x2510;" horiz-adv-x="878" 
d="M55 -26h47v-56h57v56h46v-56h57v56h46v-56h56v56h47v-56h56v56h47v-56h55v56h48v-56h56v56h47v-56h55v56h47v-56h56v61h-52v52h52v59h-52v52h52v60h-52v52h52v59h-52v53h52v60h-52v52h52v59h-52v52h52v60h-52v51h52v61h-56v-56h-47v56h-55v-56h-47v56h-56v-56h-48v56h-55
v-61h51v-51h-51v-55h-47v55h-56v-55h-47v55h-51v51h51v61h-56v-56h-46v56h-57v-56h-46v56h-57v-56h-47v56h-55v-61h51v-51h-51v-60h51v-52h-51v-59h51v-52h-51v-60h51v-53h-51v-59h51v-52h-51v-60h51v-52h-51v-59h51v-52h-51v-61h55v56zM107 31h47v-52h-47v52zM107 142h47
v-52h-47v52zM107 254h47v-52h-47v52zM107 366h47v-53h-47v53zM107 478h47v-52h-47v52zM107 589h47v-52h-47v52zM159 645h46v-51h-46v51zM364 533h47v-51h-47v51zM467 533h47v-51h-47v51zM622 589h46v-52h-46v52zM673 645h47v-51h-47v51zM771 537h-47v52h47v-52zM771 426h-47
v52h47v-52zM771 313h-47v53h47v-53zM771 202h-47v52h47v-52zM771 90h-47v52h47v-52zM720 35h-47v51h47v-51zM617 35h-48v51h48v-51zM514 35h-47v51h47v-51zM411 35h-47v51h47v-51zM308 35h-46v51h46v-51zM205 35h-46v51h46v-51zM159 197h46v-50h-46v50zM159 309h46v-51h-46
v51zM159 533h46v-51h-46v51zM210 589h47v-52h-47v52zM415 478h47v-52h-47v52zM518 478h47v-52h-47v52zM622 478h46v-52h-46v52zM673 533h47v-51h-47v51zM565 90h-47v52h47v-52zM462 90h-47v52h47v-52zM360 90h-47v52h47v-52zM257 90h-47v52h47v-52zM210 254h47v-52h-47v52z
M210 366h47v-53h-47v53zM210 478h47v-52h-47v52zM364 366v55h47v-55h56v55h47v-55h51v-53h-51v-59h51v-52h-51v-55h-47v55h-56v-55h-47v55h-51v52h51v59h-51v53h51zM617 421v-51h-48v51h48zM668 313h-46v53h46v-53zM668 202h-46v52h46v-52zM569 309h48v-51h-48v51zM308 147
h-46v50h46v-50zM262 309h46v-51h-46v51zM262 421h46v-51h-46v51zM569 197h48v-50h-48v50zM622 142h46v-52h-46v52zM673 147v50h47v-50h-47zM673 258v51h47v-51h-47zM673 370v51h47v-51h-47zM360 426h-47v52h47v-52zM308 482h-46v51h46v-51zM205 421v-51h-46v51h46zM617 533
v-51h-48v51h48zM210 31h47v-52h-47v52zM313 31h47v-52h-47v52zM415 31h47v-52h-47v52zM518 31h47v-52h-47v52zM622 31h46v-52h-46v52zM724 31h47v-52h-47v52zM775 35v51h47v-51h-47zM775 147v50h47v-50h-47zM775 258v51h47v-51h-47zM775 370v51h47v-51h-47zM775 482v51h47
v-51h-47zM775 594v51h47v-51h-47zM771 649h-47v51h47v-51zM668 649h-46v51h46v-51zM617 645v-51h-48v51h48zM565 537h-47v52h47v-52zM462 537h-47v52h47v-52zM360 537h-47v52h47v-52zM308 594h-46v51h46v-51zM257 649h-47v51h47v-51zM154 649h-47v51h47v-51zM102 645v-51
h-47v51h47zM102 533v-51h-47v51h47zM102 421v-51h-47v51h47zM102 309v-51h-47v51h47zM102 197v-50h-47v50h47zM102 86v-51h-47v51h47z" />
    <glyph glyph-name="cid12009" unicode="&#x2518;" horiz-adv-x="878" 
d="M51 -82h56v56h47v-56h56v56h47v-56h56v56h47v-56h55v56h48v-56h55v56h47v-56h56v56h47v-56h57v56h46v-56h56v56h51v61h-51v51h51v61h-51v50h51v61h-55v-56h-47v56h-51v51h51v61h-51v51h51v57h47v-57h55v61h-51v51h51v61h-51v51h51v60h-51v56h-56v-56h-46v56h-57v-56h-47
v56h-56v-56h-47v56h-55v-56h-48v56h-55v-56h-47v56h-56v-56h-47v56h-56v-56h-47v56h-56v-56h-51v-60h51v-51h-51v-61h51v-51h-51v-61h55v57h48v-57h51v-51h-51v-61h51v-51h-51v-56h-48v56h-55v-61h51v-50h-51v-61h51v-51h-51v-61h51v-56zM107 86h47v-51h-47v51zM158 142h47
v-52h-47v52zM210 197h47v-50h-47v50zM210 309h47v-51h-47v51zM210 421h47v-51h-47v51zM107 645h47v-51h-47v51zM210 645h47v-51h-47v51zM313 645h47v-51h-47v51zM415 645h48v-51h-48v51zM518 645h47v-51h-47v51zM621 645h47v-51h-47v51zM725 645h46v-51h-46v51zM720 537h-47
v52h47v-52zM668 482h-47v51h47v-51zM771 35h-46v51h46v-51zM668 35h-47v51h47v-51zM565 35h-47v51h47v-51zM463 35h-48v51h48v-51zM360 35h-47v51h47v-51zM257 35h-47v51h47v-51zM262 142h47v-52h-47v52zM262 254h47v-52h-47v52zM262 366h47v-53h-47v53zM158 589h47v-52h-47
v52zM262 589h47v-52h-47v52zM365 589h46v-52h-46v52zM467 589h47v-52h-47v52zM569 589h48v-52h-48v52zM617 426h-48v52h48v-52zM617 313h-48v53h48v-53zM720 90h-47v52h47v-52zM569 90v52h48v-52h-48zM514 90h-47v52h47v-52zM411 90h-46v52h46v-52zM313 197h47v-50h-47v50z
M313 309h52v61h-52v51h52v57h46v-57h56v57h47v-57h51v-51h-51v-61h51v-51h-51v-56h-47v56h-56v-56h-46v56h-52v51zM262 478h47v-52h-47v52zM313 533h47v-51h-47v51zM415 533h48v-51h-48v51zM565 533v-51h-47v51h47zM617 202h-48v52h48v-52zM463 147h-48v50h48v-50zM518 197
h47v-50h-47v50zM668 147h-47v50h47v-50zM210 533h47v-51h-47v51zM621 258v51h47v-51h-47zM621 370v51h47v-51h-47zM158 31h47v-52h-47v52zM262 31h47v-52h-47v52zM365 31h46v-52h-46v52zM467 31h47v-52h-47v52zM569 31h48v-52h-48v52zM673 31h47v-52h-47v52zM776 31h47v-52
h-47v52zM776 90v52h47v-52h-47zM771 147h-46v50h46v-50zM720 202h-47v52h47v-52zM673 313v53h47v-53h-47zM673 426v52h47v-52h-47zM725 533h46v-51h-46v51zM776 589h47v-52h-47v52zM776 649v51h47v-51h-47zM720 649h-47v51h47v-51zM617 649h-48v51h48v-51zM514 649h-47v51
h47v-51zM411 649h-46v51h46v-51zM309 649h-47v51h47v-51zM205 649h-47v51h47v-51zM103 649h-48v51h48v-51zM103 589v-52h-48v52h48zM107 533h47v-51h-47v51zM158 478h47v-52h-47v52zM205 366v-53h-47v53h47zM205 254v-52h-47v52h47zM154 147h-47v50h47v-50zM103 142v-52h-48
v52h48zM103 31v-52h-48v52h48z" />
    <glyph glyph-name="cid152" unicode="&#x25a1;" 
d="M490 -72v823h-428v-823h428zM422 688v-697h-292v697h292z" />
    <glyph glyph-name="cid153" unicode="&#x25cb;" 
d="M490 109q0 -44 -17 -81t-46 -63.5t-68 -41.5t-83 -15t-83 14.5t-68 40.5t-46 63t-17 81v465q0 44 17 80.5t46 63t68 41t83 14.5t83 -15t68 -41.5t46 -63.5t17 -81v-461zM130 107q0 -32 11.5 -57t31 -42.5t46 -27t57.5 -9.5t57.5 9.5t46 27.5t31 43.5t11.5 57.5v461
q0 31 -11.5 56.5t-31 43.5t-46 28t-57.5 10t-57.5 -9.5t-46 -27t-31 -43t-11.5 -56.5v-465z" />
    <glyph glyph-name="cid154" unicode="&#x25e6;" horiz-adv-x="258" 
d="M100 368h58v-58h-58v58zM50 260h158v158h-158v-158z" />
    <glyph glyph-name="cid155" unicode="&#x274c;" 
d="M110 -72l166 341l166 -341h72l-202 415l198 408h-72l-162 -334l-162 334h-72l198 -408l-202 -415h72z" />
    <glyph glyph-name="cid11601" unicode="&#x2776;" 
d="M522 564q0 49 -19.5 90t-53 70t-78.5 45t-95 16q-51 0 -96 -16t-78 -45t-52.5 -70t-19.5 -90v-466q0 -50 19.5 -90.5t52.5 -69.5t78 -45t96 -16q50 0 95 16t78.5 45t53 69.5t19.5 90.5v466zM151 112h101v439h-101v56h159v-495h104v-56h-263v56z" />
    <glyph glyph-name="cid11602" unicode="&#x2777;" 
d="M522 564q0 49 -19.5 90t-53 70t-78.5 45t-95 16q-51 0 -96 -16t-78 -45t-52.5 -70t-19.5 -90v-466q0 -50 19.5 -90.5t52.5 -69.5t78 -45t96 -16q50 0 95 16t78.5 45t53 69.5t19.5 90.5v466zM342 408v143h-132v-106h-59v162h249v-232l-190 -103v-160h190v-56h-249v250z
" />
    <glyph glyph-name="cid11603" unicode="&#x2778;" 
d="M522 564q0 49 -19.5 90t-53 70t-78.5 45t-95 16q-51 0 -96 -16t-78 -45t-52.5 -70t-19.5 -90v-466q0 -50 19.5 -90.5t52.5 -69.5t78 -45t96 -16q50 0 95 16t78.5 45t53 69.5t19.5 90.5v466zM215 309v56h74v186h-81v-106h-59v162h198v-242h65v-309h-263v162h59v-106h146
v197h-139z" />
    <glyph glyph-name="cid11604" unicode="&#x2779;" 
d="M522 564q0 49 -19.5 90t-53 70t-78.5 45t-95 16q-51 0 -96 -16t-78 -45t-52.5 -70t-19.5 -90v-466q0 -50 19.5 -90.5t52.5 -69.5t78 -45t96 -16q50 0 95 16t78.5 45t53 69.5t19.5 90.5v466zM130 219v156l154 232h81v-332h56v-56h-56v-163h-58v163h-177zM189 359v-84h118
v264z" />
    <glyph glyph-name="cid11605" unicode="&#x277a;" 
d="M522 564q0 49 -19.5 90t-53 70t-78.5 45t-95 16q-51 0 -96 -16t-78 -45t-52.5 -70t-19.5 -90v-466q0 -50 19.5 -90.5t52.5 -69.5t78 -45t96 -16q50 0 95 16t78.5 45t53 69.5t19.5 90.5v466zM145 218h59v-106h146v197h-205v298h194v-56h-135v-186h204v-309h-263v162z" />
    <glyph glyph-name="cid11606" unicode="&#x277b;" 
d="M522 564q0 49 -19.5 90t-53 70t-78.5 45t-95 16q-51 0 -96 -16t-78 -45t-52.5 -70t-19.5 -90v-466q0 -50 19.5 -90.5t52.5 -69.5t78 -45t96 -16q50 0 95 16t78.5 45t53 69.5t19.5 90.5v466zM408 365v-309h-263v551h194v-56h-135v-186h204zM350 309h-146v-197h146v197z
" />
    <glyph glyph-name="cid11607" unicode="&#x277c;" 
d="M522 564q0 49 -19.5 90t-53 70t-78.5 45t-95 16q-51 0 -96 -16t-78 -45t-52.5 -70t-19.5 -90v-466q0 -50 19.5 -90.5t52.5 -69.5t78 -45t96 -16q50 0 95 16t78.5 45t53 69.5t19.5 90.5v466zM351 408v143h-146v-106h-59v162h263v-232l-146 -79v-240h-58v274z" />
    <glyph glyph-name="cid11608" unicode="&#x277d;" 
d="M522 564q0 49 -19.5 90t-53 70t-78.5 45t-95 16q-51 0 -96 -16t-78 -45t-52.5 -70t-19.5 -90v-466q0 -50 19.5 -90.5t52.5 -69.5t78 -45t96 -16q50 0 95 16t78.5 45t53 69.5t19.5 90.5v466zM414 56h-277v298h76v253h201v-551zM196 298v-186h160v186h-160zM356 551h-85
v-197h85v197z" />
    <glyph glyph-name="cid11609" unicode="&#x277e;" 
d="M522 564q0 49 -19.5 90t-53 70t-78.5 45t-95 16q-51 0 -96 -16t-78 -45t-52.5 -70t-19.5 -90v-466q0 -50 19.5 -90.5t52.5 -69.5t78 -45t96 -16q50 0 95 16t78.5 45t53 69.5t19.5 90.5v466zM349 298h-205v309h263v-551h-194v56h136v186zM203 551v-197h146v197h-146z" />
    <glyph glyph-name="cid11610" unicode="&#x277f;" 
d="M522 564q0 49 -19.5 90t-53 70t-78.5 45t-95 16q-51 0 -96 -16t-78 -45t-52.5 -70t-19.5 -90v-466q0 -50 19.5 -90.5t52.5 -69.5t78 -45t96 -16q50 0 95 16t78.5 45t53 69.5t19.5 90.5v466zM454 607v-551h-363v56h61v439h-61v56h119v-495h51v495h193zM396 112v234
l-76 -89v-145h76zM320 551v-217l76 89v128h-76z" />
    <glyph glyph-name="cid156" unicode="&#x2e3a;" horiz-adv-x="1722" 
d="M1662 319v80h-1602v-80h1602z" />
    <glyph glyph-name="cid157" unicode="&#x2e3b;" horiz-adv-x="2523" 
d="M2463 399h-2403v-80h2403v80z" />
    <glyph glyph-name="cid12106" unicode="&#x3003;" 
d="M264 190h68l90 298h-98zM130 190h68l90 298h-98z" />
    <glyph glyph-name="cid160" unicode="&#x300a;" horiz-adv-x="526" 
d="M274 -102h76l-230 442l230 441h-76l-230 -441zM410 -102h76l-230 442l230 441h-76l-230 -441z" />
    <glyph glyph-name="cid161" unicode="&#x300b;" horiz-adv-x="526" 
d="M482 340l-230 441h-76l230 -441l-230 -442h76zM346 340l-230 441h-76l230 -441l-230 -442h76z" />
    <glyph glyph-name="cid162" unicode="&#x300c;" horiz-adv-x="307" 
d="M153 401v300h114v80h-197v-380h83z" />
    <glyph glyph-name="cid163" unicode="&#x300d;" horiz-adv-x="307" 
d="M154 278v-300h-114v-80h197v380h-83z" />
    <glyph glyph-name="cid164" unicode="&#x300e;" horiz-adv-x="307" 
d="M277 781h-207v-390h134v262h73v128zM154 701v-262h-34v294h107v-32h-73z" />
    <glyph glyph-name="cid165" unicode="&#x300f;" horiz-adv-x="307" 
d="M30 -102h207v390h-134v-262h-73v-128zM153 -22v262h34v-294h-107v32h73z" />
    <glyph glyph-name="cid170" unicode="&#x3131;" 
d="M410 58h80v553h-433v-75h353v-478z" />
    <glyph glyph-name="cid170" unicode="&#xffa1;" 
d="M410 58h80v553h-433v-75h353v-478z" />
    <glyph glyph-name="cid171" unicode="&#x3132;" 
d="M181 63h78v548h-201v-73h123v-475zM412 63h78v548h-199v-73h121v-475z" />
    <glyph glyph-name="cid171" unicode="&#xffa2;" 
d="M181 63h78v548h-201v-73h123v-475zM412 63h78v548h-199v-73h121v-475z" />
    <glyph glyph-name="cid172" unicode="&#x3133;" 
d="M421 615h-105l-77 -484v480h-181v-73h103v-470h138l69 497l68 -497h74z" />
    <glyph glyph-name="cid172" unicode="&#xffa3;" 
d="M421 615h-105l-77 -484v480h-181v-73h103v-470h138l69 497l68 -497h74z" />
    <glyph glyph-name="cid173" unicode="&#x3134;" 
d="M142 616h-80v-548h433v75h-353v473z" />
    <glyph glyph-name="cid173" unicode="&#xffa4;" 
d="M142 616h-80v-548h433v75h-353v473z" />
    <glyph glyph-name="cid174" unicode="&#x3135;" 
d="M492 611h-253v-71h64l-61 -402h-104v473h-78v-543h244l61 452l60 -452h75l-74 472h66v71z" />
    <glyph glyph-name="cid174" unicode="&#xffa5;" 
d="M492 611h-253v-71h64l-61 -402h-104v473h-78v-543h244l61 452l60 -452h75l-74 472h66v71z" />
    <glyph glyph-name="cid175" unicode="&#x3136;" 
d="M136 611h-78v-543h175v70h-97v473zM241 488h261v71h-91v92h-78v-92h-92v-71zM490 348q0 24 -9 44.5t-25 35t-38 22.5t-47 8q-51 0 -84.5 -30.5t-33.5 -79.5v-180q0 -49 33.5 -79.5t84.5 -30.5q25 0 47 8t38 22.5t25 35t9 44.5v180zM329 348q0 19 12.5 29.5t29.5 10.5
t30 -10.5t13 -29.5v-180q0 -19 -13 -29.5t-30 -10.5t-29.5 10.5t-12.5 29.5v180z" />
    <glyph glyph-name="cid175" unicode="&#xffa6;" 
d="M136 611h-78v-543h175v70h-97v473zM241 488h261v71h-91v92h-78v-92h-92v-71zM490 348q0 24 -9 44.5t-25 35t-38 22.5t-47 8q-51 0 -84.5 -30.5t-33.5 -79.5v-180q0 -49 33.5 -79.5t84.5 -30.5q25 0 47 8t38 22.5t25 35t9 44.5v180zM329 348q0 19 12.5 29.5t29.5 10.5
t30 -10.5t13 -29.5v-180q0 -19 -13 -29.5t-30 -10.5t-29.5 10.5t-12.5 29.5v180z" />
    <glyph glyph-name="cid176" unicode="&#x3137;" 
d="M490 611h-428v-543h432v74h-352v395h348v74z" />
    <glyph glyph-name="cid176" unicode="&#xffa7;" 
d="M490 611h-428v-543h432v74h-352v395h348v74z" />
    <glyph glyph-name="cid177" unicode="&#x3138;" 
d="M258 611h-198v-543h198v74h-120v395h120v74zM492 611h-204v-543h208v74h-130v395h126v74z" />
    <glyph glyph-name="cid177" unicode="&#xffa8;" 
d="M258 611h-198v-543h198v74h-120v395h120v74zM492 611h-204v-543h208v74h-130v395h126v74z" />
    <glyph glyph-name="cid178" unicode="&#x3139;" 
d="M62 539h350v-159h-350v-312h432v72h-354v170h350v301h-428v-72z" />
    <glyph glyph-name="cid178" unicode="&#xffa9;" 
d="M62 539h350v-159h-350v-312h432v72h-354v170h350v301h-428v-72z" />
    <glyph glyph-name="cid179" unicode="&#x313a;" 
d="M58 541h134v-164h-134v-309h252v70h-176v171h134v302h-210v-70zM494 63v548h-198v-70h120v-478h78z" />
    <glyph glyph-name="cid179" unicode="&#xffaa;" 
d="M58 541h134v-164h-134v-309h252v70h-176v171h134v302h-210v-70zM494 63v548h-198v-70h120v-478h78z" />
    <glyph glyph-name="cid180" unicode="&#x313b;" 
d="M56 541h122v-164h-122v-309h204v70h-130v171h122v302h-196v-70zM496 68v543h-210v-543h210zM426 543v-407h-70v407h70z" />
    <glyph glyph-name="cid180" unicode="&#xffab;" 
d="M56 541h122v-164h-122v-309h204v70h-130v171h122v302h-196v-70zM496 68v543h-210v-543h210zM426 543v-407h-70v407h70z" />
    <glyph glyph-name="cid181" unicode="&#x313c;" 
d="M356 613h-70v-545h210v545h-70v-200h-70v200zM56 541h122v-164h-122v-309h204v70h-130v171h122v302h-196v-70zM426 136h-70v211h70v-211z" />
    <glyph glyph-name="cid181" unicode="&#xffac;" 
d="M356 613h-70v-545h210v545h-70v-200h-70v200zM56 541h122v-164h-122v-309h204v70h-130v171h122v302h-196v-70zM426 136h-70v211h70v-211z" />
    <glyph glyph-name="cid182" unicode="&#x313d;" 
d="M56 541h122v-164h-122v-309h266l61 497l60 -497h73l-76 547h-114l-64 -477h-132v171h122v302h-196v-70z" />
    <glyph glyph-name="cid182" unicode="&#xffad;" 
d="M56 541h122v-164h-122v-309h266l61 497l60 -497h73l-76 547h-114l-64 -477h-132v171h122v302h-196v-70z" />
    <glyph glyph-name="cid183" unicode="&#x313e;" 
d="M56 541h129v-164h-129v-309h211v70h-137v171h129v302h-203v-70zM496 611h-203v-543h208v70h-134v171h121v68h-121v164h129v70z" />
    <glyph glyph-name="cid183" unicode="&#xffae;" 
d="M56 541h129v-164h-129v-309h211v70h-137v171h129v302h-203v-70zM496 611h-203v-543h208v70h-134v171h121v68h-121v164h129v70z" />
    <glyph glyph-name="cid184" unicode="&#x313f;" 
d="M56 541h122v-164h-122v-309h204v70h-130v171h122v302h-196v-70zM407 513v-377h-30v377h-72v-377h-25v-68h224v68h-25v377h-72zM503 543v68h-222v-68h222z" />
    <glyph glyph-name="cid184" unicode="&#xffaf;" 
d="M56 541h122v-164h-122v-309h204v70h-130v171h122v302h-196v-70zM407 513v-377h-30v377h-72v-377h-25v-68h224v68h-25v377h-72zM503 543v68h-222v-68h222z" />
    <glyph glyph-name="cid185" unicode="&#x3140;" 
d="M56 541h115v-164h-115v-309h204v70h-130v171h115v302h-189v-70zM271 488h237v71h-79v92h-78v-92h-80v-71zM496 353q0 48 -30 76.5t-77 28.5t-76.5 -28.5t-29.5 -76.5v-190q0 -48 29.5 -76.5t76.5 -28.5t77 28.5t30 76.5v190zM357 354q0 17 9 25.5t23 8.5t23.5 -8.5
t9.5 -25.5v-192q0 -17 -9.5 -25.5t-23.5 -8.5t-23 8.5t-9 25.5v192z" />
    <glyph glyph-name="cid185" unicode="&#xffb0;" 
d="M56 541h115v-164h-115v-309h204v70h-130v171h115v302h-189v-70zM271 488h237v71h-79v92h-78v-92h-80v-71zM496 353q0 48 -30 76.5t-77 28.5t-76.5 -28.5t-29.5 -76.5v-190q0 -48 29.5 -76.5t76.5 -28.5t77 28.5t30 76.5v190zM357 354q0 17 9 25.5t23 8.5t23.5 -8.5
t9.5 -25.5v-192q0 -17 -9.5 -25.5t-23.5 -8.5t-23 8.5t-9 25.5v192z" />
    <glyph glyph-name="cid186" unicode="&#x3141;" 
d="M490 68v543h-428v-543h428zM412 538v-397h-272v397h272z" />
    <glyph glyph-name="cid186" unicode="&#xffb1;" 
d="M490 68v543h-428v-543h428zM412 538v-397h-272v397h272z" />
    <glyph glyph-name="cid187" unicode="&#x3142;" 
d="M490 68v545h-78v-200h-272v200h-78v-545h428zM412 340v-199h-272v199h272z" />
    <glyph glyph-name="cid187" unicode="&#xffb2;" 
d="M490 68v545h-78v-200h-272v200h-78v-545h428zM412 340v-199h-272v199h272z" />
    <glyph glyph-name="cid188" unicode="&#x3143;" 
d="M491 68v545h-76v-201h-101v199h-76v-199h-101v201h-76v-545h430zM415 342v-203h-101v203h101zM137 342h101v-203h-101v203z" />
    <glyph glyph-name="cid188" unicode="&#xffb3;" 
d="M491 68v545h-76v-201h-101v199h-76v-199h-101v201h-76v-545h430zM415 342v-203h-101v203h101zM137 342h101v-203h-101v203z" />
    <glyph glyph-name="cid189" unicode="&#x3144;" 
d="M440 615h-114l-64 -486v484h-72v-200h-62v200h-72v-545h265l62 497l60 -497h73zM190 136h-62v211h62v-211z" />
    <glyph glyph-name="cid189" unicode="&#xffb4;" 
d="M440 615h-114l-64 -486v484h-72v-200h-62v200h-72v-545h265l62 497l60 -497h73zM190 136h-62v211h62v-211z" />
    <glyph glyph-name="cid190" unicode="&#x3145;" 
d="M505 68l-181 547h-96l-181 -547h83l146 461l146 -461h83z" />
    <glyph glyph-name="cid190" unicode="&#xffb5;" 
d="M505 68l-181 547h-96l-181 -547h83l146 461l146 -461h83z" />
    <glyph glyph-name="cid191" unicode="&#x3146;" 
d="M331 68l55 495l46 -495h74l-64 545h-111l-55 -492l-55 492h-111l-64 -545h74l46 495l55 -495h110z" />
    <glyph glyph-name="cid191" unicode="&#xffb6;" 
d="M331 68l55 495l46 -495h74l-64 545h-111l-55 -492l-55 492h-111l-64 -545h74l46 495l55 -495h110z" />
    <glyph glyph-name="cid192" unicode="&#x3147;" 
d="M490 222q0 -39 -16.5 -71.5t-45.5 -55t-68 -35t-84 -12.5t-84 12.5t-68 35t-45.5 55t-16.5 71.5v235q0 39 16.5 71.5t45.5 55t68 35t84 12.5t84 -12.5t68 -35t45.5 -55t16.5 -71.5v-235zM412 452q0 25 -10.5 45t-29 33.5t-43.5 20.5t-53 7q-29 0 -53.5 -7t-43 -20.5
t-29 -33.5t-10.5 -45v-225q0 -25 10.5 -45t29 -33.5t43 -20.5t53.5 -7q28 0 53 7t43.5 20.5t29 33.5t10.5 45v225z" />
    <glyph glyph-name="cid192" unicode="&#xffb7;" 
d="M490 222q0 -39 -16.5 -71.5t-45.5 -55t-68 -35t-84 -12.5t-84 12.5t-68 35t-45.5 55t-16.5 71.5v235q0 39 16.5 71.5t45.5 55t68 35t84 12.5t84 -12.5t68 -35t45.5 -55t16.5 -71.5v-235zM412 452q0 25 -10.5 45t-29 33.5t-43.5 20.5t-53 7q-29 0 -53.5 -7t-43 -20.5
t-29 -33.5t-10.5 -45v-225q0 -25 10.5 -45t29 -33.5t43 -20.5t53.5 -7q28 0 53 7t43.5 20.5t29 33.5t10.5 45v225z" />
    <glyph glyph-name="cid193" unicode="&#x3148;" 
d="M60 540h151l-164 -472h82l147 444l147 -444h82l-165 472h152v71h-432v-71z" />
    <glyph glyph-name="cid193" unicode="&#xffb8;" 
d="M60 540h151l-164 -472h82l147 444l147 -444h82l-165 472h152v71h-432v-71z" />
    <glyph glyph-name="cid194" unicode="&#x3149;" 
d="M58 541h47l-59 -473h74l46 463l55 -463h110l55 463l46 -463h74l-59 473h47v70h-436v-70zM226 541h100l-50 -423z" />
    <glyph glyph-name="cid194" unicode="&#xffb9;" 
d="M58 541h47l-59 -473h74l46 463l55 -463h110l55 463l46 -463h74l-59 473h47v70h-436v-70zM226 541h100l-50 -423z" />
    <glyph glyph-name="cid195" unicode="&#x314a;" 
d="M60 478h149l-162 -410h82l147 390l147 -390h82l-162 410h149v71h-176v102h-80v-102h-176v-71z" />
    <glyph glyph-name="cid195" unicode="&#xffba;" 
d="M60 478h149l-162 -410h82l147 390l147 -390h82l-162 410h149v71h-176v102h-80v-102h-176v-71z" />
    <glyph glyph-name="cid196" unicode="&#x314b;" 
d="M410 58h80v553h-428v-74h348v-190h-353v-72h353v-217z" />
    <glyph glyph-name="cid196" unicode="&#xffbb;" 
d="M410 58h80v553h-428v-74h348v-190h-353v-72h353v-217z" />
    <glyph glyph-name="cid197" unicode="&#x314c;" 
d="M490 611h-428v-543h432v72h-354v170h340v70h-340v159h350v72z" />
    <glyph glyph-name="cid197" unicode="&#xffbc;" 
d="M490 611h-428v-543h432v72h-354v170h340v70h-340v159h350v72z" />
    <glyph glyph-name="cid198" unicode="&#x314d;" 
d="M336 508v-367h-120v367h-78v-367h-81v-73h438v73h-81v367h-78zM492 538v73h-432v-73h432z" />
    <glyph glyph-name="cid198" unicode="&#xffbd;" 
d="M336 508v-367h-120v367h-78v-367h-81v-73h438v73h-81v367h-78zM492 538v73h-432v-73h432z" />
    <glyph glyph-name="cid199" unicode="&#x314e;" 
d="M48 486h456v73h-188v92h-80v-92h-188v-73zM338 58q33 0 61 14t48.5 38t31.5 56.5t11 70.5q0 37 -11 70t-31.5 57t-48.5 38t-61 14h-124q-33 0 -61 -14t-48.5 -38t-31.5 -57t-11 -70q0 -38 11 -70.5t31.5 -56.5t48.5 -38t61 -14h124zM140 237q0 48 21 78t56 30h118
q35 0 56 -30t21 -78t-21 -78t-56 -30h-118q-35 0 -56 30t-21 78z" />
    <glyph glyph-name="cid199" unicode="&#xffbe;" 
d="M48 486h456v73h-188v92h-80v-92h-188v-73zM338 58q33 0 61 14t48.5 38t31.5 56.5t11 70.5q0 37 -11 70t-31.5 57t-48.5 38t-61 14h-124q-33 0 -61 -14t-48.5 -38t-31.5 -57t-11 -70q0 -38 11 -70.5t31.5 -56.5t48.5 -38t61 -14h124zM140 237q0 48 21 78t56 30h118
q35 0 56 -30t21 -78t-21 -78t-56 -30h-118q-35 0 -56 30t-21 78z" />
    <glyph glyph-name="cid200" unicode="&#x314f;" 
d="M296 769h-80v-856h80v428h194v74h-194v354z" />
    <glyph glyph-name="cid200" unicode="&#xffc2;" 
d="M296 769h-80v-856h80v428h194v74h-194v354z" />
    <glyph glyph-name="cid201" unicode="&#x3150;" 
d="M207 767h-78v-848h78v422h131v-428h80v856h-80v-354h-131v352z" />
    <glyph glyph-name="cid201" unicode="&#xffc3;" 
d="M207 767h-78v-848h78v422h131v-428h80v856h-80v-354h-131v352z" />
    <glyph glyph-name="cid202" unicode="&#x3151;" 
d="M296 769h-80v-856h80v244h189v74h-189v256h189v74h-189v208z" />
    <glyph glyph-name="cid202" unicode="&#xffc4;" 
d="M296 769h-80v-856h80v244h189v74h-189v256h189v74h-189v208z" />
    <glyph glyph-name="cid203" unicode="&#x3152;" 
d="M207 767h-78v-848h78v238h131v-244h80v856h-80v-208h-131v206zM207 487h131v-256h-131v256z" />
    <glyph glyph-name="cid203" unicode="&#xffc5;" 
d="M207 767h-78v-848h78v238h131v-244h80v856h-80v-208h-131v206zM207 487h131v-256h-131v256z" />
    <glyph glyph-name="cid204" unicode="&#x3153;" 
d="M256 -87h80v856h-80v-354h-194v-74h194v-428z" />
    <glyph glyph-name="cid204" unicode="&#xffc6;" 
d="M256 -87h80v856h-80v-354h-194v-74h194v-428z" />
    <glyph glyph-name="cid205" unicode="&#x3154;" 
d="M267 767h-78v-352h-137v-74h137v-422h78v848zM438 769h-80v-856h80v856z" />
    <glyph glyph-name="cid205" unicode="&#xffc7;" 
d="M267 767h-78v-352h-137v-74h137v-422h78v848zM438 769h-80v-856h80v856z" />
    <glyph glyph-name="cid206" unicode="&#x3155;" 
d="M256 -87h80v856h-80v-208h-189v-74h189v-256h-189v-74h189v-244z" />
    <glyph glyph-name="cid206" unicode="&#xffca;" 
d="M256 -87h80v856h-80v-208h-189v-74h189v-256h-189v-74h189v-244z" />
    <glyph glyph-name="cid207" unicode="&#x3156;" 
d="M57 487h132v-256h-132v-74h132v-238h78v848h-78v-206h-132v-74zM438 769h-80v-856h80v856z" />
    <glyph glyph-name="cid207" unicode="&#xffcb;" 
d="M57 487h132v-256h-132v-74h132v-238h78v848h-78v-206h-132v-74zM438 769h-80v-856h80v856z" />
    <glyph glyph-name="cid208" unicode="&#x3157;" 
d="M37 68h478v74h-199v399h-80v-399h-199v-74z" />
    <glyph glyph-name="cid208" unicode="&#xffcc;" 
d="M37 68h478v74h-199v399h-80v-399h-199v-74z" />
    <glyph glyph-name="cid209" unicode="&#x3158;" 
d="M462 769h-80v-856h80v428h85v74h-85v354zM26 68h326v74h-123v399h-80v-399h-123v-74z" />
    <glyph glyph-name="cid209" unicode="&#xffcd;" 
d="M462 769h-80v-856h80v428h85v74h-85v354zM26 68h326v74h-123v399h-80v-399h-123v-74z" />
    <glyph glyph-name="cid210" unicode="&#x3159;" 
d="M368 767h-75v-625h-95v399h-77v-399h-95v-74h267v-149h75v422h54v-428h77v856h-77v-354h-54v352z" />
    <glyph glyph-name="cid210" unicode="&#xffce;" 
d="M368 767h-75v-625h-95v399h-77v-399h-95v-74h267v-149h75v422h54v-428h77v856h-77v-354h-54v352z" />
    <glyph glyph-name="cid211" unicode="&#x315a;" 
d="M491 769h-80v-856h80v856zM31 68h345v74h-132v399h-80v-399h-133v-74z" />
    <glyph glyph-name="cid211" unicode="&#xffcf;" 
d="M491 769h-80v-856h80v856zM31 68h345v74h-132v399h-80v-399h-133v-74z" />
    <glyph glyph-name="cid212" unicode="&#x315b;" 
d="M37 68h478v74h-97v399h-80v-399h-124v399h-80v-399h-97v-74z" />
    <glyph glyph-name="cid212" unicode="&#xffd2;" 
d="M37 68h478v74h-97v399h-80v-399h-124v399h-80v-399h-97v-74z" />
    <glyph glyph-name="cid213" unicode="&#x315c;" 
d="M37 316h199v-399h80v399h199v74h-478v-74z" />
    <glyph glyph-name="cid213" unicode="&#xffd3;" 
d="M37 316h199v-399h80v399h199v74h-478v-74z" />
    <glyph glyph-name="cid214" unicode="&#x315d;" 
d="M297 105h114v-192h80v856h-80v-592h-114v-72zM31 316h116v-398h80v398h149v74h-345v-74z" />
    <glyph glyph-name="cid214" unicode="&#xffd4;" 
d="M297 105h114v-192h80v856h-80v-592h-114v-72zM31 316h116v-398h80v398h149v74h-345v-74z" />
    <glyph glyph-name="cid215" unicode="&#x315e;" 
d="M228 105h75v-186h75v848h-75v-377h-277v-74h84v-398h78v398h115v-139h-75v-72zM499 769h-77v-856h77v856z" />
    <glyph glyph-name="cid215" unicode="&#xffd5;" 
d="M228 105h75v-186h75v848h-75v-377h-277v-74h84v-398h78v398h115v-139h-75v-72zM499 769h-77v-856h77v856z" />
    <glyph glyph-name="cid216" unicode="&#x315f;" 
d="M491 769h-80v-856h80v856zM31 316h121v-398h80v398h144v74h-345v-74z" />
    <glyph glyph-name="cid216" unicode="&#xffd6;" 
d="M491 769h-80v-856h80v856zM31 316h121v-398h80v398h144v74h-345v-74z" />
    <glyph glyph-name="cid217" unicode="&#x3160;" 
d="M37 316h97v-399h80v399h124v-399h80v399h97v74h-478v-74z" />
    <glyph glyph-name="cid217" unicode="&#xffd7;" 
d="M37 316h97v-399h80v399h124v-399h80v399h97v74h-478v-74z" />
    <glyph glyph-name="cid218" unicode="&#x3161;" 
d="M37 68h478v74h-478v-74z" />
    <glyph glyph-name="cid218" unicode="&#xffda;" 
d="M37 68h478v74h-478v-74z" />
    <glyph glyph-name="cid219" unicode="&#x3162;" 
d="M491 769h-80v-856h80v856zM31 68h345v74h-345v-74z" />
    <glyph glyph-name="cid219" unicode="&#xffdb;" 
d="M491 769h-80v-856h80v856zM31 68h345v74h-345v-74z" />
    <glyph glyph-name="cid220" unicode="&#x3163;" 
d="M316 769h-80v-856h80v856z" />
    <glyph glyph-name="cid220" unicode="&#xffdc;" 
d="M316 769h-80v-856h80v856z" />
    <glyph glyph-name="cid11642" unicode="&#x3251;" 
d="M522 564q0 49 -19.5 90t-53 70t-78.5 45t-95 16q-51 0 -96 -16t-78 -45t-52.5 -70t-19.5 -90v-466q0 -50 19.5 -90.5t52.5 -69.5t78 -45t96 -16q50 0 95 16t78.5 45t53 69.5t19.5 90.5v466zM492 98q0 -45 -16.5 -80t-45 -60t-68.5 -38t-86 -13q-47 0 -87 13t-68.5 38
t-44.5 60t-16 80v466q0 45 16 80t44.5 60t68.5 38t87 13q46 0 86 -13t68.5 -38t45 -60t16.5 -80v-466zM208 397l-104 -104v-237h162v56h-103v162l103 103v230h-162v-162h59v106h45v-154zM467 112h-52v495h-119v-56h61v-439h-52v-56h162v56z" />
    <glyph glyph-name="cid11643" unicode="&#x3252;" 
d="M522 564q0 49 -19.5 90t-53 70t-78.5 45t-95 16q-51 0 -96 -16t-78 -45t-52.5 -70t-19.5 -90v-466q0 -50 19.5 -90.5t52.5 -69.5t78 -45t96 -16q50 0 95 16t78.5 45t53 69.5t19.5 90.5v466zM492 98q0 -45 -16.5 -80t-45 -60t-68.5 -38t-86 -13q-47 0 -87 13t-68.5 38
t-44.5 60t-16 80v466q0 45 16 80t44.5 60t68.5 38t87 13q46 0 86 -13t68.5 -38t45 -60t16.5 -80v-466zM203 397l-104 -104v-237h162v56h-103v162l103 103v230h-162v-162h59v106h45v-154zM393 397l-104 -104v-237h162v56h-103v162l103 103v230h-162v-162h59v106h45v-154z" />
    <glyph glyph-name="cid11644" unicode="&#x3253;" 
d="M522 564q0 49 -19.5 90t-53 70t-78.5 45t-95 16q-51 0 -96 -16t-78 -45t-52.5 -70t-19.5 -90v-466q0 -50 19.5 -90.5t52.5 -69.5t78 -45t96 -16q50 0 95 16t78.5 45t53 69.5t19.5 90.5v466zM492 98q0 -45 -16.5 -80t-45 -60t-68.5 -38t-86 -13q-47 0 -87 13t-68.5 38
t-44.5 60t-16 80v466q0 45 16 80t44.5 60t68.5 38t87 13q46 0 86 -13t68.5 -38t45 -60t16.5 -80v-466zM463 56v309h-38v242h-153v-162h59v106h36v-186h-29v-56h67v-197h-74v106h-59v-162h191zM192 397l-100 -104v-237h158v56h-99v162l99 103v230h-158v-162h59v106h41v-154z
" />
    <glyph glyph-name="cid11645" unicode="&#x3254;" 
d="M522 564q0 49 -19.5 90t-53 70t-78.5 45t-95 16q-51 0 -96 -16t-78 -45t-52.5 -70t-19.5 -90v-466q0 -50 19.5 -90.5t52.5 -69.5t78 -45t96 -16q50 0 95 16t78.5 45t53 69.5t19.5 90.5v466zM492 98q0 -45 -16.5 -80t-45 -60t-68.5 -38t-86 -13q-47 0 -87 13t-68.5 38
t-44.5 60t-16 80v466q0 45 16 80t44.5 60t68.5 38t87 13q46 0 86 -13t68.5 -38t45 -60t16.5 -80v-466zM268 219h112v-163h58v163h36v56h-36v332h-92l-78 -279v-109zM203 397l-104 -104v-237h162v56h-103v162l103 103v230h-162v-162h59v106h45v-154zM325 328l55 213v-266h-55
v53z" />
    <glyph glyph-name="cid11646" unicode="&#x3255;" 
d="M522 564q0 49 -19.5 90t-53 70t-78.5 45t-95 16q-51 0 -96 -16t-78 -45t-52.5 -70t-19.5 -90v-466q0 -50 19.5 -90.5t52.5 -69.5t78 -45t96 -16q50 0 95 16t78.5 45t53 69.5t19.5 90.5v466zM492 98q0 -45 -16.5 -80t-45 -60t-68.5 -38t-86 -13q-47 0 -87 13t-68.5 38
t-44.5 60t-16 80v466q0 45 16 80t44.5 60t68.5 38t87 13q46 0 86 -13t68.5 -38t45 -60t16.5 -80v-466zM458 56v309h-114v186h85v56h-144v-298h115v-197h-56v106h-59v-162h173zM198 397l-104 -104v-237h162v56h-103v162l103 103v230h-162v-162h59v106h45v-154z" />
    <glyph glyph-name="cid11647" unicode="&#x3256;" 
d="M522 564q0 49 -19.5 90t-53 70t-78.5 45t-95 16q-51 0 -96 -16t-78 -45t-52.5 -70t-19.5 -90v-466q0 -50 19.5 -90.5t52.5 -69.5t78 -45t96 -16q50 0 95 16t78.5 45t53 69.5t19.5 90.5v466zM492 98q0 -45 -16.5 -80t-45 -60t-68.5 -38t-86 -13q-47 0 -87 13t-68.5 38
t-44.5 60t-16 80v466q0 45 16 80t44.5 60t68.5 38t87 13q46 0 86 -13t68.5 -38t45 -60t16.5 -80v-466zM458 56v309h-114v186h85v56h-144v-551h173zM198 397l-104 -104v-237h162v56h-103v162l103 103v230h-162v-162h59v106h45v-154zM400 309v-197h-56v197h56z" />
    <glyph glyph-name="cid11648" unicode="&#x3257;" 
d="M522 564q0 49 -19.5 90t-53 70t-78.5 45t-95 16q-51 0 -96 -16t-78 -45t-52.5 -70t-19.5 -90v-466q0 -50 19.5 -90.5t52.5 -69.5t78 -45t96 -16q50 0 95 16t78.5 45t53 69.5t19.5 90.5v466zM492 98q0 -45 -16.5 -80t-45 -60t-68.5 -38t-86 -13q-47 0 -87 13t-68.5 38
t-44.5 60t-16 80v466q0 45 16 80t44.5 60t68.5 38t87 13q46 0 86 -13t68.5 -38t45 -60t16.5 -80v-466zM198 397l-104 -104v-237h162v56h-103v162l103 103v230h-162v-162h59v106h45v-154zM400 408l-95 -109v-243h58v223l95 109v219h-173v-162h59v106h56v-143z" />
    <glyph glyph-name="cid11649" unicode="&#x3258;" 
d="M522 564q0 49 -19.5 90t-53 70t-78.5 45t-95 16q-51 0 -96 -16t-78 -45t-52.5 -70t-19.5 -90v-466q0 -50 19.5 -90.5t52.5 -69.5t78 -45t96 -16q50 0 95 16t78.5 45t53 69.5t19.5 90.5v466zM492 98q0 -45 -16.5 -80t-45 -60t-68.5 -38t-86 -13q-47 0 -87 13t-68.5 38
t-44.5 60t-16 80v466q0 45 16 80t44.5 60t68.5 38t87 13q46 0 86 -13t68.5 -38t45 -60t16.5 -80v-466zM198 397l-104 -104v-237h363v551h-158v-253h-40v-242h-106v162l103 103v230h-162v-162h59v106h45v-154zM318 298h81v-186h-81v186zM398 354h-40v197h40v-197z" />
    <glyph glyph-name="cid11650" unicode="&#x3259;" 
d="M522 564q0 49 -19.5 90t-53 70t-78.5 45t-95 16q-51 0 -96 -16t-78 -45t-52.5 -70t-19.5 -90v-466q0 -50 19.5 -90.5t52.5 -69.5t78 -45t96 -16q50 0 95 16t78.5 45t53 69.5t19.5 90.5v466zM492 98q0 -45 -16.5 -80t-45 -60t-68.5 -38t-86 -13q-47 0 -87 13t-68.5 38
t-44.5 60t-16 80v466q0 45 16 80t44.5 60t68.5 38t87 13q46 0 86 -13t68.5 -38t45 -60t16.5 -80v-466zM400 298v-186h-76v-56h134v551h-173v-309h115zM198 397l-104 -104v-237h162v56h-103v162l103 103v230h-162v-162h59v106h45v-154zM344 551h56v-197h-56v197z" />
    <glyph glyph-name="cid11651" unicode="&#x325a;" 
d="M522 564q0 49 -19.5 90t-53 70t-78.5 45t-95 16q-51 0 -96 -16t-78 -45t-52.5 -70t-19.5 -90v-466q0 -50 19.5 -90.5t52.5 -69.5t78 -45t96 -16q50 0 95 16t78.5 45t53 69.5t19.5 90.5v466zM492 98q0 -45 -16.5 -80t-45 -60t-68.5 -38t-86 -13q-47 0 -87 13t-68.5 38
t-44.5 60t-16 80v466q0 45 16 80t44.5 60t68.5 38t87 13q46 0 86 -13t68.5 -38t45 -60t16.5 -80v-466zM289 56h173v551h-173v-551zM270 56v309h-31v242h-148v-162h59v106h31v-186h-31v-56h62v-197h-62v106h-59v-162h179zM404 112h-56v157l56 55v-212zM348 551h56v-146
l-56 -56v202z" />
    <glyph glyph-name="cid11652" unicode="&#x325b;" 
d="M522 564q0 49 -19.5 90t-53 70t-78.5 45t-95 16q-51 0 -96 -16t-78 -45t-52.5 -70t-19.5 -90v-466q0 -50 19.5 -90.5t52.5 -69.5t78 -45t96 -16q50 0 95 16t78.5 45t53 69.5t19.5 90.5v466zM492 98q0 -45 -16.5 -80t-45 -60t-68.5 -38t-86 -13q-47 0 -87 13t-68.5 38
t-44.5 60t-16 80v466q0 45 16 80t44.5 60t68.5 38t87 13q46 0 86 -13t68.5 -38t45 -60t16.5 -80v-466zM285 365h-41v242h-148v-162h59v106h31v-186h-31v-56h72v-197h-72v106h-59v-162h189v309zM465 112h-52v495h-119v-56h61v-439h-52v-56h162v56z" />
    <glyph glyph-name="cid11653" unicode="&#x325c;" 
d="M522 564q0 49 -19.5 90t-53 70t-78.5 45t-95 16q-51 0 -96 -16t-78 -45t-52.5 -70t-19.5 -90v-466q0 -50 19.5 -90.5t52.5 -69.5t78 -45t96 -16q50 0 95 16t78.5 45t53 69.5t19.5 90.5v466zM492 98q0 -45 -16.5 -80t-45 -60t-68.5 -38t-86 -13q-47 0 -87 13t-68.5 38
t-44.5 60t-16 80v466q0 45 16 80t44.5 60t68.5 38t87 13q46 0 86 -13t68.5 -38t45 -60t16.5 -80v-466zM275 365h-36v242h-148v-162h59v106h31v-186h-31v-56h67v-197h-67v106h-59v-162h184v309zM403 397l-104 -104v-237h162v56h-103v162l103 103v230h-162v-162h59v106h45
v-154z" />
    <glyph glyph-name="cid11654" unicode="&#x325d;" 
d="M522 564q0 49 -19.5 90t-53 70t-78.5 45t-95 16q-51 0 -96 -16t-78 -45t-52.5 -70t-19.5 -90v-466q0 -50 19.5 -90.5t52.5 -69.5t78 -45t96 -16q50 0 95 16t78.5 45t53 69.5t19.5 90.5v466zM492 98q0 -45 -16.5 -80t-45 -60t-68.5 -38t-86 -13q-47 0 -87 13t-68.5 38
t-44.5 60t-16 80v466q0 45 16 80t44.5 60t68.5 38t87 13q46 0 86 -13t68.5 -38t45 -60t16.5 -80v-466zM267 365h-31v242h-148v-162h59v106h31v-186h-31v-56h62v-197h-62v106h-59v-162h179v309zM465 365h-31v242h-148v-162h59v106h31v-186h-31v-56h62v-197h-62v106h-59v-162
h179v309z" />
    <glyph glyph-name="cid11655" unicode="&#x325e;" 
d="M522 564q0 49 -19.5 90t-53 70t-78.5 45t-95 16q-51 0 -96 -16t-78 -45t-52.5 -70t-19.5 -90v-466q0 -50 19.5 -90.5t52.5 -69.5t78 -45t96 -16q50 0 95 16t78.5 45t53 69.5t19.5 90.5v466zM492 98q0 -45 -16.5 -80t-45 -60t-68.5 -38t-86 -13q-47 0 -87 13t-68.5 38
t-44.5 60t-16 80v466q0 45 16 80t44.5 60t68.5 38t87 13q46 0 86 -13t68.5 -38t45 -60t16.5 -80v-466zM282 219h97v-163h57v163h37v56h-37v332h-91l-63 -279v-109zM264 365h-26v242h-150v-162h59v106h33v-186h-36v-56h62v-197h-59v106h-59v-162h176v309zM339 328l40 213
v-266h-40v53z" />
    <glyph glyph-name="cid11656" unicode="&#x325f;" 
d="M522 564q0 49 -19.5 90t-53 70t-78.5 45t-95 16q-51 0 -96 -16t-78 -45t-52.5 -70t-19.5 -90v-466q0 -50 19.5 -90.5t52.5 -69.5t78 -45t96 -16q50 0 95 16t78.5 45t53 69.5t19.5 90.5v466zM492 98q0 -45 -16.5 -80t-45 -60t-68.5 -38t-86 -13q-47 0 -87 13t-68.5 38
t-44.5 60t-16 80v466q0 45 16 80t44.5 60t68.5 38t87 13q46 0 86 -13t68.5 -38t45 -60t16.5 -80v-466zM270 365h-31v242h-148v-162h59v106h31v-186h-31v-56h62v-197h-62v106h-59v-162h179v309zM462 56v309h-114v186h85v56h-144v-298h115v-197h-56v106h-59v-162h173z" />
    <glyph glyph-name="cid11657" unicode="&#x3260;" 
d="M369 133h56v387h-303v-52h247v-335zM522 564q0 49 -19.5 90t-53 70t-78.5 45t-95 16q-51 0 -96 -16t-78 -45t-52.5 -70t-19.5 -90v-466q0 -50 19.5 -90.5t52.5 -69.5t78 -45t96 -16q50 0 95 16t78.5 45t53 69.5t19.5 90.5v466zM492 98q0 -45 -16.5 -80t-45 -60t-68.5 -38
t-86 -13q-47 0 -87 13t-68.5 38t-44.5 60t-16 80v466q0 45 16 80t44.5 60t68.5 38t87 13q46 0 86 -13t68.5 -38t45 -60t16.5 -80v-466z" />
    <glyph glyph-name="cid11658" unicode="&#x3261;" 
d="M183 526h-56v-384h303v53h-247v331zM522 564q0 49 -19.5 90t-53 70t-78.5 45t-95 16q-51 0 -96 -16t-78 -45t-52.5 -70t-19.5 -90v-466q0 -50 19.5 -90.5t52.5 -69.5t78 -45t96 -16q50 0 95 16t78.5 45t53 69.5t19.5 90.5v466zM492 98q0 -45 -16.5 -80t-45 -60t-68.5 -38
t-86 -13q-47 0 -87 13t-68.5 38t-44.5 60t-16 80v466q0 45 16 80t44.5 60t68.5 38t87 13q46 0 86 -13t68.5 -38t45 -60t16.5 -80v-466z" />
    <glyph glyph-name="cid11659" unicode="&#x3262;" 
d="M426 522h-299v-381h302v52h-246v277h243v52zM522 564q0 49 -19.5 90t-53 70t-78.5 45t-95 16q-51 0 -96 -16t-78 -45t-52.5 -70t-19.5 -90v-466q0 -50 19.5 -90.5t52.5 -69.5t78 -45t96 -16q50 0 95 16t78.5 45t53 69.5t19.5 90.5v466zM492 98q0 -45 -16.5 -80t-45 -60
t-68.5 -38t-86 -13q-47 0 -87 13t-68.5 38t-44.5 60t-16 80v466q0 45 16 80t44.5 60t68.5 38t87 13q46 0 86 -13t68.5 -38t45 -60t16.5 -80v-466z" />
    <glyph glyph-name="cid11660" unicode="&#x3263;" 
d="M127 471h245v-111h-245v-219h302v51h-248v119h245v211h-299v-51zM522 564q0 49 -19.5 90t-53 70t-78.5 45t-95 16q-51 0 -96 -16t-78 -45t-52.5 -70t-19.5 -90v-466q0 -50 19.5 -90.5t52.5 -69.5t78 -45t96 -16q50 0 95 16t78.5 45t53 69.5t19.5 90.5v466zM492 98
q0 -45 -16.5 -80t-45 -60t-68.5 -38t-86 -13q-47 0 -87 13t-68.5 38t-44.5 60t-16 80v466q0 45 16 80t44.5 60t68.5 38t87 13q46 0 86 -13t68.5 -38t45 -60t16.5 -80v-466z" />
    <glyph glyph-name="cid11661" unicode="&#x3264;" 
d="M426 141v381h-300v-381h300zM371 470v-277h-190v277h190zM522 564q0 49 -19.5 90t-53 70t-78.5 45t-95 16q-51 0 -96 -16t-78 -45t-52.5 -70t-19.5 -90v-466q0 -50 19.5 -90.5t52.5 -69.5t78 -45t96 -16q50 0 95 16t78.5 45t53 69.5t19.5 90.5v466zM492 98
q0 -45 -16.5 -80t-45 -60t-68.5 -38t-86 -13q-47 0 -87 13t-68.5 38t-44.5 60t-16 80v466q0 45 16 80t44.5 60t68.5 38t87 13q46 0 86 -13t68.5 -38t45 -60t16.5 -80v-466z" />
    <glyph glyph-name="cid11662" unicode="&#x3265;" 
d="M426 142v381h-55v-140h-190v140h-55v-381h300zM371 332v-139h-190v139h190zM522 564q0 49 -19.5 90t-53 70t-78.5 45t-95 16q-51 0 -96 -16t-78 -45t-52.5 -70t-19.5 -90v-466q0 -50 19.5 -90.5t52.5 -69.5t78 -45t96 -16q50 0 95 16t78.5 45t53 69.5t19.5 90.5v466z
M492 98q0 -45 -16.5 -80t-45 -60t-68.5 -38t-86 -13q-47 0 -87 13t-68.5 38t-44.5 60t-16 80v466q0 45 16 80t44.5 60t68.5 38t87 13q46 0 86 -13t68.5 -38t45 -60t16.5 -80v-466z" />
    <glyph glyph-name="cid11663" unicode="&#x3266;" 
d="M436 142l-126 383h-68l-126 -383h58l102 323l102 -323h58zM522 564q0 49 -19.5 90t-53 70t-78.5 45t-95 16q-51 0 -96 -16t-78 -45t-52.5 -70t-19.5 -90v-466q0 -50 19.5 -90.5t52.5 -69.5t78 -45t96 -16q50 0 95 16t78.5 45t53 69.5t19.5 90.5v466zM492 98
q0 -45 -16.5 -80t-45 -60t-68.5 -38t-86 -13q-47 0 -87 13t-68.5 38t-44.5 60t-16 80v466q0 45 16 80t44.5 60t68.5 38t87 13q46 0 86 -13t68.5 -38t45 -60t16.5 -80v-466z" />
    <glyph glyph-name="cid11664" unicode="&#x3267;" 
d="M426 249q0 -27 -12 -49.5t-32 -38.5t-47.5 -25t-58.5 -9t-58.5 9t-47.5 25t-32 38.5t-12 49.5v165q0 27 12 49.5t32 38.5t47.5 25t58.5 9t58.5 -9t47.5 -25t32 -38.5t12 -49.5v-165zM371 410q0 35 -27.5 54.5t-67.5 19.5t-67.5 -19.5t-27.5 -54.5v-157q0 -35 27.5 -54.5
t67.5 -19.5t67.5 19.5t27.5 54.5v157zM522 98q0 -50 -19.5 -90.5t-53 -69.5t-78.5 -45t-95 -16q-51 0 -96 16t-78 45t-52.5 69.5t-19.5 90.5v466q0 49 19.5 90t52.5 70t78 45t96 16q50 0 95 -16t78.5 -45t53 -70t19.5 -90v-466zM492 564q0 45 -16.5 80t-45 60t-68.5 38
t-86 13q-47 0 -87 -13t-68.5 -38t-44.5 -60t-16 -80v-466q0 -45 16 -80t44.5 -60t68.5 -38t87 -13q46 0 86 13t68.5 38t45 60t16.5 80v466z" />
    <glyph glyph-name="cid11665" unicode="&#x3268;" 
d="M522 564q0 49 -19.5 90t-53 70t-78.5 45t-95 16q-51 0 -96 -16t-78 -45t-52.5 -70t-19.5 -90v-466q0 -50 19.5 -90.5t52.5 -69.5t78 -45t96 -16q50 0 95 16t78.5 45t53 69.5t19.5 90.5v466zM492 98q0 -45 -16.5 -80t-45 -60t-68.5 -38t-86 -13q-47 0 -87 13t-68.5 38
t-44.5 60t-16 80v466q0 45 16 80t44.5 60t68.5 38t87 13q46 0 86 -13t68.5 -38t45 -60t16.5 -80v-466zM125 472h105l-114 -331h57l103 311l103 -311h57l-115 331h106v50h-302v-50z" />
    <glyph glyph-name="cid11666" unicode="&#x3269;" 
d="M522 564q0 49 -19.5 90t-53 70t-78.5 45t-95 16q-51 0 -96 -16t-78 -45t-52.5 -70t-19.5 -90v-466q0 -50 19.5 -90.5t52.5 -69.5t78 -45t96 -16q50 0 95 16t78.5 45t53 69.5t19.5 90.5v466zM492 98q0 -45 -16.5 -80t-45 -60t-68.5 -38t-86 -13q-47 0 -87 13t-68.5 38
t-44.5 60t-16 80v466q0 45 16 80t44.5 60t68.5 38t87 13q46 0 86 -13t68.5 -38t45 -60t16.5 -80v-466zM125 434h103l-112 -287h57l103 273l103 -273h57l-113 287h104v50h-123v72h-56v-72h-123v-50z" />
    <glyph glyph-name="cid11667" unicode="&#x326a;" 
d="M522 564q0 49 -19.5 90t-53 70t-78.5 45t-95 16q-51 0 -96 -16t-78 -45t-52.5 -70t-19.5 -90v-466q0 -50 19.5 -90.5t52.5 -69.5t78 -45t96 -16q50 0 95 16t78.5 45t53 69.5t19.5 90.5v466zM492 98q0 -45 -16.5 -80t-45 -60t-68.5 -38t-86 -13q-47 0 -87 13t-68.5 38
t-44.5 60t-16 80v466q0 45 16 80t44.5 60t68.5 38t87 13q46 0 86 -13t68.5 -38t45 -60t16.5 -80v-466zM369 133h56v387h-300v-52h244v-133h-247v-50h247v-152z" />
    <glyph glyph-name="cid11668" unicode="&#x326b;" 
d="M426 522h-299v-381h302v51h-248v119h238v49h-238v111h245v51zM522 564q0 49 -19.5 90t-53 70t-78.5 45t-95 16q-51 0 -96 -16t-78 -45t-52.5 -70t-19.5 -90v-466q0 -50 19.5 -90.5t52.5 -69.5t78 -45t96 -16q50 0 95 16t78.5 45t53 69.5t19.5 90.5v466zM492 98
q0 -45 -16.5 -80t-45 -60t-68.5 -38t-86 -13q-47 0 -87 13t-68.5 38t-44.5 60t-16 80v466q0 45 16 80t44.5 60t68.5 38t87 13q46 0 86 -13t68.5 -38t45 -60t16.5 -80v-466z" />
    <glyph glyph-name="cid11669" unicode="&#x326c;" 
d="M318 449v-256h-84v256h-55v-256h-56v-52h306v52h-56v256h-55zM427 470v52h-302v-52h302zM522 564q0 49 -19.5 90t-53 70t-78.5 45t-95 16q-51 0 -96 -16t-78 -45t-52.5 -70t-19.5 -90v-466q0 -50 19.5 -90.5t52.5 -69.5t78 -45t96 -16q50 0 95 16t78.5 45t53 69.5
t19.5 90.5v466zM492 98q0 -45 -16.5 -80t-45 -60t-68.5 -38t-86 -13q-47 0 -87 13t-68.5 38t-44.5 60t-16 80v466q0 45 16 80t44.5 60t68.5 38t87 13q46 0 86 -13t68.5 -38t45 -60t16.5 -80v-466z" />
    <glyph glyph-name="cid11670" unicode="&#x326d;" 
d="M116 447h320v51h-132v64h-56v-64h-132v-51zM319 147q48 0 77.5 36t29.5 89q0 26 -8 49t-22 40t-33.5 27t-43.5 10h-86q-24 0 -43.5 -10t-33.5 -27t-22 -40t-8 -49q0 -53 29.5 -89t77.5 -36h86zM181 272q0 33 14.5 54.5t39.5 21.5h82q24 0 39 -21.5t15 -54.5t-15 -54
t-39 -21h-82q-25 0 -39.5 21t-14.5 54zM522 564q0 49 -19.5 90t-53 70t-78.5 45t-95 16q-51 0 -96 -16t-78 -45t-52.5 -70t-19.5 -90v-466q0 -50 19.5 -90.5t52.5 -69.5t78 -45t96 -16q50 0 95 16t78.5 45t53 69.5t19.5 90.5v466zM492 98q0 -45 -16.5 -80t-45 -60t-68.5 -38
t-86 -13q-47 0 -87 13t-68.5 38t-44.5 60t-16 80v466q0 45 16 80t44.5 60t68.5 38t87 13q46 0 86 -13t68.5 -38t45 -60t16.5 -80v-466z" />
    <glyph glyph-name="cid11671" unicode="&#x326e;" 
d="M522 564q0 49 -19.5 90t-53 70t-78.5 45t-95 16q-51 0 -96 -16t-78 -45t-52.5 -70t-19.5 -90v-466q0 -50 19.5 -90.5t52.5 -69.5t78 -45t96 -16q50 0 95 16t78.5 45t53 69.5t19.5 90.5v466zM492 98q0 -45 -16.5 -80t-45 -60t-68.5 -38t-86 -13q-47 0 -87 13t-68.5 38
t-44.5 60t-16 80v466q0 45 16 80t44.5 60t68.5 38t87 13q46 0 86 -13t68.5 -38t45 -60t16.5 -80v-466zM117 571h146l-153 -525h57l152 525v52h-202v-52zM419 633h-56v-600h56v300h51v52h-51v248z" />
    <glyph glyph-name="cid11672" unicode="&#x326f;" 
d="M522 564q0 49 -19.5 90t-53 70t-78.5 45t-95 16q-51 0 -96 -16t-78 -45t-52.5 -70t-19.5 -90v-466q0 -50 19.5 -90.5t52.5 -69.5t78 -45t96 -16q50 0 95 16t78.5 45t53 69.5t19.5 90.5v466zM492 98q0 -45 -16.5 -80t-45 -60t-68.5 -38t-86 -13q-47 0 -87 13t-68.5 38
t-44.5 60t-16 80v466q0 45 16 80t44.5 60t68.5 38t87 13q46 0 86 -13t68.5 -38t45 -60t16.5 -80v-466zM119 623v-570h221v53h-165v517h-56zM420 633h-56v-600h56v300h51v52h-51v248z" />
    <glyph glyph-name="cid11673" unicode="&#x3270;" 
d="M522 564q0 49 -19.5 90t-53 70t-78.5 45t-95 16q-51 0 -96 -16t-78 -45t-52.5 -70t-19.5 -90v-466q0 -50 19.5 -90.5t52.5 -69.5t78 -45t96 -16q50 0 95 16t78.5 45t53 69.5t19.5 90.5v466zM492 98q0 -45 -16.5 -80t-45 -60t-68.5 -38t-86 -13q-47 0 -87 13t-68.5 38
t-44.5 60t-16 80v466q0 45 16 80t44.5 60t68.5 38t87 13q46 0 86 -13t68.5 -38t45 -60t16.5 -80v-466zM119 53h217v53h-161v464h142v53h-198v-570zM420 633h-56v-600h56v300h51v52h-51v248z" />
    <glyph glyph-name="cid11674" unicode="&#x3271;" 
d="M522 564q0 49 -19.5 90t-53 70t-78.5 45t-95 16q-51 0 -96 -16t-78 -45t-52.5 -70t-19.5 -90v-466q0 -50 19.5 -90.5t52.5 -69.5t78 -45t96 -16q50 0 95 16t78.5 45t53 69.5t19.5 90.5v466zM492 98q0 -45 -16.5 -80t-45 -60t-68.5 -38t-86 -13q-47 0 -87 13t-68.5 38
t-44.5 60t-16 80v466q0 45 16 80t44.5 60t68.5 38t87 13q46 0 86 -13t68.5 -38t45 -60t16.5 -80v-466zM313 320v303h-194v-51h140v-201h-140v-318h217v51h-163v216h140zM420 633h-56v-600h56v300h51v52h-51v248z" />
    <glyph glyph-name="cid11675" unicode="&#x3272;" 
d="M522 564q0 49 -19.5 90t-53 70t-78.5 45t-95 16q-51 0 -96 -16t-78 -45t-52.5 -70t-19.5 -90v-466q0 -50 19.5 -90.5t52.5 -69.5t78 -45t96 -16q50 0 95 16t78.5 45t53 69.5t19.5 90.5v466zM492 98q0 -45 -16.5 -80t-45 -60t-68.5 -38t-86 -13q-47 0 -87 13t-68.5 38
t-44.5 60t-16 80v466q0 45 16 80t44.5 60t68.5 38t87 13q46 0 86 -13t68.5 -38t45 -60t16.5 -80v-466zM313 53v570h-194v-570h194zM259 572v-468h-86v468h86zM420 633h-56v-600h56v300h51v52h-51v248z" />
    <glyph glyph-name="cid11676" unicode="&#x3273;" 
d="M522 564q0 49 -19.5 90t-53 70t-78.5 45t-95 16q-51 0 -96 -16t-78 -45t-52.5 -70t-19.5 -90v-466q0 -50 19.5 -90.5t52.5 -69.5t78 -45t96 -16q50 0 95 16t78.5 45t53 69.5t19.5 90.5v466zM492 98q0 -45 -16.5 -80t-45 -60t-68.5 -38t-86 -13q-47 0 -87 13t-68.5 38
t-44.5 60t-16 80v466q0 45 16 80t44.5 60t68.5 38t87 13q46 0 86 -13t68.5 -38t45 -60t16.5 -80v-466zM313 53v571h-54v-221h-86v221h-54v-571h194zM420 633h-56v-600h56v300h51v52h-51v248zM259 353v-249h-86v249h86z" />
    <glyph glyph-name="cid11677" unicode="&#x3274;" 
d="M522 564q0 49 -19.5 90t-53 70t-78.5 45t-95 16q-51 0 -96 -16t-78 -45t-52.5 -70t-19.5 -90v-466q0 -50 19.5 -90.5t52.5 -69.5t78 -45t96 -16q50 0 95 16t78.5 45t53 69.5t19.5 90.5v466zM492 98q0 -45 -16.5 -80t-45 -60t-68.5 -38t-86 -13q-47 0 -87 13t-68.5 38
t-44.5 60t-16 80v466q0 45 16 80t44.5 60t68.5 38t87 13q46 0 86 -13t68.5 -38t45 -60t16.5 -80v-466zM327 53l-71 573h-75l-71 -573h55l54 486l53 -486h55zM419 633h-56v-600h56v300h51v52h-51v248z" />
    <glyph glyph-name="cid11678" unicode="&#x3275;" 
d="M522 564q0 49 -19.5 90t-53 70t-78.5 45t-95 16q-51 0 -96 -16t-78 -45t-52.5 -70t-19.5 -90v-466q0 -50 19.5 -90.5t52.5 -69.5t78 -45t96 -16q50 0 95 16t78.5 45t53 69.5t19.5 90.5v466zM492 98q0 -45 -16.5 -80t-45 -60t-68.5 -38t-86 -13q-47 0 -87 13t-68.5 38
t-44.5 60t-16 80v466q0 45 16 80t44.5 60t68.5 38t87 13q46 0 86 -13t68.5 -38t45 -60t16.5 -80v-466zM313 537q0 42 -28 68t-69 26q-42 0 -69.5 -26t-27.5 -68v-399q0 -42 27.5 -67.5t69.5 -25.5q41 0 69 25.5t28 67.5v399zM259 138q0 -20 -12.5 -31t-30.5 -11
q-19 0 -31 11t-12 31v399q0 20 12 31.5t31 11.5q18 0 30.5 -11.5t12.5 -31.5v-399zM420 633h-56v-600h56v300h51v52h-51v248z" />
    <glyph glyph-name="cid11679" unicode="&#x3276;" 
d="M522 564q0 49 -19.5 90t-53 70t-78.5 45t-95 16q-51 0 -96 -16t-78 -45t-52.5 -70t-19.5 -90v-466q0 -50 19.5 -90.5t52.5 -69.5t78 -45t96 -16q50 0 95 16t78.5 45t53 69.5t19.5 90.5v466zM492 98q0 -45 -16.5 -80t-45 -60t-68.5 -38t-86 -13q-47 0 -87 13t-68.5 38
t-44.5 60t-16 80v466q0 45 16 80t44.5 60t68.5 38t87 13q46 0 86 -13t68.5 -38t45 -60t16.5 -80v-466zM116 572h61l-67 -519h55l54 468l53 -468h55l-68 519h62v51h-205v-51zM419 633h-56v-600h56v300h51v52h-51v248z" />
    <glyph glyph-name="cid11680" unicode="&#x3277;" 
d="M522 564q0 49 -19.5 90t-53 70t-78.5 45t-95 16q-51 0 -96 -16t-78 -45t-52.5 -70t-19.5 -90v-466q0 -50 19.5 -90.5t52.5 -69.5t78 -45t96 -16q50 0 95 16t78.5 45t53 69.5t19.5 90.5v466zM492 98q0 -45 -16.5 -80t-45 -60t-68.5 -38t-86 -13q-47 0 -87 13t-68.5 38
t-44.5 60t-16 80v466q0 45 16 80t44.5 60t68.5 38t87 13q46 0 86 -13t68.5 -38t45 -60t16.5 -80v-466zM116 540h65l-71 -484h55l54 422l53 -422h55l-71 484h65v51h-74v59h-56v-59h-75v-51zM419 636h-56v-600h56v293h51v52h-51v255z" />
    <glyph glyph-name="cid11681" unicode="&#x3278;" 
d="M522 564q0 49 -19.5 90t-53 70t-78.5 45t-95 16q-51 0 -96 -16t-78 -45t-52.5 -70t-19.5 -90v-466q0 -50 19.5 -90.5t52.5 -69.5t78 -45t96 -16q50 0 95 16t78.5 45t53 69.5t19.5 90.5v466zM492 98q0 -45 -16.5 -80t-45 -60t-68.5 -38t-86 -13q-47 0 -87 13t-68.5 38
t-44.5 60t-16 80v466q0 45 16 80t44.5 60t68.5 38t87 13q46 0 86 -13t68.5 -38t45 -60t16.5 -80v-466zM121 572h143l-44 -159h-106v-50h92l-88 -317h57l144 526v51h-198v-51zM420 633h-56v-600h56v300h51v52h-51v248z" />
    <glyph glyph-name="cid11682" unicode="&#x3279;" 
d="M522 564q0 49 -19.5 90t-53 70t-78.5 45t-95 16q-51 0 -96 -16t-78 -45t-52.5 -70t-19.5 -90v-466q0 -50 19.5 -90.5t52.5 -69.5t78 -45t96 -16q50 0 95 16t78.5 45t53 69.5t19.5 90.5v466zM492 98q0 -45 -16.5 -80t-45 -60t-68.5 -38t-86 -13q-47 0 -87 13t-68.5 38
t-44.5 60t-16 80v466q0 45 16 80t44.5 60t68.5 38t87 13q46 0 86 -13t68.5 -38t45 -60t16.5 -80v-466zM317 623h-198v-570h217v51h-163v216h137v51h-137v201h144v51zM420 633h-56v-600h56v300h51v52h-51v248z" />
    <glyph glyph-name="cid11683" unicode="&#x327a;" 
d="M522 564q0 49 -19.5 90t-53 70t-78.5 45t-95 16q-51 0 -96 -16t-78 -45t-52.5 -70t-19.5 -90v-466q0 -50 19.5 -90.5t52.5 -69.5t78 -45t96 -16q50 0 95 16t78.5 45t53 69.5t19.5 90.5v466zM492 98q0 -45 -16.5 -80t-45 -60t-68.5 -38t-86 -13q-47 0 -87 13t-68.5 38
t-44.5 60t-16 80v466q0 45 16 80t44.5 60t68.5 38t87 13q46 0 86 -13t68.5 -38t45 -60t16.5 -80v-466zM239 547v-443h-42v443h-55v-443h-32v-51h225v51h-42v443h-54zM419 633h-56v-600h56v300h51v52h-51v248zM110 623v-51h216v51h-216z" />
    <glyph glyph-name="cid11684" unicode="&#x327b;" 
d="M522 564q0 49 -19.5 90t-53 70t-78.5 45t-95 16q-51 0 -96 -16t-78 -45t-52.5 -70t-19.5 -90v-466q0 -50 19.5 -90.5t52.5 -69.5t78 -45t96 -16q50 0 95 16t78.5 45t53 69.5t19.5 90.5v466zM492 98q0 -45 -16.5 -80t-45 -60t-68.5 -38t-86 -13q-47 0 -87 13t-68.5 38
t-44.5 60t-16 80v466q0 45 16 80t44.5 60t68.5 38t87 13q46 0 86 -13t68.5 -38t45 -60t16.5 -80v-466zM310 425q0 42 -27.5 67t-69.5 25q-41 0 -69 -25t-28 -67v-285q0 -42 28 -67t69 -25q42 0 69.5 25t27.5 67v285zM418 636h-56v-600h56v293h51v52h-51v255zM256 140
q0 -20 -12 -31.5t-31 -11.5q-18 0 -30.5 11.5t-12.5 31.5v285q0 20 12.5 31.5t30.5 11.5q19 0 31 -11.5t12 -31.5v-285zM103 540h220v51h-82v59h-56v-59h-82v-51z" />
    <glyph glyph-name="cid11687" unicode="&#x327e;" horiz-adv-x="982" 
d="M300 217h159v-236h64v236h159v59h-382v-59zM550 356q27 0 49 12.5t37.5 33.5t24.5 49t9 59t-9 59t-24.5 49t-37.5 33.5t-49 12.5h-118q-27 0 -49 -12.5t-37.5 -33.5t-24.5 -49t-9 -59t9 -59t24.5 -49t37.5 -33.5t49 -12.5h118zM374 510q0 39 16 67.5t44 28.5h114
q28 0 44 -28.5t16 -67.5t-16 -67.5t-44 -28.5h-114q-28 0 -44 28.5t-16 67.5zM491 785q-95 0 -177.5 -35t-143 -96t-95.5 -144t-35 -179t34.5 -178.5t95.5 -144t143 -96.5t178 -35q94 0 176.5 35t143.5 96.5t96 144t35 178.5t-35 179t-96 144t-143.5 96t-176.5 35zM491 -95
q-88 0 -164.5 33t-133.5 91t-90 135.5t-33 166.5q0 90 33 167.5t90 134.5t133.5 90t164.5 33t164.5 -32.5t133.5 -90t90 -135t33 -167.5t-33 -168t-90 -135t-133.5 -90t-164.5 -33z" />
    <glyph glyph-name="cid11688" unicode="&#x327f;" horiz-adv-x="950" 
d="M419 354v253h-59v-551h59v242h146v-242h58v298h-138l137 253h-66l-136 -253h-1zM40 317h246v31h-216q3 87 37 161.5t91 129t132 86t161 31.5q75 0 141.5 -24t120.5 -67t92 -102.5t55 -129.5h31q-17 76 -57.5 141t-98.5 111.5t-130.5 73t-153.5 26.5q-95 0 -177.5 -35
t-143 -96t-95.5 -144t-35 -179v-14zM942 348h-246v-31h215q-3 -87 -36.5 -162.5t-90 -131t-132 -87t-161.5 -31.5q-75 0 -142.5 24.5t-121.5 68t-92 103t-54 130.5h-30q16 -77 56 -142t98 -112t130.5 -73.5t155.5 -26.5q94 0 176.5 35t143.5 96.5t96 144t35 178.5v17z" />
    <glyph glyph-name="cid11689" unicode="&#x32b1;" 
d="M522 564q0 49 -19.5 90t-53 70t-78.5 45t-95 16q-51 0 -96 -16t-78 -45t-52.5 -70t-19.5 -90v-466q0 -50 19.5 -90.5t52.5 -69.5t78 -45t96 -16q50 0 95 16t78.5 45t53 69.5t19.5 90.5v466zM492 98q0 -45 -16.5 -80t-45 -60t-68.5 -38t-86 -13q-47 0 -87 13t-68.5 38
t-44.5 60t-16 80v466q0 45 16 80t44.5 60t68.5 38t87 13q46 0 86 -13t68.5 -38t45 -60t16.5 -80v-466zM462 56v309h-114v186h85v56h-144v-551h173zM270 365h-31v242h-148v-162h59v106h31v-186h-31v-56h62v-197h-62v106h-59v-162h179v309zM404 309v-197h-56v197h56z" />
    <glyph glyph-name="cid11690" unicode="&#x32b2;" 
d="M522 564q0 49 -19.5 90t-53 70t-78.5 45t-95 16q-51 0 -96 -16t-78 -45t-52.5 -70t-19.5 -90v-466q0 -50 19.5 -90.5t52.5 -69.5t78 -45t96 -16q50 0 95 16t78.5 45t53 69.5t19.5 90.5v466zM492 98q0 -45 -16.5 -80t-45 -60t-68.5 -38t-86 -13q-47 0 -87 13t-68.5 38
t-44.5 60t-16 80v466q0 45 16 80t44.5 60t68.5 38t87 13q46 0 86 -13t68.5 -38t45 -60t16.5 -80v-466zM270 365h-31v242h-148v-162h59v106h31v-186h-31v-56h62v-197h-62v106h-59v-162h179v309zM404 408l-95 -109v-243h58v223l95 109v219h-173v-162h59v106h56v-143z" />
    <glyph glyph-name="cid11691" unicode="&#x32b3;" 
d="M522 564q0 49 -19.5 90t-53 70t-78.5 45t-95 16q-51 0 -96 -16t-78 -45t-52.5 -70t-19.5 -90v-466q0 -50 19.5 -90.5t52.5 -69.5t78 -45t96 -16q50 0 95 16t78.5 45t53 69.5t19.5 90.5v466zM492 98q0 -45 -16.5 -80t-45 -60t-68.5 -38t-86 -13q-47 0 -87 13t-68.5 38
t-44.5 60t-16 80v466q0 45 16 80t44.5 60t68.5 38t87 13q46 0 86 -13t68.5 -38t45 -60t16.5 -80v-466zM279 56h183v551h-153v-253h-30v-298zM260 365h-24v242h-145v-162h59v106h28v-186h-28v-56h52v-197h-52v106h-59v-162h169v309zM338 298h66v-186h-66v186zM403 354h-35
v197h35v-197z" />
    <glyph glyph-name="cid11692" unicode="&#x32b4;" 
d="M522 564q0 49 -19.5 90t-53 70t-78.5 45t-95 16q-51 0 -96 -16t-78 -45t-52.5 -70t-19.5 -90v-466q0 -50 19.5 -90.5t52.5 -69.5t78 -45t96 -16q50 0 95 16t78.5 45t53 69.5t19.5 90.5v466zM492 98q0 -45 -16.5 -80t-45 -60t-68.5 -38t-86 -13q-47 0 -87 13t-68.5 38
t-44.5 60t-16 80v466q0 45 16 80t44.5 60t68.5 38t87 13q46 0 86 -13t68.5 -38t45 -60t16.5 -80v-466zM404 298v-186h-66v-56h124v551h-173v-309h115zM270 365h-31v242h-148v-162h59v106h31v-186h-31v-56h62v-197h-62v106h-59v-162h179v309zM348 551h56v-197h-56v197z" />
    <glyph glyph-name="cid11693" unicode="&#x32b5;" 
d="M522 564q0 49 -19.5 90t-53 70t-78.5 45t-95 16q-51 0 -96 -16t-78 -45t-52.5 -70t-19.5 -90v-466q0 -50 19.5 -90.5t52.5 -69.5t78 -45t96 -16q50 0 95 16t78.5 45t53 69.5t19.5 90.5v466zM492 98q0 -45 -16.5 -80t-45 -60t-68.5 -38t-86 -13q-47 0 -87 13t-68.5 38
t-44.5 60t-16 80v466q0 45 16 80t44.5 60t68.5 38t87 13q46 0 86 -13t68.5 -38t45 -60t16.5 -80v-466zM283 56h173v551h-173v-332h-38v332h-91l-69 -279v-109h103v-163h57v163h38v-163zM398 112h-56v157l56 55v-212zM342 551h56v-146l-56 -56v202zM142 328l46 213v-266h-46
v53z" />
    <glyph glyph-name="cid11694" unicode="&#x32b6;" 
d="M522 564q0 49 -19.5 90t-53 70t-78.5 45t-95 16q-51 0 -96 -16t-78 -45t-52.5 -70t-19.5 -90v-466q0 -50 19.5 -90.5t52.5 -69.5t78 -45t96 -16q50 0 95 16t78.5 45t53 69.5t19.5 90.5v466zM492 98q0 -45 -16.5 -80t-45 -60t-68.5 -38t-86 -13q-47 0 -87 13t-68.5 38
t-44.5 60t-16 80v466q0 45 16 80t44.5 60t68.5 38t87 13q46 0 86 -13t68.5 -38t45 -60t16.5 -80v-466zM94 219h112v-163h58v163h46v56h-46v332h-92l-78 -279v-109zM463 112h-52v495h-119v-56h61v-439h-52v-56h162v56zM151 328l55 213v-266h-55v53z" />
    <glyph glyph-name="cid11695" unicode="&#x32b7;" 
d="M522 564q0 49 -19.5 90t-53 70t-78.5 45t-95 16q-51 0 -96 -16t-78 -45t-52.5 -70t-19.5 -90v-466q0 -50 19.5 -90.5t52.5 -69.5t78 -45t96 -16q50 0 95 16t78.5 45t53 69.5t19.5 90.5v466zM492 98q0 -45 -16.5 -80t-45 -60t-68.5 -38t-86 -13q-47 0 -87 13t-68.5 38
t-44.5 60t-16 80v466q0 45 16 80t44.5 60t68.5 38t87 13q46 0 86 -13t68.5 -38t45 -60t16.5 -80v-466zM281 275h-36v332h-91l-69 -279v-109h103v-163h57v163h36v56zM401 397l-104 -104v-237h162v56h-103v162l103 103v230h-162v-162h59v106h45v-154zM142 328l46 213v-266h-46
v53z" />
    <glyph glyph-name="cid11696" unicode="&#x32b8;" 
d="M522 564q0 49 -19.5 90t-53 70t-78.5 45t-95 16q-51 0 -96 -16t-78 -45t-52.5 -70t-19.5 -90v-466q0 -50 19.5 -90.5t52.5 -69.5t78 -45t96 -16q50 0 95 16t78.5 45t53 69.5t19.5 90.5v466zM492 98q0 -45 -16.5 -80t-45 -60t-68.5 -38t-86 -13q-47 0 -87 13t-68.5 38
t-44.5 60t-16 80v466q0 45 16 80t44.5 60t68.5 38t87 13q46 0 86 -13t68.5 -38t45 -60t16.5 -80v-466zM245 275v332h-91l-69 -279v-109h103v-163h57v163h31v56h-31zM465 365h-31v242h-148v-162h59v106h31v-186h-31v-56h62v-197h-62v106h-59v-162h179v309zM142 328l46 213
v-266h-46v53z" />
    <glyph glyph-name="cid11697" unicode="&#x32b9;" 
d="M522 564q0 49 -19.5 90t-53 70t-78.5 45t-95 16q-51 0 -96 -16t-78 -45t-52.5 -70t-19.5 -90v-466q0 -50 19.5 -90.5t52.5 -69.5t78 -45t96 -16q50 0 95 16t78.5 45t53 69.5t19.5 90.5v466zM492 98q0 -45 -16.5 -80t-45 -60t-68.5 -38t-86 -13q-47 0 -87 13t-68.5 38
t-44.5 60t-16 80v466q0 45 16 80t44.5 60t68.5 38t87 13q46 0 86 -13t68.5 -38t45 -60t16.5 -80v-466zM436 275v332h-91l-69 -279v-53h-31v332h-91l-69 -279v-109h103v-163h57v163h134v-163h57v163h31v56h-31zM142 328l46 213v-266h-46v53zM333 328l46 213v-266h-46v53z" />
    <glyph glyph-name="cid11698" unicode="&#x32ba;" 
d="M522 564q0 49 -19.5 90t-53 70t-78.5 45t-95 16q-51 0 -96 -16t-78 -45t-52.5 -70t-19.5 -90v-466q0 -50 19.5 -90.5t52.5 -69.5t78 -45t96 -16q50 0 95 16t78.5 45t53 69.5t19.5 90.5v466zM492 98q0 -45 -16.5 -80t-45 -60t-68.5 -38t-86 -13q-47 0 -87 13t-68.5 38
t-44.5 60t-16 80v466q0 45 16 80t44.5 60t68.5 38t87 13q46 0 86 -13t68.5 -38t45 -60t16.5 -80v-466zM245 275v332h-91l-69 -279v-109h103v-163h57v163h31v56h-31zM459 56v309h-114v186h85v56h-144v-298h115v-197h-56v106h-59v-162h173zM142 328l46 213v-266h-46v53z" />
    <glyph glyph-name="cid11699" unicode="&#x32bb;" 
d="M522 564q0 49 -19.5 90t-53 70t-78.5 45t-95 16q-51 0 -96 -16t-78 -45t-52.5 -70t-19.5 -90v-466q0 -50 19.5 -90.5t52.5 -69.5t78 -45t96 -16q50 0 95 16t78.5 45t53 69.5t19.5 90.5v466zM492 98q0 -45 -16.5 -80t-45 -60t-68.5 -38t-86 -13q-47 0 -87 13t-68.5 38
t-44.5 60t-16 80v466q0 45 16 80t44.5 60t68.5 38t87 13q46 0 86 -13t68.5 -38t45 -60t16.5 -80v-466zM245 275v332h-91l-69 -279v-109h103v-163h57v163h41v-163h173v309h-114v186h85v56h-144v-332h-41zM401 309v-197h-56v197h56zM142 328l46 213v-266h-46v53z" />
    <glyph glyph-name="cid11700" unicode="&#x32bc;" 
d="M522 564q0 49 -19.5 90t-53 70t-78.5 45t-95 16q-51 0 -96 -16t-78 -45t-52.5 -70t-19.5 -90v-466q0 -50 19.5 -90.5t52.5 -69.5t78 -45t96 -16q50 0 95 16t78.5 45t53 69.5t19.5 90.5v466zM492 98q0 -45 -16.5 -80t-45 -60t-68.5 -38t-86 -13q-47 0 -87 13t-68.5 38
t-44.5 60t-16 80v466q0 45 16 80t44.5 60t68.5 38t87 13q46 0 86 -13t68.5 -38t45 -60t16.5 -80v-466zM245 275v332h-91l-69 -279v-109h103v-163h57v163h41v56h-41zM401 408l-95 -109v-243h58v223l95 109v219h-173v-162h59v106h56v-143zM142 328l46 213v-266h-46v53z" />
    <glyph glyph-name="cid11701" unicode="&#x32bd;" 
d="M522 564q0 49 -19.5 90t-53 70t-78.5 45t-95 16q-51 0 -96 -16t-78 -45t-52.5 -70t-19.5 -90v-466q0 -50 19.5 -90.5t52.5 -69.5t78 -45t96 -16q50 0 95 16t78.5 45t53 69.5t19.5 90.5v466zM492 98q0 -45 -16.5 -80t-45 -60t-68.5 -38t-86 -13q-47 0 -87 13t-68.5 38
t-44.5 60t-16 80v466q0 45 16 80t44.5 60t68.5 38t87 13q46 0 86 -13t68.5 -38t45 -60t16.5 -80v-466zM245 275v332h-91l-69 -279v-109h103v-163h57v163h31v-163h183v551h-153v-253h-30v-79h-31zM335 298h66v-186h-66v186zM142 328l46 213v-266h-46v53zM400 354h-35v197h35
v-197z" />
    <glyph glyph-name="cid11702" unicode="&#x32be;" 
d="M522 564q0 49 -19.5 90t-53 70t-78.5 45t-95 16q-51 0 -96 -16t-78 -45t-52.5 -70t-19.5 -90v-466q0 -50 19.5 -90.5t52.5 -69.5t78 -45t96 -16q50 0 95 16t78.5 45t53 69.5t19.5 90.5v466zM492 98q0 -45 -16.5 -80t-45 -60t-68.5 -38t-86 -13q-47 0 -87 13t-68.5 38
t-44.5 60t-16 80v466q0 45 16 80t44.5 60t68.5 38t87 13q46 0 86 -13t68.5 -38t45 -60t16.5 -80v-466zM400 298v-186h-66v-56h124v551h-173v-309h115zM245 275v332h-91l-69 -279v-109h103v-163h57v163h40v56h-40zM344 551h56v-197h-56v197zM142 328l46 213v-266h-46v53z" />
    <glyph glyph-name="cid11703" unicode="&#x32bf;" 
d="M522 564q0 49 -19.5 90t-53 70t-78.5 45t-95 16q-51 0 -96 -16t-78 -45t-52.5 -70t-19.5 -90v-466q0 -50 19.5 -90.5t52.5 -69.5t78 -45t96 -16q50 0 95 16t78.5 45t53 69.5t19.5 90.5v466zM492 98q0 -45 -16.5 -80t-45 -60t-68.5 -38t-86 -13q-47 0 -87 13t-68.5 38
t-44.5 60t-16 80v466q0 45 16 80t44.5 60t68.5 38t87 13q46 0 86 -13t68.5 -38t45 -60t16.5 -80v-466zM285 56h173v551h-173v-551zM263 56v309h-110v186h81v56h-140v-298h111v-197h-52v106h-59v-162h169zM400 112h-56v157l56 55v-212zM344 551h56v-146l-56 -56v202z" />
    <glyph glyph-name="cid221" unicode="&#xac00;" 
d="M43 681h208l-218 -750h82l216 750v74h-288v-74zM474 769h-80v-856h80v428h73v74h-73v354z" />
    <glyph glyph-name="cid222" unicode="&#xac01;" 
d="M43 686h200l-210 -378h90l208 378v73h-288v-73zM394 -87h80v315h-421v-74h341v-241zM474 769h-80v-501h80v226h73v74h-73v201z" />
    <glyph glyph-name="cid3059" unicode="&#xac02;" 
 />
    <glyph glyph-name="cid3060" unicode="&#xac03;" 
 />
    <glyph glyph-name="cid223" unicode="&#xac04;" 
d="M43 686h200l-210 -388h90l208 388v73h-288v-73zM474 769h-80v-591h80v296h73v74h-73v221zM143 238h-80v-320h425v74h-345v246z" />
    <glyph glyph-name="cid4637" unicode="&#xac05;" 
 />
    <glyph glyph-name="cid4638" unicode="&#xac06;" 
 />
    <glyph glyph-name="cid224" unicode="&#xac07;" 
d="M478 248h-415v-330h425v74h-345v182h335v74zM43 686h200l-210 -368h90l208 368v73h-288v-73zM474 769h-80v-481h80v216h73v74h-73v191z" />
    <glyph glyph-name="cid225" unicode="&#xac08;" 
d="M63 212h333v-78h-333v-216h425v70h-347v78h333v216h-411v-70zM43 686h200l-210 -344h90l208 344v73h-288v-73zM474 769h-80v-451h80v201h73v74h-73v176z" />
    <glyph glyph-name="cid226" unicode="&#xac09;" 
d="M58 214h126v-81h-126v-215h242v68h-166v81h126v215h-202v-68zM43 686h200l-210 -344h90l208 344v73h-288v-73zM474 769h-80v-451h80v201h73v74h-73v176zM474 -87v369h-189v-70h111v-299h78z" />
    <glyph glyph-name="cid227" unicode="&#xac0a;" 
d="M474 -82v364h-199v-364h199zM43 686h200l-210 -344h90l208 344v73h-288v-73zM53 214h118v-81h-118v-215h202v68h-128v81h118v215h-192v-68zM474 769h-80v-451h80v201h73v74h-73v176zM402 216v-232h-55v232h55z" />
    <glyph glyph-name="cid228" unicode="&#xac0b;" 
d="M347 286h-72v-368h199v368h-72v-114h-55v114zM43 686h200l-210 -344h90l208 344v73h-288v-73zM53 214h118v-81h-118v-215h202v68h-128v81h118v215h-192v-68zM474 769h-80v-451h80v201h73v74h-73v176zM402 -16h-55v124h55v-124z" />
    <glyph glyph-name="cid3061" unicode="&#xac0c;" 
 />
    <glyph glyph-name="cid4639" unicode="&#xac0d;" 
 />
    <glyph glyph-name="cid4640" unicode="&#xac0e;" 
 />
    <glyph glyph-name="cid4641" unicode="&#xac0f;" 
 />
    <glyph glyph-name="cid229" unicode="&#xac10;" 
d="M474 -82v330h-411v-330h411zM43 686h200l-210 -368h90l208 368v73h-288v-73zM396 176v-186h-255v186h255zM474 769h-80v-481h80v216h73v74h-73v191z" />
    <glyph glyph-name="cid230" unicode="&#xac11;" 
d="M474 -82v350h-78v-105h-255v105h-78v-350h411zM43 686h200l-210 -358h90l208 358v73h-288v-73zM474 769h-80v-465h80v205h73v74h-73v186zM396 93v-103h-255v103h255z" />
    <glyph glyph-name="cid231" unicode="&#xac12;" 
d="M441 271h-114l-65 -332v329h-70v-105h-57v105h-72v-350h266l55 310l54 -310h73zM43 686h200l-210 -358h90l208 358v73h-288v-73zM474 769h-80v-465h80v205h73v74h-73v186zM192 -16h-57v115h57v-115z" />
    <glyph glyph-name="cid232" unicode="&#xac13;" 
d="M503 -82l-172 330h-110l-172 -330h87l140 274l140 -274h87zM43 686h200l-210 -378h90l208 378v73h-288v-73zM474 769h-80v-531h80v256h73v74h-73v201z" />
    <glyph glyph-name="cid233" unicode="&#xac14;" 
d="M337 -82l42 293l46 -293h75l-61 335h-118l-45 -292l-44 292h-118l-61 -335h75l46 293l42 -293h121zM43 686h200l-210 -368h90l208 368v73h-288v-73zM474 769h-80v-481h80v216h73v74h-73v191z" />
    <glyph glyph-name="cid234" unicode="&#xac15;" 
d="M346 -92q31 0 57.5 14.5t45 38.5t29 55.5t10.5 66.5t-10.5 66.5t-29 55.5t-45 38.5t-57.5 14.5h-151q-32 0 -58 -14.5t-44.5 -38.5t-29 -55.5t-10.5 -66.5t10.5 -66.5t29 -55.5t44.5 -38.5t58 -14.5h151zM43 686h200l-210 -368h90l208 368v73h-288v-73zM131 83
q0 21 4.5 39.5t13.5 32.5t21.5 22.5t27.5 8.5h145q15 0 27.5 -8.5t21.5 -22.5t13.5 -32.5t4.5 -39.5t-4.5 -39.5t-13.5 -32.5t-21.5 -22.5t-27.5 -8.5h-145q-15 0 -27.5 8.5t-21.5 22.5t-13.5 32.5t-4.5 39.5zM474 769h-80v-481h80v216h73v74h-73v191z" />
    <glyph glyph-name="cid235" unicode="&#xac16;" 
d="M495 -82l-139 262h124v68h-415v-68h125l-139 -262h87l135 260l135 -260h87zM43 686h200l-210 -368h90l208 368v73h-288v-73zM474 769h-80v-481h80v216h73v74h-73v191z" />
    <glyph glyph-name="cid236" unicode="&#xac17;" 
d="M495 -82l-138 238h123v68h-168v94h-80v-94h-167v-68h123l-137 -238h87l135 237l135 -237h87zM43 686h200l-210 -338h90l208 338v73h-288v-73zM474 769h-80v-471h80v221h73v74h-73v176z" />
    <glyph glyph-name="cid4642" unicode="&#xac18;" 
 />
    <glyph glyph-name="cid237" unicode="&#xac19;" 
d="M478 272h-415v-354h425v70h-347v73h327v68h-327v73h337v70zM43 686h200l-210 -354h90l208 354v73h-288v-73zM474 769h-80v-461h80v206h73v74h-73v181z" />
    <glyph glyph-name="cid238" unicode="&#xac1a;" 
d="M479 -82v72h-76v186h74v72h-417v-72h74v-186h-76v-72h421zM43 686h200l-210 -368h90l208 368v73h-288v-73zM474 769h-80v-481h80v216h73v74h-73v191zM325 -10h-113v186h113v-186z" />
    <glyph glyph-name="cid239" unicode="&#xac1b;" 
d="M376 -92q21 0 39.5 8t32.5 22.5t22 35t8 46.5t-8 46.5t-22 35t-32.5 22.5t-39.5 8h-207q-21 0 -39.5 -8t-32.5 -22.5t-22 -35t-8 -46.5t8 -46.5t22 -35t32.5 -22.5t39.5 -8h207zM43 686h200l-210 -334h90l208 334v73h-288v-73zM474 769h-80v-461h80v216h73v74h-73v171z
M53 179h439v72h-180v86h-80v-86h-179v-72zM176 -22q-14 0 -23.5 11t-9.5 31t9.5 31t23.5 11h193q14 0 23.5 -11t9.5 -31t-9.5 -31t-23.5 -11h-193z" />
    <glyph glyph-name="cid240" unicode="&#xac1c;" 
d="M372 767h-75v-848h75v422h50v-428h77v856h-77v-354h-50v352zM43 680h143l-153 -748h78l151 748v74h-219v-74z" />
    <glyph glyph-name="cid241" unicode="&#xac1d;" 
d="M499 769h-77v-203h-50v201h-75v-504h75v229h50v-234h77v511zM419 -87h80v305h-441v-74h361v-231zM43 684h141l-151 -386h80l149 386v74h-219v-74z" />
    <glyph glyph-name="cid4643" unicode="&#xac1e;" 
 />
    <glyph glyph-name="cid4644" unicode="&#xac1f;" 
 />
    <glyph glyph-name="cid242" unicode="&#xac20;" 
d="M499 769h-77v-213h-50v211h-75v-584h75v299h50v-314h77v601zM148 228h-80v-310h441v74h-361v236zM43 684h141l-151 -396h80l149 396v74h-219v-74z" />
    <glyph glyph-name="cid4645" unicode="&#xac21;" 
 />
    <glyph glyph-name="cid3062" unicode="&#xac22;" 
 />
    <glyph glyph-name="cid243" unicode="&#xac23;" 
d="M501 238h-433v-320h441v74h-361v172h353v74zM499 769h-77v-193h-50v191h-75v-484h75v219h50v-224h77v491zM43 684h141l-151 -376h80l149 376v74h-219v-74z" />
    <glyph glyph-name="cid244" unicode="&#xac24;" 
d="M68 202h353v-73h-353v-211h441v70h-363v73h353v211h-431v-70zM499 769h-77v-181h-50v179h-75v-454h75v201h50v-206h77v461zM43 684h141l-151 -352h80l149 352v74h-219v-74z" />
    <glyph glyph-name="cid4646" unicode="&#xac25;" 
 />
    <glyph glyph-name="cid4647" unicode="&#xac26;" 
 />
    <glyph glyph-name="cid4648" unicode="&#xac27;" 
 />
    <glyph glyph-name="cid4649" unicode="&#xac28;" 
 />
    <glyph glyph-name="cid4650" unicode="&#xac29;" 
 />
    <glyph glyph-name="cid4651" unicode="&#xac2a;" 
 />
    <glyph glyph-name="cid4652" unicode="&#xac2b;" 
 />
    <glyph glyph-name="cid245" unicode="&#xac2c;" 
d="M499 -82v320h-431v-320h431zM499 769h-77v-193h-50v191h-75v-484h75v219h50v-224h77v491zM421 166v-176h-275v176h275zM43 684h141l-151 -376h80l149 376v74h-219v-74z" />
    <glyph glyph-name="cid246" unicode="&#xac2d;" 
d="M499 -82v340h-78v-100h-275v100h-78v-340h431zM499 769h-77v-188h-50v186h-75v-468h75v208h50v-213h77v475zM43 684h141l-151 -366h80l149 366v74h-219v-74zM421 88v-98h-275v98h275z" />
    <glyph glyph-name="cid4653" unicode="&#xac2e;" 
 />
    <glyph glyph-name="cid247" unicode="&#xac2f;" 
d="M499 769h-77v-198h-50v196h-75v-494h75v224h50v-269h77v541zM524 -82l-180 320h-110l-180 -320h87l148 266l148 -266h87zM43 684h141l-151 -386h80l149 386v74h-219v-74z" />
    <glyph glyph-name="cid248" unicode="&#xac30;" 
d="M350 -82l45 284l51 -284h75l-66 325h-118l-48 -286l-47 286h-118l-66 -325h75l51 284l45 -284h121zM499 769h-77v-193h-50v191h-75v-484h75v219h50v-224h77v491zM43 684h141l-151 -376h80l149 376v74h-219v-74z" />
    <glyph glyph-name="cid249" unicode="&#xac31;" 
d="M367 -92q31 0 57.5 14.5t45 38.5t29 54.5t10.5 62.5t-10.5 62.5t-29 54.5t-45 38.5t-57.5 14.5h-167q-32 0 -58 -14.5t-44.5 -38.5t-29 -54.5t-10.5 -62.5t10.5 -62.5t29 -54.5t44.5 -38.5t58 -14.5h167zM499 769h-77v-193h-50v191h-75v-484h75v219h50v-224h77v491z
M136 78q0 18 4.5 36t13.5 31.5t21.5 22t27.5 8.5h161q15 0 27.5 -8.5t21.5 -22t13.5 -31.5t4.5 -36t-4.5 -36t-13.5 -31.5t-21.5 -22t-27.5 -8.5h-161q-15 0 -27.5 8.5t-21.5 22t-13.5 31.5t-4.5 36zM43 684h141l-151 -376h80l149 376v74h-219v-74z" />
    <glyph glyph-name="cid3063" unicode="&#xac32;" 
 />
    <glyph glyph-name="cid4654" unicode="&#xac33;" 
 />
    <glyph glyph-name="cid4655" unicode="&#xac34;" 
 />
    <glyph glyph-name="cid3064" unicode="&#xac35;" 
 />
    <glyph glyph-name="cid3065" unicode="&#xac36;" 
 />
    <glyph glyph-name="cid4656" unicode="&#xac37;" 
 />
    <glyph glyph-name="cid250" unicode="&#xac38;" 
d="M43 681h208l-218 -750h82l216 750v74h-288v-74zM474 769h-80v-856h80v244h71v74h-71v256h71v74h-71v208z" />
    <glyph glyph-name="cid251" unicode="&#xac39;" 
d="M43 686h200l-210 -378h90l208 378v73h-288v-73zM474 769h-80v-501h80v126h71v74h-71v126h71v74h-71v101zM394 -87h80v315h-421v-74h341v-241z" />
    <glyph glyph-name="cid4657" unicode="&#xac3a;" 
 />
    <glyph glyph-name="cid4658" unicode="&#xac3b;" 
 />
    <glyph glyph-name="cid252" unicode="&#xac3c;" 
d="M474 769h-80v-591h80v186h71v74h-71v146h71v74h-71v111zM43 686h200l-210 -388h90l208 388v73h-288v-73zM143 238h-80v-320h425v74h-345v246z" />
    <glyph glyph-name="cid4659" unicode="&#xac3d;" 
 />
    <glyph glyph-name="cid4660" unicode="&#xac3e;" 
 />
    <glyph glyph-name="cid3066" unicode="&#xac3f;" 
 />
    <glyph glyph-name="cid253" unicode="&#xac40;" 
d="M63 212h333v-78h-333v-216h425v70h-347v78h333v216h-411v-70zM43 686h200l-210 -344h90l208 344v73h-288v-73zM474 769h-80v-451h80v111h71v74h-71v106h71v74h-71v86z" />
    <glyph glyph-name="cid3067" unicode="&#xac41;" 
 />
    <glyph glyph-name="cid4661" unicode="&#xac42;" 
 />
    <glyph glyph-name="cid4662" unicode="&#xac43;" 
 />
    <glyph glyph-name="cid4663" unicode="&#xac44;" 
 />
    <glyph glyph-name="cid4664" unicode="&#xac45;" 
 />
    <glyph glyph-name="cid4665" unicode="&#xac46;" 
 />
    <glyph glyph-name="cid3068" unicode="&#xac47;" 
 />
    <glyph glyph-name="cid3069" unicode="&#xac48;" 
 />
    <glyph glyph-name="cid3070" unicode="&#xac49;" 
 />
    <glyph glyph-name="cid4666" unicode="&#xac4a;" 
 />
    <glyph glyph-name="cid254" unicode="&#xac4b;" 
d="M503 -82l-172 330h-110l-172 -330h87l140 274l140 -274h87zM43 686h200l-210 -378h90l208 378v73h-288v-73zM474 769h-80v-531h80v148h71v74h-71v134h71v74h-71v101z" />
    <glyph glyph-name="cid3071" unicode="&#xac4c;" 
 />
    <glyph glyph-name="cid255" unicode="&#xac4d;" 
d="M346 -92q31 0 57.5 14.5t45 38.5t29 55.5t10.5 66.5t-10.5 66.5t-29 55.5t-45 38.5t-57.5 14.5h-151q-32 0 -58 -14.5t-44.5 -38.5t-29 -55.5t-10.5 -66.5t10.5 -66.5t29 -55.5t44.5 -38.5t58 -14.5h151zM43 686h200l-210 -368h90l208 368v73h-288v-73zM131 83
q0 21 4.5 39.5t13.5 32.5t21.5 22.5t27.5 8.5h145q15 0 27.5 -8.5t21.5 -22.5t13.5 -32.5t4.5 -39.5t-4.5 -39.5t-13.5 -32.5t-21.5 -22.5t-27.5 -8.5h-145q-15 0 -27.5 8.5t-21.5 22.5t-13.5 32.5t-4.5 39.5zM474 769h-80v-481h80v121h71v74h-71v116h71v74h-71v96z" />
    <glyph glyph-name="cid4667" unicode="&#xac4e;" 
 />
    <glyph glyph-name="cid4668" unicode="&#xac4f;" 
 />
    <glyph glyph-name="cid4669" unicode="&#xac50;" 
 />
    <glyph glyph-name="cid4670" unicode="&#xac51;" 
 />
    <glyph glyph-name="cid4671" unicode="&#xac52;" 
 />
    <glyph glyph-name="cid4672" unicode="&#xac53;" 
 />
    <glyph glyph-name="cid256" unicode="&#xac54;" 
d="M372 767h-75v-848h75v238h50v-244h77v856h-77v-208h-50v206zM43 680h143l-153 -748h78l151 748v74h-219v-74zM372 487h50v-256h-50v256z" />
    <glyph glyph-name="cid4673" unicode="&#xac55;" 
 />
    <glyph glyph-name="cid4674" unicode="&#xac56;" 
 />
    <glyph glyph-name="cid4675" unicode="&#xac57;" 
 />
    <glyph glyph-name="cid257" unicode="&#xac58;" 
d="M499 769h-77v-115h-50v113h-75v-584h75v173h50v-188h77v601zM148 228h-80v-310h441v74h-361v236zM43 684h141l-151 -396h80l149 396v74h-219v-74zM372 580h50v-150h-50v150z" />
    <glyph glyph-name="cid4676" unicode="&#xac59;" 
 />
    <glyph glyph-name="cid4677" unicode="&#xac5a;" 
 />
    <glyph glyph-name="cid4678" unicode="&#xac5b;" 
 />
    <glyph glyph-name="cid258" unicode="&#xac5c;" 
d="M68 202h353v-73h-353v-211h441v70h-363v73h353v211h-431v-70zM499 769h-77v-90h-50v88h-75v-454h75v108h50v-113h77v461zM43 684h141l-151 -352h80l149 352v74h-219v-74zM372 605h50v-110h-50v110z" />
    <glyph glyph-name="cid4679" unicode="&#xac5d;" 
 />
    <glyph glyph-name="cid4680" unicode="&#xac5e;" 
 />
    <glyph glyph-name="cid4681" unicode="&#xac5f;" 
 />
    <glyph glyph-name="cid4682" unicode="&#xac60;" 
 />
    <glyph glyph-name="cid4683" unicode="&#xac61;" 
 />
    <glyph glyph-name="cid4684" unicode="&#xac62;" 
 />
    <glyph glyph-name="cid4685" unicode="&#xac63;" 
 />
    <glyph glyph-name="cid3072" unicode="&#xac64;" 
 />
    <glyph glyph-name="cid259" unicode="&#xac65;" 
d="M499 -82v340h-78v-100h-275v100h-78v-340h431zM499 769h-77v-91h-50v89h-75v-468h75v122h50v-127h77v475zM43 684h141l-151 -366h80l149 366v74h-219v-74zM421 88v-98h-275v98h275zM372 606h50v-113h-50v113z" />
    <glyph glyph-name="cid4686" unicode="&#xac66;" 
 />
    <glyph glyph-name="cid4687" unicode="&#xac67;" 
 />
    <glyph glyph-name="cid4688" unicode="&#xac68;" 
 />
    <glyph glyph-name="cid4689" unicode="&#xac69;" 
 />
    <glyph glyph-name="cid4690" unicode="&#xac6a;" 
 />
    <glyph glyph-name="cid4691" unicode="&#xac6b;" 
 />
    <glyph glyph-name="cid4692" unicode="&#xac6c;" 
 />
    <glyph glyph-name="cid4693" unicode="&#xac6d;" 
 />
    <glyph glyph-name="cid4694" unicode="&#xac6e;" 
 />
    <glyph glyph-name="cid4695" unicode="&#xac6f;" 
 />
    <glyph glyph-name="cid260" unicode="&#xac70;" 
d="M48 681h212l-222 -750h82l220 750v74h-292v-74zM300 317h111v-404h80v856h-80v-378h-111v-74z" />
    <glyph glyph-name="cid261" unicode="&#xac71;" 
d="M48 686h204l-214 -378h90l212 378v73h-292v-73zM411 -87h80v315h-433v-74h353v-241zM310 477h101v-209h80v501h-80v-218h-101v-74z" />
    <glyph glyph-name="cid4696" unicode="&#xac72;" 
 />
    <glyph glyph-name="cid3073" unicode="&#xac73;" 
 />
    <glyph glyph-name="cid262" unicode="&#xac74;" 
d="M48 686h204l-214 -388h90l212 388v73h-292v-73zM310 472h101v-294h80v591h-80v-223h-101v-74zM148 238h-80v-320h433v74h-353v246z" />
    <glyph glyph-name="cid3074" unicode="&#xac75;" 
 />
    <glyph glyph-name="cid4697" unicode="&#xac76;" 
 />
    <glyph glyph-name="cid263" unicode="&#xac77;" 
d="M493 248h-425v-330h433v74h-353v182h345v74zM48 686h204l-214 -368h90l212 368v73h-292v-73zM310 482h101v-194h80v481h-80v-213h-101v-74z" />
    <glyph glyph-name="cid264" unicode="&#xac78;" 
d="M68 212h345v-78h-345v-216h433v70h-355v78h345v216h-423v-70zM48 686h204l-214 -344h90l212 344v73h-292v-73zM310 494h101v-176h80v451h-80v-201h-101v-74z" />
    <glyph glyph-name="cid3075" unicode="&#xac79;" 
 />
    <glyph glyph-name="cid265" unicode="&#xac7a;" 
d="M491 -82v364h-204v-364h204zM58 214h125v-81h-125v-215h207v68h-133v81h125v215h-199v-68zM48 686h204l-214 -344h90l212 344v73h-292v-73zM310 494h101v-176h80v451h-80v-201h-101v-74zM419 216v-232h-60v232h60z" />
    <glyph glyph-name="cid4698" unicode="&#xac7b;" 
 />
    <glyph glyph-name="cid4699" unicode="&#xac7c;" 
 />
    <glyph glyph-name="cid4700" unicode="&#xac7d;" 
 />
    <glyph glyph-name="cid4701" unicode="&#xac7e;" 
 />
    <glyph glyph-name="cid4702" unicode="&#xac7f;" 
 />
    <glyph glyph-name="cid266" unicode="&#xac80;" 
d="M491 -82v330h-423v-330h423zM48 686h204l-214 -368h90l212 368v73h-292v-73zM413 176v-186h-267v186h267zM310 482h101v-194h80v481h-80v-213h-101v-74z" />
    <glyph glyph-name="cid267" unicode="&#xac81;" 
d="M491 -82v350h-78v-105h-267v105h-78v-350h423zM48 686h204l-214 -358h90l212 358v73h-292v-73zM310 487h101v-183h80v465h-80v-208h-101v-74zM413 93v-103h-267v103h267z" />
    <glyph glyph-name="cid268" unicode="&#xac82;" 
d="M454 271h-114l-68 -338v335h-70v-105h-62v105h-72v-350h272l57 310l56 -310h73zM48 686h204l-214 -358h90l212 358v73h-292v-73zM310 487h101v-183h80v465h-80v-208h-101v-74zM202 -16h-62v115h62v-115z" />
    <glyph glyph-name="cid269" unicode="&#xac83;" 
d="M48 686h204l-214 -378h90l212 378v73h-292v-73zM516 -82l-176 330h-110l-176 -330h87l144 274l144 -274h87zM310 477h101v-239h80v531h-80v-218h-101v-74z" />
    <glyph glyph-name="cid270" unicode="&#xac84;" 
d="M345 -82l43 293l48 -293h75l-63 335h-118l-46 -293l-45 293h-118l-63 -335h75l48 293l43 -293h121zM48 686h204l-214 -368h90l212 368v73h-292v-73zM310 482h101v-194h80v481h-80v-213h-101v-74z" />
    <glyph glyph-name="cid271" unicode="&#xac85;" 
d="M359 -92q31 0 57.5 14.5t45 38.5t29 55.5t10.5 66.5t-10.5 66.5t-29 55.5t-45 38.5t-57.5 14.5h-159q-32 0 -58 -14.5t-44.5 -38.5t-29 -55.5t-10.5 -66.5t10.5 -66.5t29 -55.5t44.5 -38.5t58 -14.5h159zM48 686h204l-214 -368h90l212 368v73h-292v-73zM136 83
q0 21 4.5 39.5t13.5 32.5t21.5 22.5t27.5 8.5h153q15 0 27.5 -8.5t21.5 -22.5t13.5 -32.5t4.5 -39.5t-4.5 -39.5t-13.5 -32.5t-21.5 -22.5t-27.5 -8.5h-153q-15 0 -27.5 8.5t-21.5 22.5t-13.5 32.5t-4.5 39.5zM310 482h101v-194h80v481h-80v-213h-101v-74z" />
    <glyph glyph-name="cid272" unicode="&#xac86;" 
d="M508 -82l-143 262h128v68h-423v-68h128l-142 -262h87l139 260l139 -260h87zM48 686h204l-214 -368h90l212 368v73h-292v-73zM310 482h101v-194h80v481h-80v-213h-101v-74z" />
    <glyph glyph-name="cid3076" unicode="&#xac87;" 
 />
    <glyph glyph-name="cid4703" unicode="&#xac88;" 
 />
    <glyph glyph-name="cid273" unicode="&#xac89;" 
d="M493 272h-425v-354h433v70h-355v73h337v68h-337v73h347v70zM48 686h204l-214 -354h90l212 354v73h-292v-73zM310 489h101v-181h80v461h-80v-206h-101v-74z" />
    <glyph glyph-name="cid274" unicode="&#xac8a;" 
d="M496 -82v72h-80v186h78v72h-429v-72h78v-186h-80v-72h433zM48 686h204l-214 -368h90l212 368v73h-292v-73zM310 482h101v-194h80v481h-80v-213h-101v-74zM338 -10h-117v186h117v-186z" />
    <glyph glyph-name="cid275" unicode="&#xac8b;" 
d="M389 -92q21 0 39.5 8t32.5 22.5t22 35t8 46.5t-8 46.5t-22 35t-32.5 22.5t-39.5 8h-215q-21 0 -39.5 -8t-32.5 -22.5t-22 -35t-8 -46.5t8 -46.5t22 -35t32.5 -22.5t39.5 -8h215zM48 686h204l-214 -334h90l212 334v73h-292v-73zM310 499h101v-191h80v461h-80v-196h-101
v-74zM58 179h447v72h-184v86h-80v-86h-183v-72zM181 -22q-14 0 -23.5 11t-9.5 31t9.5 31t23.5 11h201q14 0 23.5 -11t9.5 -31t-9.5 -31t-23.5 -11h-201z" />
    <glyph glyph-name="cid276" unicode="&#xac8c;" 
d="M43 680h143l-153 -748h78l151 748v74h-219v-74zM232 321h70v-402h75v848h-75v-372h-70v-74zM499 769h-77v-856h77v856z" />
    <glyph glyph-name="cid277" unicode="&#xac8d;" 
d="M419 -87h80v305h-441v-74h361v-231zM43 684h141l-151 -386h80l149 386v74h-219v-74zM232 471h70v-208h75v504h-75v-222h-70v-74zM499 769h-77v-511h77v511z" />
    <glyph glyph-name="cid4704" unicode="&#xac8e;" 
 />
    <glyph glyph-name="cid4705" unicode="&#xac8f;" 
 />
    <glyph glyph-name="cid278" unicode="&#xac90;" 
d="M148 228h-80v-310h441v74h-361v236zM232 466h70v-283h75v584h-75v-227h-70v-74zM43 684h141l-151 -396h80l149 396v74h-219v-74zM499 769h-77v-601h77v601z" />
    <glyph glyph-name="cid4706" unicode="&#xac91;" 
 />
    <glyph glyph-name="cid4707" unicode="&#xac92;" 
 />
    <glyph glyph-name="cid3077" unicode="&#xac93;" 
 />
    <glyph glyph-name="cid279" unicode="&#xac94;" 
d="M68 202h353v-73h-353v-211h441v70h-363v73h353v211h-431v-70zM43 684h141l-151 -352h80l149 352v74h-219v-74zM232 488h70v-175h75v454h-75v-205h-70v-74zM499 769h-77v-461h77v461z" />
    <glyph glyph-name="cid4708" unicode="&#xac95;" 
 />
    <glyph glyph-name="cid4709" unicode="&#xac96;" 
 />
    <glyph glyph-name="cid4710" unicode="&#xac97;" 
 />
    <glyph glyph-name="cid4711" unicode="&#xac98;" 
 />
    <glyph glyph-name="cid4712" unicode="&#xac99;" 
 />
    <glyph glyph-name="cid4713" unicode="&#xac9a;" 
 />
    <glyph glyph-name="cid4714" unicode="&#xac9b;" 
 />
    <glyph glyph-name="cid280" unicode="&#xac9c;" 
d="M499 -82v320h-431v-320h431zM421 166v-176h-275v176h275zM43 684h141l-151 -376h80l149 376v74h-219v-74zM232 476h70v-193h75v484h-75v-217h-70v-74zM499 769h-77v-491h77v491z" />
    <glyph glyph-name="cid281" unicode="&#xac9d;" 
d="M499 -82v340h-78v-100h-275v100h-78v-340h431zM43 684h141l-151 -366h80l149 366v74h-219v-74zM232 481h70v-182h75v468h-75v-212h-70v-74zM499 769h-77v-475h77v475zM421 88v-98h-275v98h275z" />
    <glyph glyph-name="cid4715" unicode="&#xac9e;" 
 />
    <glyph glyph-name="cid282" unicode="&#xac9f;" 
d="M524 -82l-180 320h-110l-180 -320h87l148 266l148 -266h87zM43 684h141l-151 -386h80l149 386v74h-219v-74zM232 471h70v-198h75v494h-75v-222h-70v-74zM499 769h-77v-541h77v541z" />
    <glyph glyph-name="cid283" unicode="&#xaca0;" 
d="M350 -82l45 284l51 -284h75l-66 325h-118l-48 -286l-47 286h-118l-66 -325h75l51 284l45 -284h121zM43 684h141l-151 -376h80l149 376v74h-219v-74zM232 476h70v-193h75v484h-75v-217h-70v-74zM499 769h-77v-491h77v491z" />
    <glyph glyph-name="cid284" unicode="&#xaca1;" 
d="M367 -92q31 0 57.5 14.5t45 38.5t29 54.5t10.5 62.5t-10.5 62.5t-29 54.5t-45 38.5t-57.5 14.5h-167q-32 0 -58 -14.5t-44.5 -38.5t-29 -54.5t-10.5 -62.5t10.5 -62.5t29 -54.5t44.5 -38.5t58 -14.5h167zM136 78q0 18 4.5 36t13.5 31.5t21.5 22t27.5 8.5h161
q15 0 27.5 -8.5t21.5 -22t13.5 -31.5t4.5 -36t-4.5 -36t-13.5 -31.5t-21.5 -22t-27.5 -8.5h-161q-15 0 -27.5 8.5t-21.5 22t-13.5 31.5t-4.5 36zM43 684h141l-151 -376h80l149 376v74h-219v-74zM232 476h70v-193h75v484h-75v-217h-70v-74zM499 769h-77v-491h77v491z" />
    <glyph glyph-name="cid4716" unicode="&#xaca2;" 
 />
    <glyph glyph-name="cid4717" unicode="&#xaca3;" 
 />
    <glyph glyph-name="cid4718" unicode="&#xaca4;" 
 />
    <glyph glyph-name="cid3078" unicode="&#xaca5;" 
 />
    <glyph glyph-name="cid4719" unicode="&#xaca6;" 
 />
    <glyph glyph-name="cid3079" unicode="&#xaca7;" 
 />
    <glyph glyph-name="cid285" unicode="&#xaca8;" 
d="M270 167h141v-254h80v856h-80v-228h-112l41 140v74h-292v-74h212l-222 -750h82l157 536h134v-226h-141v-74z" />
    <glyph glyph-name="cid286" unicode="&#xaca9;" 
d="M48 686h204l-214 -378h90l145 259h138v-106h-131v-72h131v-121h80v501h-80v-130h-98l27 47v73h-292v-73zM411 -87h80v315h-433v-74h353v-241z" />
    <glyph glyph-name="cid287" unicode="&#xacaa;" 
d="M48 686h204l-214 -372h90l145 255h138v-103h-131v-72h131v-118h80v493h-80v-128h-97l26 45v73h-292v-73zM266 -87v323h-208v-72h130v-251h78zM491 -87v323h-195v-72h117v-251h78z" />
    <glyph glyph-name="cid4720" unicode="&#xacab;" 
 />
    <glyph glyph-name="cid288" unicode="&#xacac;" 
d="M48 686h204l-214 -388h90l145 265h138v-110h-131v-72h131v-203h80v591h-80v-134h-99l28 51v73h-292v-73zM148 238h-80v-320h433v74h-353v246z" />
    <glyph glyph-name="cid4721" unicode="&#xacad;" 
 />
    <glyph glyph-name="cid4722" unicode="&#xacae;" 
 />
    <glyph glyph-name="cid289" unicode="&#xacaf;" 
d="M280 397h131v-109h80v481h-80v-126h-96l25 43v73h-292v-73h204l-214 -368h90l145 253h138v-102h-131v-72zM493 248h-425v-330h433v74h-353v182h345v74z" />
    <glyph glyph-name="cid290" unicode="&#xacb0;" 
d="M48 686h204l-214 -344h90l146 237h137v-96h-131v-72h131v-93h80v451h-80v-118h-93l22 35v73h-292v-73zM68 212h345v-78h-345v-216h433v70h-355v78h345v216h-423v-70z" />
    <glyph glyph-name="cid3080" unicode="&#xacb1;" 
 />
    <glyph glyph-name="cid4723" unicode="&#xacb2;" 
 />
    <glyph glyph-name="cid4724" unicode="&#xacb3;" 
 />
    <glyph glyph-name="cid3081" unicode="&#xacb4;" 
 />
    <glyph glyph-name="cid4725" unicode="&#xacb5;" 
 />
    <glyph glyph-name="cid4726" unicode="&#xacb6;" 
 />
    <glyph glyph-name="cid291" unicode="&#xacb7;" 
d="M48 686h204l-214 -344h90l146 237h137v-96h-131v-72h131v-93h80v451h-80v-118h-93l22 35v73h-292v-73zM58 214h113v-81h-113v-215h202v68h-128v81h113v215h-187v-68zM422 -92q20 0 36.5 8.5t28.5 23.5t18.5 34.5t6.5 41.5t-6.5 41.5t-18.5 34.5t-28.5 23.5t-36.5 8.5h-58
q-20 0 -36.5 -8.5t-28.5 -23.5t-18.5 -34.5t-6.5 -41.5t6.5 -41.5t18.5 -34.5t28.5 -23.5t36.5 -8.5h58zM272 157h242v70h-83v65h-76v-65h-83v-70zM346 16q0 17 7.5 28.5t19.5 11.5h40q12 0 19.5 -11.5t7.5 -28.5t-7.5 -28.5t-19.5 -11.5h-40q-12 0 -19.5 11.5t-7.5 28.5z
" />
    <glyph glyph-name="cid292" unicode="&#xacb8;" 
d="M491 -82v330h-423v-330h423zM280 397h131v-109h80v481h-80v-126h-96l25 43v73h-292v-73h204l-214 -368h90l145 253h138v-102h-131v-72zM413 176v-186h-267v186h267z" />
    <glyph glyph-name="cid293" unicode="&#xacb9;" 
d="M491 -82v350h-78v-105h-267v105h-78v-350h423zM48 686h204l-214 -358h90l146 247h137v-98h-131v-72h131v-101h80v465h-80v-122h-94l23 39v73h-292v-73zM413 93v-103h-267v103h267z" />
    <glyph glyph-name="cid4727" unicode="&#xacba;" 
 />
    <glyph glyph-name="cid294" unicode="&#xacbb;" 
d="M48 686h204l-214 -378h90l145 259h138v-106h-131v-72h131v-151h80v531h-80v-130h-98l27 47v73h-292v-73zM516 -82l-176 330h-110l-176 -330h87l144 274l144 -274h87z" />
    <glyph glyph-name="cid295" unicode="&#xacbc;" 
d="M280 397h131v-109h80v481h-80v-126h-96l25 43v73h-292v-73h204l-214 -368h90l145 253h138v-102h-131v-72zM345 -82l43 293l48 -293h75l-63 335h-118l-46 -293l-45 293h-118l-63 -335h75l48 293l43 -293h121z" />
    <glyph glyph-name="cid296" unicode="&#xacbd;" 
d="M359 -92q31 0 57.5 14.5t45 38.5t29 55.5t10.5 66.5t-10.5 66.5t-29 55.5t-45 38.5t-57.5 14.5h-159q-32 0 -58 -14.5t-44.5 -38.5t-29 -55.5t-10.5 -66.5t10.5 -66.5t29 -55.5t44.5 -38.5t58 -14.5h159zM280 397h131v-109h80v481h-80v-126h-96l25 43v73h-292v-73h204
l-214 -368h90l145 253h138v-102h-131v-72zM136 83q0 21 4.5 39.5t13.5 32.5t21.5 22.5t27.5 8.5h153q15 0 27.5 -8.5t21.5 -22.5t13.5 -32.5t4.5 -39.5t-4.5 -39.5t-13.5 -32.5t-21.5 -22.5t-27.5 -8.5h-153q-15 0 -27.5 8.5t-21.5 22.5t-13.5 32.5t-4.5 39.5z" />
    <glyph glyph-name="cid3082" unicode="&#xacbe;" 
 />
    <glyph glyph-name="cid297" unicode="&#xacbf;" 
d="M48 686h204l-214 -348h90l146 240h137v-98h-131v-72h131v-120h80v481h-80v-119h-93l22 36v73h-292v-73zM508 -82l-141 232h126v68h-172v90h-80v-90h-171v-68h127l-141 -232h87l139 231l139 -231h87z" />
    <glyph glyph-name="cid4728" unicode="&#xacc0;" 
 />
    <glyph glyph-name="cid298" unicode="&#xacc1;" 
d="M48 686h204l-214 -354h90l145 243h138v-100h-131v-72h131v-95h80v461h-80v-122h-95l24 39v73h-292v-73zM493 272h-425v-354h433v70h-355v73h337v68h-337v73h347v70z" />
    <glyph glyph-name="cid3083" unicode="&#xacc2;" 
 />
    <glyph glyph-name="cid4729" unicode="&#xacc3;" 
 />
    <glyph glyph-name="cid299" unicode="&#xacc4;" 
d="M43 680h143l-153 -748h78l108 535h83v-226h-80v-74h80v-248h75v848h-75v-226h-68l28 139v74h-219v-74zM499 769h-77v-856h77v856z" />
    <glyph glyph-name="cid3084" unicode="&#xacc5;" 
 />
    <glyph glyph-name="cid4730" unicode="&#xacc6;" 
 />
    <glyph glyph-name="cid4731" unicode="&#xacc7;" 
 />
    <glyph glyph-name="cid300" unicode="&#xacc8;" 
d="M43 684h141l-151 -396h80l102 271h87v-114h-90v-72h90v-190h75v584h-75v-136h-60l20 53v74h-219v-74zM148 228h-80v-310h441v74h-361v236zM499 769h-77v-601h77v601z" />
    <glyph glyph-name="cid4732" unicode="&#xacc9;" 
 />
    <glyph glyph-name="cid4733" unicode="&#xacca;" 
 />
    <glyph glyph-name="cid3085" unicode="&#xaccb;" 
 />
    <glyph glyph-name="cid301" unicode="&#xaccc;" 
d="M68 202h353v-73h-353v-211h441v70h-363v73h353v211h-431v-70zM43 684h141l-151 -352h80l103 243h86v-100h-90v-72h90v-90h75v454h-75v-120h-56l16 37v74h-219v-74zM499 769h-77v-461h77v461z" />
    <glyph glyph-name="cid4734" unicode="&#xaccd;" 
 />
    <glyph glyph-name="cid4735" unicode="&#xacce;" 
 />
    <glyph glyph-name="cid4736" unicode="&#xaccf;" 
 />
    <glyph glyph-name="cid4737" unicode="&#xacd0;" 
 />
    <glyph glyph-name="cid4738" unicode="&#xacd1;" 
 />
    <glyph glyph-name="cid4739" unicode="&#xacd2;" 
 />
    <glyph glyph-name="cid4740" unicode="&#xacd3;" 
 />
    <glyph glyph-name="cid3086" unicode="&#xacd4;" 
 />
    <glyph glyph-name="cid302" unicode="&#xacd5;" 
d="M499 -82v340h-78v-100h-275v100h-78v-340h431zM43 684h141l-151 -366h80l103 253h86v-102h-90v-72h90v-98h75v468h-75v-124h-57l17 41v74h-219v-74zM499 769h-77v-475h77v475zM421 88v-98h-275v98h275z" />
    <glyph glyph-name="cid4741" unicode="&#xacd6;" 
 />
    <glyph glyph-name="cid303" unicode="&#xacd7;" 
d="M43 684h141l-151 -386h80l102 265h87v-110h-90v-72h90v-108h75v494h-75v-132h-59l19 49v74h-219v-74zM524 -82l-180 320h-110l-180 -320h87l148 266l148 -266h87zM499 769h-77v-541h77v541z" />
    <glyph glyph-name="cid304" unicode="&#xacd8;" 
d="M43 684h141l-151 -376h80l102 259h87v-106h-90v-72h90v-106h75v484h-75v-128h-58l18 45v74h-219v-74zM350 -82l45 284l51 -284h75l-66 325h-118l-48 -286l-47 286h-118l-66 -325h75l51 284l45 -284h121zM499 769h-77v-491h77v491z" />
    <glyph glyph-name="cid3087" unicode="&#xacd9;" 
 />
    <glyph glyph-name="cid4742" unicode="&#xacda;" 
 />
    <glyph glyph-name="cid4743" unicode="&#xacdb;" 
 />
    <glyph glyph-name="cid4744" unicode="&#xacdc;" 
 />
    <glyph glyph-name="cid4745" unicode="&#xacdd;" 
 />
    <glyph glyph-name="cid4746" unicode="&#xacde;" 
 />
    <glyph glyph-name="cid4747" unicode="&#xacdf;" 
 />
    <glyph glyph-name="cid305" unicode="&#xace0;" 
d="M37 -67h478v74h-229v396h-80v-396h-169v-74zM410 203h80v556h-431v-75h351v-481z" />
    <glyph glyph-name="cid306" unicode="&#xace1;" 
d="M37 310h478v74h-229v188h-80v-188h-169v-74zM410 -87h80v302h-434v-74h354v-228zM410 462h80v299h-431v-74h351v-225z" />
    <glyph glyph-name="cid4748" unicode="&#xace2;" 
 />
    <glyph glyph-name="cid4749" unicode="&#xace3;" 
 />
    <glyph glyph-name="cid307" unicode="&#xace4;" 
d="M142 210h-80v-292h434v74h-354v218zM37 295h478v74h-229v198h-80v-198h-169v-74zM410 452h80v309h-431v-74h351v-235z" />
    <glyph glyph-name="cid4750" unicode="&#xace5;" 
 />
    <glyph glyph-name="cid4751" unicode="&#xace6;" 
 />
    <glyph glyph-name="cid308" unicode="&#xace7;" 
d="M37 327h478v74h-229v177h-80v-177h-169v-74zM490 237h-428v-319h434v74h-354v171h348v74zM410 474h80v287h-431v-74h351v-213z" />
    <glyph glyph-name="cid309" unicode="&#xace8;" 
d="M62 215h350v-79h-350v-218h434v70h-356v80h350v217h-428v-70zM37 365h478v74h-229v153h-80v-153h-169v-74zM410 502h80v259h-431v-74h351v-185z" />
    <glyph glyph-name="cid3088" unicode="&#xace9;" 
 />
    <glyph glyph-name="cid310" unicode="&#xacea;" 
d="M57 217h127v-82h-127v-217h211v68h-137v83h127v216h-201v-68zM495 -82v367h-203v-367h203zM423 219v-235h-59v235h59zM37 365h478v74h-229v153h-80v-153h-169v-74zM410 502h80v259h-431v-74h351v-185z" />
    <glyph glyph-name="cid3089" unicode="&#xaceb;" 
 />
    <glyph glyph-name="cid311" unicode="&#xacec;" 
d="M447 290h-120l-57 -304h-139v83h121v216h-195v-68h121v-82h-121v-217h271l59 328l58 -328h73zM37 365h478v74h-229v153h-80v-153h-169v-74zM410 502h80v259h-431v-74h351v-185z" />
    <glyph glyph-name="cid4752" unicode="&#xaced;" 
 />
    <glyph glyph-name="cid3090" unicode="&#xacee;" 
 />
    <glyph glyph-name="cid312" unicode="&#xacef;" 
d="M37 365h478v74h-229v153h-80v-153h-169v-74zM410 502h80v259h-431v-74h351v-185zM57 217h117v-82h-117v-217h206v68h-132v83h117v216h-191v-68zM276 161h236v68h-80v66h-76v-66h-80v-68zM420 -92q41 0 65.5 31.5t24.5 77.5t-24.5 77.5t-65.5 31.5h-52q-41 0 -65.5 -31.5
t-24.5 -77.5t24.5 -77.5t65.5 -31.5h52zM350 17q0 18 7.5 30.5t19.5 12.5h34q12 0 19.5 -12.5t7.5 -30.5t-7.5 -30.5t-19.5 -12.5h-34q-12 0 -19.5 12.5t-7.5 30.5z" />
    <glyph glyph-name="cid313" unicode="&#xacf0;" 
d="M490 -82v319h-428v-319h428zM412 165v-175h-272v175h272zM37 327h478v74h-229v177h-80v-177h-169v-74zM410 474h80v287h-431v-74h351v-213z" />
    <glyph glyph-name="cid314" unicode="&#xacf1;" 
d="M490 -82v343h-78v-102h-272v102h-78v-343h428zM412 89v-99h-272v99h272zM37 335h478v74h-229v173h-80v-173h-169v-74zM410 482h80v279h-431v-74h351v-205z" />
    <glyph glyph-name="cid4753" unicode="&#xacf2;" 
 />
    <glyph glyph-name="cid315" unicode="&#xacf3;" 
d="M37 310h478v74h-229v188h-80v-188h-169v-74zM410 462h80v299h-431v-74h351v-225zM512 -82l-184 312h-104l-184 -312h91l145 252l145 -252h91z" />
    <glyph glyph-name="cid4754" unicode="&#xacf4;" 
 />
    <glyph glyph-name="cid316" unicode="&#xacf5;" 
d="M358 -92q31 0 57.5 14t45 37.5t29 54t10.5 64.5t-10.5 64.5t-29 54t-45 37.5t-57.5 14h-164q-32 0 -58 -14t-44.5 -37.5t-29 -54t-10.5 -64.5t10.5 -64.5t29 -54t44.5 -37.5t58 -14h164zM130 78q0 40 18 69t49 29h158q31 0 49 -29t18 -69t-18 -69t-49 -29h-158
q-31 0 -49 29t-18 69zM37 327h478v74h-229v177h-80v-177h-169v-74zM410 474h80v287h-431v-74h351v-213z" />
    <glyph glyph-name="cid317" unicode="&#xacf6;" 
d="M60 169h129l-147 -251h91l143 250l143 -250h91l-148 251h130v68h-432v-68zM37 327h478v74h-229v177h-80v-177h-169v-74zM410 474h80v287h-431v-74h351v-213z" />
    <glyph glyph-name="cid3091" unicode="&#xacf7;" 
 />
    <glyph glyph-name="cid4755" unicode="&#xacf8;" 
 />
    <glyph glyph-name="cid318" unicode="&#xacf9;" 
d="M37 365h478v74h-229v153h-80v-153h-169v-74zM410 502h80v259h-431v-74h351v-185zM490 285h-428v-367h434v70h-356v80h340v68h-340v79h350v70z" />
    <glyph glyph-name="cid3092" unicode="&#xacfa;" 
 />
    <glyph glyph-name="cid3093" unicode="&#xacfb;" 
 />
    <glyph glyph-name="cid319" unicode="&#xacfc;" 
d="M474 769h-80v-856h80v433h73v74h-73v349zM334 183v574h-292v-74h212v-500h80zM26 -57h338v74h-165v376h-80v-376h-93v-74z" />
    <glyph glyph-name="cid320" unicode="&#xacfd;" 
d="M394 -87h80v301h-421v-74h341v-227zM474 769h-80v-520h80v236h73v74h-73v210zM26 305h338v74h-165v188h-80v-188h-93v-74zM334 457v302h-292v-74h212v-228h80z" />
    <glyph glyph-name="cid4756" unicode="&#xacfe;" 
 />
    <glyph glyph-name="cid4757" unicode="&#xacff;" 
 />
    <glyph glyph-name="cid321" unicode="&#xad00;" 
d="M474 769h-80v-624h80v314h73v74h-73v236zM143 205h-80v-287h425v74h-345v213zM26 290h338v74h-165v198h-80v-198h-93v-74zM334 447v312h-292v-74h212v-238h80z" />
    <glyph glyph-name="cid4758" unicode="&#xad01;" 
 />
    <glyph glyph-name="cid4759" unicode="&#xad02;" 
 />
    <glyph glyph-name="cid3094" unicode="&#xad03;" 
 />
    <glyph glyph-name="cid322" unicode="&#xad04;" 
d="M63 210h333v-77h-333v-215h425v70h-347v77h333v215h-411v-70zM474 769h-80v-453h80v192h73v74h-73v187zM26 360h338v74h-165v153h-80v-153h-93v-74zM334 497v262h-292v-74h212v-188h80z" />
    <glyph glyph-name="cid4760" unicode="&#xad05;" 
 />
    <glyph glyph-name="cid323" unicode="&#xad06;" 
d="M474 -82v362h-199v-362h199zM53 212h118v-80h-118v-214h202v68h-128v80h118v214h-192v-68zM474 769h-80v-453h80v192h73v74h-73v187zM26 360h338v74h-165v153h-80v-153h-93v-74zM334 497v262h-292v-74h212v-188h80zM402 214v-230h-55v230h55z" />
    <glyph glyph-name="cid4761" unicode="&#xad07;" 
 />
    <glyph glyph-name="cid4762" unicode="&#xad08;" 
 />
    <glyph glyph-name="cid4763" unicode="&#xad09;" 
 />
    <glyph glyph-name="cid4764" unicode="&#xad0a;" 
 />
    <glyph glyph-name="cid4765" unicode="&#xad0b;" 
 />
    <glyph glyph-name="cid324" unicode="&#xad0c;" 
d="M474 -82v318h-411v-318h411zM474 769h-80v-498h80v222h73v74h-73v202zM396 164v-174h-255v174h255zM26 322h338v74h-165v177h-80v-177h-93v-74zM334 469v290h-292v-74h212v-216h80z" />
    <glyph glyph-name="cid325" unicode="&#xad0d;" 
d="M474 -82v338h-78v-99h-255v99h-78v-338h411zM474 769h-80v-477h80v206h73v74h-73v197zM26 330h338v74h-165v173h-80v-173h-93v-74zM334 477v282h-292v-74h212v-208h80zM396 87v-97h-255v97h255z" />
    <glyph glyph-name="cid4766" unicode="&#xad0e;" 
 />
    <glyph glyph-name="cid326" unicode="&#xad0f;" 
d="M503 -82l-175 312h-104l-175 -312h90l137 252l137 -252h90zM474 769h-80v-564h80v280h73v74h-73v210zM26 305h338v74h-165v188h-80v-188h-93v-74zM334 457v302h-292v-74h212v-228h80z" />
    <glyph glyph-name="cid327" unicode="&#xad10;" 
d="M337 -82l42 277l45 -277h76l-62 323h-116l-47 -277l-44 277h-116l-62 -323h76l45 277l42 -277h121zM474 769h-80v-498h80v222h73v74h-73v202zM26 322h338v74h-165v177h-80v-177h-93v-74zM334 469v290h-292v-74h212v-216h80z" />
    <glyph glyph-name="cid328" unicode="&#xad11;" 
d="M346 -92q31 0 57.5 13.5t45 37t29 54t10.5 64.5t-10.5 64.5t-29 53.5t-45 37t-57.5 14h-151q-32 0 -58 -14t-44.5 -37t-29 -53.5t-10.5 -64.5t10.5 -64.5t29 -54t44.5 -37t58 -13.5h151zM131 77q0 41 18 69t49 28h145q31 0 49 -28t18 -69t-18 -69t-49 -28h-145
q-31 0 -49 28t-18 69zM474 769h-80v-498h80v222h73v74h-73v202zM26 322h338v74h-165v177h-80v-177h-93v-74zM334 469v290h-292v-74h212v-216h80z" />
    <glyph glyph-name="cid329" unicode="&#xad12;" 
d="M495 -82l-139 250h124v68h-415v-68h124l-138 -250h87l135 248l135 -248h87zM474 769h-80v-498h80v222h73v74h-73v202zM26 322h338v74h-165v177h-80v-177h-93v-74zM334 469v290h-292v-74h212v-216h80z" />
    <glyph glyph-name="cid4767" unicode="&#xad13;" 
 />
    <glyph glyph-name="cid4768" unicode="&#xad14;" 
 />
    <glyph glyph-name="cid4769" unicode="&#xad15;" 
 />
    <glyph glyph-name="cid4770" unicode="&#xad16;" 
 />
    <glyph glyph-name="cid4771" unicode="&#xad17;" 
 />
    <glyph glyph-name="cid330" unicode="&#xad18;" 
d="M380 767h-75v-749h-144v375h-77v-375h-58v-74h279v-25h75v422h42v-428h77v856h-77v-354h-42v352zM265 193v563h-223v-74h146v-489h77z" />
    <glyph glyph-name="cid3095" unicode="&#xad19;" 
 />
    <glyph glyph-name="cid4772" unicode="&#xad1a;" 
 />
    <glyph glyph-name="cid4773" unicode="&#xad1b;" 
 />
    <glyph glyph-name="cid331" unicode="&#xad1c;" 
d="M380 767h-75v-403h-144v198h-77v-198h-58v-74h279v-135h75v320h42v-330h77v624h-77v-220h-42v218zM148 205h-80v-287h441v74h-361v213zM265 447v311h-223v-74h146v-237h77z" />
    <glyph glyph-name="cid4774" unicode="&#xad1d;" 
 />
    <glyph glyph-name="cid4775" unicode="&#xad1e;" 
 />
    <glyph glyph-name="cid3096" unicode="&#xad1f;" 
 />
    <glyph glyph-name="cid332" unicode="&#xad20;" 
d="M380 767h-75v-333h-144v153h-77v-153h-58v-74h279v-38h75v184h42v-190h77v453h-77v-189h-42v187zM68 210h353v-77h-353v-215h441v70h-363v77h353v215h-431v-70zM265 497v261h-223v-74h146v-187h77z" />
    <glyph glyph-name="cid4776" unicode="&#xad21;" 
 />
    <glyph glyph-name="cid333" unicode="&#xad22;" 
d="M380 767h-75v-333h-144v153h-77v-153h-58v-74h279v-38h75v184h42v-190h77v453h-77v-189h-42v187zM499 -82v362h-203v-362h203zM61 212h127v-80h-127v-214h211v68h-137v80h127v214h-201v-68zM265 497v261h-223v-74h146v-187h77zM427 214v-230h-59v230h59z" />
    <glyph glyph-name="cid4777" unicode="&#xad23;" 
 />
    <glyph glyph-name="cid4778" unicode="&#xad24;" 
 />
    <glyph glyph-name="cid4779" unicode="&#xad25;" 
 />
    <glyph glyph-name="cid4780" unicode="&#xad26;" 
 />
    <glyph glyph-name="cid4781" unicode="&#xad27;" 
 />
    <glyph glyph-name="cid3097" unicode="&#xad28;" 
 />
    <glyph glyph-name="cid334" unicode="&#xad29;" 
d="M499 -82v338h-78v-99h-275v99h-78v-338h431zM380 767h-75v-363h-144v173h-77v-173h-58v-74h279v-32h75v193h42v-199h77v477h-77v-204h-42v202zM265 477v281h-223v-74h146v-207h77zM421 87v-97h-275v97h275z" />
    <glyph glyph-name="cid4782" unicode="&#xad2a;" 
 />
    <glyph glyph-name="cid3098" unicode="&#xad2b;" 
 />
    <glyph glyph-name="cid335" unicode="&#xad2c;" 
d="M380 767h-75v-371h-144v177h-77v-177h-58v-74h279v-45h75v209h42v-215h77v498h-77v-209h-42v207zM350 -82l46 277l49 -277h76l-66 323h-116l-51 -280l-48 280h-116l-66 -323h76l49 277l46 -277h121zM265 469v289h-223v-74h146v-215h77z" />
    <glyph glyph-name="cid336" unicode="&#xad2d;" 
d="M367 -92q31 0 57.5 13.5t45 37t29 54t10.5 64.5t-10.5 64.5t-29 53.5t-45 37t-57.5 14h-167q-32 0 -58 -14t-44.5 -37t-29 -53.5t-10.5 -64.5t10.5 -64.5t29 -54t44.5 -37t58 -13.5h167zM380 767h-75v-371h-144v177h-77v-177h-58v-74h279v-45h75v209h42v-215h77v498h-77
v-209h-42v207zM136 77q0 41 18 69t49 28h161q31 0 49 -28t18 -69t-18 -69t-49 -28h-161q-31 0 -49 28t-18 69zM265 469v289h-223v-74h146v-215h77z" />
    <glyph glyph-name="cid4783" unicode="&#xad2e;" 
 />
    <glyph glyph-name="cid4784" unicode="&#xad2f;" 
 />
    <glyph glyph-name="cid4785" unicode="&#xad30;" 
 />
    <glyph glyph-name="cid4786" unicode="&#xad31;" 
 />
    <glyph glyph-name="cid4787" unicode="&#xad32;" 
 />
    <glyph glyph-name="cid4788" unicode="&#xad33;" 
 />
    <glyph glyph-name="cid337" unicode="&#xad34;" 
d="M491 769h-80v-856h80v856zM31 -57h345v74h-169v376h-80v-376h-96v-74zM345 183v574h-298v-74h218v-500h80z" />
    <glyph glyph-name="cid338" unicode="&#xad35;" 
d="M31 305h345v74h-169v188h-80v-188h-96v-74zM491 769h-80v-520h80v520zM345 457v302h-298v-74h218v-228h80zM411 -87h80v301h-433v-74h353v-227z" />
    <glyph glyph-name="cid4789" unicode="&#xad36;" 
 />
    <glyph glyph-name="cid4790" unicode="&#xad37;" 
 />
    <glyph glyph-name="cid339" unicode="&#xad38;" 
d="M491 769h-80v-624h80v624zM148 205h-80v-287h433v74h-353v213zM31 290h345v74h-169v198h-80v-198h-96v-74zM345 447v312h-298v-74h218v-238h80z" />
    <glyph glyph-name="cid4791" unicode="&#xad39;" 
 />
    <glyph glyph-name="cid4792" unicode="&#xad3a;" 
 />
    <glyph glyph-name="cid3099" unicode="&#xad3b;" 
 />
    <glyph glyph-name="cid340" unicode="&#xad3c;" 
d="M491 769h-80v-453h80v453zM68 210h345v-77h-345v-215h433v70h-355v77h345v215h-423v-70zM31 360h345v74h-169v153h-80v-153h-96v-74zM345 497v262h-298v-74h218v-188h80z" />
    <glyph glyph-name="cid4793" unicode="&#xad3d;" 
 />
    <glyph glyph-name="cid3100" unicode="&#xad3e;" 
 />
    <glyph glyph-name="cid4794" unicode="&#xad3f;" 
 />
    <glyph glyph-name="cid4795" unicode="&#xad40;" 
 />
    <glyph glyph-name="cid4796" unicode="&#xad41;" 
 />
    <glyph glyph-name="cid4797" unicode="&#xad42;" 
 />
    <glyph glyph-name="cid4798" unicode="&#xad43;" 
 />
    <glyph glyph-name="cid341" unicode="&#xad44;" 
d="M491 -82v318h-423v-318h423zM413 164v-174h-267v174h267zM31 322h345v74h-169v177h-80v-177h-96v-74zM491 769h-80v-498h80v498zM345 469v290h-298v-74h218v-216h80z" />
    <glyph glyph-name="cid342" unicode="&#xad45;" 
d="M491 769h-80v-477h80v477zM491 -82v338h-78v-99h-267v99h-78v-338h423zM413 87v-97h-267v97h267zM31 330h345v74h-169v173h-80v-173h-96v-74zM345 477v282h-298v-74h218v-208h80z" />
    <glyph glyph-name="cid4799" unicode="&#xad46;" 
 />
    <glyph glyph-name="cid343" unicode="&#xad47;" 
d="M491 769h-80v-564h80v564zM31 305h345v74h-169v188h-80v-188h-96v-74zM345 457v302h-298v-74h218v-228h80zM516 -82l-179 312h-104l-179 -312h90l141 252l141 -252h90z" />
    <glyph glyph-name="cid3101" unicode="&#xad48;" 
 />
    <glyph glyph-name="cid344" unicode="&#xad49;" 
d="M31 322h345v74h-169v177h-80v-177h-96v-74zM491 769h-80v-498h80v498zM359 -92q31 0 57.5 13.5t45 37t29 54t10.5 64.5t-10.5 64.5t-29 53.5t-45 37t-57.5 14h-159q-32 0 -58 -14t-44.5 -37t-29 -53.5t-10.5 -64.5t10.5 -64.5t29 -54t44.5 -37t58 -13.5h159zM136 77
q0 41 18 69t49 28h153q31 0 49 -28t18 -69t-18 -69t-49 -28h-153q-31 0 -49 28t-18 69zM345 469v290h-298v-74h218v-216h80z" />
    <glyph glyph-name="cid4800" unicode="&#xad4a;" 
 />
    <glyph glyph-name="cid4801" unicode="&#xad4b;" 
 />
    <glyph glyph-name="cid4802" unicode="&#xad4c;" 
 />
    <glyph glyph-name="cid4803" unicode="&#xad4d;" 
 />
    <glyph glyph-name="cid4804" unicode="&#xad4e;" 
 />
    <glyph glyph-name="cid4805" unicode="&#xad4f;" 
 />
    <glyph glyph-name="cid345" unicode="&#xad50;" 
d="M37 -67h478v74h-159v386h-80v-386h-72v386h-80v-386h-87v-74zM410 213h80v546h-431v-75h351v-471z" />
    <glyph glyph-name="cid3102" unicode="&#xad51;" 
 />
    <glyph glyph-name="cid4806" unicode="&#xad52;" 
 />
    <glyph glyph-name="cid4807" unicode="&#xad53;" 
 />
    <glyph glyph-name="cid346" unicode="&#xad54;" 
d="M142 210h-80v-292h434v74h-354v218zM410 457h80v304h-431v-74h351v-230zM37 293h478v74h-159v195h-80v-195h-72v195h-80v-195h-87v-74z" />
    <glyph glyph-name="cid4808" unicode="&#xad55;" 
 />
    <glyph glyph-name="cid4809" unicode="&#xad56;" 
 />
    <glyph glyph-name="cid3103" unicode="&#xad57;" 
 />
    <glyph glyph-name="cid347" unicode="&#xad58;" 
d="M62 215h350v-79h-350v-218h434v70h-356v80h350v217h-428v-70zM410 507h80v254h-431v-74h351v-180zM37 363h478v74h-159v150h-80v-150h-72v150h-80v-150h-87v-74z" />
    <glyph glyph-name="cid4810" unicode="&#xad59;" 
 />
    <glyph glyph-name="cid4811" unicode="&#xad5a;" 
 />
    <glyph glyph-name="cid4812" unicode="&#xad5b;" 
 />
    <glyph glyph-name="cid4813" unicode="&#xad5c;" 
 />
    <glyph glyph-name="cid4814" unicode="&#xad5d;" 
 />
    <glyph glyph-name="cid4815" unicode="&#xad5e;" 
 />
    <glyph glyph-name="cid4816" unicode="&#xad5f;" 
 />
    <glyph glyph-name="cid348" unicode="&#xad60;" 
d="M490 -82v319h-428v-319h428zM412 165v-175h-272v175h272zM410 479h80v282h-431v-74h351v-208zM37 325h478v74h-159v174h-80v-174h-72v174h-80v-174h-87v-74z" />
    <glyph glyph-name="cid349" unicode="&#xad61;" 
d="M490 -82v343h-78v-102h-272v102h-78v-343h428zM412 89v-99h-272v99h272zM410 487h80v274h-431v-74h351v-200zM37 333h478v74h-159v170h-80v-170h-72v170h-80v-170h-87v-74z" />
    <glyph glyph-name="cid4817" unicode="&#xad62;" 
 />
    <glyph glyph-name="cid350" unicode="&#xad63;" 
d="M410 467h80v294h-431v-74h351v-220zM37 308h478v74h-159v185h-80v-185h-72v185h-80v-185h-87v-74zM512 -82l-184 312h-104l-184 -312h91l145 252l145 -252h91z" />
    <glyph glyph-name="cid4818" unicode="&#xad64;" 
 />
    <glyph glyph-name="cid351" unicode="&#xad65;" 
d="M358 -92q31 0 57.5 14t45 37.5t29 54t10.5 64.5t-10.5 64.5t-29 54t-45 37.5t-57.5 14h-164q-32 0 -58 -14t-44.5 -37.5t-29 -54t-10.5 -64.5t10.5 -64.5t29 -54t44.5 -37.5t58 -14h164zM130 78q0 40 18 69t49 29h158q31 0 49 -29t18 -69t-18 -69t-49 -29h-158
q-31 0 -49 29t-18 69zM410 479h80v282h-431v-74h351v-208zM37 325h478v74h-159v174h-80v-174h-72v174h-80v-174h-87v-74z" />
    <glyph glyph-name="cid4819" unicode="&#xad66;" 
 />
    <glyph glyph-name="cid4820" unicode="&#xad67;" 
 />
    <glyph glyph-name="cid4821" unicode="&#xad68;" 
 />
    <glyph glyph-name="cid4822" unicode="&#xad69;" 
 />
    <glyph glyph-name="cid4823" unicode="&#xad6a;" 
 />
    <glyph glyph-name="cid4824" unicode="&#xad6b;" 
 />
    <glyph glyph-name="cid352" unicode="&#xad6c;" 
d="M37 238h199v-325h80v325h199v74h-478v-74zM408 382h80v379h-429v-74h349v-305z" />
    <glyph glyph-name="cid353" unicode="&#xad6d;" 
d="M410 -87h80v312h-174v123h199v74h-30v339h-426v-74h346v-265h-368v-74h199v-123h-180v-74h354v-238z" />
    <glyph glyph-name="cid4825" unicode="&#xad6e;" 
 />
    <glyph glyph-name="cid4826" unicode="&#xad6f;" 
 />
    <glyph glyph-name="cid354" unicode="&#xad70;" 
d="M37 334h204v-204h80v204h194v74h-30v353h-426v-74h346v-279h-368v-74zM142 220h-80v-302h434v74h-354v228z" />
    <glyph glyph-name="cid4827" unicode="&#xad71;" 
 />
    <glyph glyph-name="cid4828" unicode="&#xad72;" 
 />
    <glyph glyph-name="cid355" unicode="&#xad73;" 
d="M490 247h-174v115h199v74h-30v325h-426v-74h346v-251h-368v-74h199v-115h-174v-329h434v74h-354v181h348v74z" />
    <glyph glyph-name="cid356" unicode="&#xad74;" 
d="M62 225h350v-84h-350v-223h434v70h-356v85h350v222h-174v105h199v74h-30v287h-426v-74h346v-213h-368v-74h199v-105h-174v-70z" />
    <glyph glyph-name="cid357" unicode="&#xad75;" 
d="M59 227h133v-87h-133v-222h249v68h-173v88h133v201h29v-50h118v-312h78v382h-177v105h199v74h-30v287h-426v-74h346v-213h-368v-74h199v-105h-177v-68z" />
    <glyph glyph-name="cid358" unicode="&#xad76;" 
d="M495 -82v377h-179v105h199v74h-30v287h-426v-74h346v-213h-368v-74h199v-105h-179v-68h127v-87h-127v-222h211v68h-137v88h127v201h34v-357h203zM423 229v-245h-59v245h59z" />
    <glyph glyph-name="cid4829" unicode="&#xad77;" 
 />
    <glyph glyph-name="cid3104" unicode="&#xad78;" 
 />
    <glyph glyph-name="cid4830" unicode="&#xad79;" 
 />
    <glyph glyph-name="cid4831" unicode="&#xad7a;" 
 />
    <glyph glyph-name="cid359" unicode="&#xad7b;" 
d="M57 227h117v-87h-117v-222h206v68h-132v88h117v201h68v125h199v74h-30v287h-426v-74h346v-213h-368v-74h199v-105h-179v-68zM420 -92q41 0 65.5 32.5t24.5 79.5t-24.5 79.5t-65.5 32.5h-52q-41 0 -65.5 -32.5t-24.5 -79.5t24.5 -79.5t65.5 -32.5h52zM276 169h236v68h-80
v68h-76v-68h-80v-68zM350 20q0 19 7.5 32.5t19.5 13.5h34q12 0 19.5 -13.5t7.5 -32.5t-7.5 -32.5t-19.5 -13.5h-34q-12 0 -19.5 13.5t-7.5 32.5z" />
    <glyph glyph-name="cid360" unicode="&#xad7c;" 
d="M37 362h199v-115h-174v-329h428v329h-174v115h199v74h-30v325h-426v-74h346v-251h-368v-74zM412 175v-185h-272v185h272z" />
    <glyph glyph-name="cid361" unicode="&#xad7d;" 
d="M490 -82v353h-78v-107h-272v107h-78v-353h428zM37 372h199v-150h80v150h199v74h-30v315h-426v-74h346v-241h-368v-74zM412 94v-104h-272v104h272z" />
    <glyph glyph-name="cid4832" unicode="&#xad7e;" 
 />
    <glyph glyph-name="cid362" unicode="&#xad7f;" 
d="M37 362h199v-135h80v135h199v74h-30v325h-426v-74h346v-251h-368v-74zM512 -82l-184 273h-104l-184 -273h91l145 217l145 -217h91z" />
    <glyph glyph-name="cid4833" unicode="&#xad80;" 
 />
    <glyph glyph-name="cid363" unicode="&#xad81;" 
d="M37 362h199v-104h-42q-32 0 -58 -14t-44.5 -38t-29 -56t-10.5 -67t10.5 -67t29 -56t44.5 -38t58 -14h164q31 0 57.5 14t45 38t29 56t10.5 67t-10.5 67t-29 56t-45 38t-57.5 14h-42v104h199v74h-30v325h-426v-74h346v-251h-368v-74zM130 83q0 43 18 73t49 30h158
q31 0 49 -30t18 -73t-18 -73t-49 -30h-158q-31 0 -49 30t-18 73z" />
    <glyph glyph-name="cid364" unicode="&#xad82;" 
d="M60 179h130l-148 -261h91l143 260l143 -260h91l-148 261h130v68h-176v115h199v74h-30v325h-426v-74h346v-251h-368v-74h199v-115h-176v-68z" />
    <glyph glyph-name="cid365" unicode="&#xad83;" 
d="M37 396h199v-93h80v93h199v74h-30v291h-426v-74h346v-217h-368v-74zM60 131h128l-146 -213h92l142 212l142 -212h92l-147 213h129v68h-176v74h-80v-74h-176v-68z" />
    <glyph glyph-name="cid4834" unicode="&#xad84;" 
 />
    <glyph glyph-name="cid4835" unicode="&#xad85;" 
 />
    <glyph glyph-name="cid3105" unicode="&#xad86;" 
 />
    <glyph glyph-name="cid4836" unicode="&#xad87;" 
 />
    <glyph glyph-name="cid366" unicode="&#xad88;" 
d="M297 95h114v-182h80v856h-80v-602h-114v-72zM31 276h116v-358h80v358h149v74h-345v-74zM261 400h80v359h-294v-74h214v-285z" />
    <glyph glyph-name="cid367" unicode="&#xad89;" 
d="M31 394h116v-138h80v138h149v74h-35v291h-294v-74h214v-217h-230v-74zM411 -87h80v289h-433v-74h353v-215zM297 264h194v505h-80v-435h-114v-70z" />
    <glyph glyph-name="cid4837" unicode="&#xad8a;" 
 />
    <glyph glyph-name="cid4838" unicode="&#xad8b;" 
 />
    <glyph glyph-name="cid368" unicode="&#xad8c;" 
d="M31 376h126v-153h80v153h139v74h-35v309h-294v-74h214v-235h-230v-74zM300 234h111v-86h80v621h-80v-465h-111v-70zM148 208h-80v-290h433v74h-353v216z" />
    <glyph glyph-name="cid4839" unicode="&#xad8d;" 
 />
    <glyph glyph-name="cid4840" unicode="&#xad8e;" 
 />
    <glyph glyph-name="cid3106" unicode="&#xad8f;" 
 />
    <glyph glyph-name="cid369" unicode="&#xad90;" 
d="M68 200h345v-72h-345v-210h433v70h-355v72h345v210h-423v-70zM31 438h116v-136h80v136h149v74h-35v247h-294v-74h214v-173h-230v-74zM297 320h194v449h-80v-379h-114v-70z" />
    <glyph glyph-name="cid4841" unicode="&#xad91;" 
 />
    <glyph glyph-name="cid4842" unicode="&#xad92;" 
 />
    <glyph glyph-name="cid4843" unicode="&#xad93;" 
 />
    <glyph glyph-name="cid4844" unicode="&#xad94;" 
 />
    <glyph glyph-name="cid4845" unicode="&#xad95;" 
 />
    <glyph glyph-name="cid4846" unicode="&#xad96;" 
 />
    <glyph glyph-name="cid4847" unicode="&#xad97;" 
 />
    <glyph glyph-name="cid3107" unicode="&#xad98;" 
 />
    <glyph glyph-name="cid3108" unicode="&#xad99;" 
 />
    <glyph glyph-name="cid4848" unicode="&#xad9a;" 
 />
    <glyph glyph-name="cid3109" unicode="&#xad9b;" 
 />
    <glyph glyph-name="cid370" unicode="&#xad9c;" 
d="M345 -82l43 265l47 -265h76l-64 309h-116l-48 -266l-45 266h-116l-64 -309h76l47 265l43 -265h121zM31 408h116v-135h80v135h149v74h-35v277h-294v-74h214v-203h-230v-74zM297 281h194v488h-80v-418h-114v-70z" />
    <glyph glyph-name="cid371" unicode="&#xad9d;" 
d="M359 -92q31 0 57.5 13t45 35.5t29 52t10.5 61.5t-10.5 61.5t-29 52t-45 35.5t-57.5 13h-159q-32 0 -58 -13t-44.5 -35.5t-29 -52t-10.5 -61.5t10.5 -61.5t29 -52t44.5 -35.5t58 -13h159zM31 408h106v-135h80v135h159v74h-35v277h-294v-74h214v-203h-230v-74zM297 281h194
v488h-80v-418h-114v-70zM136 70q0 38 18 64t49 26h153q31 0 49 -26t18 -64t-18 -64t-49 -26h-153q-31 0 -49 26t-18 64z" />
    <glyph glyph-name="cid4849" unicode="&#xad9e;" 
 />
    <glyph glyph-name="cid4850" unicode="&#xad9f;" 
 />
    <glyph glyph-name="cid4851" unicode="&#xada0;" 
 />
    <glyph glyph-name="cid4852" unicode="&#xada1;" 
 />
    <glyph glyph-name="cid4853" unicode="&#xada2;" 
 />
    <glyph glyph-name="cid4854" unicode="&#xada3;" 
 />
    <glyph glyph-name="cid372" unicode="&#xada4;" 
d="M228 105h79v-186h75v848h-75v-417h-281v-74h84v-358h78v358h119v-99h-79v-72zM499 769h-77v-856h77v856zM183 390h78v368h-219v-74h141v-294z" />
    <glyph glyph-name="cid3110" unicode="&#xada5;" 
 />
    <glyph glyph-name="cid4855" unicode="&#xada6;" 
 />
    <glyph glyph-name="cid4856" unicode="&#xada7;" 
 />
    <glyph glyph-name="cid3111" unicode="&#xada8;" 
 />
    <glyph glyph-name="cid4857" unicode="&#xada9;" 
 />
    <glyph glyph-name="cid4858" unicode="&#xadaa;" 
 />
    <glyph glyph-name="cid3112" unicode="&#xadab;" 
 />
    <glyph glyph-name="cid3113" unicode="&#xadac;" 
 />
    <glyph glyph-name="cid4859" unicode="&#xadad;" 
 />
    <glyph glyph-name="cid4860" unicode="&#xadae;" 
 />
    <glyph glyph-name="cid4861" unicode="&#xadaf;" 
 />
    <glyph glyph-name="cid4862" unicode="&#xadb0;" 
 />
    <glyph glyph-name="cid4863" unicode="&#xadb1;" 
 />
    <glyph glyph-name="cid4864" unicode="&#xadb2;" 
 />
    <glyph glyph-name="cid4865" unicode="&#xadb3;" 
 />
    <glyph glyph-name="cid3114" unicode="&#xadb4;" 
 />
    <glyph glyph-name="cid3115" unicode="&#xadb5;" 
 />
    <glyph glyph-name="cid4866" unicode="&#xadb6;" 
 />
    <glyph glyph-name="cid373" unicode="&#xadb7;" 
d="M228 268h154v499h-75v-299h-46v290h-219v-74h141v-216h-157v-74h84v-186h78v186h119v-56h-79v-70zM524 -82l-183 300h-104l-183 -300h90l145 242l145 -242h90zM499 769h-77v-571h77v571z" />
    <glyph glyph-name="cid374" unicode="&#xadb8;" 
d="M228 281h154v486h-75v-285h-46v276h-219v-74h141v-202h-157v-74h84v-137h78v137h119v-59h-79v-68zM350 -82l46 264l49 -264h76l-66 309h-116l-51 -268l-48 268h-116l-66 -309h76l49 264l46 -264h121zM499 769h-77v-498h77v498z" />
    <glyph glyph-name="cid3116" unicode="&#xadb9;" 
 />
    <glyph glyph-name="cid4867" unicode="&#xadba;" 
 />
    <glyph glyph-name="cid4868" unicode="&#xadbb;" 
 />
    <glyph glyph-name="cid4869" unicode="&#xadbc;" 
 />
    <glyph glyph-name="cid4870" unicode="&#xadbd;" 
 />
    <glyph glyph-name="cid4871" unicode="&#xadbe;" 
 />
    <glyph glyph-name="cid4872" unicode="&#xadbf;" 
 />
    <glyph glyph-name="cid375" unicode="&#xadc0;" 
d="M491 769h-80v-856h80v856zM31 246h121v-328h80v328h144v74h-345v-74zM261 380h80v379h-294v-74h214v-305z" />
    <glyph glyph-name="cid376" unicode="&#xadc1;" 
d="M31 374h121v-123h80v123h144v74h-35v311h-294v-74h214v-237h-230v-74zM411 -87h80v303h-433v-74h353v-229zM491 769h-80v-518h80v518z" />
    <glyph glyph-name="cid4873" unicode="&#xadc2;" 
 />
    <glyph glyph-name="cid4874" unicode="&#xadc3;" 
 />
    <glyph glyph-name="cid377" unicode="&#xadc4;" 
d="M31 356h144v-168h80v168h121v74h-35v329h-294v-74h214v-255h-230v-74zM146 228h-80v-310h435v74h-355v236zM491 769h-80v-601h80v601z" />
    <glyph glyph-name="cid4875" unicode="&#xadc5;" 
 />
    <glyph glyph-name="cid4876" unicode="&#xadc6;" 
 />
    <glyph glyph-name="cid3117" unicode="&#xadc7;" 
 />
    <glyph glyph-name="cid378" unicode="&#xadc8;" 
d="M68 210h345v-77h-345v-215h433v70h-355v77h345v215h-423v-70zM31 422h121v-110h80v110h144v74h-35v263h-294v-74h214v-189h-230v-74zM491 769h-80v-453h80v453z" />
    <glyph glyph-name="cid4877" unicode="&#xadc9;" 
 />
    <glyph glyph-name="cid3118" unicode="&#xadca;" 
 />
    <glyph glyph-name="cid4878" unicode="&#xadcb;" 
 />
    <glyph glyph-name="cid4879" unicode="&#xadcc;" 
 />
    <glyph glyph-name="cid4880" unicode="&#xadcd;" 
 />
    <glyph glyph-name="cid4881" unicode="&#xadce;" 
 />
    <glyph glyph-name="cid4882" unicode="&#xadcf;" 
 />
    <glyph glyph-name="cid379" unicode="&#xadd0;" 
d="M491 -82v318h-423v-318h423zM31 388h121v-117h80v117h144v74h-35v297h-294v-74h214v-223h-230v-74zM413 164v-174h-267v174h267zM491 769h-80v-498h80v498z" />
    <glyph glyph-name="cid380" unicode="&#xadd1;" 
d="M491 -82v328h-78v-94h-267v94h-78v-328h423zM31 396h121v-119h80v119h144v74h-35v289h-294v-74h214v-215h-230v-74zM491 769h-80v-487h80v487zM413 82v-92h-267v92h267z" />
    <glyph glyph-name="cid4883" unicode="&#xadd2;" 
 />
    <glyph glyph-name="cid381" unicode="&#xadd3;" 
d="M31 374h101v-153h80v153h164v74h-35v311h-294v-74h214v-237h-230v-74zM516 -82l-179 308h-104l-179 -308h90l141 248l141 -248h90zM491 769h-80v-563h80v563z" />
    <glyph glyph-name="cid3119" unicode="&#xadd4;" 
 />
    <glyph glyph-name="cid382" unicode="&#xadd5;" 
d="M359 -92q31 0 57.5 13.5t45 37t29 54t10.5 64.5t-10.5 64.5t-29 53.5t-45 37t-57.5 14h-159q-32 0 -58 -14t-44.5 -37t-29 -53.5t-10.5 -64.5t10.5 -64.5t29 -54t44.5 -37t58 -13.5h159zM31 388h111v-117h80v117h154v74h-35v297h-294v-74h214v-223h-230v-74zM136 77
q0 41 18 69t49 28h153q31 0 49 -28t18 -69t-18 -69t-49 -28h-153q-31 0 -49 28t-18 69zM491 769h-80v-498h80v498z" />
    <glyph glyph-name="cid4884" unicode="&#xadd6;" 
 />
    <glyph glyph-name="cid4885" unicode="&#xadd7;" 
 />
    <glyph glyph-name="cid4886" unicode="&#xadd8;" 
 />
    <glyph glyph-name="cid4887" unicode="&#xadd9;" 
 />
    <glyph glyph-name="cid4888" unicode="&#xadda;" 
 />
    <glyph glyph-name="cid4889" unicode="&#xaddb;" 
 />
    <glyph glyph-name="cid383" unicode="&#xaddc;" 
d="M37 250h87v-335h80v335h144v-335h80v335h87v74h-478v-74zM408 392h80v369h-429v-74h349v-295z" />
    <glyph glyph-name="cid3120" unicode="&#xaddd;" 
 />
    <glyph glyph-name="cid4890" unicode="&#xadde;" 
 />
    <glyph glyph-name="cid4891" unicode="&#xaddf;" 
 />
    <glyph glyph-name="cid384" unicode="&#xade0;" 
d="M37 336h148v-198h78v198h75v-198h78v198h99v74h-30v351h-426v-74h346v-277h-368v-74zM142 216h-80v-298h434v74h-354v224z" />
    <glyph glyph-name="cid4892" unicode="&#xade1;" 
 />
    <glyph glyph-name="cid4893" unicode="&#xade2;" 
 />
    <glyph glyph-name="cid4894" unicode="&#xade3;" 
 />
    <glyph glyph-name="cid385" unicode="&#xade4;" 
d="M37 402h103v-107h-78v-70h350v-84h-350v-223h434v70h-356v85h350v222h-78v107h103v74h-30v285h-426v-74h346v-211h-368v-74zM218 402h116v-107h-116v107z" />
    <glyph glyph-name="cid4895" unicode="&#xade5;" 
 />
    <glyph glyph-name="cid4896" unicode="&#xade6;" 
 />
    <glyph glyph-name="cid4897" unicode="&#xade7;" 
 />
    <glyph glyph-name="cid3121" unicode="&#xade8;" 
 />
    <glyph glyph-name="cid4898" unicode="&#xade9;" 
 />
    <glyph glyph-name="cid4899" unicode="&#xadea;" 
 />
    <glyph glyph-name="cid4900" unicode="&#xadeb;" 
 />
    <glyph glyph-name="cid386" unicode="&#xadec;" 
d="M37 364h103v-117h-78v-329h428v329h-78v117h103v74h-30v323h-426v-74h346v-249h-368v-74zM412 175v-185h-272v185h272zM218 364h116v-117h-116v117z" />
    <glyph glyph-name="cid387" unicode="&#xaded;" 
d="M490 -82v353h-78v-107h-272v107h-78v-353h428zM37 374h123v-144h78v144h76v-144h78v144h123v74h-30v313h-426v-74h346v-239h-368v-74zM412 94v-104h-272v104h272z" />
    <glyph glyph-name="cid4901" unicode="&#xadee;" 
 />
    <glyph glyph-name="cid3122" unicode="&#xadef;" 
 />
    <glyph glyph-name="cid4902" unicode="&#xadf0;" 
 />
    <glyph glyph-name="cid3123" unicode="&#xadf1;" 
 />
    <glyph glyph-name="cid4903" unicode="&#xadf2;" 
 />
    <glyph glyph-name="cid4904" unicode="&#xadf3;" 
 />
    <glyph glyph-name="cid4905" unicode="&#xadf4;" 
 />
    <glyph glyph-name="cid4906" unicode="&#xadf5;" 
 />
    <glyph glyph-name="cid4907" unicode="&#xadf6;" 
 />
    <glyph glyph-name="cid4908" unicode="&#xadf7;" 
 />
    <glyph glyph-name="cid388" unicode="&#xadf8;" 
d="M37 -67h478v74h-478v-74zM408 107h80v652h-429v-75h349v-577z" />
    <glyph glyph-name="cid389" unicode="&#xadf9;" 
d="M37 340h478v74h-30v347h-426v-74h346v-273h-368v-74zM410 -87h80v312h-434v-74h354v-238z" />
    <glyph glyph-name="cid4909" unicode="&#xadfa;" 
 />
    <glyph glyph-name="cid4910" unicode="&#xadfb;" 
 />
    <glyph glyph-name="cid390" unicode="&#xadfc;" 
d="M37 324h478v74h-30v363h-426v-74h346v-289h-368v-74zM142 220h-80v-302h434v74h-354v228z" />
    <glyph glyph-name="cid4911" unicode="&#xadfd;" 
 />
    <glyph glyph-name="cid3124" unicode="&#xadfe;" 
 />
    <glyph glyph-name="cid391" unicode="&#xadff;" 
d="M37 354h478v74h-30v333h-426v-74h346v-259h-368v-74zM490 247h-428v-329h434v74h-354v181h348v74z" />
    <glyph glyph-name="cid392" unicode="&#xae00;" 
d="M62 225h350v-84h-350v-223h434v70h-356v85h350v222h-428v-70zM37 392h478v74h-30v295h-426v-74h346v-221h-368v-74z" />
    <glyph glyph-name="cid393" unicode="&#xae01;" 
d="M37 392h478v74h-30v295h-426v-74h346v-221h-368v-74zM59 227h133v-87h-133v-222h249v68h-173v88h133v221h-209v-68zM493 -87v382h-196v-70h118v-312h78z" />
    <glyph glyph-name="cid394" unicode="&#xae02;" 
d="M37 392h478v74h-30v295h-426v-74h346v-221h-368v-74zM495 -82v377h-203v-377h203zM57 227h127v-87h-127v-222h211v68h-137v88h127v221h-201v-68zM423 229v-245h-59v245h59z" />
    <glyph glyph-name="cid3125" unicode="&#xae03;" 
 />
    <glyph glyph-name="cid3126" unicode="&#xae04;" 
 />
    <glyph glyph-name="cid4912" unicode="&#xae05;" 
 />
    <glyph glyph-name="cid4913" unicode="&#xae06;" 
 />
    <glyph glyph-name="cid395" unicode="&#xae07;" 
d="M37 388h478v74h-30v299h-426v-74h346v-225h-368v-74zM57 227h117v-87h-117v-222h206v68h-132v88h117v221h-191v-68zM420 -92q41 0 65.5 32.5t24.5 79.5t-24.5 79.5t-65.5 32.5h-52q-41 0 -65.5 -32.5t-24.5 -79.5t24.5 -79.5t65.5 -32.5h52zM276 169h236v68h-80v68h-76
v-68h-80v-68zM350 20q0 19 7.5 32.5t19.5 13.5h34q12 0 19.5 -13.5t7.5 -32.5t-7.5 -32.5t-19.5 -13.5h-34q-12 0 -19.5 13.5t-7.5 32.5z" />
    <glyph glyph-name="cid396" unicode="&#xae08;" 
d="M490 -82v329h-428v-329h428zM37 354h478v74h-30v333h-426v-74h346v-259h-368v-74zM412 175v-185h-272v185h272z" />
    <glyph glyph-name="cid397" unicode="&#xae09;" 
d="M490 -82v353h-78v-107h-272v107h-78v-353h428zM37 362h478v74h-30v325h-426v-74h346v-251h-368v-74zM412 94v-104h-272v104h272z" />
    <glyph glyph-name="cid4914" unicode="&#xae0a;" 
 />
    <glyph glyph-name="cid398" unicode="&#xae0b;" 
d="M37 337h478v74h-30v350h-426v-74h346v-276h-368v-74zM512 -82l-184 322h-104l-184 -322h91l145 261l145 -261h91z" />
    <glyph glyph-name="cid4915" unicode="&#xae0c;" 
 />
    <glyph glyph-name="cid399" unicode="&#xae0d;" 
d="M358 -92q31 0 57.5 14t45 38t29 56t10.5 67t-10.5 67t-29 56t-45 38t-57.5 14h-164q-32 0 -58 -14t-44.5 -38t-29 -56t-10.5 -67t10.5 -67t29 -56t44.5 -38t58 -14h164zM37 354h478v74h-30v333h-426v-74h346v-259h-368v-74zM130 83q0 43 18 73t49 30h158q31 0 49 -30
t18 -73t-18 -73t-49 -30h-158q-31 0 -49 30t-18 73z" />
    <glyph glyph-name="cid3127" unicode="&#xae0e;" 
 />
    <glyph glyph-name="cid400" unicode="&#xae0f;" 
d="M37 362h478v74h-30v325h-426v-74h346v-251h-368v-74zM60 133h128l-146 -215h92l142 214l142 -214h92l-147 215h129v68h-176v89h-80v-89h-176v-68z" />
    <glyph glyph-name="cid4916" unicode="&#xae10;" 
 />
    <glyph glyph-name="cid401" unicode="&#xae11;" 
d="M490 295h-428v-377h434v70h-356v85h340v68h-340v84h350v70zM37 392h478v74h-30v295h-426v-74h346v-221h-368v-74z" />
    <glyph glyph-name="cid3128" unicode="&#xae12;" 
 />
    <glyph glyph-name="cid402" unicode="&#xae13;" 
d="M386 -92q42 0 72 31t30 85t-30 85t-72 31h-220q-42 0 -72 -31t-30 -85t30 -85t72 -31h220zM37 392h478v74h-30v295h-426v-74h346v-221h-368v-74zM50 187h452v72h-186v66h-80v-66h-186v-72zM173 -22q-14 0 -23.5 12.5t-9.5 33.5t9.5 33.5t23.5 12.5h206q14 0 23.5 -12.5
t9.5 -33.5t-9.5 -33.5t-23.5 -12.5h-206z" />
    <glyph glyph-name="cid403" unicode="&#xae14;" 
d="M491 769h-80v-856h80v856zM31 -57h345v74h-345v-74zM341 173v584h-294v-74h214v-510h80z" />
    <glyph glyph-name="cid3129" unicode="&#xae15;" 
 />
    <glyph glyph-name="cid4917" unicode="&#xae16;" 
 />
    <glyph glyph-name="cid4918" unicode="&#xae17;" 
 />
    <glyph glyph-name="cid404" unicode="&#xae18;" 
d="M31 339h345v74h-35v346h-294v-74h214v-272h-230v-74zM148 225h-80v-307h433v74h-353v233zM491 769h-80v-604h80v604z" />
    <glyph glyph-name="cid4919" unicode="&#xae19;" 
 />
    <glyph glyph-name="cid4920" unicode="&#xae1a;" 
 />
    <glyph glyph-name="cid4921" unicode="&#xae1b;" 
 />
    <glyph glyph-name="cid3130" unicode="&#xae1c;" 
 />
    <glyph glyph-name="cid4922" unicode="&#xae1d;" 
 />
    <glyph glyph-name="cid4923" unicode="&#xae1e;" 
 />
    <glyph glyph-name="cid4924" unicode="&#xae1f;" 
 />
    <glyph glyph-name="cid3131" unicode="&#xae20;" 
 />
    <glyph glyph-name="cid4925" unicode="&#xae21;" 
 />
    <glyph glyph-name="cid4926" unicode="&#xae22;" 
 />
    <glyph glyph-name="cid4927" unicode="&#xae23;" 
 />
    <glyph glyph-name="cid3132" unicode="&#xae24;" 
 />
    <glyph glyph-name="cid3133" unicode="&#xae25;" 
 />
    <glyph glyph-name="cid4928" unicode="&#xae26;" 
 />
    <glyph glyph-name="cid3134" unicode="&#xae27;" 
 />
    <glyph glyph-name="cid4929" unicode="&#xae28;" 
 />
    <glyph glyph-name="cid405" unicode="&#xae29;" 
d="M359 -92q31 0 57.5 14t45 38t29 55.5t10.5 66.5t-10.5 66.5t-29 55.5t-45 38t-57.5 14h-159q-32 0 -58 -14t-44.5 -38t-29 -55.5t-10.5 -66.5t10.5 -66.5t29 -55.5t44.5 -38t58 -14h159zM31 359h345v74h-35v326h-294v-74h214v-252h-230v-74zM136 82q0 43 18 72.5t49 29.5
h153q31 0 49 -29.5t18 -72.5t-18 -72.5t-49 -29.5h-153q-31 0 -49 29.5t-18 72.5zM491 769h-80v-488h80v488z" />
    <glyph glyph-name="cid4930" unicode="&#xae2a;" 
 />
    <glyph glyph-name="cid4931" unicode="&#xae2b;" 
 />
    <glyph glyph-name="cid4932" unicode="&#xae2c;" 
 />
    <glyph glyph-name="cid4933" unicode="&#xae2d;" 
 />
    <glyph glyph-name="cid4934" unicode="&#xae2e;" 
 />
    <glyph glyph-name="cid4935" unicode="&#xae2f;" 
 />
    <glyph glyph-name="cid406" unicode="&#xae30;" 
d="M491 769h-80v-856h80v856zM48 681h212l-222 -750h82l220 750v74h-292v-74z" />
    <glyph glyph-name="cid407" unicode="&#xae31;" 
d="M491 769h-80v-501h80v501zM411 -87h80v315h-433v-74h353v-241zM48 686h204l-214 -378h90l212 378v73h-292v-73z" />
    <glyph glyph-name="cid4936" unicode="&#xae32;" 
 />
    <glyph glyph-name="cid4937" unicode="&#xae33;" 
 />
    <glyph glyph-name="cid408" unicode="&#xae34;" 
d="M491 769h-80v-591h80v591zM148 238h-80v-320h433v74h-353v246zM48 686h204l-214 -388h90l212 388v73h-292v-73z" />
    <glyph glyph-name="cid4938" unicode="&#xae35;" 
 />
    <glyph glyph-name="cid4939" unicode="&#xae36;" 
 />
    <glyph glyph-name="cid409" unicode="&#xae37;" 
d="M491 769h-80v-481h80v481zM493 248h-425v-330h433v74h-353v182h345v74zM48 686h204l-214 -368h90l212 368v73h-292v-73z" />
    <glyph glyph-name="cid410" unicode="&#xae38;" 
d="M491 769h-80v-451h80v451zM68 212h345v-78h-345v-216h433v70h-355v78h345v216h-423v-70zM48 686h204l-214 -344h90l212 344v73h-292v-73z" />
    <glyph glyph-name="cid3135" unicode="&#xae39;" 
 />
    <glyph glyph-name="cid411" unicode="&#xae3a;" 
d="M491 769h-80v-451h80v451zM58 214h125v-81h-125v-215h207v68h-133v81h125v215h-199v-68zM491 -82v364h-204v-364h204zM419 216v-232h-60v232h60zM48 686h204l-214 -344h90l212 344v73h-292v-73z" />
    <glyph glyph-name="cid4940" unicode="&#xae3b;" 
 />
    <glyph glyph-name="cid3136" unicode="&#xae3c;" 
 />
    <glyph glyph-name="cid4941" unicode="&#xae3d;" 
 />
    <glyph glyph-name="cid4942" unicode="&#xae3e;" 
 />
    <glyph glyph-name="cid4943" unicode="&#xae3f;" 
 />
    <glyph glyph-name="cid412" unicode="&#xae40;" 
d="M491 769h-80v-481h80v481zM491 -82v330h-423v-330h423zM413 176v-186h-267v186h267zM48 686h204l-214 -368h90l212 368v73h-292v-73z" />
    <glyph glyph-name="cid413" unicode="&#xae41;" 
d="M491 769h-80v-465h80v465zM491 -82v350h-78v-105h-267v105h-78v-350h423zM413 93v-103h-267v103h267zM48 686h204l-214 -358h90l212 358v73h-292v-73z" />
    <glyph glyph-name="cid4944" unicode="&#xae42;" 
 />
    <glyph glyph-name="cid414" unicode="&#xae43;" 
d="M491 769h-80v-531h80v531zM48 686h204l-214 -378h90l212 378v73h-292v-73zM516 -82l-176 330h-110l-176 -330h87l144 274l144 -274h87z" />
    <glyph glyph-name="cid415" unicode="&#xae44;" 
d="M345 -82l43 293l48 -293h75l-63 335h-118l-46 -293l-45 293h-118l-63 -335h75l48 293l43 -293h121zM48 686h204l-214 -368h90l212 368v73h-292v-73zM491 769h-80v-481h80v481z" />
    <glyph glyph-name="cid416" unicode="&#xae45;" 
d="M491 769h-80v-481h80v481zM359 -92q31 0 57.5 14.5t45 38.5t29 55.5t10.5 66.5t-10.5 66.5t-29 55.5t-45 38.5t-57.5 14.5h-159q-32 0 -58 -14.5t-44.5 -38.5t-29 -55.5t-10.5 -66.5t10.5 -66.5t29 -55.5t44.5 -38.5t58 -14.5h159zM136 83q0 21 4.5 39.5t13.5 32.5
t21.5 22.5t27.5 8.5h153q15 0 27.5 -8.5t21.5 -22.5t13.5 -32.5t4.5 -39.5t-4.5 -39.5t-13.5 -32.5t-21.5 -22.5t-27.5 -8.5h-153q-15 0 -27.5 8.5t-21.5 22.5t-13.5 32.5t-4.5 39.5zM48 686h204l-214 -368h90l212 368v73h-292v-73z" />
    <glyph glyph-name="cid417" unicode="&#xae46;" 
d="M508 -82l-143 262h128v68h-423v-68h128l-142 -262h87l139 260l139 -260h87zM48 686h204l-214 -368h90l212 368v73h-292v-73zM491 769h-80v-481h80v481z" />
    <glyph glyph-name="cid3137" unicode="&#xae47;" 
 />
    <glyph glyph-name="cid4945" unicode="&#xae48;" 
 />
    <glyph glyph-name="cid3138" unicode="&#xae49;" 
 />
    <glyph glyph-name="cid418" unicode="&#xae4a;" 
d="M491 769h-80v-481h80v481zM48 686h204l-214 -368h90l212 368v73h-292v-73zM496 -82v72h-80v186h78v72h-429v-72h78v-186h-80v-72h433zM338 -10h-117v186h117v-186z" />
    <glyph glyph-name="cid3139" unicode="&#xae4b;" 
 />
    <glyph glyph-name="cid419" unicode="&#xae4c;" 
d="M476 769h-78v-856h78v428h71v74h-71v354zM41 681h74l-84 -750h77l82 750v74h-149v-74zM215 681h65l-82 -750h77l80 750v74h-140v-74z" />
    <glyph glyph-name="cid420" unicode="&#xae4d;" 
d="M396 -87h80v315h-421v-74h341v-241zM476 769h-78v-501h78v226h71v74h-71v201zM41 686h74l-84 -368h77l82 368v73h-149v-73zM215 686h65l-82 -368h77l80 368v73h-140v-73z" />
    <glyph glyph-name="cid421" unicode="&#xae4e;" 
d="M476 769h-78v-493h78v222h71v74h-71v197zM41 686h74l-84 -362h77l82 362v73h-149v-73zM215 686h65l-82 -362h77l80 362v73h-140v-73zM257 -87v323h-202v-72h124v-251h78zM476 -87v323h-189v-72h111v-251h78z" />
    <glyph glyph-name="cid4946" unicode="&#xae4f;" 
 />
    <glyph glyph-name="cid422" unicode="&#xae50;" 
d="M476 769h-78v-591h78v296h71v74h-71v221zM145 238h-80v-320h425v74h-345v246zM41 686h74l-84 -378h77l82 378v73h-149v-73zM215 686h65l-82 -378h77l80 378v73h-140v-73z" />
    <glyph glyph-name="cid4947" unicode="&#xae51;" 
 />
    <glyph glyph-name="cid4948" unicode="&#xae52;" 
 />
    <glyph glyph-name="cid3140" unicode="&#xae53;" 
 />
    <glyph glyph-name="cid423" unicode="&#xae54;" 
d="M65 212h333v-78h-333v-216h425v70h-347v78h333v216h-411v-70zM476 769h-78v-451h78v201h71v74h-71v176zM41 686h74l-84 -334h77l82 334v73h-149v-73zM215 686h65l-82 -334h77l80 334v73h-140v-73z" />
    <glyph glyph-name="cid4949" unicode="&#xae55;" 
 />
    <glyph glyph-name="cid424" unicode="&#xae56;" 
d="M476 -82v364h-199v-364h199zM55 214h118v-81h-118v-215h202v68h-128v81h118v215h-192v-68zM476 769h-78v-451h78v201h71v74h-71v176zM41 686h74l-84 -334h77l82 334v73h-149v-73zM215 686h65l-82 -334h77l80 334v73h-140v-73zM404 216v-232h-55v232h55z" />
    <glyph glyph-name="cid4950" unicode="&#xae57;" 
 />
    <glyph glyph-name="cid4951" unicode="&#xae58;" 
 />
    <glyph glyph-name="cid4952" unicode="&#xae59;" 
 />
    <glyph glyph-name="cid4953" unicode="&#xae5a;" 
 />
    <glyph glyph-name="cid4954" unicode="&#xae5b;" 
 />
    <glyph glyph-name="cid425" unicode="&#xae5c;" 
d="M476 -82v330h-411v-330h411zM398 176v-186h-255v186h255zM476 769h-78v-481h78v216h71v74h-71v191zM41 686h74l-84 -358h77l82 358v73h-149v-73zM215 686h65l-82 -358h77l80 358v73h-140v-73z" />
    <glyph glyph-name="cid426" unicode="&#xae5d;" 
d="M476 -82v350h-78v-105h-255v105h-78v-350h411zM476 769h-78v-465h78v205h71v74h-71v186zM41 686h74l-84 -348h77l82 348v73h-149v-73zM215 686h65l-82 -348h77l80 348v73h-140v-73zM398 93v-103h-255v103h255z" />
    <glyph glyph-name="cid4955" unicode="&#xae5e;" 
 />
    <glyph glyph-name="cid427" unicode="&#xae5f;" 
d="M505 -82l-172 330h-110l-172 -330h87l140 274l140 -274h87zM476 769h-78v-531h78v256h71v74h-71v201zM41 686h74l-84 -368h77l82 368v73h-149v-73zM215 686h65l-82 -368h77l80 368v73h-140v-73z" />
    <glyph glyph-name="cid428" unicode="&#xae60;" 
d="M339 -82l42 293l46 -293h75l-61 335h-118l-45 -292l-44 292h-118l-61 -335h75l46 293l42 -293h121zM476 769h-78v-481h78v216h71v74h-71v191zM41 686h74l-84 -358h77l82 358v73h-149v-73zM215 686h65l-82 -358h77l80 358v73h-140v-73z" />
    <glyph glyph-name="cid429" unicode="&#xae61;" 
d="M348 -92q31 0 57.5 14.5t45 38.5t29 55.5t10.5 66.5t-10.5 66.5t-29 55.5t-45 38.5t-57.5 14.5h-151q-32 0 -58 -14.5t-44.5 -38.5t-29 -55.5t-10.5 -66.5t10.5 -66.5t29 -55.5t44.5 -38.5t58 -14.5h151zM133 83q0 21 4.5 39.5t13.5 32.5t21.5 22.5t27.5 8.5h145
q15 0 27.5 -8.5t21.5 -22.5t13.5 -32.5t4.5 -39.5t-4.5 -39.5t-13.5 -32.5t-21.5 -22.5t-27.5 -8.5h-145q-15 0 -27.5 8.5t-21.5 22.5t-13.5 32.5t-4.5 39.5zM476 769h-78v-481h78v216h71v74h-71v191zM41 686h74l-84 -358h77l82 358v73h-149v-73zM215 686h65l-82 -358h77
l80 358v73h-140v-73z" />
    <glyph glyph-name="cid3141" unicode="&#xae62;" 
 />
    <glyph glyph-name="cid3142" unicode="&#xae63;" 
 />
    <glyph glyph-name="cid4956" unicode="&#xae64;" 
 />
    <glyph glyph-name="cid430" unicode="&#xae65;" 
d="M480 272h-415v-354h425v70h-347v73h327v68h-327v73h337v70zM476 769h-78v-461h78v206h71v74h-71v181zM41 686h74l-84 -344h77l82 344v73h-149v-73zM215 686h65l-82 -344h77l80 344v73h-140v-73z" />
    <glyph glyph-name="cid4957" unicode="&#xae66;" 
 />
    <glyph glyph-name="cid4958" unicode="&#xae67;" 
 />
    <glyph glyph-name="cid431" unicode="&#xae68;" 
d="M388 767h-73v-848h73v422h38v-428h75v856h-75v-354h-38v352zM41 680h47l-57 -748h71l56 748v74h-117v-74zM178 680h38l-56 -748h71l55 748v74h-108v-74z" />
    <glyph glyph-name="cid432" unicode="&#xae69;" 
d="M388 767h-73v-504h73v229h38v-234h75v511h-75v-203h-38v201zM421 -87h80v305h-441v-74h361v-231zM41 685h47l-57 -377h71l56 377v73h-117v-73zM178 685h38l-56 -377h71l55 377v73h-108v-73z" />
    <glyph glyph-name="cid3143" unicode="&#xae6a;" 
 />
    <glyph glyph-name="cid4959" unicode="&#xae6b;" 
 />
    <glyph glyph-name="cid433" unicode="&#xae6c;" 
d="M388 767h-73v-584h73v299h38v-314h75v601h-75v-213h-38v211zM150 228h-80v-310h441v74h-361v236zM41 685h47l-57 -387h71l56 387v73h-117v-73zM178 685h38l-56 -387h71l55 387v73h-108v-73z" />
    <glyph glyph-name="cid4960" unicode="&#xae6d;" 
 />
    <glyph glyph-name="cid4961" unicode="&#xae6e;" 
 />
    <glyph glyph-name="cid434" unicode="&#xae6f;" 
d="M503 238h-433v-320h441v74h-361v172h353v74zM388 767h-73v-484h73v219h38v-224h75v491h-75v-193h-38v191zM41 685h47l-57 -367h71l56 367v73h-117v-73zM178 685h38l-56 -367h71l55 367v73h-108v-73z" />
    <glyph glyph-name="cid435" unicode="&#xae70;" 
d="M70 202h353v-73h-353v-211h441v70h-363v73h353v211h-431v-70zM388 767h-73v-454h73v201h38v-206h75v461h-75v-181h-38v179zM41 685h47l-57 -343h71l56 343v73h-117v-73zM178 685h38l-56 -343h71l55 343v73h-108v-73z" />
    <glyph glyph-name="cid4962" unicode="&#xae71;" 
 />
    <glyph glyph-name="cid4963" unicode="&#xae72;" 
 />
    <glyph glyph-name="cid3144" unicode="&#xae73;" 
 />
    <glyph glyph-name="cid4964" unicode="&#xae74;" 
 />
    <glyph glyph-name="cid4965" unicode="&#xae75;" 
 />
    </font>
</defs>
</svg>
