<?xml version="1.0" standalone="no"?>
<!DOCTYPE svg PUBLIC "-//W3C//DTD SVG 1.1//EN" "http://www.w3.org/Graphics/SVG/1.1/DTD/svg11.dtd" >
<svg xmlns="http://www.w3.org/2000/svg" xmlns:xlink="http://www.w3.org/1999/xlink" version="1.1">
<metadata>
Created by FontForge 20170731 at Fri Dec 27 09:57:05 2019
 By Aleksey,,,
(c) 2019 SAMSUNG C&#38;T Fashion Group. All rights reserved.
</metadata>
<defs>
<font id="beanpoleB" horiz-adv-x="486" >
  <font-face 
    font-family="BEANPOLE 2020 Bold"
    font-weight="700"
    font-stretch="normal"
    units-per-em="1000"
    panose-1="2 11 6 0 0 1 1 1 1 1"
    ascent="800"
    descent="-200"
    x-height="527"
    cap-height="745"
    bbox="-152 -250 2465 835"
    underline-thickness="50"
    underline-position="-275"
    unicode-range="U+0020-D7A3"
  />
<missing-glyph horiz-adv-x="620" 
d="M558 -72v823h-496v-823h496zM359 344l107 230v-461zM261 344l-107 -231v461zM310 238l103 -223h-207zM210 664h199l-99 -215z" />
    <glyph glyph-name=".notdef" horiz-adv-x="620" 
d="M558 -72v823h-496v-823h496zM359 344l107 230v-461zM261 344l-107 -231v461zM310 238l103 -223h-207zM210 664h199l-99 -215z" />
    <glyph glyph-name=".null" horiz-adv-x="0" 
 />
    <glyph glyph-name="nonmarkingreturn" horiz-adv-x="333" 
 />
    <glyph glyph-name="cid1" unicode=" " horiz-adv-x="190" 
 />
    <glyph glyph-name="cid1" unicode="&#xa0;" horiz-adv-x="190" 
 />
    <glyph glyph-name="cid2" unicode="!" horiz-adv-x="248" 
d="M79 166h90l14 589h-118zM186 66h-124v-133h124v133z" />
    <glyph glyph-name="cid3" unicode="&#x22;" horiz-adv-x="398" 
d="M84 529h76l24 246h-122zM238 529h76l22 246h-122z" />
    <glyph glyph-name="cid4" unicode="#" horiz-adv-x="643" 
d="M283 -42h106l50 223h113v104h-90l29 132h109l1 104h-87l50 224h-106l-50 -224h-88l50 224h-106l-50 -224h-123v-104h100l-29 -132h-119l-1 -104h97l-50 -223h106l50 223h88zM297 417h88l-29 -132h-88z" />
    <glyph glyph-name="cid5" unicode="$" horiz-adv-x="503" 
d="M164 467v174h175v-127h107v231h-147v90h-96v-90h-146v-344l282 -141v-198h-175v126h-107v-230h146v-90h96v90h147v368z" />
    <glyph glyph-name="cid6" unicode="%" horiz-adv-x="775" 
d="M219 -42l455 787h-118l-455 -787h118zM713 -42v310h-269v-310h269zM62 435h269v310h-269v-310zM159 651h75v-122h-75v122zM616 174v-122h-75v122h75z" />
    <glyph glyph-name="cid7" unicode="&#x26;" horiz-adv-x="623" 
d="M601 396h-100v100h-107v-100h-41v349h-291v-787h439v334h100v104zM169 292h225v-230h-225v230zM169 641h77v-245h-77v245z" />
    <glyph glyph-name="cid8" unicode="'" horiz-adv-x="246" 
d="M84 529h76l24 246h-122z" />
    <glyph glyph-name="cid9" unicode="(" horiz-adv-x="335" 
d="M163 339q0 -83 9 -141.5t24.5 -98t36.5 -62t45 -33.5v-100q-59 4 -100.5 38.5t-68.5 92.5t-39.5 135.5t-12.5 168.5t12.5 168.5t39.5 135.5t68.5 92.5t100.5 39.5v-100q-24 -11 -45 -34t-36.5 -62t-24.5 -98t-9 -142z" />
    <glyph glyph-name="cid10" unicode=")" horiz-adv-x="325" 
d="M162 339q0 83 -9 142t-24.5 98t-36.5 62t-45 34v100q58 -5 100 -39.5t69 -92.5t39.5 -135.5t12.5 -168.5t-12.5 -168.5t-39.5 -135.5t-69 -92.5t-100 -38.5v100q24 11 45 33.5t36.5 62t24.5 98t9 141.5z" />
    <glyph glyph-name="cid11" unicode="*" horiz-adv-x="582" 
d="M248 601l-161 65l-35 -101l168 -46l-108 -137l86 -64l93 152l93 -152l86 64l-108 137l168 46l-35 101l-161 -65l10 174h-107z" />
    <glyph glyph-name="cid12" unicode="+" horiz-adv-x="501" 
d="M302 548h-104v-137h-136v-104h136v-136h104v136h137v104h-137v137z" />
    <glyph glyph-name="cid13" unicode="," horiz-adv-x="249" 
d="M45 -182h91l56 248h-125z" />
    <glyph glyph-name="cid14" unicode="-" horiz-adv-x="391" 
d="M329 307v104h-267v-104h267z" />
    <glyph glyph-name="cid14" unicode="&#x2011;" horiz-adv-x="391" 
d="M329 307v104h-267v-104h267z" />
    <glyph glyph-name="cid14" unicode="&#x2010;" horiz-adv-x="391" 
d="M329 307v104h-267v-104h267z" />
    <glyph glyph-name="cid14" unicode="&#xad;" horiz-adv-x="391" 
d="M329 307v104h-267v-104h267z" />
    <glyph glyph-name="cid15" unicode="." horiz-adv-x="249" 
d="M187 -67v133h-125v-133h125z" />
    <glyph glyph-name="cid16" unicode="/" horiz-adv-x="405" 
d="M138 -42l235 787h-106l-235 -787h106z" />
    <glyph glyph-name="cid17" unicode="0" horiz-adv-x="533" 
d="M471 745h-409v-787h409v787zM169 62v130l195 199v-329h-195zM169 641h195v-97l-195 -199v296z" />
    <glyph glyph-name="cid18" unicode="1" horiz-adv-x="473" 
d="M42 62v-104h399v104h-149v683h-250v-104h143v-579h-143z" />
    <glyph glyph-name="cid19" unicode="2" horiz-adv-x="498" 
d="M339 469l-282 -146v-365h389v104h-282v195l282 147v341h-389v-231h107v127h175v-172z" />
    <glyph glyph-name="cid20" unicode="3" horiz-adv-x="518" 
d="M150 307h209v-245h-195v127h-107v-231h409v453h-93v334h-316v-231h107v127h102v-230h-116v-104z" />
    <glyph glyph-name="cid21" unicode="4" horiz-adv-x="518" 
d="M42 178h262v-220h107v220h80v104h-80v463h-150l-219 -331v-236zM304 619v-337h-155v102z" />
    <glyph glyph-name="cid22" unicode="5" horiz-adv-x="518" 
d="M57 189v-231h409v453h-302v230h204v104h-311v-438h302v-245h-195v127h-107z" />
    <glyph glyph-name="cid23" unicode="6" horiz-adv-x="523" 
d="M62 745v-787h409v453h-302v230h204v104h-311zM364 307v-245h-195v245h195z" />
    <glyph glyph-name="cid24" unicode="7" horiz-adv-x="503" 
d="M344 461l-214 -112v-391h107v326l214 112v349h-409v-231h107v127h195v-180z" />
    <glyph glyph-name="cid25" unicode="8" horiz-adv-x="548" 
d="M486 745h-321v-349h-108v-438h429v787zM379 292v-230h-215v230h215zM379 396h-107v245h107v-245z" />
    <glyph glyph-name="cid26" unicode="9" horiz-adv-x="523" 
d="M461 745h-409v-453h302v-230h-204v-104h311v787zM159 641h195v-245h-195v245z" />
    <glyph glyph-name="cid27" unicode=":" horiz-adv-x="269" 
d="M197 -42v133h-125v-133h125zM197 394v133h-125v-133h125z" />
    <glyph glyph-name="cid28" unicode=";" horiz-adv-x="269" 
d="M55 -157h91l56 248h-125zM197 394v133h-125v-133h125z" />
    <glyph glyph-name="cid29" unicode="&#x3c;" horiz-adv-x="354" 
d="M282 494v153l-220 -253v-106l220 -253v153l-134 153z" />
    <glyph glyph-name="cid30" unicode="=" horiz-adv-x="501" 
d="M62 508v-104h377v104h-377zM62 314v-104h377v104h-377z" />
    <glyph glyph-name="cid31" unicode="&#x3e;" horiz-adv-x="354" 
d="M72 494l134 -153l-134 -153v-153l220 253v106l-220 253v-153z" />
    <glyph glyph-name="cid32" unicode="?" horiz-adv-x="503" 
d="M300 166l8 167l133 72v350h-389v-231h107v127h175v-183l-133 -71l9 -231h90zM317 66h-124v-133h124v133z" />
    <glyph glyph-name="cid33" unicode="@" horiz-adv-x="789" 
d="M184 -100v746h421v-520h-61v371h-204v-98h103v-77h-198v-294h462v717h-625v-944h625v99h-523zM346 224h97v-98h-97v98z" />
    <glyph glyph-name="cid34" unicode="A" horiz-adv-x="508" 
d="M62 745v-787h107v337h170v-337h107v787h-384zM169 641h170v-242h-170v242z" />
    <glyph glyph-name="cid35" unicode="B" horiz-adv-x="518" 
d="M62 745v-787h409v441h-98v346h-311zM364 62h-195v233h195v-233zM266 399h-97v242h97v-242z" />
    <glyph glyph-name="cid36" unicode="C" horiz-adv-x="435" 
d="M393 62h-224v579h224v104h-331v-787h331v104z" />
    <glyph glyph-name="cid37" unicode="D" horiz-adv-x="528" 
d="M471 557l-188 188h-221v-787h409v599zM169 641h71l124 -124v-455h-195v579z" />
    <glyph glyph-name="cid38" unicode="E" horiz-adv-x="440" 
d="M62 -42h331v104h-224v253h214v104h-214v222h224v104h-331v-787z" />
    <glyph glyph-name="cid39" unicode="F" horiz-adv-x="425" 
d="M62 -42h107v357h214v104h-214v222h224v104h-331v-787z" />
    <glyph glyph-name="cid40" unicode="G" horiz-adv-x="518" 
d="M471 419h-228v-104h121v-253h-195v579h204v104h-311v-787h409v461z" />
    <glyph glyph-name="cid41" unicode="H" horiz-adv-x="533" 
d="M62 745v-787h107v357h195v-357h107v787h-107v-326h-195v326h-107z" />
    <glyph glyph-name="cid42" unicode="I" horiz-adv-x="231" 
d="M62 -42h107v787h-107v-787z" />
    <glyph glyph-name="cid43" unicode="J" horiz-adv-x="452" 
d="M390 -42v787h-328v-104h221v-579h-134v126h-107v-230h348z" />
    <glyph glyph-name="cid44" unicode="K" horiz-adv-x="518" 
d="M171 396h-2v349h-107v-787h107v334h195v-334h107v438h-181l179 349h-120z" />
    <glyph glyph-name="cid45" unicode="L" horiz-adv-x="410" 
d="M62 -42h311v104h-204v683h-107v-787z" />
    <glyph glyph-name="cid46" unicode="M" horiz-adv-x="629" 
d="M368 304v337h92v-683h107v787h-505v-787h107v683h92v-337h107z" />
    <glyph glyph-name="cid47" unicode="N" horiz-adv-x="533" 
d="M364 -42h107v787h-107v-189l-195 189h-107v-787h107v638l195 -189v-449z" />
    <glyph glyph-name="cid48" unicode="O" horiz-adv-x="533" 
d="M471 745h-409v-787h409v787zM169 641h195v-579h-195v579z" />
    <glyph glyph-name="cid49" unicode="P" horiz-adv-x="483" 
d="M169 235h272v510h-379v-787h107v277zM169 339v302h165v-302h-165z" />
    <glyph glyph-name="cid50" unicode="Q" horiz-adv-x="533" 
d="M471 745h-409v-787h151v-100h107v100h151v787zM169 641h195v-579h-44v86h-107v-86h-44v579z" />
    <glyph glyph-name="cid51" unicode="R" horiz-adv-x="498" 
d="M171 300l153 -342h117l-153 342h153v445h-379v-787h107v342h2zM169 404v237h165v-237h-165z" />
    <glyph glyph-name="cid52" unicode="S" horiz-adv-x="503" 
d="M164 467v174h175v-127h107v231h-389v-344l282 -141v-198h-175v126h-107v-230h389v368z" />
    <glyph glyph-name="cid53" unicode="T" horiz-adv-x="427" 
d="M27 641h134v-683h107v683h132v104h-373v-104z" />
    <glyph glyph-name="cid54" unicode="U" horiz-adv-x="508" 
d="M62 745v-787h384v787h-107v-683h-170v683h-107z" />
    <glyph glyph-name="cid55" unicode="V" horiz-adv-x="498" 
d="M164 745h-107v-607l136 -180h112l136 180v607h-107v-572l-84 -111h-2l-84 111v572z" />
    <glyph glyph-name="cid56" unicode="W" horiz-adv-x="629" 
d="M261 62h-92v683h-107v-787h505v787h-107v-683h-92v323h-107v-323z" />
    <glyph glyph-name="cid57" unicode="X" horiz-adv-x="488" 
d="M159 745h-107v-197l125 -191l-125 -190v-209h107v188l84 128h2l84 -128v-188h107v209l-125 190l125 191v197h-107v-176l-84 -129h-2l-84 129v176z" />
    <glyph glyph-name="cid58" unicode="Y" horiz-adv-x="458" 
d="M144 745h-107v-197l140 -214v-376h107v381l137 209v197h-107v-176l-84 -129h-2l-84 129v176z" />
    <glyph glyph-name="cid59" unicode="Z" horiz-adv-x="434" 
d="M279 468l-232 -154v-356h339v104h-232v194l232 154v335h-339v-104h232v-173z" />
    <glyph glyph-name="cid60" unicode="[" horiz-adv-x="335" 
d="M62 -86h221v104h-114v643h114v104h-221v-851z" />
    <glyph glyph-name="cid61" unicode="\" horiz-adv-x="749" 
d="M707 472h-80v273h-107v-683h-92v323h-107v-323h-92v683h-107v-273h-80v-99h80v-415h505v415h80v99z" />
    <glyph glyph-name="cid62" unicode="]" horiz-adv-x="335" 
d="M273 765h-221v-104h114v-643h-114v-104h221v851z" />
    <glyph glyph-name="cid63" unicode="^" horiz-adv-x="434" 
d="M392 560l-114 215h-122l-114 -215h117l58 116l58 -116h117z" />
    <glyph glyph-name="cid64" unicode="_" horiz-adv-x="429" 
d="M377 -42h-325v-101h325v101z" />
    <glyph glyph-name="cid65" unicode="`" horiz-adv-x="292" 
d="M260 587l-104 188h-124l104 -188h124z" />
    <glyph glyph-name="cid66" unicode="a" horiz-adv-x="463" 
d="M145 426h157v-114h-255v-354h359v569h-261v-101zM151 59v152h151v-152h-151z" />
    <glyph glyph-name="cid67" unicode="b" horiz-adv-x="473" 
d="M57 -42h359v569h-255v218h-104v-787zM312 426v-367h-151v367h151z" />
    <glyph glyph-name="cid68" unicode="c" horiz-adv-x="375" 
d="M333 59h-172v367h172v101h-276v-569h276v101z" />
    <glyph glyph-name="cid69" unicode="d" horiz-adv-x="473" 
d="M416 -42v787h-104v-218h-255v-569h359zM161 426h151v-367h-151v367z" />
    <glyph glyph-name="cid70" unicode="e" horiz-adv-x="463" 
d="M318 59h-157v152h255v316h-359v-569h261v101zM312 426v-114h-151v114h151z" />
    <glyph glyph-name="cid71" unicode="f" horiz-adv-x="334" 
d="M302 644v101h-187v-218h-83v-101h83v-468h104v468h83v101h-83v117h83z" />
    <glyph glyph-name="cid72" unicode="g" horiz-adv-x="473" 
d="M416 527h-359v-569h255v-107h-175v-101h279v777zM161 59v367h151v-367h-151z" />
    <glyph glyph-name="cid73" unicode="h" horiz-adv-x="473" 
d="M161 745h-104v-787h104v468h151v-468h104v569h-255v218z" />
    <glyph glyph-name="cid74" unicode="i" horiz-adv-x="228" 
d="M62 527v-569h104v569h-104zM176 610v135h-124v-135h124z" />
    <glyph glyph-name="cid75" unicode="j" horiz-adv-x="230" 
d="M64 527v-676h-87v-101h191v777h-104zM178 610v135h-124v-135h124z" />
    <glyph glyph-name="cid76" unicode="k" horiz-adv-x="468" 
d="M280 288l136 239h-117l-136 -239h-2v457h-104v-787h104v230h151v-230h104v330h-136z" />
    <glyph glyph-name="cid77" unicode="l" horiz-adv-x="218" 
d="M161 745h-104v-787h104v787z" />
    <glyph glyph-name="cid78" unicode="m" horiz-adv-x="618" 
d="M57 527v-569h104v468h96v-468h104v468h96v-468h104v569h-504z" />
    <glyph glyph-name="cid79" unicode="n" horiz-adv-x="453" 
d="M57 527v-569h104v468h131v-468h104v569h-339z" />
    <glyph glyph-name="cid80" unicode="o" horiz-adv-x="473" 
d="M416 -42v569h-359v-569h359zM312 426v-367h-151v367h151z" />
    <glyph glyph-name="cid81" unicode="p" horiz-adv-x="473" 
d="M57 527v-777h104v208h255v569h-359zM312 426v-367h-151v367h151z" />
    <glyph glyph-name="cid82" unicode="q" horiz-adv-x="473" 
d="M416 527h-359v-569h255v-208h104v777zM161 426h151v-367h-151v367z" />
    <glyph glyph-name="cid83" unicode="r" horiz-adv-x="342" 
d="M305 426v101h-248v-569h104v468h144z" />
    <glyph glyph-name="cid84" unicode="s" horiz-adv-x="423" 
d="M371 -42v249l-215 144v75h215v101h-319v-231l215 -144v-93h-215v-101h319z" />
    <glyph glyph-name="cid85" unicode="t" horiz-adv-x="354" 
d="M32 426h93v-468h197v101h-93v367h93v101h-93v169h-104v-169h-93v-101z" />
    <glyph glyph-name="cid86" unicode="u" horiz-adv-x="453" 
d="M396 527h-104v-468h-131v468h-104v-569h339v569z" />
    <glyph glyph-name="cid87" unicode="v" horiz-adv-x="442" 
d="M390 107v420h-104v-382l-64 -76h-2l-64 76v382h-104v-420l125 -149h88z" />
    <glyph glyph-name="cid88" unicode="w" horiz-adv-x="618" 
d="M561 -42v569h-104v-468h-96v468h-104v-468h-96v468h-104v-569h504z" />
    <glyph glyph-name="cid89" unicode="x" horiz-adv-x="420" 
d="M368 134l-92 114l92 115v164h-104v-140l-53 -66h-2l-53 66v140h-104v-164l92 -115l-92 -114v-176h104v151l53 66h2l53 -66v-151h104v176z" />
    <glyph glyph-name="cid90" unicode="y" horiz-adv-x="473" 
d="M312 59h-151v468h-104v-569h255v-107h-175v-101h279v777h-104v-468z" />
    <glyph glyph-name="cid91" unicode="z" horiz-adv-x="393" 
d="M52 -42h289v101h-185v91l185 154v223h-289v-101h185v-74l-185 -154v-240z" />
    <glyph glyph-name="cid92" unicode="{" horiz-adv-x="341" 
d="M185 420q0 -35 -15 -54t-40 -27q25 -8 40 -26t15 -53v-195q0 -23 6.5 -35t34.5 -12h63v-104h-93q-58 0 -88 30t-30 96v201q0 38 -46 38v121q46 0 46 38v201q0 66 30 96t88 30h93v-104h-63q-28 0 -34.5 -12t-6.5 -35v-194z" />
    <glyph glyph-name="cid93" unicode="|" horiz-adv-x="251" 
d="M72 -173h107v958h-107v-958z" />
    <glyph glyph-name="cid94" unicode="}" horiz-adv-x="341" 
d="M156 614q0 23 -6.5 35t-34.5 12h-63v104h93q58 0 88 -30t30 -96v-201q0 -38 46 -38v-121q-46 0 -46 -38v-201q0 -66 -30 -96t-88 -30h-93v104h63q28 0 34.5 12t6.5 35v195q0 35 15 53t40 26q-25 8 -40 27t-15 54v194z" />
    <glyph glyph-name="cid95" unicode="~" horiz-adv-x="562" 
d="M229 193h281v247h-104v-146h-73v172h-281v-247h104v146h73v-172z" />
    <glyph glyph-name="cid96" unicode="&#xa2;" horiz-adv-x="375" 
d="M333 159h-172v367h172v101h-90v100h-96v-100h-90v-569h90v-100h96v100h90v101z" />
    <glyph glyph-name="cid97" unicode="&#xa3;" horiz-adv-x="572" 
d="M121 745v-353h-81v-99h81v-231h-81v-104h470v104h-282v231h150v99h-150v249h155v-127h107v231h-369z" />
    <glyph glyph-name="cid98" unicode="&#xa4;" horiz-adv-x="577" 
d="M51 329q0 -68 33 -121l-74 -74l71 -72l74 74q53 -34 122 -34q34 0 65.5 9t57.5 26l76 -75l71 72l-77 76q15 26 23.5 56.5t8.5 62.5q0 33 -9 63.5t-25 56.5l79 79l-71 72l-79 -79q-26 17 -56.5 26t-63.5 9q-66 0 -119 -33l-76 76l-72 -71l75 -76q-34 -54 -34 -123z
M413 329q0 -29 -10.5 -54t-29 -43t-43.5 -28t-53 -10q-29 0 -53.5 10.5t-42.5 28.5t-28 42.5t-10 53.5t10 54t28 43t42.5 28.5t53.5 10.5q28 0 53 -10.5t43.5 -28.5t29 -43t10.5 -54z" />
    <glyph glyph-name="cid99" unicode="&#xa5;" horiz-adv-x="504" 
d="M167 745h-107v-197l82 -125h-82v-99h140v-59h-140v-99h140v-208h107v208h137v99h-137v59h137v99h-82l82 125v197h-107v-176l-84 -129h-2l-84 129v176z" />
    <glyph glyph-name="cid22482" unicode="&#xa7;" horiz-adv-x="620" 
d="M469 228v229l-215 144v14h215v101h-319v-170l86 -58l-86 -40v-229l215 -144v-14h-215v-101h319v170l-87 57zM365 402v-123l-70 -33l-41 28v123l69 33z" />
    <glyph glyph-name="cid100" unicode="&#xa9;" horiz-adv-x="982" 
d="M491 785q-95 0 -177.5 -35t-143 -96t-95.5 -144t-35 -179t34.5 -178.5t95.5 -144t143 -96.5t178 -35q94 0 176.5 35t143.5 96.5t96 144t35 178.5t-35 179t-96 144t-143.5 96t-176.5 35zM491 -75q-83 0 -156 31.5t-127.5 86.5t-86 129t-31.5 159t31.5 159t86 128.5
t127.5 86t156 31.5t156 -31t127.5 -86t86 -129t31.5 -159q0 -86 -31.5 -160t-86 -129t-127.5 -86t-156 -31zM606 132h-155v399h155v76h-232v-551h232v76z" />
    <glyph glyph-name="cid11878" unicode="&#xab;" horiz-adv-x="564" 
d="M282 494v153l-220 -253v-106l220 -253v153l-134 153zM502 494v153l-220 -253v-106l220 -253v153l-134 153z" />
    <glyph glyph-name="cid101" unicode="&#xae;" horiz-adv-x="531" 
d="M40 558q0 -48 17.5 -89t47.5 -72t71.5 -48.5t89.5 -17.5q47 0 88 17.5t71.5 48.5t48 72t17.5 89t-17.5 89.5t-48 72t-71.5 48t-88 17.5q-48 0 -89 -17.5t-71.5 -48t-48 -72t-17.5 -89.5zM80 558q0 40 14.5 74t40 59t59 39.5t72.5 14.5t72.5 -14.5t59 -39.5t40 -59
t14.5 -74t-14.5 -74t-40 -59t-59 -39.5t-72.5 -14.5t-72.5 14.5t-59 40t-40 59.5t-14.5 73zM239 554l56 -134h49l-63 134h57v142h-142v-276h42v134h1zM296 595h-58v60h58v-60z" />
    <glyph glyph-name="cid102" unicode="&#xb0;" horiz-adv-x="309" 
d="M257 562v213h-205v-213h205zM122 632v73h65v-73h-65z" />
    <glyph glyph-name="cid103" unicode="&#xb1;" horiz-adv-x="580" 
d="M302 548h-104v-137h-136v-104h136v-136h104v136h137v104h-137v137zM439 -42v104h-377v-104h377z" />
    <glyph glyph-name="cid11880" unicode="&#xb2;" horiz-adv-x="403" 
d="M253 596l-178 -100v-237h263v83h-178v106l178 101v221h-263v-150h85v67h93v-91z" />
    <glyph glyph-name="cid11881" unicode="&#xb3;" horiz-adv-x="406" 
d="M140 478h126v-136h-106v67h-85v-150h276v302h-60v209h-216v-150h85v67h46v-126h-66v-83z" />
    <glyph glyph-name="cid104" unicode="&#xb6;" horiz-adv-x="620" 
d="M55 716v-502h242v-254h96v666h39v-666h98v756h-475z" />
    <glyph glyph-name="cid105" unicode="&#xb7;" horiz-adv-x="249" 
d="M187 272v133h-125v-133h125z" />
    <glyph glyph-name="cid11882" unicode="&#xb9;" horiz-adv-x="374" 
d="M65 342v-83h259v83h-88v428h-171v-83h86v-345h-86z" />
    <glyph glyph-name="cid11883" unicode="&#xbb;" horiz-adv-x="564" 
d="M282 494l134 -153l-134 -153v-153l220 253v106l-220 253v-153zM62 494l134 -153l-134 -153v-153l220 253v106l-220 253v-153z" />
    <glyph glyph-name="cid11884" unicode="&#xbc;" horiz-adv-x="800" 
d="M472 91h165v-133h85v133h47v83h-47v295h-136l-114 -215v-163zM333 -42l249 812h-95l-249 -812h95zM35 342v-83h259v83h-88v428h-171v-83h86v-345h-86zM637 393v-219h-80v66z" />
    <glyph glyph-name="cid11885" unicode="&#xbd;" horiz-adv-x="800" 
d="M686 295l-178 -100v-237h263v83h-178v106l178 101v221h-263v-150h85v67h93v-91zM318 -42l249 812h-95l-249 -812h95zM20 342v-83h259v83h-88v428h-171v-83h86v-345h-86z" />
    <glyph glyph-name="cid11886" unicode="&#xbe;" horiz-adv-x="800" 
d="M483 91h165v-133h85v133h47v83h-47v295h-136l-114 -215v-163zM99 478h126v-136h-106v67h-85v-150h276v302h-60v209h-216v-150h85v67h46v-126h-66v-83zM352 -42l249 812h-95l-249 -812h95zM648 393v-219h-80v66z" />
    <glyph glyph-name="cid106" unicode="&#xd7;" horiz-adv-x="501" 
d="M131 549l-70 -71l119 -119l-119 -119l71 -71l119 119l119 -119l71 71l-119 119l119 119l-70 71l-120 -120z" />
    <glyph glyph-name="cid107" unicode="&#xf7;" horiz-adv-x="501" 
d="M62 411v-104h377v104h-377zM305 112v118h-110v-118h110zM305 489v118h-110v-118h110z" />
    <glyph glyph-name="cid108" unicode="&#x2002;" horiz-adv-x="310" 
 />
    <glyph glyph-name="cid109" unicode="&#x2003;" horiz-adv-x="620" 
 />
    <glyph glyph-name="cid110" unicode="&#x2004;" horiz-adv-x="207" 
 />
    <glyph glyph-name="cid111" unicode="&#x2005;" horiz-adv-x="155" 
 />
    <glyph glyph-name="cid112" unicode="&#x2006;" horiz-adv-x="103" 
 />
    <glyph glyph-name="cid113" unicode="&#x2007;" horiz-adv-x="391" 
 />
    <glyph glyph-name="cid114" unicode="&#x2009;" horiz-adv-x="78" 
 />
    <glyph glyph-name="cid115" unicode="&#x200a;" horiz-adv-x="39" 
 />
    <glyph glyph-name="cid116" unicode="&#x2012;" horiz-adv-x="391" 
d="M329 307v104h-267v-104h267z" />
    <glyph glyph-name="cid117" unicode="&#x2013;" horiz-adv-x="658" 
d="M596 307v104h-534v-104h534z" />
    <glyph glyph-name="cid118" unicode="&#x2014;" horiz-adv-x="925" 
d="M863 411h-801v-104h801v104z" />
    <glyph glyph-name="cid119" unicode="&#x2015;" horiz-adv-x="620" 
d="M580 307v104h-540v-104h540z" />
    <glyph glyph-name="cid11895" unicode="&#x2016;" horiz-adv-x="418" 
d="M72 -173h107v958h-107v-958zM239 -173h107v958h-107v-958z" />
    <glyph glyph-name="cid120" unicode="&#x2018;" horiz-adv-x="249" 
d="M204 775h-91l-56 -248h125z" />
    <glyph glyph-name="cid121" unicode="&#x2019;" horiz-adv-x="249" 
d="M45 527h91l56 248h-125z" />
    <glyph glyph-name="cid122" unicode="&#x201c;" horiz-adv-x="404" 
d="M204 775h-91l-56 -248h125zM359 775h-91l-56 -248h125z" />
    <glyph glyph-name="cid123" unicode="&#x201d;" horiz-adv-x="404" 
d="M200 527h91l56 248h-125zM45 527h91l56 248h-125z" />
    <glyph glyph-name="cid124" unicode="&#x2020;" horiz-adv-x="620" 
d="M122 437h137v-477h104v477h135v104h-135v175h-104v-175h-137v-104z" />
    <glyph glyph-name="cid125" unicode="&#x2021;" horiz-adv-x="620" 
d="M122 437h137v-190h-137v-104h137v-183h104v183h135v104h-135v190h135v104h-135v175h-104v-175h-137v-104z" />
    <glyph glyph-name="cid126" unicode="&#x2022;" horiz-adv-x="309" 
d="M247 242v193h-185v-193h185z" />
    <glyph glyph-name="cid127" unicode="&#x2023;" horiz-adv-x="330" 
d="M62 465v-253l215 127z" />
    <glyph glyph-name="cid128" unicode="&#x2025;" horiz-adv-x="620" 
d="M235 272v133h-125v-133h125zM510 272v133h-125v-133h125z" />
    <glyph glyph-name="cid129" unicode="&#x2026;" horiz-adv-x="747" 
d="M187 -67v133h-125v-133h125zM685 -67v133h-125v-133h125zM436 -67v133h-125v-133h125z" />
    <glyph glyph-name="cid11896" unicode="&#x2030;" horiz-adv-x="1104" 
d="M219 -42l455 787h-118l-455 -787h118zM713 -42v310h-269v-310h269zM1042 -42v310h-269v-310h269zM62 435h269v310h-269v-310zM159 651h75v-122h-75v122zM616 174v-122h-75v122h75zM945 174v-122h-75v122h75z" />
    <glyph glyph-name="cid130" unicode="&#x2032;" horiz-adv-x="249" 
d="M45 527h91l56 248h-125z" />
    <glyph glyph-name="cid131" unicode="&#x2033;" horiz-adv-x="404" 
d="M200 527h91l56 248h-125zM45 527h91l56 248h-125z" />
    <glyph glyph-name="cid132" unicode="&#x203b;" horiz-adv-x="620" 
d="M132 -72l178 328l178 -328h94l-225 415l221 408h-94l-174 -321l-174 321h-94l221 -408l-225 -415h94zM372 -72v133h-125v-133h125zM582 273v133h-125v-133h125zM168 273v133h-125v-133h125zM372 618v133h-125v-133h125z" />
    <glyph glyph-name="cid11899" unicode="&#x2044;" horiz-adv-x="40" 
d="M-57 -42l249 812h-95l-249 -812h95z" />
    <glyph glyph-name="cid11903" unicode="&#x2070;" horiz-adv-x="456" 
d="M366 770h-276v-511h276v511zM175 687h106v-59l-106 -109v168zM175 342v58l106 108v-166h-106z" />
    <glyph glyph-name="cid11904" unicode="&#x2074;" horiz-adv-x="397" 
d="M55 392h165v-133h85v133h47v83h-47v295h-136l-114 -215v-163zM220 694v-219h-80v66z" />
    <glyph glyph-name="cid11905" unicode="&#x2075;" horiz-adv-x="416" 
d="M75 409v-150h276v302h-191v126h122v83h-207v-292h191v-136h-106v67h-85z" />
    <glyph glyph-name="cid11906" unicode="&#x2076;" horiz-adv-x="451" 
d="M90 770v-511h276v302h-191v126h122v83h-207zM281 478v-136h-106v136h106z" />
    <glyph glyph-name="cid11907" unicode="&#x2077;" horiz-adv-x="386" 
d="M246 590l-136 -77v-254h85v209l136 76v226h-276v-150h85v67h106v-97z" />
    <glyph glyph-name="cid11908" unicode="&#x2078;" horiz-adv-x="444" 
d="M354 770h-229v-226h-60v-285h289v511zM269 468v-126h-119v126h119zM269 551h-59v136h59v-136z" />
    <glyph glyph-name="cid11909" unicode="&#x2079;" horiz-adv-x="431" 
d="M341 770h-276v-302h191v-126h-123v-83h208v511zM150 687h106v-136h-106v136z" />
    <glyph glyph-name="cid11910" unicode="&#x207f;" horiz-adv-x="466" 
d="M376 259v511h-286v-511h85v428h116v-428h85z" />
    <glyph glyph-name="cid11911" unicode="&#x2080;" horiz-adv-x="456" 
d="M366 469h-276v-511h276v511zM175 386h106v-59l-106 -109v168zM175 41v58l106 108v-166h-106z" />
    <glyph glyph-name="cid11912" unicode="&#x2081;" horiz-adv-x="374" 
d="M65 41v-83h259v83h-88v428h-171v-83h86v-345h-86z" />
    <glyph glyph-name="cid11913" unicode="&#x2082;" horiz-adv-x="403" 
d="M253 295l-178 -100v-237h263v83h-178v106l178 101v221h-263v-150h85v67h93v-91z" />
    <glyph glyph-name="cid11914" unicode="&#x2083;" horiz-adv-x="406" 
d="M140 177h126v-136h-106v67h-85v-150h276v302h-60v209h-216v-150h85v67h46v-126h-66v-83z" />
    <glyph glyph-name="cid11915" unicode="&#x2084;" horiz-adv-x="397" 
d="M55 91h165v-133h85v133h47v83h-47v295h-136l-114 -215v-163zM220 393v-219h-80v66z" />
    <glyph glyph-name="cid11916" unicode="&#x2085;" horiz-adv-x="416" 
d="M75 108v-150h276v302h-191v126h122v83h-207v-292h191v-136h-106v67h-85z" />
    <glyph glyph-name="cid11917" unicode="&#x2086;" horiz-adv-x="451" 
d="M90 469v-511h276v302h-191v126h122v83h-207zM281 177v-136h-106v136h106z" />
    <glyph glyph-name="cid11918" unicode="&#x2087;" horiz-adv-x="386" 
d="M246 289l-136 -77v-254h85v209l136 76v226h-276v-150h85v67h106v-97z" />
    <glyph glyph-name="cid11919" unicode="&#x2088;" horiz-adv-x="444" 
d="M354 469h-229v-226h-60v-285h289v511zM269 167v-126h-119v126h119zM269 250h-59v136h59v-136z" />
    <glyph glyph-name="cid11920" unicode="&#x2089;" horiz-adv-x="431" 
d="M341 469h-276v-302h191v-126h-123v-83h208v511zM150 386h106v-136h-106v136z" />
    <glyph glyph-name="cid133" unicode="&#x20a9;" horiz-adv-x="749" 
d="M707 472h-80v273h-107v-683h-92v323h-107v-323h-92v683h-107v-273h-80v-99h80v-415h505v415h80v99z" />
    <glyph glyph-name="cid134" unicode="&#x20ac;" horiz-adv-x="463" 
d="M343 332h-146v54h146v104h-146v151h224v104h-331v-255h-80v-104h80v-54h-80v-104h80v-270h331v104h-224v166h146v104z" />
    <glyph glyph-name="cid137" unicode="&#x2122;" horiz-adv-x="711" 
d="M522 504v191h59v-398h80v473h-359v-473h80v398h60v-191h80zM20 695h76v-398h82v398h76v75h-234v-75z" />
    <glyph glyph-name="cid148" unicode="&#x2212;" horiz-adv-x="658" 
d="M596 307v104h-534v-104h534z" />
    <glyph glyph-name="cid11979" unicode="&#x2252;" horiz-adv-x="501" 
d="M62 508v-104h377v104h-377zM62 314v-104h377v104h-377zM227 568v118h-110v-118h110zM384 32v118h-110v-118h110z" />
    <glyph glyph-name="cid149" unicode="&#x2260;" horiz-adv-x="501" 
d="M62 314v-104h86l-36 -99l85 -32l47 131h195v104h-157l32 90h125v104h-87l36 98l-85 33l-48 -131h-193v-104h156l-33 -90h-123z" />
    <glyph glyph-name="cid150" unicode="&#x2264;" horiz-adv-x="344" 
d="M282 504v143l-220 -223v-106l220 -223v143l-132 133zM282 -42v104h-220v-104h220z" />
    <glyph glyph-name="cid151" unicode="&#x2265;" horiz-adv-x="344" 
d="M62 504l132 -133l-132 -133v-143l220 223v106l-220 223v-143zM62 -42h220v104h-220v-104z" />
    <glyph glyph-name="cid158" unicode="&#x2329;" horiz-adv-x="424" 
d="M274 -102h110l-230 442l230 441h-110l-230 -441z" />
    <glyph glyph-name="cid158" unicode="&#x3008;" horiz-adv-x="424" 
d="M274 -102h110l-230 442l230 441h-110l-230 -441z" />
    <glyph glyph-name="cid159" unicode="&#x232a;" horiz-adv-x="424" 
d="M380 340l-230 441h-110l230 -441l-230 -442h110z" />
    <glyph glyph-name="cid159" unicode="&#x3009;" horiz-adv-x="424" 
d="M380 340l-230 441h-110l230 -441l-230 -442h110z" />
    <glyph glyph-name="cid11451" unicode="&#x2460;" horiz-adv-x="620" 
d="M590 554q0 53 -22 96t-60 73t-89 46t-109 16q-59 0 -110 -16t-88.5 -46t-59.5 -73t-22 -96v-446q0 -53 22 -96t59.5 -73t88.5 -46t110 -16q58 0 109 16t89 46t60 73t22 96v446zM540 108q0 -41 -15.5 -74.5t-45.5 -57t-72.5 -36.5t-96.5 -13q-110 0 -170 49.5t-60 131.5
v446q0 82 60 131.5t170 49.5q54 0 96.5 -13t72.5 -36.5t45.5 -57t15.5 -74.5v-446zM181 129v-73h279v73h-104v478h-175v-73h101v-405h-101z" />
    <glyph glyph-name="cid11452" unicode="&#x2461;" horiz-adv-x="620" 
d="M590 554q0 53 -22 96t-60 73t-89 46t-109 16q-59 0 -110 -16t-88.5 -46t-59.5 -73t-22 -96v-446q0 -53 22 -96t59.5 -73t88.5 -46t110 -16q58 0 109 16t89 46t60 73t22 96v446zM540 108q0 -41 -15.5 -74.5t-45.5 -57t-72.5 -36.5t-96.5 -13q-110 0 -170 49.5t-60 131.5
v446q0 82 60 131.5t170 49.5q54 0 96.5 -13t72.5 -36.5t45.5 -57t15.5 -74.5v-446zM372 414l-198 -102v-256h272v73h-198v137l198 102v239h-272v-162h74v89h124v-120z" />
    <glyph glyph-name="cid11453" unicode="&#x2462;" horiz-adv-x="620" 
d="M590 554q0 53 -22 96t-60 73t-89 46t-109 16q-59 0 -110 -16t-88.5 -46t-59.5 -73t-22 -96v-446q0 -53 22 -96t59.5 -73t88.5 -46t110 -16q58 0 109 16t89 46t60 73t22 96v446zM540 108q0 -41 -15.5 -74.5t-45.5 -57t-72.5 -36.5t-96.5 -13q-110 0 -170 49.5t-60 131.5
v446q0 82 60 131.5t170 49.5q54 0 96.5 -13t72.5 -36.5t45.5 -57t15.5 -74.5v-446zM384 300v-171h-138v89h-74v-162h286v317h-65v234h-221v-162h74v89h73v-161h-82v-73h147z" />
    <glyph glyph-name="cid11454" unicode="&#x2463;" horiz-adv-x="620" 
d="M590 554q0 53 -22 96t-60 73t-89 46t-109 16q-59 0 -110 -16t-88.5 -46t-59.5 -73t-22 -96v-446q0 -53 22 -96t59.5 -73t88.5 -46t110 -16q58 0 109 16t89 46t60 73t22 96v446zM540 108q0 -41 -15.5 -74.5t-45.5 -57t-72.5 -36.5t-96.5 -13q-110 0 -170 49.5t-60 131.5
v446q0 82 60 131.5t170 49.5q54 0 96.5 -13t72.5 -36.5t45.5 -57t15.5 -74.5v-446zM156 210h183v-154h74v154h57v73h-57v324h-104l-153 -232v-165zM339 519v-236h-109v71z" />
    <glyph glyph-name="cid11455" unicode="&#x2464;" horiz-adv-x="620" 
d="M590 554q0 53 -22 96t-60 73t-89 46t-109 16q-59 0 -110 -16t-88.5 -46t-59.5 -73t-22 -96v-446q0 -53 22 -96t59.5 -73t88.5 -46t110 -16q58 0 109 16t89 46t60 73t22 96v446zM540 108q0 -41 -15.5 -74.5t-45.5 -57t-72.5 -36.5t-96.5 -13q-110 0 -170 49.5t-60 131.5
v446q0 82 60 131.5t170 49.5q54 0 96.5 -13t72.5 -36.5t45.5 -57t15.5 -74.5v-446zM170 218v-162h286v317h-212v161h143v73h-217v-307h212v-171h-138v89h-74z" />
    <glyph glyph-name="cid11456" unicode="&#x2465;" horiz-adv-x="620" 
d="M590 554q0 53 -22 96t-60 73t-89 46t-109 16q-59 0 -110 -16t-88.5 -46t-59.5 -73t-22 -96v-446q0 -53 22 -96t59.5 -73t88.5 -46t110 -16q58 0 109 16t89 46t60 73t22 96v446zM540 108q0 -41 -15.5 -74.5t-45.5 -57t-72.5 -36.5t-96.5 -13q-110 0 -170 49.5t-60 131.5
v446q0 82 60 131.5t170 49.5q54 0 96.5 -13t72.5 -36.5t45.5 -57t15.5 -74.5v-446zM170 607v-551h286v317h-212v161h143v73h-217zM382 300v-171h-138v171h138z" />
    <glyph glyph-name="cid11457" unicode="&#x2466;" horiz-adv-x="620" 
d="M590 554q0 53 -22 96t-60 73t-89 46t-109 16q-59 0 -110 -16t-88.5 -46t-59.5 -73t-22 -96v-446q0 -53 22 -96t59.5 -73t88.5 -46t110 -16q58 0 109 16t89 46t60 73t22 96v446zM540 108q0 -41 -15.5 -74.5t-45.5 -57t-72.5 -36.5t-96.5 -13q-110 0 -170 49.5t-60 131.5
v446q0 82 60 131.5t170 49.5q54 0 96.5 -13t72.5 -36.5t45.5 -57t15.5 -74.5v-446zM379 408l-151 -78v-274h74v228l151 79v244h-286v-162h74v89h138v-126z" />
    <glyph glyph-name="cid11458" unicode="&#x2467;" horiz-adv-x="620" 
d="M590 554q0 53 -22 96t-60 73t-89 46t-109 16q-59 0 -110 -16t-88.5 -46t-59.5 -73t-22 -96v-446q0 -53 22 -96t59.5 -73t88.5 -46t110 -16q58 0 109 16t89 46t60 73t22 96v446zM540 108q0 -41 -15.5 -74.5t-45.5 -57t-72.5 -36.5t-96.5 -13q-110 0 -170 49.5t-60 131.5
v446q0 82 60 131.5t170 49.5q54 0 96.5 -13t72.5 -36.5t45.5 -57t15.5 -74.5v-446zM460 607h-225v-244h-75v-307h300v551zM385 290v-161h-150v161h150zM385 363h-75v171h75v-171z" />
    <glyph glyph-name="cid11459" unicode="&#x2468;" horiz-adv-x="620" 
d="M590 554q0 53 -22 96t-60 73t-89 46t-109 16q-59 0 -110 -16t-88.5 -46t-59.5 -73t-22 -96v-446q0 -53 22 -96t59.5 -73t88.5 -46t110 -16q58 0 109 16t89 46t60 73t22 96v446zM540 108q0 -41 -15.5 -74.5t-45.5 -57t-72.5 -36.5t-96.5 -13q-110 0 -170 49.5t-60 131.5
v446q0 82 60 131.5t170 49.5q54 0 96.5 -13t72.5 -36.5t45.5 -57t15.5 -74.5v-446zM453 607h-286v-317h211v-161h-143v-73h218v551zM242 534h136v-171h-136v171z" />
    <glyph glyph-name="cid11460" unicode="&#x2469;" horiz-adv-x="620" 
d="M590 554q0 53 -22 96t-60 73t-89 46t-109 16q-59 0 -110 -16t-88.5 -46t-59.5 -73t-22 -96v-446q0 -53 22 -96t59.5 -73t88.5 -46t110 -16q58 0 109 16t89 46t60 73t22 96v446zM540 108q0 -41 -15.5 -74.5t-45.5 -57t-72.5 -36.5t-96.5 -13q-110 0 -170 49.5t-60 131.5
v446q0 82 60 131.5t170 49.5q54 0 96.5 -13t72.5 -36.5t45.5 -57t15.5 -74.5v-446zM114 126v-70h387v551h-219v-481h-43v481h-125v-70h54v-411h-54zM353 537h77v-116l-77 -77v193zM353 242l77 77v-193h-77v116z" />
    <glyph glyph-name="cid11461" unicode="&#x246a;" horiz-adv-x="620" 
d="M590 554q0 53 -22 96t-60 73t-89 46t-109 16q-59 0 -110 -16t-88.5 -46t-59.5 -73t-22 -96v-446q0 -53 22 -96t59.5 -73t88.5 -46t110 -16q58 0 109 16t89 46t60 73t22 96v446zM540 108q0 -41 -15.5 -74.5t-45.5 -57t-72.5 -36.5t-96.5 -13q-110 0 -170 49.5t-60 131.5
v446q0 82 60 131.5t170 49.5q54 0 96.5 -13t72.5 -36.5t45.5 -57t15.5 -74.5v-446zM135 126v-70h375v70h-64v481h-135v-70h64v-411h-105v481h-135v-70h64v-411h-64z" />
    <glyph glyph-name="cid11462" unicode="&#x246b;" horiz-adv-x="620" 
d="M590 554q0 53 -22 96t-60 73t-89 46t-109 16q-59 0 -110 -16t-88.5 -46t-59.5 -73t-22 -96v-446q0 -53 22 -96t59.5 -73t88.5 -46t110 -16q58 0 109 16t89 46t60 73t22 96v446zM540 108q0 -41 -15.5 -74.5t-45.5 -57t-72.5 -36.5t-96.5 -13q-110 0 -170 49.5t-60 131.5
v446q0 82 60 131.5t170 49.5q54 0 96.5 -13t72.5 -36.5t45.5 -57t15.5 -74.5v-446zM427 411l-145 -102v-183h-43v481h-125v-70h54v-411h-54v-70h384v70h-145v143l145 102v236h-216v-162h71v92h74v-126z" />
    <glyph glyph-name="cid11463" unicode="&#x246c;" horiz-adv-x="620" 
d="M590 554q0 53 -22 96t-60 73t-89 46t-109 16q-59 0 -110 -16t-88.5 -46t-59.5 -73t-22 -96v-446q0 -53 22 -96t59.5 -73t88.5 -46t110 -16q58 0 109 16t89 46t60 73t22 96v446zM540 108q0 -41 -15.5 -74.5t-45.5 -57t-72.5 -36.5t-96.5 -13q-110 0 -170 49.5t-60 131.5
v446q0 82 60 131.5t170 49.5q54 0 96.5 -13t72.5 -36.5t45.5 -57t15.5 -74.5v-446zM347 303h83v-177h-82v92h-71v-92h-38v481h-125v-70h54v-411h-54v-70h387v317h-45v234h-179v-162h71v92h37v-164h-38v-70z" />
    <glyph glyph-name="cid11464" unicode="&#x246d;" horiz-adv-x="620" 
d="M590 554q0 53 -22 96t-60 73t-89 46t-109 16q-59 0 -110 -16t-88.5 -46t-59.5 -73t-22 -96v-446q0 -53 22 -96t59.5 -73t88.5 -46t110 -16q58 0 109 16t89 46t60 73t22 96v446zM540 108q0 -41 -15.5 -74.5t-45.5 -57t-72.5 -36.5t-96.5 -13q-110 0 -170 49.5t-60 131.5
v446q0 82 60 131.5t170 49.5q54 0 96.5 -13t72.5 -36.5t45.5 -57t15.5 -74.5v-446zM267 210h130v-154h71v154h50v70h-50v327h-101l-100 -232v-165zM114 126v-70h179v70h-54v481h-125v-70h54v-411h-54zM397 508v-228h-59v91z" />
    <glyph glyph-name="cid11465" unicode="&#x246e;" horiz-adv-x="620" 
d="M590 554q0 53 -22 96t-60 73t-89 46t-109 16q-59 0 -110 -16t-88.5 -46t-59.5 -73t-22 -96v-446q0 -53 22 -96t59.5 -73t88.5 -46t110 -16q58 0 109 16t89 46t60 73t22 96v446zM540 108q0 -41 -15.5 -74.5t-45.5 -57t-72.5 -36.5t-96.5 -13q-110 0 -170 49.5t-60 131.5
v446q0 82 60 131.5t170 49.5q54 0 96.5 -13t72.5 -36.5t45.5 -57t15.5 -74.5v-446zM282 218v-92h-43v481h-125v-70h54v-411h-54v-70h386v317h-147v164h98v70h-169v-304h147v-177h-76v92h-71z" />
    <glyph glyph-name="cid11466" unicode="&#x246f;" horiz-adv-x="620" 
d="M590 554q0 53 -22 96t-60 73t-89 46t-109 16q-59 0 -110 -16t-88.5 -46t-59.5 -73t-22 -96v-446q0 -53 22 -96t59.5 -73t88.5 -46t110 -16q58 0 109 16t89 46t60 73t22 96v446zM540 108q0 -41 -15.5 -74.5t-45.5 -57t-72.5 -36.5t-96.5 -13q-110 0 -170 49.5t-60 131.5
v446q0 82 60 131.5t170 49.5q54 0 96.5 -13t72.5 -36.5t45.5 -57t15.5 -74.5v-446zM114 126v-70h386v317h-147v164h98v70h-169v-481h-43v481h-125v-70h54v-411h-54zM429 303v-177h-76v177h76z" />
    <glyph glyph-name="cid11467" unicode="&#x2470;" horiz-adv-x="620" 
d="M590 554q0 53 -22 96t-60 73t-89 46t-109 16q-59 0 -110 -16t-88.5 -46t-59.5 -73t-22 -96v-446q0 -53 22 -96t59.5 -73t88.5 -46t110 -16q58 0 109 16t89 46t60 73t22 96v446zM540 108q0 -41 -15.5 -74.5t-45.5 -57t-72.5 -36.5t-96.5 -13q-110 0 -170 49.5t-60 131.5
v446q0 82 60 131.5t170 49.5q54 0 96.5 -13t72.5 -36.5t45.5 -57t15.5 -74.5v-446zM430 408l-87 -79v-273h71v242l87 79v230h-219v-162h71v92h77v-129zM114 126v-70h179v70h-54v481h-125v-70h54v-411h-54z" />
    <glyph glyph-name="cid11468" unicode="&#x2471;" horiz-adv-x="620" 
d="M590 554q0 53 -22 96t-60 73t-89 46t-109 16q-59 0 -110 -16t-88.5 -46t-59.5 -73t-22 -96v-446q0 -53 22 -96t59.5 -73t88.5 -46t110 -16q58 0 109 16t89 46t60 73t22 96v446zM540 108q0 -41 -15.5 -74.5t-45.5 -57t-72.5 -36.5t-96.5 -13q-110 0 -170 49.5t-60 131.5
v446q0 82 60 131.5t170 49.5q54 0 96.5 -13t72.5 -36.5t45.5 -57t15.5 -74.5v-446zM501 56v551h-189v-244h-40v-237h-33v481h-125v-70h54v-411h-54v-70h387zM343 293h87v-167h-87v167zM430 537v-174h-47v174h47z" />
    <glyph glyph-name="cid11469" unicode="&#x2472;" horiz-adv-x="620" 
d="M590 554q0 53 -22 96t-60 73t-89 46t-109 16q-59 0 -110 -16t-88.5 -46t-59.5 -73t-22 -96v-446q0 -53 22 -96t59.5 -73t88.5 -46t110 -16q58 0 109 16t89 46t60 73t22 96v446zM540 108q0 -41 -15.5 -74.5t-45.5 -57t-72.5 -36.5t-96.5 -13q-110 0 -170 49.5t-60 131.5
v446q0 82 60 131.5t170 49.5q54 0 96.5 -13t72.5 -36.5t45.5 -57t15.5 -74.5v-446zM501 607h-219v-314h148v-167h-76v-70h147v551zM114 126v-70h179v70h-54v481h-125v-70h54v-411h-54zM353 537h77v-174h-77v174z" />
    <glyph glyph-name="cid11470" unicode="&#x2473;" horiz-adv-x="620" 
d="M590 554q0 53 -22 96t-60 73t-89 46t-109 16q-59 0 -110 -16t-88.5 -46t-59.5 -73t-22 -96v-446q0 -53 22 -96t59.5 -73t88.5 -46t110 -16q58 0 109 16t89 46t60 73t22 96v446zM540 108q0 -41 -15.5 -74.5t-45.5 -57t-72.5 -36.5t-96.5 -13q-110 0 -170 49.5t-60 131.5
v446q0 82 60 131.5t170 49.5q54 0 96.5 -13t72.5 -36.5t45.5 -57t15.5 -74.5v-446zM503 607h-184v-551h184v551zM223 403l-107 -102v-245h176v68h-107v146l107 102v235h-176v-162h69v94h38v-136zM434 539v-134l-46 -48v182h46zM434 305v-181h-46v133z" />
    <glyph glyph-name="cid11537" unicode="&#x24b6;" horiz-adv-x="620" 
d="M590 554q0 53 -22 96t-60 73t-89 46t-109 16q-59 0 -110 -16t-88.5 -46t-59.5 -73t-22 -96v-446q0 -53 22 -96t59.5 -73t88.5 -46t110 -16q58 0 109 16t89 46t60 73t22 96v446zM540 108q0 -41 -15.5 -74.5t-45.5 -57t-72.5 -36.5t-96.5 -13q-110 0 -170 49.5t-60 131.5
v446q0 82 60 131.5t170 49.5q54 0 96.5 -13t72.5 -36.5t45.5 -57t15.5 -74.5v-446zM176 607v-551h74v236h120v-236h74v551h-268zM250 534h120v-169h-120v169z" />
    <glyph glyph-name="cid11538" unicode="&#x24b7;" horiz-adv-x="620" 
d="M590 554q0 53 -22 96t-60 73t-89 46t-109 16q-59 0 -110 -16t-88.5 -46t-59.5 -73t-22 -96v-446q0 -53 22 -96t59.5 -73t88.5 -46t110 -16q58 0 109 16t89 46t60 73t22 96v446zM540 108q0 -41 -15.5 -74.5t-45.5 -57t-72.5 -36.5t-96.5 -13q-110 0 -170 49.5t-60 131.5
v446q0 82 60 131.5t170 49.5q54 0 96.5 -13t72.5 -36.5t45.5 -57t15.5 -74.5v-446zM176 607v-551h286v309h-69v242h-217zM388 129h-138v163h138v-163zM319 365h-69v169h69v-169z" />
    <glyph glyph-name="cid11539" unicode="&#x24b8;" horiz-adv-x="620" 
d="M590 554q0 53 -22 96t-60 73t-89 46t-109 16q-59 0 -110 -16t-88.5 -46t-59.5 -73t-22 -96v-446q0 -53 22 -96t59.5 -73t88.5 -46t110 -16q58 0 109 16t89 46t60 73t22 96v446zM540 108q0 -41 -15.5 -74.5t-45.5 -57t-72.5 -36.5t-96.5 -13q-110 0 -170 49.5t-60 131.5
v446q0 82 60 131.5t170 49.5q54 0 96.5 -13t72.5 -36.5t45.5 -57t15.5 -74.5v-446zM429 129h-158v405h158v73h-232v-551h232v73z" />
    <glyph glyph-name="cid11540" unicode="&#x24b9;" horiz-adv-x="620" 
d="M590 554q0 53 -22 96t-60 73t-89 46t-109 16q-59 0 -110 -16t-88.5 -46t-59.5 -73t-22 -96v-446q0 -53 22 -96t59.5 -73t88.5 -46t110 -16q58 0 109 16t89 46t60 73t22 96v446zM540 108q0 -41 -15.5 -74.5t-45.5 -57t-72.5 -36.5t-96.5 -13q-110 0 -170 49.5t-60 131.5
v446q0 82 60 131.5t170 49.5q54 0 96.5 -13t72.5 -36.5t45.5 -57t15.5 -74.5v-446zM456 476l-132 131h-154v-551h286v420zM244 534h50l88 -86v-319h-138v405z" />
    <glyph glyph-name="cid11541" unicode="&#x24ba;" horiz-adv-x="620" 
d="M590 554q0 53 -22 96t-60 73t-89 46t-109 16q-59 0 -110 -16t-88.5 -46t-59.5 -73t-22 -96v-446q0 -53 22 -96t59.5 -73t88.5 -46t110 -16q58 0 109 16t89 46t60 73t22 96v446zM540 108q0 -41 -15.5 -74.5t-45.5 -57t-72.5 -36.5t-96.5 -13q-110 0 -170 49.5t-60 131.5
v446q0 82 60 131.5t170 49.5q54 0 96.5 -13t72.5 -36.5t45.5 -57t15.5 -74.5v-446zM197 56h232v73h-158v177h151v73h-151v155h158v73h-232v-551z" />
    <glyph glyph-name="cid11542" unicode="&#x24bb;" horiz-adv-x="620" 
d="M590 554q0 53 -22 96t-60 73t-89 46t-109 16q-59 0 -110 -16t-88.5 -46t-59.5 -73t-22 -96v-446q0 -53 22 -96t59.5 -73t88.5 -46t110 -16q58 0 109 16t89 46t60 73t22 96v446zM540 108q0 -41 -15.5 -74.5t-45.5 -57t-72.5 -36.5t-96.5 -13q-110 0 -170 49.5t-60 131.5
v446q0 82 60 131.5t170 49.5q54 0 96.5 -13t72.5 -36.5t45.5 -57t15.5 -74.5v-446zM203 56h74v250h151v73h-151v155h158v73h-232v-551z" />
    <glyph glyph-name="cid11543" unicode="&#x24bc;" horiz-adv-x="620" 
d="M590 554q0 53 -22 96t-60 73t-89 46t-109 16q-59 0 -110 -16t-88.5 -46t-59.5 -73t-22 -96v-446q0 -53 22 -96t59.5 -73t88.5 -46t110 -16q58 0 109 16t89 46t60 73t22 96v446zM540 108q0 -41 -15.5 -74.5t-45.5 -57t-72.5 -36.5t-96.5 -13q-110 0 -170 49.5t-60 131.5
v446q0 82 60 131.5t170 49.5q54 0 96.5 -13t72.5 -36.5t45.5 -57t15.5 -74.5v-446zM458 379h-160v-73h86v-177h-138v405h143v73h-217v-551h286v323z" />
    <glyph glyph-name="cid11544" unicode="&#x24bd;" horiz-adv-x="620" 
d="M590 554q0 53 -22 96t-60 73t-89 46t-109 16q-59 0 -110 -16t-88.5 -46t-59.5 -73t-22 -96v-446q0 -53 22 -96t59.5 -73t88.5 -46t110 -16q58 0 109 16t89 46t60 73t22 96v446zM540 108q0 -41 -15.5 -74.5t-45.5 -57t-72.5 -36.5t-96.5 -13q-110 0 -170 49.5t-60 131.5
v446q0 82 60 131.5t170 49.5q54 0 96.5 -13t72.5 -36.5t45.5 -57t15.5 -74.5v-446zM167 607v-551h74v250h138v-250h74v551h-74v-228h-138v228h-74z" />
    <glyph glyph-name="cid11545" unicode="&#x24be;" horiz-adv-x="620" 
d="M590 554q0 53 -22 96t-60 73t-89 46t-109 16q-59 0 -110 -16t-88.5 -46t-59.5 -73t-22 -96v-446q0 -53 22 -96t59.5 -73t88.5 -46t110 -16q58 0 109 16t89 46t60 73t22 96v446zM540 108q0 -41 -15.5 -74.5t-45.5 -57t-72.5 -36.5t-96.5 -13q-110 0 -170 49.5t-60 131.5
v446q0 82 60 131.5t170 49.5q54 0 96.5 -13t72.5 -36.5t45.5 -57t15.5 -74.5v-446zM273 56h74v551h-74v-551z" />
    <glyph glyph-name="cid11546" unicode="&#x24bf;" horiz-adv-x="620" 
d="M590 554q0 53 -22 96t-60 73t-89 46t-109 16q-59 0 -110 -16t-88.5 -46t-59.5 -73t-22 -96v-446q0 -53 22 -96t59.5 -73t88.5 -46t110 -16q58 0 109 16t89 46t60 73t22 96v446zM540 108q0 -41 -15.5 -74.5t-45.5 -57t-72.5 -36.5t-96.5 -13q-110 0 -170 49.5t-60 131.5
v446q0 82 60 131.5t170 49.5q54 0 96.5 -13t72.5 -36.5t45.5 -57t15.5 -74.5v-446zM432 56v551h-230v-73h156v-405h-96v88h-74v-161h244z" />
    <glyph glyph-name="cid11547" unicode="&#x24c0;" horiz-adv-x="620" 
d="M590 554q0 53 -22 96t-60 73t-89 46t-109 16q-59 0 -110 -16t-88.5 -46t-59.5 -73t-22 -96v-446q0 -53 22 -96t59.5 -73t88.5 -46t110 -16q58 0 109 16t89 46t60 73t22 96v446zM540 108q0 -41 -15.5 -74.5t-45.5 -57t-72.5 -36.5t-96.5 -13q-110 0 -170 49.5t-60 131.5
v446q0 82 60 131.5t170 49.5q54 0 96.5 -13t72.5 -36.5t45.5 -57t15.5 -74.5v-446zM243 363h-2v244h-74v-551h74v234h138v-234h74v307h-127l125 244h-84z" />
    <glyph glyph-name="cid11548" unicode="&#x24c1;" horiz-adv-x="620" 
d="M590 554q0 53 -22 96t-60 73t-89 46t-109 16q-59 0 -110 -16t-88.5 -46t-59.5 -73t-22 -96v-446q0 -53 22 -96t59.5 -73t88.5 -46t110 -16q58 0 109 16t89 46t60 73t22 96v446zM540 108q0 -41 -15.5 -74.5t-45.5 -57t-72.5 -36.5t-96.5 -13q-110 0 -170 49.5t-60 131.5
v446q0 82 60 131.5t170 49.5q54 0 96.5 -13t72.5 -36.5t45.5 -57t15.5 -74.5v-446zM211 56h218v73h-144v478h-74v-551z" />
    <glyph glyph-name="cid11549" unicode="&#x24c2;" horiz-adv-x="620" 
d="M590 554q0 53 -22 96t-60 73t-89 46t-109 16q-59 0 -110 -16t-88.5 -46t-59.5 -73t-22 -96v-446q0 -53 22 -96t59.5 -73t88.5 -46t110 -16q58 0 109 16t89 46t60 73t22 96v446zM540 108q0 -41 -15.5 -74.5t-45.5 -57t-72.5 -36.5t-96.5 -13q-110 0 -170 49.5t-60 131.5
v446q0 82 60 131.5t170 49.5q54 0 96.5 -13t72.5 -36.5t45.5 -57t15.5 -74.5v-446zM347 298v236h66v-478h74v551h-353v-551h74v478h65v-236h74z" />
    <glyph glyph-name="cid11550" unicode="&#x24c3;" horiz-adv-x="620" 
d="M590 554q0 53 -22 96t-60 73t-89 46t-109 16q-59 0 -110 -16t-88.5 -46t-59.5 -73t-22 -96v-446q0 -53 22 -96t59.5 -73t88.5 -46t110 -16q58 0 109 16t89 46t60 73t22 96v446zM540 108q0 -41 -15.5 -74.5t-45.5 -57t-72.5 -36.5t-96.5 -13q-110 0 -170 49.5t-60 131.5
v446q0 82 60 131.5t170 49.5q54 0 96.5 -13t72.5 -36.5t45.5 -57t15.5 -74.5v-446zM379 56h74v551h-74v-132l-138 132h-74v-551h74v448l138 -132v-316z" />
    <glyph glyph-name="cid11551" unicode="&#x24c4;" horiz-adv-x="620" 
d="M590 554q0 53 -22 96t-60 73t-89 46t-109 16q-59 0 -110 -16t-88.5 -46t-59.5 -73t-22 -96v-446q0 -53 22 -96t59.5 -73t88.5 -46t110 -16q58 0 109 16t89 46t60 73t22 96v446zM540 108q0 -41 -15.5 -74.5t-45.5 -57t-72.5 -36.5t-96.5 -13q-110 0 -170 49.5t-60 131.5
v446q0 82 60 131.5t170 49.5q54 0 96.5 -13t72.5 -36.5t45.5 -57t15.5 -74.5v-446zM453 607h-286v-551h286v551zM241 534h138v-405h-138v405z" />
    <glyph glyph-name="cid11552" unicode="&#x24c5;" horiz-adv-x="620" 
d="M590 554q0 53 -22 96t-60 73t-89 46t-109 16q-59 0 -110 -16t-88.5 -46t-59.5 -73t-22 -96v-446q0 -53 22 -96t59.5 -73t88.5 -46t110 -16q58 0 109 16t89 46t60 73t22 96v446zM540 108q0 -41 -15.5 -74.5t-45.5 -57t-72.5 -36.5t-96.5 -13q-110 0 -170 49.5t-60 131.5
v446q0 82 60 131.5t170 49.5q54 0 96.5 -13t72.5 -36.5t45.5 -57t15.5 -74.5v-446zM257 250h191v357h-265v-551h74v194zM257 323v211h117v-211h-117z" />
    <glyph glyph-name="cid11553" unicode="&#x24c6;" horiz-adv-x="620" 
d="M590 554q0 53 -22 96t-60 73t-89 46t-109 16q-59 0 -110 -16t-88.5 -46t-59.5 -73t-22 -96v-446q0 -53 22 -96t59.5 -73t88.5 -46t110 -16q58 0 109 16t89 46t60 73t22 96v446zM540 108q0 -41 -15.5 -74.5t-45.5 -57t-72.5 -36.5t-96.5 -13q-110 0 -170 49.5t-60 131.5
v446q0 82 60 131.5t170 49.5q54 0 96.5 -13t72.5 -36.5t45.5 -57t15.5 -74.5v-446zM453 607h-286v-551h106v-70h74v70h106v551zM241 534h138v-405h-32v60h-74v-60h-32v405z" />
    <glyph glyph-name="cid11554" unicode="&#x24c7;" horiz-adv-x="620" 
d="M590 554q0 53 -22 96t-60 73t-89 46t-109 16q-59 0 -110 -16t-88.5 -46t-59.5 -73t-22 -96v-446q0 -53 22 -96t59.5 -73t88.5 -46t110 -16q58 0 109 16t89 46t60 73t22 96v446zM540 108q0 -41 -15.5 -74.5t-45.5 -57t-72.5 -36.5t-96.5 -13q-110 0 -170 49.5t-60 131.5
v446q0 82 60 131.5t170 49.5q54 0 96.5 -13t72.5 -36.5t45.5 -57t15.5 -74.5v-446zM254 296l107 -240h82l-107 240h107v311h-265v-551h74v240h2zM252 369v165h117v-165h-117z" />
    <glyph glyph-name="cid11555" unicode="&#x24c8;" horiz-adv-x="620" 
d="M590 554q0 53 -22 96t-60 73t-89 46t-109 16q-59 0 -110 -16t-88.5 -46t-59.5 -73t-22 -96v-446q0 -53 22 -96t59.5 -73t88.5 -46t110 -16q58 0 109 16t89 46t60 73t22 96v446zM540 108q0 -41 -15.5 -74.5t-45.5 -57t-72.5 -36.5t-96.5 -13q-110 0 -170 49.5t-60 131.5
v446q0 82 60 131.5t170 49.5q54 0 96.5 -13t72.5 -36.5t45.5 -57t15.5 -74.5v-446zM248 413v121h124v-89h74v162h-272v-241l198 -98v-139h-124v88h-74v-161h272v258z" />
    <glyph glyph-name="cid11556" unicode="&#x24c9;" horiz-adv-x="620" 
d="M590 554q0 53 -22 96t-60 73t-89 46t-109 16q-59 0 -110 -16t-88.5 -46t-59.5 -73t-22 -96v-446q0 -53 22 -96t59.5 -73t88.5 -46t110 -16q58 0 109 16t89 46t60 73t22 96v446zM540 108q0 -41 -15.5 -74.5t-45.5 -57t-72.5 -36.5t-96.5 -13q-110 0 -170 49.5t-60 131.5
v446q0 82 60 131.5t170 49.5q54 0 96.5 -13t72.5 -36.5t45.5 -57t15.5 -74.5v-446zM180 534h94v-478h74v478h93v73h-261v-73z" />
    <glyph glyph-name="cid11557" unicode="&#x24ca;" horiz-adv-x="620" 
d="M590 554q0 53 -22 96t-60 73t-89 46t-109 16q-59 0 -110 -16t-88.5 -46t-59.5 -73t-22 -96v-446q0 -53 22 -96t59.5 -73t88.5 -46t110 -16q58 0 109 16t89 46t60 73t22 96v446zM540 108q0 -41 -15.5 -74.5t-45.5 -57t-72.5 -36.5t-96.5 -13q-110 0 -170 49.5t-60 131.5
v446q0 82 60 131.5t170 49.5q54 0 96.5 -13t72.5 -36.5t45.5 -57t15.5 -74.5v-446zM176 607v-551h268v551h-74v-478h-120v478h-74z" />
    <glyph glyph-name="cid11558" unicode="&#x24cb;" horiz-adv-x="620" 
d="M590 554q0 53 -22 96t-60 73t-89 46t-109 16q-59 0 -110 -16t-88.5 -46t-59.5 -73t-22 -96v-446q0 -53 22 -96t59.5 -73t88.5 -46t110 -16q58 0 109 16t89 46t60 73t22 96v446zM540 108q0 -41 -15.5 -74.5t-45.5 -57t-72.5 -36.5t-96.5 -13q-110 0 -170 49.5t-60 131.5
v446q0 82 60 131.5t170 49.5q54 0 96.5 -13t72.5 -36.5t45.5 -57t15.5 -74.5v-446zM250 607h-74v-425l95 -126h78l95 126v425h-74v-400l-59 -78h-2l-59 78v400z" />
    <glyph glyph-name="cid11559" unicode="&#x24cc;" horiz-adv-x="620" 
d="M590 554q0 53 -22 96t-60 73t-89 46t-109 16q-59 0 -110 -16t-88.5 -46t-59.5 -73t-22 -96v-446q0 -53 22 -96t59.5 -73t88.5 -46t110 -16q58 0 109 16t89 46t60 73t22 96v446zM540 108q0 -41 -15.5 -74.5t-45.5 -57t-72.5 -36.5t-96.5 -13q-110 0 -170 49.5t-60 131.5
v446q0 82 60 131.5t170 49.5q54 0 96.5 -13t72.5 -36.5t45.5 -57t15.5 -74.5v-446zM273 129h-65v478h-74v-551h353v551h-74v-478h-66v226h-74v-226z" />
    <glyph glyph-name="cid11560" unicode="&#x24cd;" horiz-adv-x="940" 
d="M590 554q0 53 -22 96t-60 73t-89 46t-109 16q-59 0 -110 -16t-88.5 -46t-59.5 -73t-22 -96v-446q0 -53 22 -96t59.5 -73t88.5 -46t110 -16q58 0 109 16t89 46t60 73t22 96v446zM540 108q0 -41 -15.5 -74.5t-45.5 -57t-72.5 -36.5t-96.5 -13q-110 0 -170 49.5t-60 131.5
v446q0 82 60 131.5t170 49.5q54 0 96.5 -13t72.5 -36.5t45.5 -57t15.5 -74.5v-446zM250 607h-74v-138l87 -133l-87 -134v-146h74v132l59 89h2l59 -89v-132h74v146l-87 134l87 133v138h-74v-123l-59 -90h-2l-59 90v123z" />
    <glyph glyph-name="cid11561" unicode="&#x24ce;" horiz-adv-x="620" 
d="M590 554q0 53 -22 96t-60 73t-89 46t-109 16q-59 0 -110 -16t-88.5 -46t-59.5 -73t-22 -96v-446q0 -53 22 -96t59.5 -73t88.5 -46t110 -16q58 0 109 16t89 46t60 73t22 96v446zM540 108q0 -41 -15.5 -74.5t-45.5 -57t-72.5 -36.5t-96.5 -13q-110 0 -170 49.5t-60 131.5
v446q0 82 60 131.5t170 49.5q54 0 96.5 -13t72.5 -36.5t45.5 -57t15.5 -74.5v-446zM250 607h-74v-138l98 -150v-263h75v267l95 146v138h-74v-123l-59 -90h-2l-59 90v123z" />
    <glyph glyph-name="cid11562" unicode="&#x24cf;" horiz-adv-x="620" 
d="M590 554q0 53 -22 96t-60 73t-89 46t-109 16q-59 0 -110 -16t-88.5 -46t-59.5 -73t-22 -96v-446q0 -53 22 -96t59.5 -73t88.5 -46t110 -16q58 0 109 16t89 46t60 73t22 96v446zM540 108q0 -41 -15.5 -74.5t-45.5 -57t-72.5 -36.5t-96.5 -13q-110 0 -170 49.5t-60 131.5
v446q0 82 60 131.5t170 49.5q54 0 96.5 -13t72.5 -36.5t45.5 -57t15.5 -74.5v-446zM355 413l-163 -108v-249h237v73h-163v136l163 108v234h-237v-73h163v-121z" />
    <glyph glyph-name="cid11563" unicode="&#x24d0;" horiz-adv-x="620" 
d="M590 554q0 53 -22 96t-60 73t-89 46t-109 16q-59 0 -110 -16t-88.5 -46t-59.5 -73t-22 -96v-446q0 -53 22 -96t59.5 -73t88.5 -46t110 -16q58 0 109 16t89 46t60 73t22 96v446zM540 108q0 -41 -15.5 -74.5t-45.5 -57t-72.5 -36.5t-96.5 -13q-110 0 -170 49.5t-60 131.5
v446q0 82 60 131.5t170 49.5q54 0 96.5 -13t72.5 -36.5t45.5 -57t15.5 -74.5v-446zM254 460h109v-80h-178v-248h251v399h-182v-71zM258 203v106h105v-106h-105z" />
    <glyph glyph-name="cid11564" unicode="&#x24d1;" horiz-adv-x="620" 
d="M590 554q0 53 -22 96t-60 73t-89 46t-109 16q-59 0 -110 -16t-88.5 -46t-59.5 -73t-22 -96v-446q0 -53 22 -96t59.5 -73t88.5 -46t110 -16q58 0 109 16t89 46t60 73t22 96v446zM540 108q0 -41 -15.5 -74.5t-45.5 -57t-72.5 -36.5t-96.5 -13q-110 0 -170 49.5t-60 131.5
v446q0 82 60 131.5t170 49.5q54 0 96.5 -13t72.5 -36.5t45.5 -57t15.5 -74.5v-446zM185 56h251v399h-178v152h-73v-551zM363 384v-257h-105v257h105z" />
    <glyph glyph-name="cid11565" unicode="&#x24d2;" horiz-adv-x="620" 
d="M590 554q0 53 -22 96t-60 73t-89 46t-109 16q-59 0 -110 -16t-88.5 -46t-59.5 -73t-22 -96v-446q0 -53 22 -96t59.5 -73t88.5 -46t110 -16q58 0 109 16t89 46t60 73t22 96v446zM540 108q0 -41 -15.5 -74.5t-45.5 -57t-72.5 -36.5t-96.5 -13q-110 0 -170 49.5t-60 131.5
v446q0 82 60 131.5t170 49.5q54 0 96.5 -13t72.5 -36.5t45.5 -57t15.5 -74.5v-446zM412 203h-121v257h121v71h-194v-399h194v71z" />
    <glyph glyph-name="cid11566" unicode="&#x24d3;" horiz-adv-x="620" 
d="M590 554q0 53 -22 96t-60 73t-89 46t-109 16q-59 0 -110 -16t-88.5 -46t-59.5 -73t-22 -96v-446q0 -53 22 -96t59.5 -73t88.5 -46t110 -16q58 0 109 16t89 46t60 73t22 96v446zM540 108q0 -41 -15.5 -74.5t-45.5 -57t-72.5 -36.5t-96.5 -13q-110 0 -170 49.5t-60 131.5
v446q0 82 60 131.5t170 49.5q54 0 96.5 -13t72.5 -36.5t45.5 -57t15.5 -74.5v-446zM436 56v551h-73v-152h-178v-399h251zM258 384h105v-257h-105v257z" />
    <glyph glyph-name="cid11567" unicode="&#x24d4;" horiz-adv-x="620" 
d="M590 554q0 53 -22 96t-60 73t-89 46t-109 16q-59 0 -110 -16t-88.5 -46t-59.5 -73t-22 -96v-446q0 -53 22 -96t59.5 -73t88.5 -46t110 -16q58 0 109 16t89 46t60 73t22 96v446zM540 108q0 -41 -15.5 -74.5t-45.5 -57t-72.5 -36.5t-96.5 -13q-110 0 -170 49.5t-60 131.5
v446q0 82 60 131.5t170 49.5q54 0 96.5 -13t72.5 -36.5t45.5 -57t15.5 -74.5v-446zM368 203h-110v107h178v221h-251v-399h183v71zM363 460v-79h-105v79h105z" />
    <glyph glyph-name="cid11568" unicode="&#x24d5;" horiz-adv-x="620" 
d="M590 554q0 53 -22 96t-60 73t-89 46t-109 16q-59 0 -110 -16t-88.5 -46t-59.5 -73t-22 -96v-446q0 -53 22 -96t59.5 -73t88.5 -46t110 -16q58 0 109 16t89 46t60 73t22 96v446zM540 108q0 -41 -15.5 -74.5t-45.5 -57t-72.5 -36.5t-96.5 -13q-110 0 -170 49.5t-60 131.5
v446q0 82 60 131.5t170 49.5q54 0 96.5 -13t72.5 -36.5t45.5 -57t15.5 -74.5v-446zM405 536v71h-131v-152h-58v-71h58v-328h73v328h58v71h-58v81h58z" />
    <glyph glyph-name="cid11569" unicode="&#x24d6;" horiz-adv-x="620" 
d="M590 554q0 53 -22 96t-60 73t-89 46t-109 16q-59 0 -110 -16t-88.5 -46t-59.5 -73t-22 -96v-446q0 -53 22 -96t59.5 -73t88.5 -46t110 -16q58 0 109 16t89 46t60 73t22 96v446zM540 108q0 -41 -15.5 -74.5t-45.5 -57t-72.5 -36.5t-96.5 -13q-110 0 -170 49.5t-60 131.5
v446q0 82 60 131.5t170 49.5q54 0 96.5 -13t72.5 -36.5t45.5 -57t15.5 -74.5v-446zM436 603h-251v-399h178v-74h-122v-71h195v544zM258 275v257h105v-257h-105z" />
    <glyph glyph-name="cid11570" unicode="&#x24d7;" horiz-adv-x="590" 
d="M590 554q0 53 -22 96t-60 73t-89 46t-109 16q-59 0 -110 -16t-88.5 -46t-59.5 -73t-22 -96v-446q0 -53 22 -96t59.5 -73t88.5 -46t110 -16q58 0 109 16t89 46t60 73t22 96v446zM540 108q0 -41 -15.5 -74.5t-45.5 -57t-72.5 -36.5t-96.5 -13q-110 0 -170 49.5t-60 131.5
v446q0 82 60 131.5t170 49.5q54 0 96.5 -13t72.5 -36.5t45.5 -57t15.5 -74.5v-446zM258 607h-73v-551h73v328h105v-328h73v399h-178v152z" />
    <glyph glyph-name="cid11571" unicode="&#x24d8;" horiz-adv-x="620" 
d="M590 554q0 53 -22 96t-60 73t-89 46t-109 16q-59 0 -110 -16t-88.5 -46t-59.5 -73t-22 -96v-446q0 -53 22 -96t59.5 -73t88.5 -46t110 -16q58 0 109 16t89 46t60 73t22 96v446zM540 108q0 -41 -15.5 -74.5t-45.5 -57t-72.5 -36.5t-96.5 -13q-110 0 -170 49.5t-60 131.5
v446q0 82 60 131.5t170 49.5q54 0 96.5 -13t72.5 -36.5t45.5 -57t15.5 -74.5v-446zM274 455v-399h73v399h-73zM353 513v94h-86v-94h86z" />
    <glyph glyph-name="cid11572" unicode="&#x24d9;" horiz-adv-x="620" 
d="M590 554q0 53 -22 96t-60 73t-89 46t-109 16q-59 0 -110 -16t-88.5 -46t-59.5 -73t-22 -96v-446q0 -53 22 -96t59.5 -73t88.5 -46t110 -16q58 0 109 16t89 46t60 73t22 96v446zM540 108q0 -41 -15.5 -74.5t-45.5 -57t-72.5 -36.5t-96.5 -13q-110 0 -170 49.5t-60 131.5
v446q0 82 60 131.5t170 49.5q54 0 96.5 -13t72.5 -36.5t45.5 -57t15.5 -74.5v-446zM274 527v-473h-61v-71h134v544h-73zM354 585v95h-87v-95h87z" />
    <glyph glyph-name="cid11573" unicode="&#x24da;" horiz-adv-x="620" 
d="M590 554q0 53 -22 96t-60 73t-89 46t-109 16q-59 0 -110 -16t-88.5 -46t-59.5 -73t-22 -96v-446q0 -53 22 -96t59.5 -73t88.5 -46t110 -16q58 0 109 16t89 46t60 73t22 96v446zM540 108q0 -41 -15.5 -74.5t-45.5 -57t-72.5 -36.5t-96.5 -13q-110 0 -170 49.5t-60 131.5
v446q0 82 60 131.5t170 49.5q54 0 96.5 -13t72.5 -36.5t45.5 -57t15.5 -74.5v-446zM341 287l95 168h-82l-95 -168h-1v320h-73v-551h73v160h105v-160h73v231h-95z" />
    <glyph glyph-name="cid11574" unicode="&#x24db;" horiz-adv-x="620" 
d="M590 554q0 53 -22 96t-60 73t-89 46t-109 16q-59 0 -110 -16t-88.5 -46t-59.5 -73t-22 -96v-446q0 -53 22 -96t59.5 -73t88.5 -46t110 -16q58 0 109 16t89 46t60 73t22 96v446zM540 108q0 -41 -15.5 -74.5t-45.5 -57t-72.5 -36.5t-96.5 -13q-110 0 -170 49.5t-60 131.5
v446q0 82 60 131.5t170 49.5q54 0 96.5 -13t72.5 -36.5t45.5 -57t15.5 -74.5v-446zM274 607v-551h73v551h-73z" />
    <glyph glyph-name="cid11575" unicode="&#x24dc;" horiz-adv-x="620" 
d="M590 554q0 53 -22 96t-60 73t-89 46t-109 16q-59 0 -110 -16t-88.5 -46t-59.5 -73t-22 -96v-446q0 -53 22 -96t59.5 -73t88.5 -46t110 -16q58 0 109 16t89 46t60 73t22 96v446zM540 108q0 -41 -15.5 -74.5t-45.5 -57t-72.5 -36.5t-96.5 -13q-110 0 -170 49.5t-60 131.5
v446q0 82 60 131.5t170 49.5q54 0 96.5 -13t72.5 -36.5t45.5 -57t15.5 -74.5v-446zM134 531v-399h73v328h67v-328h73v328h67v-328h73v399h-353z" />
    <glyph glyph-name="cid11576" unicode="&#x24dd;" horiz-adv-x="620" 
d="M590 554q0 53 -22 96t-60 73t-89 46t-109 16q-59 0 -110 -16t-88.5 -46t-59.5 -73t-22 -96v-446q0 -53 22 -96t59.5 -73t88.5 -46t110 -16q58 0 109 16t89 46t60 73t22 96v446zM540 108q0 -41 -15.5 -74.5t-45.5 -57t-72.5 -36.5t-96.5 -13q-110 0 -170 49.5t-60 131.5
v446q0 82 60 131.5t170 49.5q54 0 96.5 -13t72.5 -36.5t45.5 -57t15.5 -74.5v-446zM192 531v-399h73v328h91v-328h73v399h-237z" />
    <glyph glyph-name="cid11577" unicode="&#x24de;" horiz-adv-x="620" 
d="M590 554q0 53 -22 96t-60 73t-89 46t-109 16q-59 0 -110 -16t-88.5 -46t-59.5 -73t-22 -96v-446q0 -53 22 -96t59.5 -73t88.5 -46t110 -16q58 0 109 16t89 46t60 73t22 96v446zM540 108q0 -41 -15.5 -74.5t-45.5 -57t-72.5 -36.5t-96.5 -13q-110 0 -170 49.5t-60 131.5
v446q0 82 60 131.5t170 49.5q54 0 96.5 -13t72.5 -36.5t45.5 -57t15.5 -74.5v-446zM436 132v399h-251v-399h251zM363 460v-257h-105v257h105z" />
    <glyph glyph-name="cid11578" unicode="&#x24df;" horiz-adv-x="620" 
d="M590 554q0 53 -22 96t-60 73t-89 46t-109 16q-59 0 -110 -16t-88.5 -46t-59.5 -73t-22 -96v-446q0 -53 22 -96t59.5 -73t88.5 -46t110 -16q58 0 109 16t89 46t60 73t22 96v446zM540 108q0 -41 -15.5 -74.5t-45.5 -57t-72.5 -36.5t-96.5 -13q-110 0 -170 49.5t-60 131.5
v446q0 82 60 131.5t170 49.5q54 0 96.5 -13t72.5 -36.5t45.5 -57t15.5 -74.5v-446zM185 603v-544h73v145h178v399h-251zM363 532v-257h-105v257h105z" />
    <glyph glyph-name="cid11579" unicode="&#x24e0;" horiz-adv-x="620" 
d="M590 554q0 53 -22 96t-60 73t-89 46t-109 16q-59 0 -110 -16t-88.5 -46t-59.5 -73t-22 -96v-446q0 -53 22 -96t59.5 -73t88.5 -46t110 -16q58 0 109 16t89 46t60 73t22 96v446zM540 108q0 -41 -15.5 -74.5t-45.5 -57t-72.5 -36.5t-96.5 -13q-110 0 -170 49.5t-60 131.5
v446q0 82 60 131.5t170 49.5q54 0 96.5 -13t72.5 -36.5t45.5 -57t15.5 -74.5v-446zM436 603h-251v-399h178v-145h73v544zM258 532h105v-257h-105v257z" />
    <glyph glyph-name="cid11580" unicode="&#x24e1;" horiz-adv-x="620" 
d="M590 554q0 53 -22 96t-60 73t-89 46t-109 16q-59 0 -110 -16t-88.5 -46t-59.5 -73t-22 -96v-446q0 -53 22 -96t59.5 -73t88.5 -46t110 -16q58 0 109 16t89 46t60 73t22 96v446zM540 108q0 -41 -15.5 -74.5t-45.5 -57t-72.5 -36.5t-96.5 -13q-110 0 -170 49.5t-60 131.5
v446q0 82 60 131.5t170 49.5q54 0 96.5 -13t72.5 -36.5t45.5 -57t15.5 -74.5v-446zM411 460v71h-174v-399h73v328h101z" />
    <glyph glyph-name="cid11581" unicode="&#x24e2;" horiz-adv-x="620" 
d="M590 554q0 53 -22 96t-60 73t-89 46t-109 16q-59 0 -110 -16t-88.5 -46t-59.5 -73t-22 -96v-446q0 -53 22 -96t59.5 -73t88.5 -46t110 -16q58 0 109 16t89 46t60 73t22 96v446zM540 108q0 -41 -15.5 -74.5t-45.5 -57t-72.5 -36.5t-96.5 -13q-110 0 -170 49.5t-60 131.5
v446q0 82 60 131.5t170 49.5q54 0 96.5 -13t72.5 -36.5t45.5 -57t15.5 -74.5v-446zM422 132v175l-150 101v52h150v71h-223v-162l150 -101v-65h-150v-71h223z" />
    <glyph glyph-name="cid11582" unicode="&#x24e3;" horiz-adv-x="620" 
d="M590 554q0 53 -22 96t-60 73t-89 46t-109 16q-59 0 -110 -16t-88.5 -46t-59.5 -73t-22 -96v-446q0 -53 22 -96t59.5 -73t88.5 -46t110 -16q58 0 109 16t89 46t60 73t22 96v446zM540 108q0 -41 -15.5 -74.5t-45.5 -57t-72.5 -36.5t-96.5 -13q-110 0 -170 49.5t-60 131.5
v446q0 82 60 131.5t170 49.5q54 0 96.5 -13t72.5 -36.5t45.5 -57t15.5 -74.5v-446zM204 400h65v-327h138v71h-65v256h65v71h-65v118h-73v-118h-65v-71z" />
    <glyph glyph-name="cid11583" unicode="&#x24e4;" horiz-adv-x="620" 
d="M590 554q0 53 -22 96t-60 73t-89 46t-109 16q-59 0 -110 -16t-88.5 -46t-59.5 -73t-22 -96v-446q0 -53 22 -96t59.5 -73t88.5 -46t110 -16q58 0 109 16t89 46t60 73t22 96v446zM540 108q0 -41 -15.5 -74.5t-45.5 -57t-72.5 -36.5t-96.5 -13q-110 0 -170 49.5t-60 131.5
v446q0 82 60 131.5t170 49.5q54 0 96.5 -13t72.5 -36.5t45.5 -57t15.5 -74.5v-446zM429 531h-73v-328h-91v328h-73v-399h237v399z" />
    <glyph glyph-name="cid11584" unicode="&#x24e5;" horiz-adv-x="620" 
d="M590 554q0 53 -22 96t-60 73t-89 46t-109 16q-59 0 -110 -16t-88.5 -46t-59.5 -73t-22 -96v-446q0 -53 22 -96t59.5 -73t88.5 -46t110 -16q58 0 109 16t89 46t60 73t22 96v446zM540 108q0 -41 -15.5 -74.5t-45.5 -57t-72.5 -36.5t-96.5 -13q-110 0 -170 49.5t-60 131.5
v446q0 82 60 131.5t170 49.5q54 0 96.5 -13t72.5 -36.5t45.5 -57t15.5 -74.5v-446zM428 237v294h-73v-268l-44 -53h-2l-44 53v268h-73v-294l87 -105h62z" />
    <glyph glyph-name="cid11585" unicode="&#x24e6;" horiz-adv-x="620" 
d="M590 554q0 53 -22 96t-60 73t-89 46t-109 16q-59 0 -110 -16t-88.5 -46t-59.5 -73t-22 -96v-446q0 -53 22 -96t59.5 -73t88.5 -46t110 -16q58 0 109 16t89 46t60 73t22 96v446zM540 108q0 -41 -15.5 -74.5t-45.5 -57t-72.5 -36.5t-96.5 -13q-110 0 -170 49.5t-60 131.5
v446q0 82 60 131.5t170 49.5q54 0 96.5 -13t72.5 -36.5t45.5 -57t15.5 -74.5v-446zM487 132v399h-73v-328h-67v328h-73v-328h-67v328h-73v-399h353z" />
    <glyph glyph-name="cid11586" unicode="&#x24e7;" horiz-adv-x="620" 
d="M590 554q0 53 -22 96t-60 73t-89 46t-109 16q-59 0 -110 -16t-88.5 -46t-59.5 -73t-22 -96v-446q0 -53 22 -96t59.5 -73t88.5 -46t110 -16q58 0 109 16t89 46t60 73t22 96v446zM540 108q0 -41 -15.5 -74.5t-45.5 -57t-72.5 -36.5t-96.5 -13q-110 0 -170 49.5t-60 131.5
v446q0 82 60 131.5t170 49.5q54 0 96.5 -13t72.5 -36.5t45.5 -57t15.5 -74.5v-446zM421 256l-65 80l65 80v115h-73v-98l-37 -46h-2l-37 46v98h-73v-115l65 -80l-65 -80v-124h73v106l37 46h2l37 -46v-106h73v124z" />
    <glyph glyph-name="cid11587" unicode="&#x24e8;" horiz-adv-x="620" 
d="M590 554q0 53 -22 96t-60 73t-89 46t-109 16q-59 0 -110 -16t-88.5 -46t-59.5 -73t-22 -96v-446q0 -53 22 -96t59.5 -73t88.5 -46t110 -16q58 0 109 16t89 46t60 73t22 96v446zM540 108q0 -41 -15.5 -74.5t-45.5 -57t-72.5 -36.5t-96.5 -13q-110 0 -170 49.5t-60 131.5
v446q0 82 60 131.5t170 49.5q54 0 96.5 -13t72.5 -36.5t45.5 -57t15.5 -74.5v-446zM363 275h-105v328h-73v-399h178v-74h-122v-71h195v544h-73v-328z" />
    <glyph glyph-name="cid11588" unicode="&#x24e9;" horiz-adv-x="620" 
d="M590 554q0 53 -22 96t-60 73t-89 46t-109 16q-59 0 -110 -16t-88.5 -46t-59.5 -73t-22 -96v-446q0 -53 22 -96t59.5 -73t88.5 -46t110 -16q58 0 109 16t89 46t60 73t22 96v446zM540 108q0 -41 -15.5 -74.5t-45.5 -57t-72.5 -36.5t-96.5 -13q-110 0 -170 49.5t-60 131.5
v446q0 82 60 131.5t170 49.5q54 0 96.5 -13t72.5 -36.5t45.5 -57t15.5 -74.5v-446zM209 132h202v71h-129v64l129 108v156h-202v-71h129v-52l-129 -107v-169z" />
    <glyph glyph-name="cid11589" unicode="&#x24ea;" horiz-adv-x="620" 
d="M590 554q0 53 -22 96t-60 73t-89 46t-109 16q-59 0 -110 -16t-88.5 -46t-59.5 -73t-22 -96v-446q0 -53 22 -96t59.5 -73t88.5 -46t110 -16q58 0 109 16t89 46t60 73t22 96v446zM540 108q0 -41 -15.5 -74.5t-45.5 -57t-72.5 -36.5t-96.5 -13q-110 0 -170 49.5t-60 131.5
v446q0 82 60 131.5t170 49.5q54 0 96.5 -13t72.5 -36.5t45.5 -57t15.5 -74.5v-446zM453 607h-286v-551h286v551zM242 129v91l136 139v-230h-136zM242 534h136v-68l-136 -139v207z" />
    <glyph glyph-name="cid11590" unicode="&#x24eb;" horiz-adv-x="620" 
d="M590 554q0 53 -22 96t-60 73t-89 46t-109 16q-59 0 -110 -16t-88.5 -46t-59.5 -73t-22 -96v-446q0 -53 22 -96t59.5 -73t88.5 -46t110 -16q58 0 109 16t89 46t60 73t22 96v446zM265 126h115v411h-64v70h135v-481h64v-70h-385v70h64v411h-64v70h135v-481z" />
    <glyph glyph-name="cid11591" unicode="&#x24ec;" horiz-adv-x="620" 
d="M590 554q0 53 -22 96t-60 73t-89 46t-109 16q-59 0 -110 -16t-88.5 -46t-59.5 -73t-22 -96v-446q0 -53 22 -96t59.5 -73t88.5 -46t110 -16q58 0 109 16t89 46t60 73t22 96v446zM432 411v126h-74v-92h-71v162h216v-236l-145 -102v-143h145v-70h-394v70h54v411h-54v70h125
v-481h53v183z" />
    <glyph glyph-name="cid11592" unicode="&#x24ed;" horiz-adv-x="620" 
d="M590 554q0 53 -22 96t-60 73t-89 46t-109 16q-59 0 -110 -16t-88.5 -46t-59.5 -73t-22 -96v-446q0 -53 22 -96t59.5 -73t88.5 -46t110 -16q58 0 109 16t89 46t60 73t22 96v446zM352 303v70h38v164h-37v-92h-71v162h179v-234h45v-317h-397v70h54v411h-54v70h125v-481h48
v92h71v-92h82v177h-83z" />
    <glyph glyph-name="cid11593" unicode="&#x24ee;" horiz-adv-x="620" 
d="M590 554q0 53 -22 96t-60 73t-89 46t-109 16q-59 0 -110 -16t-88.5 -46t-59.5 -73t-22 -96v-446q0 -53 22 -96t59.5 -73t88.5 -46t110 -16q58 0 109 16t89 46t60 73t22 96v446zM272 210v165l100 232h101v-327h50v-70h-50v-154h-71v154h-130zM109 126h54v411h-54v70h125
v-481h54v-70h-179v70zM402 508l-59 -137v-91h59v228z" />
    <glyph glyph-name="cid11594" unicode="&#x24ef;" horiz-adv-x="620" 
d="M590 554q0 53 -22 96t-60 73t-89 46t-109 16q-59 0 -110 -16t-88.5 -46t-59.5 -73t-22 -96v-446q0 -53 22 -96t59.5 -73t88.5 -46t110 -16q58 0 109 16t89 46t60 73t22 96v446zM287 218h71v-92h76v177h-147v304h169v-70h-98v-164h147v-317h-396v70h54v411h-54v70h125
v-481h53v92z" />
    <glyph glyph-name="cid11595" unicode="&#x24f0;" horiz-adv-x="620" 
d="M590 554q0 53 -22 96t-60 73t-89 46t-109 16q-59 0 -110 -16t-88.5 -46t-59.5 -73t-22 -96v-446q0 -53 22 -96t59.5 -73t88.5 -46t110 -16q58 0 109 16t89 46t60 73t22 96v446zM109 126h54v411h-54v70h125v-481h53v481h169v-70h-98v-164h147v-317h-396v70zM434 126v177
h-76v-177h76z" />
    <glyph glyph-name="cid11596" unicode="&#x24f1;" horiz-adv-x="620" 
d="M590 554q0 53 -22 96t-60 73t-89 46t-109 16q-59 0 -110 -16t-88.5 -46t-59.5 -73t-22 -96v-446q0 -53 22 -96t59.5 -73t88.5 -46t110 -16q58 0 109 16t89 46t60 73t22 96v446zM435 408v129h-77v-92h-71v162h219v-230l-87 -79v-242h-71v273zM109 126h54v411h-54v70h125
v-481h54v-70h-179v70z" />
    <glyph glyph-name="cid11597" unicode="&#x24f2;" horiz-adv-x="620" 
d="M590 554q0 53 -22 96t-60 73t-89 46t-109 16q-59 0 -110 -16t-88.5 -46t-59.5 -73t-22 -96v-446q0 -53 22 -96t59.5 -73t88.5 -46t110 -16q58 0 109 16t89 46t60 73t22 96v446zM506 56h-397v70h54v411h-54v70h125v-481h43v237h40v244h189v-551zM348 293v-167h87v167h-87z
M435 537h-47v-174h47v174z" />
    <glyph glyph-name="cid11598" unicode="&#x24f3;" horiz-adv-x="620" 
d="M590 554q0 53 -22 96t-60 73t-89 46t-109 16q-59 0 -110 -16t-88.5 -46t-59.5 -73t-22 -96v-446q0 -53 22 -96t59.5 -73t88.5 -46t110 -16q58 0 109 16t89 46t60 73t22 96v446zM506 607v-551h-147v70h76v167h-148v314h219zM109 126h54v411h-54v70h125v-481h54v-70h-179
v70zM358 537v-174h77v174h-77z" />
    <glyph glyph-name="cid11599" unicode="&#x24f4;" horiz-adv-x="620" 
d="M590 554q0 53 -22 96t-60 73t-89 46t-109 16q-59 0 -110 -16t-88.5 -46t-59.5 -73t-22 -96v-446q0 -53 22 -96t59.5 -73t88.5 -46t110 -16q58 0 109 16t89 46t60 73t22 96v446zM508 607v-551h-184v551h184zM218 403v136h-38v-94h-69v162h176v-235l-107 -102v-146h107v-68
h-176v245zM393 357l46 48v134h-46v-182zM439 124v181l-46 -48v-133h46z" />
    <glyph glyph-name="cid11600" unicode="&#x24ff;" horiz-adv-x="620" 
d="M590 554q0 53 -22 96t-60 73t-89 46t-109 16q-59 0 -110 -16t-88.5 -46t-59.5 -73t-22 -96v-446q0 -53 22 -96t59.5 -73t88.5 -46t110 -16q58 0 109 16t89 46t60 73t22 96v446zM453 607v-551h-286v551h286zM242 129h136v230l-136 -139v-91zM242 534v-207l136 139v68h-136
z" />
    <glyph glyph-name="cid11993" unicode="&#x2500;" horiz-adv-x="878" 
d="M0 761v-843h878v843h-878z" />
    <glyph glyph-name="cid11995" unicode="&#x2502;" horiz-adv-x="878" 
 />
    <glyph glyph-name="cid11997" unicode="&#x250c;" horiz-adv-x="878" 
d="M55 -26h47v-56h57v56h46v-56h56v56h47v-56h56v56h47v-56h55v56h48v-56h55v56h48v-56h55v56h48v-56h55v56h47v-56h56v61h-52v52h52v59h-52v52h52v60h-52v52h52v59h-52v53h52v60h-52v52h52v59h-52v52h52v60h-52v51h52v61h-56v-56h-47v56h-55v-56h-48v56h-55v-56h-48v56h-55
v-56h-48v56h-55v-56h-47v56h-56v-56h-47v56h-56v-56h-46v56h-57v-56h-47v56h-55v-61h51v-51h-51v-60h51v-52h-51v-59h51v-52h-51v-60h51v-53h-51v-59h51v-52h-51v-60h51v-52h-51v-59h51v-52h-51v-61h55v56zM106 31h48v-52h-48v52zM106 142h48v-52h-48v52zM106 254h48v-52
h-48v52zM106 366h48v-53h-48v53zM106 478h48v-52h-48v52zM106 589h48v-52h-48v52zM205 533v-51h-46v51h46zM210 589h47v-52h-47v52zM308 533v-51h-47v51h47zM312 589h48v-52h-48v52zM411 533v-51h-47v51h47zM415 589h47v-52h-47v52zM514 533v-51h-48v51h48zM518 589h47v-52
h-47v52zM617 533v-51h-48v51h48zM622 589h46v-52h-46v52zM720 533v-51h-48v51h48zM724 589h47v-52h-47v52zM771 426h-47v52h47v-52zM771 313h-47v53h47v-53zM771 202h-47v52h47v-52zM771 90h-47v52h47v-52zM565 90h-47v52h47v-52zM466 147v50h48v-50h-48zM462 90h-47v52h47
v-52zM364 147v50h47v-50h-47zM360 90h-48v52h48v-52zM261 147v50h47v-50h-47zM257 90h-47v52h47v-52zM159 147v50h46v-50h-46zM159 309h46v-51h-46v51zM159 421h46v-51h-46v51zM210 478h47v-52h-47v52zM308 421v-51h-47v51h47zM312 478h48v-52h-48v52zM411 421v-51h-47v51
h47zM415 478h47v-52h-47v52zM514 421v-51h-48v51h48zM518 478h47v-52h-47v52zM617 421v-51h-48v51h48zM622 478h46v-52h-46v52zM720 421v-51h-48v51h48zM672 147v50h48v-50h-48zM622 202v52h46v-52h-46zM569 258v51h48v-51h-48zM565 202h-47v52h47v-52zM466 258v51h48v-51
h-48zM462 202h-47v52h47v-52zM364 258v51h47v-51h-47zM360 202h-48v52h48v-52zM261 258v51h47v-51h-47zM257 202h-47v52h47v-52zM210 366h47v-53h-47v53zM312 366h48v-53h-48v53zM415 366h47v-53h-47v53zM518 366h47v-53h-47v53zM668 366v-53h-46v53h46zM672 258v51h48v-51
h-48zM569 197h48v-50h-48v50zM622 90v52h46v-52h-46zM159 86h46v-51h-46v51zM210 31h47v-52h-47v52zM261 86h47v-51h-47v51zM312 31h48v-52h-48v52zM364 86h47v-51h-47v51zM415 31h47v-52h-47v52zM466 86h48v-51h-48v51zM518 31h47v-52h-47v52zM569 86h48v-51h-48v51z
M622 31h46v-52h-46v52zM672 86h48v-51h-48v51zM724 31h47v-52h-47v52zM775 86h47v-51h-47v51zM775 147v50h47v-50h-47zM775 258v51h47v-51h-47zM775 370v51h47v-51h-47zM775 482v51h47v-51h-47zM775 594v51h47v-51h-47zM771 649h-47v51h47v-51zM720 594h-48v51h48v-51z
M668 649h-46v51h46v-51zM617 594h-48v51h48v-51zM565 649h-47v51h47v-51zM514 594h-48v51h48v-51zM462 649h-47v51h47v-51zM411 594h-47v51h47v-51zM360 649h-48v51h48v-51zM308 594h-47v51h47v-51zM257 649h-47v51h47v-51zM205 594h-46v51h46v-51zM154 649h-48v51h48v-51z
M102 594h-47v51h47v-51zM102 533v-51h-47v51h47zM102 421v-51h-47v51h47zM102 309v-51h-47v51h47zM102 197v-50h-47v50h47zM102 86v-51h-47v51h47z" />
    <glyph glyph-name="cid12001" unicode="&#x2510;" horiz-adv-x="878" 
d="M55 -26h47v-56h57v56h46v-56h57v56h46v-56h56v56h47v-56h56v56h47v-56h55v56h48v-56h56v56h47v-56h55v56h47v-56h56v61h-52v52h52v59h-52v52h52v60h-52v52h52v59h-52v53h52v60h-52v52h52v59h-52v52h52v60h-52v51h52v61h-56v-56h-47v56h-55v-56h-47v56h-56v-56h-48v56h-55
v-61h51v-51h-51v-55h-47v55h-56v-55h-47v55h-51v51h51v61h-56v-56h-46v56h-57v-56h-46v56h-57v-56h-47v56h-55v-61h51v-51h-51v-60h51v-52h-51v-59h51v-52h-51v-60h51v-53h-51v-59h51v-52h-51v-60h51v-52h-51v-59h51v-52h-51v-61h55v56zM107 31h47v-52h-47v52zM107 142h47
v-52h-47v52zM107 254h47v-52h-47v52zM107 366h47v-53h-47v53zM107 478h47v-52h-47v52zM107 589h47v-52h-47v52zM159 645h46v-51h-46v51zM364 533h47v-51h-47v51zM467 533h47v-51h-47v51zM622 589h46v-52h-46v52zM673 645h47v-51h-47v51zM771 537h-47v52h47v-52zM771 426h-47
v52h47v-52zM771 313h-47v53h47v-53zM771 202h-47v52h47v-52zM771 90h-47v52h47v-52zM720 35h-47v51h47v-51zM617 35h-48v51h48v-51zM514 35h-47v51h47v-51zM411 35h-47v51h47v-51zM308 35h-46v51h46v-51zM205 35h-46v51h46v-51zM159 197h46v-50h-46v50zM159 309h46v-51h-46
v51zM159 533h46v-51h-46v51zM210 589h47v-52h-47v52zM415 478h47v-52h-47v52zM518 478h47v-52h-47v52zM622 478h46v-52h-46v52zM673 533h47v-51h-47v51zM565 90h-47v52h47v-52zM462 90h-47v52h47v-52zM360 90h-47v52h47v-52zM257 90h-47v52h47v-52zM210 254h47v-52h-47v52z
M210 366h47v-53h-47v53zM210 478h47v-52h-47v52zM364 366v55h47v-55h56v55h47v-55h51v-53h-51v-59h51v-52h-51v-55h-47v55h-56v-55h-47v55h-51v52h51v59h-51v53h51zM617 421v-51h-48v51h48zM668 313h-46v53h46v-53zM668 202h-46v52h46v-52zM569 309h48v-51h-48v51zM308 147
h-46v50h46v-50zM262 309h46v-51h-46v51zM262 421h46v-51h-46v51zM569 197h48v-50h-48v50zM622 142h46v-52h-46v52zM673 147v50h47v-50h-47zM673 258v51h47v-51h-47zM673 370v51h47v-51h-47zM360 426h-47v52h47v-52zM308 482h-46v51h46v-51zM205 421v-51h-46v51h46zM617 533
v-51h-48v51h48zM210 31h47v-52h-47v52zM313 31h47v-52h-47v52zM415 31h47v-52h-47v52zM518 31h47v-52h-47v52zM622 31h46v-52h-46v52zM724 31h47v-52h-47v52zM775 35v51h47v-51h-47zM775 147v50h47v-50h-47zM775 258v51h47v-51h-47zM775 370v51h47v-51h-47zM775 482v51h47
v-51h-47zM775 594v51h47v-51h-47zM771 649h-47v51h47v-51zM668 649h-46v51h46v-51zM617 645v-51h-48v51h48zM565 537h-47v52h47v-52zM462 537h-47v52h47v-52zM360 537h-47v52h47v-52zM308 594h-46v51h46v-51zM257 649h-47v51h47v-51zM154 649h-47v51h47v-51zM102 645v-51
h-47v51h47zM102 533v-51h-47v51h47zM102 421v-51h-47v51h47zM102 309v-51h-47v51h47zM102 197v-50h-47v50h47zM102 86v-51h-47v51h47z" />
    <glyph glyph-name="cid12009" unicode="&#x2518;" horiz-adv-x="878" 
d="M51 -82h56v56h47v-56h56v56h47v-56h56v56h47v-56h55v56h48v-56h55v56h47v-56h56v56h47v-56h57v56h46v-56h56v56h51v61h-51v51h51v61h-51v50h51v61h-55v-56h-47v56h-51v51h51v61h-51v51h51v57h47v-57h55v61h-51v51h51v61h-51v51h51v60h-51v56h-56v-56h-46v56h-57v-56h-47
v56h-56v-56h-47v56h-55v-56h-48v56h-55v-56h-47v56h-56v-56h-47v56h-56v-56h-47v56h-56v-56h-51v-60h51v-51h-51v-61h51v-51h-51v-61h55v57h48v-57h51v-51h-51v-61h51v-51h-51v-56h-48v56h-55v-61h51v-50h-51v-61h51v-51h-51v-61h51v-56zM107 86h47v-51h-47v51zM158 142h47
v-52h-47v52zM210 197h47v-50h-47v50zM210 309h47v-51h-47v51zM210 421h47v-51h-47v51zM107 645h47v-51h-47v51zM210 645h47v-51h-47v51zM313 645h47v-51h-47v51zM415 645h48v-51h-48v51zM518 645h47v-51h-47v51zM621 645h47v-51h-47v51zM725 645h46v-51h-46v51zM720 537h-47
v52h47v-52zM668 482h-47v51h47v-51zM771 35h-46v51h46v-51zM668 35h-47v51h47v-51zM565 35h-47v51h47v-51zM463 35h-48v51h48v-51zM360 35h-47v51h47v-51zM257 35h-47v51h47v-51zM262 142h47v-52h-47v52zM262 254h47v-52h-47v52zM262 366h47v-53h-47v53zM158 589h47v-52h-47
v52zM262 589h47v-52h-47v52zM365 589h46v-52h-46v52zM467 589h47v-52h-47v52zM569 589h48v-52h-48v52zM617 426h-48v52h48v-52zM617 313h-48v53h48v-53zM720 90h-47v52h47v-52zM569 90v52h48v-52h-48zM514 90h-47v52h47v-52zM411 90h-46v52h46v-52zM313 197h47v-50h-47v50z
M313 309h52v61h-52v51h52v57h46v-57h56v57h47v-57h51v-51h-51v-61h51v-51h-51v-56h-47v56h-56v-56h-46v56h-52v51zM262 478h47v-52h-47v52zM313 533h47v-51h-47v51zM415 533h48v-51h-48v51zM565 533v-51h-47v51h47zM617 202h-48v52h48v-52zM463 147h-48v50h48v-50zM518 197
h47v-50h-47v50zM668 147h-47v50h47v-50zM210 533h47v-51h-47v51zM621 258v51h47v-51h-47zM621 370v51h47v-51h-47zM158 31h47v-52h-47v52zM262 31h47v-52h-47v52zM365 31h46v-52h-46v52zM467 31h47v-52h-47v52zM569 31h48v-52h-48v52zM673 31h47v-52h-47v52zM776 31h47v-52
h-47v52zM776 90v52h47v-52h-47zM771 147h-46v50h46v-50zM720 202h-47v52h47v-52zM673 313v53h47v-53h-47zM673 426v52h47v-52h-47zM725 533h46v-51h-46v51zM776 589h47v-52h-47v52zM776 649v51h47v-51h-47zM720 649h-47v51h47v-51zM617 649h-48v51h48v-51zM514 649h-47v51
h47v-51zM411 649h-46v51h46v-51zM309 649h-47v51h47v-51zM205 649h-47v51h47v-51zM103 649h-48v51h48v-51zM103 589v-52h-48v52h48zM107 533h47v-51h-47v51zM158 478h47v-52h-47v52zM205 366v-53h-47v53h47zM205 254v-52h-47v52h47zM154 147h-47v50h47v-50zM103 142v-52h-48
v52h48zM103 31v-52h-48v52h48z" />
    <glyph glyph-name="cid152" unicode="&#x25a1;" horiz-adv-x="620" 
d="M558 -72v823h-496v-823h496zM466 664v-649h-312v649h312z" />
    <glyph glyph-name="cid153" unicode="&#x25cb;" horiz-adv-x="620" 
d="M558 129q0 -49 -19.5 -89.5t-53 -70t-78.5 -45.5t-97 -16t-97 16t-78.5 45t-53 69t-19.5 89v425q0 49 19.5 89t53 69t78.5 45t97 16t97 -16.5t78.5 -45.5t53 -69.5t19.5 -89.5v-421zM154 131q0 -32 11.5 -57t32.5 -42.5t49.5 -27t62.5 -9.5t62.5 9.5t49.5 27.5t32.5 43.5
t11.5 57.5v413q0 31 -11.5 56.5t-32.5 43.5t-49.5 28t-62.5 10t-62.5 -9.5t-49.5 -27t-32.5 -43t-11.5 -56.5v-417z" />
    <glyph glyph-name="cid154" unicode="&#x25e6;" horiz-adv-x="309" 
d="M257 232v213h-205v-213h205zM122 302v73h65v-73h-65z" />
    <glyph glyph-name="cid155" unicode="&#x274c;" horiz-adv-x="620" 
d="M142 -72l168 317l168 -317h104l-220 415l216 408h-104l-164 -310l-164 310h-104l216 -408l-220 -415h104z" />
    <glyph glyph-name="cid11601" unicode="&#x2776;" horiz-adv-x="620" 
d="M590 554q0 53 -22 96t-60 73t-89 46t-109 16q-59 0 -110 -16t-88.5 -46t-59.5 -73t-22 -96v-446q0 -53 22 -96t59.5 -73t88.5 -46t110 -16q58 0 109 16t89 46t60 73t22 96v446zM181 129h101v405h-101v73h175v-478h104v-73h-279v73z" />
    <glyph glyph-name="cid11602" unicode="&#x2777;" horiz-adv-x="620" 
d="M590 554q0 53 -22 96t-60 73t-89 46t-109 16q-59 0 -110 -16t-88.5 -46t-59.5 -73t-22 -96v-446q0 -53 22 -96t59.5 -73t88.5 -46t110 -16q58 0 109 16t89 46t60 73t22 96v446zM372 414v120h-124v-89h-74v162h272v-239l-198 -102v-137h198v-73h-272v256z" />
    <glyph glyph-name="cid11603" unicode="&#x2778;" horiz-adv-x="620" 
d="M590 554q0 53 -22 96t-60 73t-89 46t-109 16q-59 0 -110 -16t-88.5 -46t-59.5 -73t-22 -96v-446q0 -53 22 -96t59.5 -73t88.5 -46t110 -16q58 0 109 16t89 46t60 73t22 96v446zM384 300h-147v73h82v161h-73v-89h-74v162h221v-234h65v-317h-286v162h74v-89h138v171z" />
    <glyph glyph-name="cid11604" unicode="&#x2779;" horiz-adv-x="620" 
d="M590 554q0 53 -22 96t-60 73t-89 46t-109 16q-59 0 -110 -16t-88.5 -46t-59.5 -73t-22 -96v-446q0 -53 22 -96t59.5 -73t88.5 -46t110 -16q58 0 109 16t89 46t60 73t22 96v446zM156 210v165l153 232h104v-324h57v-73h-57v-154h-74v154h-183zM339 519l-109 -165v-71h109
v236z" />
    <glyph glyph-name="cid11605" unicode="&#x277a;" horiz-adv-x="620" 
d="M590 554q0 53 -22 96t-60 73t-89 46t-109 16q-59 0 -110 -16t-88.5 -46t-59.5 -73t-22 -96v-446q0 -53 22 -96t59.5 -73t88.5 -46t110 -16q58 0 109 16t89 46t60 73t22 96v446zM170 218h74v-89h138v171h-212v307h217v-73h-143v-161h212v-317h-286v162z" />
    <glyph glyph-name="cid11606" unicode="&#x277b;" horiz-adv-x="620" 
d="M590 554q0 53 -22 96t-60 73t-89 46t-109 16q-59 0 -110 -16t-88.5 -46t-59.5 -73t-22 -96v-446q0 -53 22 -96t59.5 -73t88.5 -46t110 -16q58 0 109 16t89 46t60 73t22 96v446zM170 607h217v-73h-143v-161h212v-317h-286v551zM382 300h-138v-171h138v171z" />
    <glyph glyph-name="cid11607" unicode="&#x277c;" horiz-adv-x="620" 
d="M590 554q0 53 -22 96t-60 73t-89 46t-109 16q-59 0 -110 -16t-88.5 -46t-59.5 -73t-22 -96v-446q0 -53 22 -96t59.5 -73t88.5 -46t110 -16q58 0 109 16t89 46t60 73t22 96v446zM379 408v126h-138v-89h-74v162h286v-244l-151 -79v-228h-74v274z" />
    <glyph glyph-name="cid11608" unicode="&#x277d;" horiz-adv-x="620" 
d="M590 554q0 53 -22 96t-60 73t-89 46t-109 16q-59 0 -110 -16t-88.5 -46t-59.5 -73t-22 -96v-446q0 -53 22 -96t59.5 -73t88.5 -46t110 -16q58 0 109 16t89 46t60 73t22 96v446zM460 56h-300v307h75v244h225v-551zM235 290v-161h150v161h-150zM385 534h-75v-171h75v171z
" />
    <glyph glyph-name="cid11609" unicode="&#x277e;" horiz-adv-x="620" 
d="M453 607v-551h-218v73h143v161h-211v317h286zM242 534v-171h136v171h-136zM590 554q0 53 -22 96t-60 73t-89 46t-109 16q-59 0 -110 -16t-88.5 -46t-59.5 -73t-22 -96v-446q0 -53 22 -96t59.5 -73t88.5 -46t110 -16q58 0 109 16t89 46t60 73t22 96v446z" />
    <glyph glyph-name="cid11610" unicode="&#x277f;" horiz-adv-x="620" 
d="M590 554q0 53 -22 96t-60 73t-89 46t-109 16q-59 0 -110 -16t-88.5 -46t-59.5 -73t-22 -96v-446q0 -53 22 -96t59.5 -73t88.5 -46t110 -16q58 0 109 16t89 46t60 73t22 96v446zM109 126h54v411h-54v70h125v-481h53v481h219v-551h-397v70zM358 242v-116h77v193zM435 537
h-77v-193l77 77v116z" />
    <glyph glyph-name="cid156" unicode="&#x2e3a;" horiz-adv-x="1726" 
d="M1664 411h-1602v-104h1602v104z" />
    <glyph glyph-name="cid157" unicode="&#x2e3b;" horiz-adv-x="2527" 
d="M2465 411h-2403v-104h2403v104z" />
    <glyph glyph-name="cid12106" unicode="&#x3003;" horiz-adv-x="620" 
d="M300 190h91l96 298h-125zM133 190h91l96 298h-125z" />
    <glyph glyph-name="cid160" unicode="&#x300a;" horiz-adv-x="574" 
d="M274 -102h100l-230 442l230 441h-100l-230 -441zM434 -102h100l-230 442l230 441h-100l-230 -441z" />
    <glyph glyph-name="cid161" unicode="&#x300b;" horiz-adv-x="574" 
d="M530 340l-230 441h-100l230 -441l-230 -442h100zM370 340l-230 441h-100l230 -441l-230 -442h100z" />
    <glyph glyph-name="cid162" unicode="&#x300c;" horiz-adv-x="363" 
d="M177 381v296h146v104h-253v-400h107z" />
    <glyph glyph-name="cid163" unicode="&#x300d;" horiz-adv-x="363" 
d="M176 298v-296h-146v-104h253v400h-107z" />
    <glyph glyph-name="cid164" unicode="&#x300e;" horiz-adv-x="363" 
d="M323 781h-253v-400h180v226h73v174zM180 675v-226h-40v264h113v-38h-73z" />
    <glyph glyph-name="cid165" unicode="&#x300f;" horiz-adv-x="363" 
d="M30 -102h253v400h-180v-226h-73v-174zM173 4v226h40v-264h-113v38h73z" />
    <glyph glyph-name="cid170" unicode="&#x3131;" horiz-adv-x="620" 
d="M558 58v553h-501v-97h396v-456h105z" />
    <glyph glyph-name="cid170" unicode="&#xffa1;" horiz-adv-x="620" 
d="M558 58v553h-501v-97h396v-456h105z" />
    <glyph glyph-name="cid171" unicode="&#x3132;" horiz-adv-x="620" 
d="M291 63v548h-233v-95h131v-453h102zM558 63v548h-233v-95h131v-453h102z" />
    <glyph glyph-name="cid171" unicode="&#xffa2;" horiz-adv-x="620" 
d="M291 63v548h-233v-95h131v-453h102zM558 63v548h-233v-95h131v-453h102z" />
    <glyph glyph-name="cid172" unicode="&#x3133;" horiz-adv-x="620" 
d="M169 68h185l64 477l61 -477h96l-82 547h-150l-74 -494v490h-211v-95h111v-448z" />
    <glyph glyph-name="cid172" unicode="&#xffa3;" horiz-adv-x="620" 
d="M169 68h185l64 477l61 -477h96l-82 547h-150l-74 -494v490h-211v-95h111v-448z" />
    <glyph glyph-name="cid173" unicode="&#x3134;" horiz-adv-x="620" 
d="M62 616v-548h501v97h-396v451h-105z" />
    <glyph glyph-name="cid173" unicode="&#xffa4;" horiz-adv-x="620" 
d="M62 616v-548h501v97h-396v451h-105z" />
    <glyph glyph-name="cid174" unicode="&#x3135;" horiz-adv-x="620" 
d="M346 68l62 435l61 -435h95l-76 455h66v88h-293v-88h66l-58 -363h-107v451h-102v-543h286z" />
    <glyph glyph-name="cid174" unicode="&#xffa5;" horiz-adv-x="620" 
d="M346 68l62 435l61 -435h95l-76 455h66v88h-293v-88h66l-58 -363h-107v451h-102v-543h286z" />
    <glyph glyph-name="cid175" unicode="&#x3136;" horiz-adv-x="620" 
d="M160 611h-102v-543h200v92h-98v451zM266 479h298v89h-97v83h-103v-83h-98v-89zM278 169q0 -26 11.5 -46.5t30.5 -35t43.5 -22t51.5 -7.5t51.5 7.5t43.5 22t30.5 35t11.5 46.5v168q0 25 -11.5 46t-30.5 35t-43.5 22t-51.5 8t-51.5 -8t-43.5 -22t-30.5 -35t-11.5 -46v-168z
M415 359q17 0 28 -9t11 -24v-146q0 -15 -11 -24t-28 -9t-28 9t-11 24v146q0 15 11 24t28 9z" />
    <glyph glyph-name="cid175" unicode="&#xffa6;" horiz-adv-x="620" 
d="M160 611h-102v-543h200v92h-98v451zM266 479h298v89h-97v83h-103v-83h-98v-89zM278 169q0 -26 11.5 -46.5t30.5 -35t43.5 -22t51.5 -7.5t51.5 7.5t43.5 22t30.5 35t11.5 46.5v168q0 25 -11.5 46t-30.5 35t-43.5 22t-51.5 8t-51.5 -8t-43.5 -22t-30.5 -35t-11.5 -46v-168z
M415 359q17 0 28 -9t11 -24v-146q0 -15 -11 -24t-28 -9t-28 9t-11 24v146q0 15 11 24t28 9z" />
    <glyph glyph-name="cid176" unicode="&#x3137;" horiz-adv-x="620" 
d="M563 165h-398v349h393v97h-496v-543h501v97z" />
    <glyph glyph-name="cid176" unicode="&#xffa7;" horiz-adv-x="620" 
d="M563 165h-398v349h393v97h-496v-543h501v97z" />
    <glyph glyph-name="cid177" unicode="&#x3138;" horiz-adv-x="620" 
d="M289 163h-127v353h127v95h-229v-543h229v95zM565 163h-140v353h135v95h-237v-543h242v95z" />
    <glyph glyph-name="cid177" unicode="&#xffa8;" horiz-adv-x="620" 
d="M289 163h-127v353h127v95h-229v-543h229v95zM565 163h-140v353h135v95h-237v-543h242v95z" />
    <glyph glyph-name="cid178" unicode="&#x3139;" horiz-adv-x="620" 
d="M558 301v310h-496v-91h394v-132h-394v-320h501v91h-399v142h394z" />
    <glyph glyph-name="cid178" unicode="&#xffa9;" horiz-adv-x="620" 
d="M558 301v310h-496v-91h394v-132h-394v-320h501v91h-399v142h394z" />
    <glyph glyph-name="cid179" unicode="&#x313a;" horiz-adv-x="620" 
d="M58 522h143v-135h-143v-319h291v89h-191v145h143v309h-243v-89zM562 63v548h-233v-91h131v-457h102z" />
    <glyph glyph-name="cid179" unicode="&#xffaa;" horiz-adv-x="620" 
d="M58 522h143v-135h-143v-319h291v89h-191v145h143v309h-243v-89zM562 63v548h-233v-91h131v-457h102z" />
    <glyph glyph-name="cid180" unicode="&#x313b;" horiz-adv-x="620" 
d="M56 522h132v-135h-132v-319h238v89h-140v145h132v309h-230v-89zM564 68v543h-245v-543h245zM471 524v-369h-58v369h58z" />
    <glyph glyph-name="cid180" unicode="&#xffab;" horiz-adv-x="620" 
d="M56 522h132v-135h-132v-319h238v89h-140v145h132v309h-230v-89zM564 68v543h-245v-543h245zM471 524v-369h-58v369h58z" />
    <glyph glyph-name="cid181" unicode="&#x313c;" horiz-adv-x="620" 
d="M56 522h132v-135h-132v-319h238v89h-140v145h132v309h-230v-89zM413 613h-94v-545h245v545h-93v-184h-58v184zM471 155h-58v189h58v-189z" />
    <glyph glyph-name="cid181" unicode="&#xffac;" horiz-adv-x="620" 
d="M56 522h132v-135h-132v-319h238v89h-140v145h132v309h-230v-89zM413 613h-94v-545h245v545h-93v-184h-58v184zM471 155h-58v189h58v-189z" />
    <glyph glyph-name="cid182" unicode="&#x313d;" horiz-adv-x="620" 
d="M372 68l58 477l55 -477h96l-76 547h-150l-64 -458h-137v145h122v309h-220v-89h122v-135h-122v-319h316z" />
    <glyph glyph-name="cid182" unicode="&#xffad;" horiz-adv-x="620" 
d="M372 68l58 477l55 -477h96l-76 547h-150l-64 -458h-137v145h122v309h-220v-89h122v-135h-122v-319h316z" />
    <glyph glyph-name="cid183" unicode="&#x313e;" horiz-adv-x="620" 
d="M56 522h142v-135h-142v-319h248v89h-150v145h142v309h-240v-89zM554 387h-127v135h137v89h-235v-543h240v89h-142v145h127v85z" />
    <glyph glyph-name="cid183" unicode="&#xffae;" horiz-adv-x="620" 
d="M56 522h142v-135h-142v-319h248v89h-150v145h142v309h-240v-89zM554 387h-127v135h137v89h-235v-543h240v89h-142v145h127v85z" />
    <glyph glyph-name="cid184" unicode="&#x313f;" horiz-adv-x="620" 
d="M56 522h132v-135h-132v-319h238v89h-140v145h132v309h-230v-89zM455 494v-339h-28v339h-92v-339h-23v-87h259v87h-25v339h-91zM569 524v87h-256v-87h256z" />
    <glyph glyph-name="cid184" unicode="&#xffaf;" horiz-adv-x="620" 
d="M56 522h132v-135h-132v-319h238v89h-140v145h132v309h-230v-89zM455 494v-339h-28v339h-92v-339h-23v-87h259v87h-25v339h-91zM569 524v87h-256v-87h256z" />
    <glyph glyph-name="cid185" unicode="&#x3140;" horiz-adv-x="620" 
d="M56 522h122v-135h-122v-319h238v89h-140v145h122v309h-220v-89zM306 479h270v89h-87v83h-100v-83h-83v-89zM318 167q0 -26 10 -46t26.5 -34t39 -21.5t47.5 -7.5t47.5 7.5t39 21.5t26.5 34t10 46v172q0 25 -10 45.5t-26.5 34.5t-39 21.5t-47.5 7.5t-47.5 -7.5t-39 -21.5
t-26.5 -34.5t-10 -45.5v-172zM441 361q14 0 22 -8t8 -23v-154q0 -15 -8 -23t-22 -8q-29 0 -29 31v154q0 31 29 31z" />
    <glyph glyph-name="cid185" unicode="&#xffb0;" horiz-adv-x="620" 
d="M56 522h122v-135h-122v-319h238v89h-140v145h122v309h-220v-89zM306 479h270v89h-87v83h-100v-83h-83v-89zM318 167q0 -26 10 -46t26.5 -34t39 -21.5t47.5 -7.5t47.5 7.5t39 21.5t26.5 34t10 46v172q0 25 -10 45.5t-26.5 34.5t-39 21.5t-47.5 7.5t-47.5 -7.5t-39 -21.5
t-26.5 -34.5t-10 -45.5v-172zM441 361q14 0 22 -8t8 -23v-154q0 -15 -8 -23t-22 -8q-29 0 -29 31v154q0 31 29 31z" />
    <glyph glyph-name="cid186" unicode="&#x3141;" horiz-adv-x="620" 
d="M558 68v543h-496v-543h496zM455 516v-353h-290v353h290z" />
    <glyph glyph-name="cid186" unicode="&#xffb1;" horiz-adv-x="620" 
d="M558 68v543h-496v-543h496zM455 516v-353h-290v353h290z" />
    <glyph glyph-name="cid187" unicode="&#x3142;" horiz-adv-x="620" 
d="M165 613h-103v-545h496v545h-103v-180h-290v180zM455 163h-290v177h290v-177z" />
    <glyph glyph-name="cid187" unicode="&#xffb2;" horiz-adv-x="620" 
d="M165 613h-103v-545h496v545h-103v-180h-290v180zM455 163h-290v177h290v-177z" />
    <glyph glyph-name="cid188" unicode="&#x3143;" horiz-adv-x="620" 
d="M160 613h-101v-545h501v545h-101v-188h-101v186h-97v-186h-101v188zM459 162h-101v171h101v-171zM160 333h101v-171h-101v171z" />
    <glyph glyph-name="cid188" unicode="&#xffb3;" horiz-adv-x="620" 
d="M160 613h-101v-545h501v545h-101v-188h-101v186h-97v-186h-101v188zM459 162h-101v171h101v-171zM160 333h101v-171h-101v171z" />
    <glyph glyph-name="cid189" unicode="&#x3144;" horiz-adv-x="620" 
d="M379 68l55 477l51 -477h96l-72 547h-150l-64 -486v484h-93v-184h-52v184h-94v-545h323zM202 155h-52v189h52v-189z" />
    <glyph glyph-name="cid189" unicode="&#xffb4;" horiz-adv-x="620" 
d="M379 68l55 477l51 -477h96l-72 547h-150l-64 -486v484h-93v-184h-52v184h-94v-545h323zM202 155h-52v189h52v-189z" />
    <glyph glyph-name="cid190" unicode="&#x3145;" horiz-adv-x="620" 
d="M573 68l-195 547h-135l-196 -547h114l149 447l149 -447h114z" />
    <glyph glyph-name="cid190" unicode="&#xffb5;" horiz-adv-x="620" 
d="M573 68l-195 547h-135l-196 -547h114l149 447l149 -447h114z" />
    <glyph glyph-name="cid191" unicode="&#x3146;" horiz-adv-x="620" 
d="M378 68l58 475l42 -475h96l-64 545h-144l-56 -449l-56 449h-144l-64 -545h96l42 475l58 -475h136z" />
    <glyph glyph-name="cid191" unicode="&#xffb6;" horiz-adv-x="620" 
d="M378 68l58 475l42 -475h96l-64 545h-144l-56 -449l-56 449h-144l-64 -545h96l42 475l58 -475h136z" />
    <glyph glyph-name="cid192" unicode="&#x3147;" horiz-adv-x="620" 
d="M558 242q0 -47 -20.5 -83t-55 -61t-79.5 -37.5t-93 -12.5t-93 12.5t-79.5 37.5t-55 61t-20.5 83v195q0 47 20.5 83t55 61t79.5 37.5t93 12.5t93 -12.5t79.5 -37.5t55 -61t20.5 -83v-195zM455 427q0 51 -40 80t-105 29t-105 -29t-40 -80v-175q0 -51 40 -80t105 -29t105 29
t40 80v175z" />
    <glyph glyph-name="cid192" unicode="&#xffb7;" horiz-adv-x="620" 
d="M558 242q0 -47 -20.5 -83t-55 -61t-79.5 -37.5t-93 -12.5t-93 12.5t-79.5 37.5t-55 61t-20.5 83v195q0 47 20.5 83t55 61t79.5 37.5t93 12.5t93 -12.5t79.5 -37.5t55 -61t20.5 -83v-195zM455 427q0 51 -40 80t-105 29t-105 -29t-40 -80v-175q0 -51 40 -80t105 -29t105 29
t40 80v175z" />
    <glyph glyph-name="cid193" unicode="&#x3148;" horiz-adv-x="620" 
d="M560 611h-500v-93h158l-171 -450h115l148 418l148 -418h115l-171 450h158v93z" />
    <glyph glyph-name="cid193" unicode="&#xffb8;" horiz-adv-x="620" 
d="M560 611h-500v-93h158l-171 -450h115l148 418l148 -418h115l-171 450h158v93z" />
    <glyph glyph-name="cid194" unicode="&#x3149;" horiz-adv-x="620" 
d="M378 68l58 442l42 -442h96l-58 452h46v91h-504v-91h46l-58 -452h96l42 442l58 -442h136zM262 520h96l-48 -362z" />
    <glyph glyph-name="cid194" unicode="&#xffb9;" horiz-adv-x="620" 
d="M378 68l58 442l42 -442h96l-58 452h46v91h-504v-91h46l-58 -452h96l42 442l58 -442h136zM262 520h96l-48 -362z" />
    <glyph glyph-name="cid195" unicode="&#x314a;" horiz-adv-x="620" 
d="M60 468h157l-170 -400h115l148 374l148 -374h115l-169 400h156v92h-198v91h-105v-91h-197v-92z" />
    <glyph glyph-name="cid195" unicode="&#xffba;" horiz-adv-x="620" 
d="M60 468h157l-170 -400h115l148 374l148 -374h115l-169 400h156v92h-198v91h-105v-91h-197v-92z" />
    <glyph glyph-name="cid196" unicode="&#x314b;" horiz-adv-x="620" 
d="M558 58v553h-496v-95h391v-158h-397v-94h397v-206h105z" />
    <glyph glyph-name="cid196" unicode="&#xffbb;" horiz-adv-x="620" 
d="M558 58v553h-496v-95h391v-158h-397v-94h397v-206h105z" />
    <glyph glyph-name="cid197" unicode="&#x314c;" horiz-adv-x="620" 
d="M563 160h-399v141h383v88h-383v130h394v92h-496v-543h501v92z" />
    <glyph glyph-name="cid197" unicode="&#xffbc;" horiz-adv-x="620" 
d="M563 160h-399v141h383v88h-383v130h394v92h-496v-543h501v92z" />
    <glyph glyph-name="cid198" unicode="&#x314d;" horiz-adv-x="620" 
d="M376 486v-323h-132v323h-103v-323h-84v-95h506v95h-84v323h-103zM560 516v95h-500v-95h500z" />
    <glyph glyph-name="cid198" unicode="&#xffbd;" horiz-adv-x="620" 
d="M376 486v-323h-132v323h-103v-323h-84v-95h506v95h-84v323h-103zM560 516v95h-500v-95h500z" />
    <glyph glyph-name="cid199" unicode="&#x314e;" horiz-adv-x="620" 
d="M400 58q35 0 64 14.5t50 39.5t32.5 57t11.5 68t-11.5 68t-32.5 57t-50 39.5t-64 14.5h-180q-35 0 -64 -14.5t-50 -39.5t-32.5 -57t-11.5 -68t11.5 -68t32.5 -57t50 -39.5t64 -14.5h180zM164 237q0 40 19.5 63.5t54.5 23.5h144q34 0 54 -23.5t20 -63.5t-20 -63.5
t-54 -23.5h-144q-35 0 -54.5 23.5t-19.5 63.5zM48 478h524v90h-210v83h-105v-83h-209v-90z" />
    <glyph glyph-name="cid199" unicode="&#xffbe;" horiz-adv-x="620" 
d="M400 58q35 0 64 14.5t50 39.5t32.5 57t11.5 68t-11.5 68t-32.5 57t-50 39.5t-64 14.5h-180q-35 0 -64 -14.5t-50 -39.5t-32.5 -57t-11.5 -68t11.5 -68t32.5 -57t50 -39.5t64 -14.5h180zM164 237q0 40 19.5 63.5t54.5 23.5h144q34 0 54 -23.5t20 -63.5t-20 -63.5
t-54 -23.5h-144q-35 0 -54.5 23.5t-19.5 63.5zM48 478h524v90h-210v83h-105v-83h-209v-90z" />
    <glyph glyph-name="cid200" unicode="&#x314f;" horiz-adv-x="620" 
d="M334 773h-104v-864h104v420h166v98h-166v346z" />
    <glyph glyph-name="cid200" unicode="&#xffc2;" horiz-adv-x="620" 
d="M334 773h-104v-864h104v420h166v98h-166v346z" />
    <glyph glyph-name="cid201" unicode="&#x3150;" horiz-adv-x="620" 
d="M236 771h-96v-856h96v415h141v-421h98v864h-98v-347h-141v345z" />
    <glyph glyph-name="cid201" unicode="&#xffc3;" horiz-adv-x="620" 
d="M236 771h-96v-856h96v415h141v-421h98v864h-98v-347h-141v345z" />
    <glyph glyph-name="cid202" unicode="&#x3151;" horiz-adv-x="620" 
d="M334 773h-104v-864h104v236h161v98h-161v232h161v98h-161v200z" />
    <glyph glyph-name="cid202" unicode="&#xffc4;" horiz-adv-x="620" 
d="M334 773h-104v-864h104v236h161v98h-161v232h161v98h-161v200z" />
    <glyph glyph-name="cid203" unicode="&#x3152;" horiz-adv-x="620" 
d="M236 771h-96v-856h96v232h141v-238h98v864h-98v-202h-141v200zM236 477h141v-236h-141v236z" />
    <glyph glyph-name="cid203" unicode="&#xffc5;" horiz-adv-x="620" 
d="M236 771h-96v-856h96v232h141v-238h98v864h-98v-202h-141v200zM236 477h141v-236h-141v236z" />
    <glyph glyph-name="cid204" unicode="&#x3153;" horiz-adv-x="620" 
d="M286 -91h104v864h-104v-346h-166v-98h166v-420z" />
    <glyph glyph-name="cid204" unicode="&#xffc6;" horiz-adv-x="620" 
d="M286 -91h104v864h-104v-346h-166v-98h166v-420z" />
    <glyph glyph-name="cid205" unicode="&#x3154;" horiz-adv-x="620" 
d="M66 329h144v-414h96v856h-96v-344h-144v-98zM495 773h-98v-864h98v864z" />
    <glyph glyph-name="cid205" unicode="&#xffc7;" horiz-adv-x="620" 
d="M66 329h144v-414h96v856h-96v-344h-144v-98zM495 773h-98v-864h98v864z" />
    <glyph glyph-name="cid206" unicode="&#x3155;" horiz-adv-x="620" 
d="M286 -91h104v864h-104v-200h-161v-98h161v-232h-161v-98h161v-236z" />
    <glyph glyph-name="cid206" unicode="&#xffca;" horiz-adv-x="620" 
d="M286 -91h104v864h-104v-200h-161v-98h161v-232h-161v-98h161v-236z" />
    <glyph glyph-name="cid207" unicode="&#x3156;" horiz-adv-x="620" 
d="M306 771h-96v-198h-139v-98h139v-232h-139v-98h139v-230h96v856zM495 773h-98v-864h98v864z" />
    <glyph glyph-name="cid207" unicode="&#xffcb;" horiz-adv-x="620" 
d="M306 771h-96v-198h-139v-98h139v-232h-139v-98h139v-230h96v856zM495 773h-98v-864h98v864z" />
    <glyph glyph-name="cid208" unicode="&#x3157;" horiz-adv-x="620" 
d="M34 57h551v97h-223v387h-105v-387h-223v-97z" />
    <glyph glyph-name="cid208" unicode="&#xffcc;" horiz-adv-x="620" 
d="M34 57h551v97h-223v387h-105v-387h-223v-97z" />
    <glyph glyph-name="cid209" unicode="&#x3158;" horiz-adv-x="620" 
d="M541 773h-104v-864h104v420h73v98h-73v346zM22 57h386v96h-141v388h-104v-388h-141v-96z" />
    <glyph glyph-name="cid209" unicode="&#xffcd;" horiz-adv-x="620" 
d="M541 773h-104v-864h104v420h73v98h-73v346zM22 57h386v96h-141v388h-104v-388h-141v-96z" />
    <glyph glyph-name="cid210" unicode="&#x3159;" horiz-adv-x="620" 
d="M417 771h-96v-618h-100v388h-99v-388h-100v-96h299v-142h96v415h53v-421h98v864h-98v-347h-53v345z" />
    <glyph glyph-name="cid210" unicode="&#xffce;" horiz-adv-x="620" 
d="M417 771h-96v-618h-100v388h-99v-388h-100v-96h299v-142h96v415h53v-421h98v864h-98v-347h-53v345z" />
    <glyph glyph-name="cid211" unicode="&#x315a;" horiz-adv-x="620" 
d="M560 773h-104v-864h104v864zM27 57h395v96h-145v388h-104v-388h-146v-96z" />
    <glyph glyph-name="cid211" unicode="&#xffcf;" horiz-adv-x="620" 
d="M560 773h-104v-864h104v864zM27 57h395v96h-145v388h-104v-388h-146v-96z" />
    <glyph glyph-name="cid212" unicode="&#x315b;" horiz-adv-x="620" 
d="M34 57h551v97h-104v387h-104v-387h-135v387h-104v-387h-104v-97z" />
    <glyph glyph-name="cid212" unicode="&#xffd2;" horiz-adv-x="620" 
d="M34 57h551v97h-104v387h-104v-387h-135v387h-104v-387h-104v-97z" />
    <glyph glyph-name="cid213" unicode="&#x315c;" horiz-adv-x="620" 
d="M34 304h223v-387h105v387h223v97h-551v-97z" />
    <glyph glyph-name="cid213" unicode="&#xffd3;" horiz-adv-x="620" 
d="M34 304h223v-387h105v387h223v97h-551v-97z" />
    <glyph glyph-name="cid214" unicode="&#x315d;" horiz-adv-x="620" 
d="M329 94h127v-185h104v864h-104v-585h-127v-94zM27 305h137v-391h104v391h154v96h-395v-96z" />
    <glyph glyph-name="cid214" unicode="&#xffd4;" horiz-adv-x="620" 
d="M329 94h127v-185h104v864h-104v-585h-127v-94zM27 305h137v-391h104v391h154v96h-395v-96z" />
    <glyph glyph-name="cid215" unicode="&#x315e;" horiz-adv-x="620" 
d="M256 94h75v-179h96v856h-96v-370h-309v-96h93v-391h104v391h112v-117h-75v-94zM568 773h-98v-864h98v864z" />
    <glyph glyph-name="cid215" unicode="&#xffd5;" horiz-adv-x="620" 
d="M256 94h75v-179h96v856h-96v-370h-309v-96h93v-391h104v391h112v-117h-75v-94zM568 773h-98v-864h98v864z" />
    <glyph glyph-name="cid216" unicode="&#x315f;" horiz-adv-x="620" 
d="M560 773h-104v-864h104v864zM27 305h147v-391h104v391h144v96h-395v-96z" />
    <glyph glyph-name="cid216" unicode="&#xffd6;" horiz-adv-x="620" 
d="M560 773h-104v-864h104v864zM27 305h147v-391h104v391h144v96h-395v-96z" />
    <glyph glyph-name="cid217" unicode="&#x3160;" horiz-adv-x="620" 
d="M34 304h95v-387h104v387h153v-387h104v387h95v97h-551v-97z" />
    <glyph glyph-name="cid217" unicode="&#xffd7;" horiz-adv-x="620" 
d="M34 304h95v-387h104v387h153v-387h104v387h95v97h-551v-97z" />
    <glyph glyph-name="cid218" unicode="&#x3161;" horiz-adv-x="620" 
d="M34 57h551v97h-551v-97z" />
    <glyph glyph-name="cid218" unicode="&#xffda;" horiz-adv-x="620" 
d="M34 57h551v97h-551v-97z" />
    <glyph glyph-name="cid219" unicode="&#x3162;" horiz-adv-x="620" 
d="M560 773h-104v-864h104v864zM27 57h395v96h-395v-96z" />
    <glyph glyph-name="cid219" unicode="&#xffdb;" horiz-adv-x="620" 
d="M560 773h-104v-864h104v864zM27 57h395v96h-395v-96z" />
    <glyph glyph-name="cid220" unicode="&#x3163;" horiz-adv-x="620" 
d="M362 773h-104v-864h104v864z" />
    <glyph glyph-name="cid220" unicode="&#xffdc;" horiz-adv-x="620" 
d="M362 773h-104v-864h104v864z" />
    <glyph glyph-name="cid11642" unicode="&#x3251;" horiz-adv-x="620" 
d="M590 554q0 53 -22 96t-60 73t-89 46t-109 16q-59 0 -110 -16t-88.5 -46t-59.5 -73t-22 -96v-446q0 -53 22 -96t59.5 -73t88.5 -46t110 -16q58 0 109 16t89 46t60 73t22 96v446zM540 108q0 -41 -15.5 -74.5t-45.5 -57t-72.5 -36.5t-96.5 -13q-110 0 -170 49.5t-60 131.5
v446q0 82 60 131.5t170 49.5q54 0 96.5 -13t72.5 -36.5t45.5 -57t15.5 -74.5v-446zM241 403l-107 -102v-245h176v68h-107v146l107 102v235h-176v-162h69v94h38v-136zM342 124v-68h169v68h-51v483h-118v-68h49v-415h-49z" />
    <glyph glyph-name="cid11643" unicode="&#x3252;" horiz-adv-x="620" 
d="M590 554q0 53 -22 96t-60 73t-89 46t-109 16q-59 0 -110 -16t-88.5 -46t-59.5 -73t-22 -96v-446q0 -53 22 -96t59.5 -73t88.5 -46t110 -16q58 0 109 16t89 46t60 73t22 96v446zM540 108q0 -41 -15.5 -74.5t-45.5 -57t-72.5 -36.5t-96.5 -13q-110 0 -170 49.5t-60 131.5
v446q0 82 60 131.5t170 49.5q54 0 96.5 -13t72.5 -36.5t45.5 -57t15.5 -74.5v-446zM221 403l-107 -102v-245h176v68h-107v146l107 102v235h-176v-162h69v94h38v-136zM432 403l-107 -102v-245h176v68h-107v146l107 102v235h-176v-162h69v94h38v-136z" />
    <glyph glyph-name="cid11644" unicode="&#x3253;" horiz-adv-x="620" 
d="M590 554q0 53 -22 96t-60 73t-89 46t-109 16q-59 0 -110 -16t-88.5 -46t-59.5 -73t-22 -96v-446q0 -53 22 -96t59.5 -73t88.5 -46t110 -16q58 0 109 16t89 46t60 73t22 96v446zM540 108q0 -41 -15.5 -74.5t-45.5 -57t-72.5 -36.5t-96.5 -13q-110 0 -170 49.5t-60 131.5
v446q0 82 60 131.5t170 49.5q54 0 96.5 -13t72.5 -36.5t45.5 -57t15.5 -74.5v-446zM370 305h72v-181h-63v94h-69v-162h201v317h-30v234h-171v-162h69v94h33v-166h-42v-68zM217 403l-107 -102v-245h176v68h-107v146l107 102v235h-176v-162h69v94h38v-136z" />
    <glyph glyph-name="cid11645" unicode="&#x3254;" horiz-adv-x="620" 
d="M590 554q0 53 -22 96t-60 73t-89 46t-109 16q-59 0 -110 -16t-88.5 -46t-59.5 -73t-22 -96v-446q0 -53 22 -96t59.5 -73t88.5 -46t110 -16q58 0 109 16t89 46t60 73t22 96v446zM540 108q0 -41 -15.5 -74.5t-45.5 -57t-72.5 -36.5t-96.5 -13q-110 0 -170 49.5t-60 131.5
v446q0 82 60 131.5t170 49.5q54 0 96.5 -13t72.5 -36.5t45.5 -57t15.5 -74.5v-446zM224 403l-107 -102v-245h176v68h-107v146l107 102v235h-176v-162h69v94h38v-136zM303 197h115v-141h69v141h36v68h-36v342h-109l-75 -286v-124zM418 510v-245h-48v56z" />
    <glyph glyph-name="cid11646" unicode="&#x3255;" horiz-adv-x="620" 
d="M590 554q0 53 -22 96t-60 73t-89 46t-109 16q-59 0 -110 -16t-88.5 -46t-59.5 -73t-22 -96v-446q0 -53 22 -96t59.5 -73t88.5 -46t110 -16q58 0 109 16t89 46t60 73t22 96v446zM540 108q0 -41 -15.5 -74.5t-45.5 -57t-72.5 -36.5t-96.5 -13q-110 0 -170 49.5t-60 131.5
v446q0 82 60 131.5t170 49.5q54 0 96.5 -13t72.5 -36.5t45.5 -57t15.5 -74.5v-446zM319 218v-162h185v317h-116v166h80v68h-149v-302h116v-181h-47v94h-69zM224 403l-107 -102v-245h176v68h-107v146l107 102v235h-176v-162h69v94h38v-136z" />
    <glyph glyph-name="cid11647" unicode="&#x3256;" horiz-adv-x="620" 
d="M590 554q0 53 -22 96t-60 73t-89 46t-109 16q-59 0 -110 -16t-88.5 -46t-59.5 -73t-22 -96v-446q0 -53 22 -96t59.5 -73t88.5 -46t110 -16q58 0 109 16t89 46t60 73t22 96v446zM540 108q0 -41 -15.5 -74.5t-45.5 -57t-72.5 -36.5t-96.5 -13q-110 0 -170 49.5t-60 131.5
v446q0 82 60 131.5t170 49.5q54 0 96.5 -13t72.5 -36.5t45.5 -57t15.5 -74.5v-446zM319 607v-551h185v317h-116v166h80v68h-149zM224 403l-107 -102v-245h176v68h-107v146l107 102v235h-176v-162h69v94h38v-136zM435 305v-181h-47v181h47z" />
    <glyph glyph-name="cid11648" unicode="&#x3257;" horiz-adv-x="620" 
d="M590 554q0 53 -22 96t-60 73t-89 46t-109 16q-59 0 -110 -16t-88.5 -46t-59.5 -73t-22 -96v-446q0 -53 22 -96t59.5 -73t88.5 -46t110 -16q58 0 109 16t89 46t60 73t22 96v446zM540 108q0 -41 -15.5 -74.5t-45.5 -57t-72.5 -36.5t-96.5 -13q-110 0 -170 49.5t-60 131.5
v446q0 82 60 131.5t170 49.5q54 0 96.5 -13t72.5 -36.5t45.5 -57t15.5 -74.5v-446zM224 403l-107 -102v-245h176v68h-107v146l107 102v235h-176v-162h69v94h38v-136zM436 403l-70 -79v-268h68v247l70 79v225h-189v-162h68v94h53v-136z" />
    <glyph glyph-name="cid11649" unicode="&#x3258;" horiz-adv-x="620" 
d="M590 554q0 53 -22 96t-60 73t-89 46t-109 16q-59 0 -110 -16t-88.5 -46t-59.5 -73t-22 -96v-446q0 -53 22 -96t59.5 -73t88.5 -46t110 -16q58 0 109 16t89 46t60 73t22 96v446zM540 108q0 -41 -15.5 -74.5t-45.5 -57t-72.5 -36.5t-96.5 -13q-110 0 -170 49.5t-60 131.5
v446q0 82 60 131.5t170 49.5q54 0 96.5 -13t72.5 -36.5t45.5 -57t15.5 -74.5v-446zM508 56v551h-171v-244h-32v-307h203zM218 403l-107 -102v-245h176v68h-107v146l107 102v235h-176v-162h69v94h38v-136zM374 295h65v-171h-65v171zM439 539v-176h-33v176h33z" />
    <glyph glyph-name="cid11650" unicode="&#x3259;" horiz-adv-x="620" 
d="M590 554q0 53 -22 96t-60 73t-89 46t-109 16q-59 0 -110 -16t-88.5 -46t-59.5 -73t-22 -96v-446q0 -53 22 -96t59.5 -73t88.5 -46t110 -16q58 0 109 16t89 46t60 73t22 96v446zM540 108q0 -41 -15.5 -74.5t-45.5 -57t-72.5 -36.5t-96.5 -13q-110 0 -170 49.5t-60 131.5
v446q0 82 60 131.5t170 49.5q54 0 96.5 -13t72.5 -36.5t45.5 -57t15.5 -74.5v-446zM503 607h-184v-312h115v-171h-78v-68h147v551zM223 403l-107 -102v-245h176v68h-107v146l107 102v235h-176v-162h69v94h38v-136zM388 539h46v-176h-46v176z" />
    <glyph glyph-name="cid11651" unicode="&#x325a;" horiz-adv-x="620" 
d="M590 554q0 53 -22 96t-60 73t-89 46t-109 16q-59 0 -110 -16t-88.5 -46t-59.5 -73t-22 -96v-446q0 -53 22 -96t59.5 -73t88.5 -46t110 -16q58 0 109 16t89 46t60 73t22 96v446zM540 108q0 -41 -15.5 -74.5t-45.5 -57t-72.5 -36.5t-96.5 -13q-110 0 -170 49.5t-60 131.5
v446q0 82 60 131.5t170 49.5q54 0 96.5 -13t72.5 -36.5t45.5 -57t15.5 -74.5v-446zM507 607h-179v-551h179v551zM174 305h61v-181h-52v94h-69v-162h190v317h-26v234h-164v-162h69v94h26v-166h-35v-68zM438 539v-133l-41 -48v181h41zM397 124v132l41 48v-180h-41z" />
    <glyph glyph-name="cid11652" unicode="&#x325b;" horiz-adv-x="620" 
d="M590 554q0 53 -22 96t-60 73t-89 46t-109 16q-59 0 -110 -16t-88.5 -46t-59.5 -73t-22 -96v-446q0 -53 22 -96t59.5 -73t88.5 -46t110 -16q58 0 109 16t89 46t60 73t22 96v446zM540 108q0 -41 -15.5 -74.5t-45.5 -57t-72.5 -36.5t-96.5 -13q-110 0 -170 49.5t-60 131.5
v446q0 82 60 131.5t170 49.5q54 0 96.5 -13t72.5 -36.5t45.5 -57t15.5 -74.5v-446zM189 305h71v-181h-62v94h-69v-162h377v68h-51v483h-118v-68h49v-415h-57v249h-36v234h-164v-162h69v94h26v-166h-35v-68z" />
    <glyph glyph-name="cid11653" unicode="&#x325c;" horiz-adv-x="620" 
d="M590 554q0 53 -22 96t-60 73t-89 46t-109 16q-59 0 -110 -16t-88.5 -46t-59.5 -73t-22 -96v-446q0 -53 22 -96t59.5 -73t88.5 -46t110 -16q58 0 109 16t89 46t60 73t22 96v446zM540 108q0 -41 -15.5 -74.5t-45.5 -57t-72.5 -36.5t-96.5 -13q-110 0 -170 49.5t-60 131.5
v446q0 82 60 131.5t170 49.5q54 0 96.5 -13t72.5 -36.5t45.5 -57t15.5 -74.5v-446zM175 305h61v-181h-52v94h-69v-162h190v317h-26v234h-164v-162h69v94h26v-166h-35v-68zM436 403l-107 -102v-245h176v68h-107v146l107 102v235h-176v-162h69v94h38v-136z" />
    <glyph glyph-name="cid11654" unicode="&#x325d;" horiz-adv-x="620" 
d="M590 554q0 53 -22 96t-60 73t-89 46t-109 16q-59 0 -110 -16t-88.5 -46t-59.5 -73t-22 -96v-446q0 -53 22 -96t59.5 -73t88.5 -46t110 -16q58 0 109 16t89 46t60 73t22 96v446zM540 108q0 -41 -15.5 -74.5t-45.5 -57t-72.5 -36.5t-96.5 -13q-110 0 -170 49.5t-60 131.5
v446q0 82 60 131.5t170 49.5q54 0 96.5 -13t72.5 -36.5t45.5 -57t15.5 -74.5v-446zM381 305h61v-181h-52v94h-69v-162h190v317h-26v234h-164v-162h69v94h26v-166h-35v-68zM169 305h61v-181h-52v94h-69v-162h190v317h-26v234h-164v-162h69v94h26v-166h-35v-68z" />
    <glyph glyph-name="cid11655" unicode="&#x325e;" horiz-adv-x="620" 
d="M590 554q0 53 -22 96t-60 73t-89 46t-109 16q-59 0 -110 -16t-88.5 -46t-59.5 -73t-22 -96v-446q0 -53 22 -96t59.5 -73t88.5 -46t110 -16q58 0 109 16t89 46t60 73t22 96v446zM540 108q0 -41 -15.5 -74.5t-45.5 -57t-72.5 -36.5t-96.5 -13q-110 0 -170 49.5t-60 131.5
v446q0 82 60 131.5t170 49.5q54 0 96.5 -13t72.5 -36.5t45.5 -57t15.5 -74.5v-446zM318 197h105v-141h68v141h29v68h-29v342h-108l-65 -286v-124zM169 305h61v-181h-52v94h-69v-162h190v317h-26v234h-164v-162h69v94h26v-166h-35v-68zM423 510v-245h-39v56z" />
    <glyph glyph-name="cid11656" unicode="&#x325f;" horiz-adv-x="620" 
d="M590 554q0 53 -22 96t-60 73t-89 46t-109 16q-59 0 -110 -16t-88.5 -46t-59.5 -73t-22 -96v-446q0 -53 22 -96t59.5 -73t88.5 -46t110 -16q58 0 109 16t89 46t60 73t22 96v446zM540 108q0 -41 -15.5 -74.5t-45.5 -57t-72.5 -36.5t-96.5 -13q-110 0 -170 49.5t-60 131.5
v446q0 82 60 131.5t170 49.5q54 0 96.5 -13t72.5 -36.5t45.5 -57t15.5 -74.5v-446zM174 305h61v-181h-52v94h-69v-162h190v317h-26v234h-164v-162h69v94h26v-166h-35v-68zM328 218v-162h179v317h-110v166h74v68h-143v-302h110v-181h-41v94h-69z" />
    <glyph glyph-name="cid11657" unicode="&#x3260;" horiz-adv-x="620" 
d="M483 133v387h-351v-68h277v-319h74zM590 554q0 53 -22 96t-60 73t-89 46t-109 16q-59 0 -110 -16t-88.5 -46t-59.5 -73t-22 -96v-446q0 -53 22 -96t59.5 -73t88.5 -46t110 -16q58 0 109 16t89 46t60 73t22 96v446zM540 108q0 -41 -15.5 -74.5t-45.5 -57t-72.5 -36.5
t-96.5 -13q-110 0 -170 49.5t-60 131.5v446q0 82 60 131.5t170 49.5q54 0 96.5 -13t72.5 -36.5t45.5 -57t15.5 -74.5v-446z" />
    <glyph glyph-name="cid11658" unicode="&#x3261;" horiz-adv-x="620" 
d="M137 526v-384h351v68h-277v316h-74zM590 554q0 53 -22 96t-60 73t-89 46t-109 16q-59 0 -110 -16t-88.5 -46t-59.5 -73t-22 -96v-446q0 -53 22 -96t59.5 -73t88.5 -46t110 -16q58 0 109 16t89 46t60 73t22 96v446zM540 108q0 -41 -15.5 -74.5t-45.5 -57t-72.5 -36.5
t-96.5 -13q-110 0 -170 49.5t-60 131.5v446q0 82 60 131.5t170 49.5q54 0 96.5 -13t72.5 -36.5t45.5 -57t15.5 -74.5v-446z" />
    <glyph glyph-name="cid11659" unicode="&#x3262;" horiz-adv-x="620" 
d="M488 209h-279v245h275v68h-347v-381h351v68zM590 554q0 53 -22 96t-60 73t-89 46t-109 16q-59 0 -110 -16t-88.5 -46t-59.5 -73t-22 -96v-446q0 -53 22 -96t59.5 -73t88.5 -46t110 -16q58 0 109 16t89 46t60 73t22 96v446zM540 108q0 -41 -15.5 -74.5t-45.5 -57
t-72.5 -36.5t-96.5 -13q-110 0 -170 49.5t-60 131.5v446q0 82 60 131.5t170 49.5q54 0 96.5 -13t72.5 -36.5t45.5 -57t15.5 -74.5v-446z" />
    <glyph glyph-name="cid11660" unicode="&#x3263;" horiz-adv-x="620" 
d="M484 305v217h-347v-64h276v-93h-276v-224h351v64h-279v100h275zM590 554q0 53 -22 96t-60 73t-89 46t-109 16q-59 0 -110 -16t-88.5 -46t-59.5 -73t-22 -96v-446q0 -53 22 -96t59.5 -73t88.5 -46t110 -16q58 0 109 16t89 46t60 73t22 96v446zM540 108q0 -41 -15.5 -74.5
t-45.5 -57t-72.5 -36.5t-96.5 -13q-110 0 -170 49.5t-60 131.5v446q0 82 60 131.5t170 49.5q54 0 96.5 -13t72.5 -36.5t45.5 -57t15.5 -74.5v-446z" />
    <glyph glyph-name="cid11661" unicode="&#x3264;" horiz-adv-x="620" 
d="M484 141v381h-348v-381h348zM411 455v-247h-203v247h203zM590 554q0 53 -22 96t-60 73t-89 46t-109 16q-59 0 -110 -16t-88.5 -46t-59.5 -73t-22 -96v-446q0 -53 22 -96t59.5 -73t88.5 -46t110 -16q58 0 109 16t89 46t60 73t22 96v446zM540 108q0 -41 -15.5 -74.5
t-45.5 -57t-72.5 -36.5t-96.5 -13q-110 0 -170 49.5t-60 131.5v446q0 82 60 131.5t170 49.5q54 0 96.5 -13t72.5 -36.5t45.5 -57t15.5 -74.5v-446z" />
    <glyph glyph-name="cid11662" unicode="&#x3265;" horiz-adv-x="620" 
d="M208 523h-72v-381h348v381h-73v-126h-203v126zM411 208h-203v124h203v-124zM590 554q0 53 -22 96t-60 73t-89 46t-109 16q-59 0 -110 -16t-88.5 -46t-59.5 -73t-22 -96v-446q0 -53 22 -96t59.5 -73t88.5 -46t110 -16q58 0 109 16t89 46t60 73t22 96v446zM540 108
q0 -41 -15.5 -74.5t-45.5 -57t-72.5 -36.5t-96.5 -13q-110 0 -170 49.5t-60 131.5v446q0 82 60 131.5t170 49.5q54 0 96.5 -13t72.5 -36.5t45.5 -57t15.5 -74.5v-446z" />
    <glyph glyph-name="cid11663" unicode="&#x3266;" horiz-adv-x="620" 
d="M494 142l-136 383h-95l-137 -383h80l104 313l104 -313h80zM590 554q0 53 -22 96t-60 73t-89 46t-109 16q-59 0 -110 -16t-88.5 -46t-59.5 -73t-22 -96v-446q0 -53 22 -96t59.5 -73t88.5 -46t110 -16q58 0 109 16t89 46t60 73t22 96v446zM540 108q0 -41 -15.5 -74.5
t-45.5 -57t-72.5 -36.5t-96.5 -13q-110 0 -170 49.5t-60 131.5v446q0 82 60 131.5t170 49.5q54 0 96.5 -13t72.5 -36.5t45.5 -57t15.5 -74.5v-446z" />
    <glyph glyph-name="cid11664" unicode="&#x3267;" horiz-adv-x="620" 
d="M484 263q0 -33 -14.5 -58t-38.5 -42.5t-55.5 -26.5t-65.5 -9t-65.5 9t-55.5 26.5t-38.5 42.5t-14.5 58v137q0 33 14.5 58t38.5 42.5t55.5 26.5t65.5 9t65.5 -9t55.5 -26.5t38.5 -42.5t14.5 -58v-137zM411 393q0 35 -28 55.5t-73 20.5t-73.5 -20.5t-28.5 -55.5v-123
q0 -35 28.5 -55.5t73.5 -20.5t73 20.5t28 55.5v123zM590 108q0 -53 -22 -96t-60 -73t-89 -46t-109 -16q-59 0 -110 16t-88.5 46t-59.5 73t-22 96v446q0 53 22 96t59.5 73t88.5 46t110 16q58 0 109 -16t89 -46t60 -73t22 -96v-446zM540 554q0 41 -15.5 74.5t-45.5 57
t-72.5 36.5t-96.5 13q-110 0 -170 -49.5t-60 -131.5v-446q0 -82 60 -131.5t170 -49.5q54 0 96.5 13t72.5 36.5t45.5 57t15.5 74.5v446z" />
    <glyph glyph-name="cid11665" unicode="&#x3268;" horiz-adv-x="620" 
d="M590 554q0 53 -22 96t-60 73t-89 46t-109 16q-59 0 -110 -16t-88.5 -46t-59.5 -73t-22 -96v-446q0 -53 22 -96t59.5 -73t88.5 -46t110 -16q58 0 109 16t89 46t60 73t22 96v446zM540 108q0 -41 -15.5 -74.5t-45.5 -57t-72.5 -36.5t-96.5 -13q-110 0 -170 49.5t-60 131.5
v446q0 82 60 131.5t170 49.5q54 0 96.5 -13t72.5 -36.5t45.5 -57t15.5 -74.5v-446zM485 522h-350v-66h111l-120 -315h80l104 293l104 -293h80l-120 315h111v66z" />
    <glyph glyph-name="cid11666" unicode="&#x3269;" horiz-adv-x="620" 
d="M590 554q0 53 -22 96t-60 73t-89 46t-109 16q-59 0 -110 -16t-88.5 -46t-59.5 -73t-22 -96v-446q0 -53 22 -96t59.5 -73t88.5 -46t110 -16q58 0 109 16t89 46t60 73t22 96v446zM540 108q0 -41 -15.5 -74.5t-45.5 -57t-72.5 -36.5t-96.5 -13q-110 0 -170 49.5t-60 131.5
v446q0 82 60 131.5t170 49.5q54 0 96.5 -13t72.5 -36.5t45.5 -57t15.5 -74.5v-446zM135 427h110l-119 -280h80l104 262l104 -262h80l-118 280h109v65h-139v64h-73v-64h-138v-65z" />
    <glyph glyph-name="cid11667" unicode="&#x326a;" horiz-adv-x="620" 
d="M590 554q0 53 -22 96t-60 73t-89 46t-109 16q-59 0 -110 -16t-88.5 -46t-59.5 -73t-22 -96v-446q0 -53 22 -96t59.5 -73t88.5 -46t110 -16q58 0 109 16t89 46t60 73t22 96v446zM540 108q0 -41 -15.5 -74.5t-45.5 -57t-72.5 -36.5t-96.5 -13q-110 0 -170 49.5t-60 131.5
v446q0 82 60 131.5t170 49.5q54 0 96.5 -13t72.5 -36.5t45.5 -57t15.5 -74.5v-446zM483 133v387h-348v-66h274v-111h-278v-66h278v-144h74z" />
    <glyph glyph-name="cid11668" unicode="&#x326b;" horiz-adv-x="620" 
d="M488 206h-279v99h268v61h-268v91h275v65h-347v-381h351v65zM590 554q0 53 -22 96t-60 73t-89 46t-109 16q-59 0 -110 -16t-88.5 -46t-59.5 -73t-22 -96v-446q0 -53 22 -96t59.5 -73t88.5 -46t110 -16q58 0 109 16t89 46t60 73t22 96v446zM540 108q0 -41 -15.5 -74.5
t-45.5 -57t-72.5 -36.5t-96.5 -13q-110 0 -170 49.5t-60 131.5v446q0 82 60 131.5t170 49.5q54 0 96.5 -13t72.5 -36.5t45.5 -57t15.5 -74.5v-446z" />
    <glyph glyph-name="cid11669" unicode="&#x326c;" horiz-adv-x="620" 
d="M356 434v-226h-92v226h-72v-226h-59v-67h354v67h-59v226h-72zM485 455v67h-350v-67h350zM590 554q0 53 -22 96t-60 73t-89 46t-109 16q-59 0 -110 -16t-88.5 -46t-59.5 -73t-22 -96v-446q0 -53 22 -96t59.5 -73t88.5 -46t110 -16q58 0 109 16t89 46t60 73t22 96v446z
M540 108q0 -41 -15.5 -74.5t-45.5 -57t-72.5 -36.5t-96.5 -13q-110 0 -170 49.5t-60 131.5v446q0 82 60 131.5t170 49.5q54 0 96.5 -13t72.5 -36.5t45.5 -57t15.5 -74.5v-446z" />
    <glyph glyph-name="cid11670" unicode="&#x326d;" horiz-adv-x="620" 
d="M373 139q25 0 45.5 10t35 27.5t22.5 40t8 47.5t-8 48t-22.5 40t-35 27.5t-45.5 10.5h-126q-25 0 -45.5 -10.5t-35 -27.5t-22.5 -40t-8 -48t8 -47.5t22.5 -40t35 -27.5t45.5 -10h126zM208 264q0 28 13.5 44.5t38.5 16.5h100q24 0 38 -16.5t14 -44.5t-14 -44.5t-38 -16.5
h-100q-25 0 -38.5 16.5t-13.5 44.5zM127 433h366v63h-147v58h-73v-58h-146v-63zM590 554q0 53 -22 96t-60 73t-89 46t-109 16q-59 0 -110 -16t-88.5 -46t-59.5 -73t-22 -96v-446q0 -53 22 -96t59.5 -73t88.5 -46t110 -16q58 0 109 16t89 46t60 73t22 96v446zM540 108
q0 -41 -15.5 -74.5t-45.5 -57t-72.5 -36.5t-96.5 -13q-110 0 -170 49.5t-60 131.5v446q0 82 60 131.5t170 49.5q54 0 96.5 -13t72.5 -36.5t45.5 -57t15.5 -74.5v-446z" />
    <glyph glyph-name="cid11671" unicode="&#x326e;" horiz-adv-x="620" 
d="M590 554q0 53 -22 96t-60 73t-89 46t-109 16q-59 0 -110 -16t-88.5 -46t-59.5 -73t-22 -96v-446q0 -53 22 -96t59.5 -73t88.5 -46t110 -16q58 0 109 16t89 46t60 73t22 96v446zM540 108q0 -41 -15.5 -74.5t-45.5 -57t-72.5 -36.5t-96.5 -13q-110 0 -170 49.5t-60 131.5
v446q0 82 60 131.5t170 49.5q54 0 96.5 -13t72.5 -36.5t45.5 -57t15.5 -74.5v-446zM125 561h161l-169 -518h76l168 518v65h-236v-65zM475 635h-73v-604h73v294h51v68h-51v242z" />
    <glyph glyph-name="cid11672" unicode="&#x326f;" horiz-adv-x="620" 
d="M590 554q0 53 -22 96t-60 73t-89 46t-109 16q-59 0 -110 -16t-88.5 -46t-59.5 -73t-22 -96v-446q0 -53 22 -96t59.5 -73t88.5 -46t110 -16q58 0 109 16t89 46t60 73t22 96v446zM540 108q0 -41 -15.5 -74.5t-45.5 -57t-72.5 -36.5t-96.5 -13q-110 0 -170 49.5t-60 131.5
v446q0 82 60 131.5t170 49.5q54 0 96.5 -13t72.5 -36.5t45.5 -57t15.5 -74.5v-446zM127 626v-576h253v67h-180v509h-73zM477 635h-73v-604h73v294h51v68h-51v242z" />
    <glyph glyph-name="cid11673" unicode="&#x3270;" horiz-adv-x="620" 
d="M590 554q0 53 -22 96t-60 73t-89 46t-109 16q-59 0 -110 -16t-88.5 -46t-59.5 -73t-22 -96v-446q0 -53 22 -96t59.5 -73t88.5 -46t110 -16q58 0 109 16t89 46t60 73t22 96v446zM540 108q0 -41 -15.5 -74.5t-45.5 -57t-72.5 -36.5t-96.5 -13q-110 0 -170 49.5t-60 131.5
v446q0 82 60 131.5t170 49.5q54 0 96.5 -13t72.5 -36.5t45.5 -57t15.5 -74.5v-446zM376 117h-176v441h160v68h-233v-576h249v67zM477 635h-73v-604h73v294h51v68h-51v242z" />
    <glyph glyph-name="cid11674" unicode="&#x3271;" horiz-adv-x="620" 
d="M590 554q0 53 -22 96t-60 73t-89 46t-109 16q-59 0 -110 -16t-88.5 -46t-59.5 -73t-22 -96v-446q0 -53 22 -96t59.5 -73t88.5 -46t110 -16q58 0 109 16t89 46t60 73t22 96v446zM540 108q0 -41 -15.5 -74.5t-45.5 -57t-72.5 -36.5t-96.5 -13q-110 0 -170 49.5t-60 131.5
v446q0 82 60 131.5t170 49.5q54 0 96.5 -13t72.5 -36.5t45.5 -57t15.5 -74.5v-446zM356 314v312h-229v-66h157v-183h-157v-327h249v66h-178v198h158zM477 635h-73v-604h73v294h51v68h-51v242z" />
    <glyph glyph-name="cid11675" unicode="&#x3272;" horiz-adv-x="620" 
d="M590 554q0 53 -22 96t-60 73t-89 46t-109 16q-59 0 -110 -16t-88.5 -46t-59.5 -73t-22 -96v-446q0 -53 22 -96t59.5 -73t88.5 -46t110 -16q58 0 109 16t89 46t60 73t22 96v446zM540 108q0 -41 -15.5 -74.5t-45.5 -57t-72.5 -36.5t-96.5 -13q-110 0 -170 49.5t-60 131.5
v446q0 82 60 131.5t170 49.5q54 0 96.5 -13t72.5 -36.5t45.5 -57t15.5 -74.5v-446zM356 50v576h-229v-576h229zM477 635h-73v-604h73v294h51v68h-51v242zM284 560v-444h-86v444h86z" />
    <glyph glyph-name="cid11676" unicode="&#x3273;" horiz-adv-x="620" 
d="M590 554q0 53 -22 96t-60 73t-89 46t-109 16q-59 0 -110 -16t-88.5 -46t-59.5 -73t-22 -96v-446q0 -53 22 -96t59.5 -73t88.5 -46t110 -16q58 0 109 16t89 46t60 73t22 96v446zM540 108q0 -41 -15.5 -74.5t-45.5 -57t-72.5 -36.5t-96.5 -13q-110 0 -170 49.5t-60 131.5
v446q0 82 60 131.5t170 49.5q54 0 96.5 -13t72.5 -36.5t45.5 -57t15.5 -74.5v-446zM198 627h-71v-577h229v577h-72v-209h-86v209zM477 635h-73v-604h73v294h51v68h-51v242zM284 116h-86v237h86v-237z" />
    <glyph glyph-name="cid11677" unicode="&#x3274;" horiz-adv-x="620" 
d="M590 554q0 53 -22 96t-60 73t-89 46t-109 16q-59 0 -110 -16t-88.5 -46t-59.5 -73t-22 -96v-446q0 -53 22 -96t59.5 -73t88.5 -46t110 -16q58 0 109 16t89 46t60 73t22 96v446zM540 108q0 -41 -15.5 -74.5t-45.5 -57t-72.5 -36.5t-96.5 -13q-110 0 -170 49.5t-60 131.5
v446q0 82 60 131.5t170 49.5q54 0 96.5 -13t72.5 -36.5t45.5 -57t15.5 -74.5v-446zM372 50l-74 579h-108l-73 -579h70l57 509l57 -509h71zM475 635h-73v-604h73v294h51v68h-51v242z" />
    <glyph glyph-name="cid11678" unicode="&#x3275;" horiz-adv-x="620" 
d="M590 554q0 53 -22 96t-60 73t-89 46t-109 16q-59 0 -110 -16t-88.5 -46t-59.5 -73t-22 -96v-446q0 -53 22 -96t59.5 -73t88.5 -46t110 -16q58 0 109 16t89 46t60 73t22 96v446zM540 108q0 -41 -15.5 -74.5t-45.5 -57t-72.5 -36.5t-96.5 -13q-110 0 -170 49.5t-60 131.5
v446q0 82 60 131.5t170 49.5q54 0 96.5 -13t72.5 -36.5t45.5 -57t15.5 -74.5v-446zM356 532q0 24 -9 42.5t-25 32t-36.5 20.5t-44.5 7t-44.5 -7t-36.5 -20.5t-25 -32t-9 -42.5v-388q0 -24 9 -42.5t25 -32t36.5 -20.5t44.5 -7t44.5 7t36.5 20.5t25 32t9 42.5v388zM477 635
h-73v-604h73v294h51v68h-51v242zM284 150q0 -20 -11.5 -31t-31.5 -11t-32 11t-12 31v375q0 20 12 31.5t32 11.5t31.5 -11.5t11.5 -31.5v-375z" />
    <glyph glyph-name="cid11679" unicode="&#x3276;" horiz-adv-x="620" 
d="M590 554q0 53 -22 96t-60 73t-89 46t-109 16q-59 0 -110 -16t-88.5 -46t-59.5 -73t-22 -96v-446q0 -53 22 -96t59.5 -73t88.5 -46t110 -16q58 0 109 16t89 46t60 73t22 96v446zM540 108q0 -41 -15.5 -74.5t-45.5 -57t-72.5 -36.5t-96.5 -13q-110 0 -170 49.5t-60 131.5
v446q0 82 60 131.5t170 49.5q54 0 96.5 -13t72.5 -36.5t45.5 -57t15.5 -74.5v-446zM372 50l-67 510h60v66h-242v-66h60l-66 -510h70l57 489l58 -489h70zM475 635h-73v-604h73v294h51v68h-51v242z" />
    <glyph glyph-name="cid11680" unicode="&#x3277;" horiz-adv-x="620" 
d="M590 554q0 53 -22 96t-60 73t-89 46t-109 16q-59 0 -110 -16t-88.5 -46t-59.5 -73t-22 -96v-446q0 -53 22 -96t59.5 -73t88.5 -46t110 -16q58 0 109 16t89 46t60 73t22 96v446zM540 108q0 -41 -15.5 -74.5t-45.5 -57t-72.5 -36.5t-96.5 -13q-110 0 -170 49.5t-60 131.5
v446q0 82 60 131.5t170 49.5q54 0 96.5 -13t72.5 -36.5t45.5 -57t15.5 -74.5v-446zM372 53l-67 484h60v64h-84v51h-73v-51h-85v-64h60l-66 -484h70l57 470l58 -470h70zM475 638h-73v-604h73v287h51v68h-51v249z" />
    <glyph glyph-name="cid11681" unicode="&#x3278;" horiz-adv-x="620" 
d="M590 554q0 53 -22 96t-60 73t-89 46t-109 16q-59 0 -110 -16t-88.5 -46t-59.5 -73t-22 -96v-446q0 -53 22 -96t59.5 -73t88.5 -46t110 -16q58 0 109 16t89 46t60 73t22 96v446zM540 108q0 -41 -15.5 -74.5t-45.5 -57t-72.5 -36.5t-96.5 -13q-110 0 -170 49.5t-60 131.5
v446q0 82 60 131.5t170 49.5q54 0 96.5 -13t72.5 -36.5t45.5 -57t15.5 -74.5v-446zM130 561h158l-47 -148h-119v-63h99l-96 -307h75l162 518v65h-232v-65zM476 635h-73v-604h73v294h51v68h-51v242z" />
    <glyph glyph-name="cid11682" unicode="&#x3279;" horiz-adv-x="620" 
d="M590 554q0 53 -22 96t-60 73t-89 46t-109 16q-59 0 -110 -16t-88.5 -46t-59.5 -73t-22 -96v-446q0 -53 22 -96t59.5 -73t88.5 -46t110 -16q58 0 109 16t89 46t60 73t22 96v446zM540 108q0 -41 -15.5 -74.5t-45.5 -57t-72.5 -36.5t-96.5 -13q-110 0 -170 49.5t-60 131.5
v446q0 82 60 131.5t170 49.5q54 0 96.5 -13t72.5 -36.5t45.5 -57t15.5 -74.5v-446zM376 116h-178v198h154v63h-154v183h162v66h-233v-576h249v66zM477 635h-73v-604h73v294h51v68h-51v242z" />
    <glyph glyph-name="cid11683" unicode="&#x327a;" horiz-adv-x="620" 
d="M590 554q0 53 -22 96t-60 73t-89 46t-109 16q-59 0 -110 -16t-88.5 -46t-59.5 -73t-22 -96v-446q0 -53 22 -96t59.5 -73t88.5 -46t110 -16q58 0 109 16t89 46t60 73t22 96v446zM540 108q0 -41 -15.5 -74.5t-45.5 -57t-72.5 -36.5t-96.5 -13q-110 0 -170 49.5t-60 131.5
v446q0 82 60 131.5t170 49.5q54 0 96.5 -13t72.5 -36.5t45.5 -57t15.5 -74.5v-446zM378 50v66h-41v423h-72v-423h-44v423h-71v-423h-33v-66h261zM475 635h-73v-604h73v294h51v68h-51v242zM369 560v66h-252v-66h252z" />
    <glyph glyph-name="cid11684" unicode="&#x327b;" horiz-adv-x="620" 
d="M590 554q0 53 -22 96t-60 73t-89 46t-109 16q-59 0 -110 -16t-88.5 -46t-59.5 -73t-22 -96v-446q0 -53 22 -96t59.5 -73t88.5 -46t110 -16q58 0 109 16t89 46t60 73t22 96v446zM540 108q0 -41 -15.5 -74.5t-45.5 -57t-72.5 -36.5t-96.5 -13q-110 0 -170 49.5t-60 131.5
v446q0 82 60 131.5t170 49.5q54 0 96.5 -13t72.5 -36.5t45.5 -57t15.5 -74.5v-446zM352 414q0 48 -33 75t-81 27t-81 -27t-33 -75v-268q0 -24 9 -42.5t24.5 -31.5t36 -20t44.5 -7t44.5 7t36 20t24.5 31.5t9 42.5v268zM474 638h-73v-604h73v287h51v68h-51v249zM281 151
q0 -20 -11.5 -31t-31.5 -11t-31.5 11t-11.5 31v258q0 20 11.5 31t31.5 11t31.5 -11t11.5 -31v-258zM109 537h258v64h-93v51h-73v-51h-92v-64z" />
    <glyph glyph-name="cid11687" unicode="&#x327e;" horiz-adv-x="982" 
d="M271 207h178v-230h84v230h179v77h-441v-77zM563 352q29 0 53.5 13t42.5 34.5t28 50t10 59.5t-10 59.5t-28 50t-42.5 34.5t-53.5 13h-143q-30 0 -54.5 -13t-42.5 -34.5t-28 -50t-10 -59.5t10 -59.5t28 -50t42.5 -34.5t54.5 -13h143zM367 509q0 37 17 59.5t46 22.5h123
q29 0 46 -22.5t17 -59.5t-17 -59.5t-46 -22.5h-123q-29 0 -46 22.5t-17 59.5zM491 785q-95 0 -177.5 -35t-143 -96t-95.5 -144t-35 -179t34.5 -178.5t95.5 -144t143 -96.5t178 -35q94 0 176.5 35t143.5 96.5t96 144t35 178.5t-35 179t-96 144t-143.5 96t-176.5 35zM491 -75
q-83 0 -156 31.5t-127.5 86.5t-86 129t-31.5 159t31.5 159t86 128.5t127.5 86t156 31.5t156 -31t127.5 -86t86 -129t31.5 -159q0 -86 -31.5 -160t-86 -129t-127.5 -86t-156 -31z" />
    <glyph glyph-name="cid11688" unicode="&#x327f;" horiz-adv-x="950" 
d="M424 363h-2v244h-77v-551h77v231h138v-231h77v307h-127l125 244h-87zM942 363h-236v-56h185q-5 -81 -37.5 -151t-86.5 -121.5t-125 -80.5t-151 -29q-71 0 -134.5 23t-114.5 63.5t-87.5 97t-52.5 122.5h-51q16 -77 56 -142t98 -112t130.5 -73.5t155.5 -26.5q94 0 176.5 35
t143.5 96.5t96 144t35 178.5v32zM276 307v56h-185q6 79 39.5 147t87 118.5t123.5 79t150 28.5q70 0 133.5 -22.5t115 -62.5t87.5 -96t53 -122h51q-17 76 -57.5 141t-98.5 111.5t-130.5 73t-153.5 26.5q-95 0 -177.5 -35t-143 -96t-95.5 -144t-35 -179v-24h236z" />
    <glyph glyph-name="cid11689" unicode="&#x32b1;" horiz-adv-x="620" 
d="M590 554q0 53 -22 96t-60 73t-89 46t-109 16q-59 0 -110 -16t-88.5 -46t-59.5 -73t-22 -96v-446q0 -53 22 -96t59.5 -73t88.5 -46t110 -16q58 0 109 16t89 46t60 73t22 96v446zM540 108q0 -41 -15.5 -74.5t-45.5 -57t-72.5 -36.5t-96.5 -13q-110 0 -170 49.5t-60 131.5
v446q0 82 60 131.5t170 49.5q54 0 96.5 -13t72.5 -36.5t45.5 -57t15.5 -74.5v-446zM328 607v-551h179v317h-110v166h74v68h-143zM174 305h61v-181h-52v94h-69v-162h190v317h-26v234h-164v-162h69v94h26v-166h-35v-68zM438 305v-181h-41v181h41z" />
    <glyph glyph-name="cid11690" unicode="&#x32b2;" horiz-adv-x="620" 
d="M590 554q0 53 -22 96t-60 73t-89 46t-109 16q-59 0 -110 -16t-88.5 -46t-59.5 -73t-22 -96v-446q0 -53 22 -96t59.5 -73t88.5 -46t110 -16q58 0 109 16t89 46t60 73t22 96v446zM540 108q0 -41 -15.5 -74.5t-45.5 -57t-72.5 -36.5t-96.5 -13q-110 0 -170 49.5t-60 131.5
v446q0 82 60 131.5t170 49.5q54 0 96.5 -13t72.5 -36.5t45.5 -57t15.5 -74.5v-446zM174 305h61v-181h-52v94h-69v-162h190v317h-26v234h-164v-162h69v94h26v-166h-35v-68zM436 403l-70 -79v-268h68v247l70 79v225h-189v-162h68v94h53v-136z" />
    <glyph glyph-name="cid11691" unicode="&#x32b3;" horiz-adv-x="620" 
d="M590 554q0 53 -22 96t-60 73t-89 46t-109 16q-59 0 -110 -16t-88.5 -46t-59.5 -73t-22 -96v-446q0 -53 22 -96t59.5 -73t88.5 -46t110 -16q58 0 109 16t89 46t60 73t22 96v446zM540 108q0 -41 -15.5 -74.5t-45.5 -57t-72.5 -36.5t-96.5 -13q-110 0 -170 49.5t-60 131.5
v446q0 82 60 131.5t170 49.5q54 0 96.5 -13t72.5 -36.5t45.5 -57t15.5 -74.5v-446zM508 56v551h-168v-244h-20v-307h188zM170 305h56v-181h-47v94h-69v-162h185v317h-23v234h-162v-162h69v94h24v-166h-33v-68zM389 295h50v-171h-50v171zM439 539v-176h-30v176h30z" />
    <glyph glyph-name="cid11692" unicode="&#x32b4;" horiz-adv-x="620" 
d="M590 554q0 53 -22 96t-60 73t-89 46t-109 16q-59 0 -110 -16t-88.5 -46t-59.5 -73t-22 -96v-446q0 -53 22 -96t59.5 -73t88.5 -46t110 -16q58 0 109 16t89 46t60 73t22 96v446zM540 108q0 -41 -15.5 -74.5t-45.5 -57t-72.5 -36.5t-96.5 -13q-110 0 -170 49.5t-60 131.5
v446q0 82 60 131.5t170 49.5q54 0 96.5 -13t72.5 -36.5t45.5 -57t15.5 -74.5v-446zM507 607h-181v-312h112v-171h-78v-68h147v551zM174 305h61v-181h-52v94h-69v-162h190v317h-26v234h-164v-162h69v94h26v-166h-35v-68zM395 539h43v-176h-43v176z" />
    <glyph glyph-name="cid11693" unicode="&#x32b5;" horiz-adv-x="620" 
d="M590 554q0 53 -22 96t-60 73t-89 46t-109 16q-59 0 -110 -16t-88.5 -46t-59.5 -73t-22 -96v-446q0 -53 22 -96t59.5 -73t88.5 -46t110 -16q58 0 109 16t89 46t60 73t22 96v446zM540 108q0 -41 -15.5 -74.5t-45.5 -57t-72.5 -36.5t-96.5 -13q-110 0 -170 49.5t-60 131.5
v446q0 82 60 131.5t170 49.5q54 0 96.5 -13t72.5 -36.5t45.5 -57t15.5 -74.5v-446zM502 607h-179v-342h-40v342h-108l-65 -286v-124h105v-141h68v141h40v-141h179v551zM433 539v-133l-41 -48v181h41zM392 124v132l41 48v-180h-41zM215 510v-245h-39v56z" />
    <glyph glyph-name="cid11694" unicode="&#x32b6;" horiz-adv-x="620" 
d="M590 554q0 53 -22 96t-60 73t-89 46t-109 16q-59 0 -110 -16t-88.5 -46t-59.5 -73t-22 -96v-446q0 -53 22 -96t59.5 -73t88.5 -46t110 -16q58 0 109 16t89 46t60 73t22 96v446zM540 108q0 -41 -15.5 -74.5t-45.5 -57t-72.5 -36.5t-96.5 -13q-110 0 -170 49.5t-60 131.5
v446q0 82 60 131.5t170 49.5q54 0 96.5 -13t72.5 -36.5t45.5 -57t15.5 -74.5v-446zM126 197h105v-141h68v141h52v68h-52v342h-108l-65 -286v-124zM329 124v-68h177v68h-51v483h-118v-68h49v-415h-57zM231 510v-245h-39v56z" />
    <glyph glyph-name="cid11695" unicode="&#x32b7;" horiz-adv-x="620" 
d="M590 554q0 53 -22 96t-60 73t-89 46t-109 16q-59 0 -110 -16t-88.5 -46t-59.5 -73t-22 -96v-446q0 -53 22 -96t59.5 -73t88.5 -46t110 -16q58 0 109 16t89 46t60 73t22 96v446zM540 108q0 -41 -15.5 -74.5t-45.5 -57t-72.5 -36.5t-96.5 -13q-110 0 -170 49.5t-60 131.5
v446q0 82 60 131.5t170 49.5q54 0 96.5 -13t72.5 -36.5t45.5 -57t15.5 -74.5v-446zM426 403l-107 -102v-36h-40v342h-108l-65 -286v-124h105v-141h68v141h40v-141h176v68h-107v146l107 102v235h-176v-162h69v94h38v-136zM211 510v-245h-39v56z" />
    <glyph glyph-name="cid11696" unicode="&#x32b8;" horiz-adv-x="620" 
d="M590 554q0 53 -22 96t-60 73t-89 46t-109 16q-59 0 -110 -16t-88.5 -46t-59.5 -73t-22 -96v-446q0 -53 22 -96t59.5 -73t88.5 -46t110 -16q58 0 109 16t89 46t60 73t22 96v446zM540 108q0 -41 -15.5 -74.5t-45.5 -57t-72.5 -36.5t-96.5 -13q-110 0 -170 49.5t-60 131.5
v446q0 82 60 131.5t170 49.5q54 0 96.5 -13t72.5 -36.5t45.5 -57t15.5 -74.5v-446zM381 305h61v-181h-52v94h-69v47h-42v342h-108l-65 -286v-124h105v-141h68v141h42v-141h190v317h-26v234h-164v-162h69v94h26v-166h-35v-68zM211 510v-245h-39v56z" />
    <glyph glyph-name="cid11697" unicode="&#x32b9;" horiz-adv-x="620" 
d="M590 554q0 53 -22 96t-60 73t-89 46t-109 16q-59 0 -110 -16t-88.5 -46t-59.5 -73t-22 -96v-446q0 -53 22 -96t59.5 -73t88.5 -46t110 -16q58 0 109 16t89 46t60 73t22 96v446zM540 108q0 -41 -15.5 -74.5t-45.5 -57t-72.5 -36.5t-96.5 -13q-110 0 -170 49.5t-60 131.5
v446q0 82 60 131.5t170 49.5q54 0 96.5 -13t72.5 -36.5t45.5 -57t15.5 -74.5v-446zM279 197h128v-141h68v141h48v68h-48v342h-108l-65 -286v-56h-23v342h-108l-65 -286v-124h105v-141h68v141zM407 510v-245h-39v56zM211 510v-245h-39v56z" />
    <glyph glyph-name="cid11698" unicode="&#x32ba;" horiz-adv-x="620" 
d="M590 554q0 53 -22 96t-60 73t-89 46t-109 16q-59 0 -110 -16t-88.5 -46t-59.5 -73t-22 -96v-446q0 -53 22 -96t59.5 -73t88.5 -46t110 -16q58 0 109 16t89 46t60 73t22 96v446zM540 108q0 -41 -15.5 -74.5t-45.5 -57t-72.5 -36.5t-96.5 -13q-110 0 -170 49.5t-60 131.5
v446q0 82 60 131.5t170 49.5q54 0 96.5 -13t72.5 -36.5t45.5 -57t15.5 -74.5v-446zM106 197h105v-141h68v141h49v-141h179v317h-110v166h74v68h-143v-302h110v-181h-41v94h-69v47h-49v342h-108l-65 -286v-124zM211 510v-245h-39v56z" />
    <glyph glyph-name="cid11699" unicode="&#x32bb;" horiz-adv-x="620" 
d="M590 554q0 53 -22 96t-60 73t-89 46t-109 16q-59 0 -110 -16t-88.5 -46t-59.5 -73t-22 -96v-446q0 -53 22 -96t59.5 -73t88.5 -46t110 -16q58 0 109 16t89 46t60 73t22 96v446zM540 108q0 -41 -15.5 -74.5t-45.5 -57t-72.5 -36.5t-96.5 -13q-110 0 -170 49.5t-60 131.5
v446q0 82 60 131.5t170 49.5q54 0 96.5 -13t72.5 -36.5t45.5 -57t15.5 -74.5v-446zM106 197h105v-141h68v141h49v-141h179v317h-110v166h74v68h-143v-342h-49v342h-108l-65 -286v-124zM438 305v-181h-41v181h41zM211 510v-245h-39v56z" />
    <glyph glyph-name="cid11700" unicode="&#x32bc;" horiz-adv-x="620" 
d="M590 554q0 53 -22 96t-60 73t-89 46t-109 16q-59 0 -110 -16t-88.5 -46t-59.5 -73t-22 -96v-446q0 -53 22 -96t59.5 -73t88.5 -46t110 -16q58 0 109 16t89 46t60 73t22 96v446zM540 108q0 -41 -15.5 -74.5t-45.5 -57t-72.5 -36.5t-96.5 -13q-110 0 -170 49.5t-60 131.5
v446q0 82 60 131.5t170 49.5q54 0 96.5 -13t72.5 -36.5t45.5 -57t15.5 -74.5v-446zM106 197h105v-141h68v141h48v68h-48v342h-108l-65 -286v-124zM431 403l-70 -79v-268h68v247l70 79v225h-189v-162h68v94h53v-136zM211 510v-245h-39v56z" />
    <glyph glyph-name="cid11701" unicode="&#x32bd;" horiz-adv-x="620" 
d="M590 554q0 53 -22 96t-60 73t-89 46t-109 16q-59 0 -110 -16t-88.5 -46t-59.5 -73t-22 -96v-446q0 -53 22 -96t59.5 -73t88.5 -46t110 -16q58 0 109 16t89 46t60 73t22 96v446zM540 108q0 -41 -15.5 -74.5t-45.5 -57t-72.5 -36.5t-96.5 -13q-110 0 -170 49.5t-60 131.5
v446q0 82 60 131.5t170 49.5q54 0 96.5 -13t72.5 -36.5t45.5 -57t15.5 -74.5v-446zM508 56v551h-168v-244h-31v-98h-30v342h-108l-65 -286v-124h105v-141h68v141h30v-141h199zM378 295h61v-171h-61v171zM211 510v-245h-39v56zM439 539v-176h-30v176h30z" />
    <glyph glyph-name="cid11702" unicode="&#x32be;" horiz-adv-x="620" 
d="M590 554q0 53 -22 96t-60 73t-89 46t-109 16q-59 0 -110 -16t-88.5 -46t-59.5 -73t-22 -96v-446q0 -53 22 -96t59.5 -73t88.5 -46t110 -16q58 0 109 16t89 46t60 73t22 96v446zM540 108q0 -41 -15.5 -74.5t-45.5 -57t-72.5 -36.5t-96.5 -13q-110 0 -170 49.5t-60 131.5
v446q0 82 60 131.5t170 49.5q54 0 96.5 -13t72.5 -36.5t45.5 -57t15.5 -74.5v-446zM495 607h-181v-312h112v-171h-78v-68h147v551zM111 197h105v-141h68v141h48v68h-48v342h-108l-65 -286v-124zM383 539h43v-176h-43v176zM216 510v-245h-39v56z" />
    <glyph glyph-name="cid11703" unicode="&#x32bf;" horiz-adv-x="940" 
d="M590 554q0 53 -22 96t-60 73t-89 46t-109 16q-59 0 -110 -16t-88.5 -46t-59.5 -73t-22 -96v-446q0 -53 22 -96t59.5 -73t88.5 -46t110 -16q58 0 109 16t89 46t60 73t22 96v446zM540 108q0 -41 -15.5 -74.5t-45.5 -57t-72.5 -36.5t-96.5 -13q-110 0 -170 49.5t-60 131.5
v446q0 82 60 131.5t170 49.5q54 0 96.5 -13t72.5 -36.5t45.5 -57t15.5 -74.5v-446zM502 607h-179v-551h179v551zM118 218v-162h184v317h-115v166h79v68h-148v-302h115v-181h-46v94h-69zM433 539v-133l-41 -48v181h41zM433 124h-41v132l41 48v-180z" />
    <glyph glyph-name="cid221" unicode="&#xac00;" horiz-adv-x="620" 
d="M41 667h230l-242 -740h109l240 740v92h-337v-92zM541 773h-104v-864h104v420h73v98h-73v346z" />
    <glyph glyph-name="cid222" unicode="&#xac01;" horiz-adv-x="620" 
d="M41 671h218l-230 -367h121l228 367v92h-337v-92zM437 -91h104v319h-488v-96h384v-223zM541 773h-104v-505h104v214h73v98h-73v193z" />
    <glyph glyph-name="cid3059" unicode="&#xac02;" 
 />
    <glyph glyph-name="cid3060" unicode="&#xac03;" 
 />
    <glyph glyph-name="cid223" unicode="&#xac04;" horiz-adv-x="620" 
d="M41 671h218l-230 -377h121l228 377v92h-337v-92zM167 238h-104v-324h492v96h-388v228zM541 773h-104v-595h104v284h73v98h-73v213z" />
    <glyph glyph-name="cid4637" unicode="&#xac05;" 
 />
    <glyph glyph-name="cid4638" unicode="&#xac06;" 
 />
    <glyph glyph-name="cid224" unicode="&#xac07;" horiz-adv-x="620" 
d="M63 -86h492v94h-388v146h379v94h-483v-334zM41 671h218l-230 -357h121l228 357v92h-337v-92zM541 773h-104v-485h104v204h73v98h-73v183z" />
    <glyph glyph-name="cid225" unicode="&#xac08;" horiz-adv-x="620" 
d="M541 56v226h-478v-90h376v-50h-376v-228h492v90h-390v52h376zM41 671h218l-230 -333h121l228 333v92h-337v-92zM541 773h-104v-455h104v189h73v98h-73v168z" />
    <glyph glyph-name="cid226" unicode="&#xac09;" horiz-adv-x="620" 
d="M61 194h131v-54h-131v-226h279v88h-179v56h131v224h-231v-88zM41 671h218l-230 -333h121l228 333v92h-337v-92zM541 773h-104v-455h104v189h73v98h-73v168zM541 -91v373h-221v-90h119v-283h102z" />
    <glyph glyph-name="cid227" unicode="&#xac0a;" horiz-adv-x="620" 
d="M541 -86v368h-233v-368h233zM41 671h218l-230 -333h121l228 333v92h-337v-92zM56 194h121v-54h-121v-226h230v88h-132v56h121v224h-219v-88zM541 773h-104v-455h104v189h73v98h-73v168zM448 196v-196h-46v196h46z" />
    <glyph glyph-name="cid228" unicode="&#xac0b;" horiz-adv-x="620" 
d="M402 286h-94v-372h233v372h-93v-94h-46v94zM41 671h218l-230 -333h121l228 333v92h-337v-92zM56 194h121v-54h-121v-226h230v88h-132v56h121v224h-219v-88zM541 773h-104v-455h104v189h73v98h-73v168zM448 0h-46v108h46v-108z" />
    <glyph glyph-name="cid3061" unicode="&#xac0c;" 
 />
    <glyph glyph-name="cid4639" unicode="&#xac0d;" 
 />
    <glyph glyph-name="cid4640" unicode="&#xac0e;" 
 />
    <glyph glyph-name="cid4641" unicode="&#xac0f;" 
 />
    <glyph glyph-name="cid229" unicode="&#xac10;" horiz-adv-x="620" 
d="M541 -86v334h-478v-334h478zM41 671h218l-230 -357h121l228 357v92h-337v-92zM541 773h-104v-485h104v204h73v98h-73v183zM439 156v-150h-274v150h274z" />
    <glyph glyph-name="cid230" unicode="&#xac11;" horiz-adv-x="620" 
d="M165 268h-102v-354h478v354h-102v-85h-274v85zM41 671h218l-230 -347h121l228 347v92h-337v-92zM541 773h-104v-469h104v193h73v98h-73v178zM439 6h-274v87h274v-87z" />
    <glyph glyph-name="cid231" unicode="&#xac12;" horiz-adv-x="620" 
d="M384 -86l52 298l49 -298h96l-72 357h-146l-65 -327v324h-91v-85h-52v85h-94v-354h323zM41 671h218l-230 -347h121l228 347v92h-337v-92zM541 773h-104v-469h104v193h73v98h-73v178zM207 0h-52v99h52v-99z" />
    <glyph glyph-name="cid232" unicode="&#xac13;" horiz-adv-x="620" 
d="M41 671h218l-230 -367h121l228 367v92h-337v-92zM575 -86l-198 334h-133l-198 -334h117l147 260l148 -260h117zM541 773h-104v-535h104v244h73v98h-73v193z" />
    <glyph glyph-name="cid233" unicode="&#xac14;" horiz-adv-x="620" 
d="M388 -86l44 272l45 -272h98l-69 339h-146l-47 -270l-47 270h-146l-69 -339h98l45 272l44 -272h150zM41 671h218l-230 -357h121l228 357v92h-337v-92zM541 773h-104v-485h104v204h73v98h-73v183z" />
    <glyph glyph-name="cid234" unicode="&#xac15;" horiz-adv-x="620" 
d="M398 -96q35 0 64.5 14.5t50.5 38.5t32.5 56t11.5 68t-11.5 68t-32.5 56t-50.5 38.5t-64.5 14.5h-186q-35 0 -64.5 -14.5t-50.5 -38.5t-32.5 -56t-11.5 -68t11.5 -68t32.5 -56t50.5 -38.5t64.5 -14.5h186zM41 671h218l-230 -357h121l228 357v92h-337v-92zM541 773h-104
v-485h104v204h73v98h-73v183zM155 81q0 40 20 62.5t55 22.5h150q34 0 54.5 -22.5t20.5 -62.5t-20.5 -62.5t-54.5 -22.5h-150q-35 0 -55 22.5t-20 62.5z" />
    <glyph glyph-name="cid235" unicode="&#xac16;" horiz-adv-x="620" 
d="M568 -86l-156 248h136v86h-483v-86h134l-156 -248h115l147 246l148 -246h115zM41 671h218l-230 -357h121l228 357v92h-337v-92zM541 773h-104v-485h104v204h73v98h-73v183z" />
    <glyph glyph-name="cid236" unicode="&#xac17;" horiz-adv-x="620" 
d="M568 -86l-156 240h136v86h-189v78h-105v-78h-189v-86h134l-156 -240h115l147 239l148 -239h115zM41 671h218l-230 -327h121l228 327v92h-337v-92zM541 773h-104v-475h104v209h73v98h-73v168z" />
    <glyph glyph-name="cid4642" unicode="&#xac18;" 
 />
    <glyph glyph-name="cid237" unicode="&#xac19;" horiz-adv-x="620" 
d="M63 -86h492v90h-390v47h371v86h-371v45h381v90h-483v-358zM41 671h218l-230 -343h121l228 343v92h-337v-92zM541 773h-104v-465h104v194h73v98h-73v173z" />
    <glyph glyph-name="cid238" unicode="&#xac1a;" horiz-adv-x="620" 
d="M547 -86v92h-76v150h74v92h-485v-92h74v-150h-77v-92h490zM41 671h218l-230 -357h121l228 357v92h-337v-92zM541 773h-104v-485h104v204h73v98h-73v183zM369 6h-133v150h133v-150z" />
    <glyph glyph-name="cid239" unicode="&#xac1b;" horiz-adv-x="620" 
d="M434 -96q23 0 43.5 9t36.5 25t25 38t9 48t-9 48t-25 38t-36.5 25t-43.5 9h-254q-23 0 -44 -9t-37 -25t-25 -38t-9 -48t9 -48t25 -38t37 -25t44 -9h254zM41 671h218l-230 -323h121l228 323v92h-337v-92zM541 773h-104v-455h104v199h73v98h-73v158zM52 183h509v90h-202v64
h-105v-64h-202v-90zM201 -8q-16 0 -25.5 8t-9.5 24t9.5 24t25.5 8h212q16 0 25.5 -8t9.5 -24t-9.5 -24t-25.5 -8h-212z" />
    <glyph glyph-name="cid240" unicode="&#xac1c;" horiz-adv-x="620" 
d="M425 771h-96v-856h96v415h45v-421h98v864h-98v-347h-45v345zM41 666h156l-168 -738h101l166 738v92h-255v-92z" />
    <glyph glyph-name="cid241" unicode="&#xac1d;" horiz-adv-x="620" 
d="M425 771h-96v-508h96v219h45v-224h98v515h-98v-197h-45v195zM464 -91h104v309h-509v-96h405v-213zM41 672h154l-166 -378h103l164 378v90h-255v-90z" />
    <glyph glyph-name="cid4643" unicode="&#xac1e;" 
 />
    <glyph glyph-name="cid4644" unicode="&#xac1f;" 
 />
    <glyph glyph-name="cid242" unicode="&#xac20;" horiz-adv-x="620" 
d="M425 771h-96v-588h96v289h45v-304h98v605h-98v-207h-45v205zM173 228h-104v-314h509v96h-405v218zM41 672h154l-166 -378h103l164 378v90h-255v-90z" />
    <glyph glyph-name="cid4645" unicode="&#xac21;" 
 />
    <glyph glyph-name="cid3062" unicode="&#xac22;" 
 />
    <glyph glyph-name="cid243" unicode="&#xac23;" horiz-adv-x="620" 
d="M69 -86h509v94h-405v136h398v94h-502v-324zM425 771h-96v-488h96v209h45v-214h98v495h-98v-187h-45v185zM41 672h154l-166 -368h103l164 368v90h-255v-90z" />
    <glyph glyph-name="cid244" unicode="&#xac24;" horiz-adv-x="620" 
d="M568 51v221h-499v-90h397v-45h-397v-223h509v90h-407v47h397zM425 771h-96v-458h96v191h45v-196h98v465h-98v-175h-45v173zM41 672h154l-166 -344h103l164 344v90h-255v-90z" />
    <glyph glyph-name="cid4646" unicode="&#xac25;" 
 />
    <glyph glyph-name="cid4647" unicode="&#xac26;" 
 />
    <glyph glyph-name="cid4648" unicode="&#xac27;" 
 />
    <glyph glyph-name="cid4649" unicode="&#xac28;" 
 />
    <glyph glyph-name="cid4650" unicode="&#xac29;" 
 />
    <glyph glyph-name="cid4651" unicode="&#xac2a;" 
 />
    <glyph glyph-name="cid4652" unicode="&#xac2b;" 
 />
    <glyph glyph-name="cid245" unicode="&#xac2c;" horiz-adv-x="620" 
d="M568 -86v324h-499v-324h499zM425 771h-96v-488h96v209h45v-214h98v495h-98v-187h-45v185zM41 672h154l-166 -368h103l164 368v90h-255v-90zM466 146v-140h-295v140h295z" />
    <glyph glyph-name="cid246" unicode="&#xac2d;" horiz-adv-x="620" 
d="M171 258h-102v-344h499v344h-102v-80h-295v80zM425 771h-96v-472h96v198h45v-203h98v479h-98v-182h-45v180zM41 672h154l-166 -358h103l164 358v90h-255v-90zM466 6h-295v82h295v-82z" />
    <glyph glyph-name="cid4653" unicode="&#xac2e;" 
 />
    <glyph glyph-name="cid247" unicode="&#xac2f;" horiz-adv-x="620" 
d="M425 771h-96v-498h96v214h45v-259h98v545h-98v-192h-45v190zM599 -86l-207 324h-133l-207 -324h118l155 251l156 -251h118zM41 672h154l-166 -378h103l164 378v90h-255v-90z" />
    <glyph glyph-name="cid248" unicode="&#xac30;" horiz-adv-x="620" 
d="M401 -86l48 263l49 -263h98l-73 329h-146l-51 -266l-51 266h-146l-73 -329h98l49 263l48 -263h150zM425 771h-96v-488h96v209h45v-214h98v495h-98v-187h-45v185zM41 672h154l-166 -368h103l164 368v90h-255v-90z" />
    <glyph glyph-name="cid249" unicode="&#xac31;" horiz-adv-x="620" 
d="M421 -96q35 0 64.5 14t50.5 37.5t32.5 54.5t11.5 66t-11.5 66t-32.5 54.5t-50.5 37.5t-64.5 14h-203q-35 0 -64.5 -14t-50.5 -37.5t-32.5 -54.5t-11.5 -66t11.5 -66t32.5 -54.5t50.5 -37.5t64.5 -14h203zM425 771h-96v-488h96v209h45v-214h98v495h-98v-187h-45v185z
M41 672h154l-166 -368h103l164 368v90h-255v-90zM161 76q0 38 20 59t55 21h167q34 0 54.5 -21t20.5 -59t-20.5 -59t-54.5 -21h-167q-35 0 -55 21t-20 59z" />
    <glyph glyph-name="cid3063" unicode="&#xac32;" 
 />
    <glyph glyph-name="cid4654" unicode="&#xac33;" 
 />
    <glyph glyph-name="cid4655" unicode="&#xac34;" 
 />
    <glyph glyph-name="cid3064" unicode="&#xac35;" 
 />
    <glyph glyph-name="cid3065" unicode="&#xac36;" 
 />
    <glyph glyph-name="cid4656" unicode="&#xac37;" 
 />
    <glyph glyph-name="cid250" unicode="&#xac38;" horiz-adv-x="620" 
d="M41 667h229l-241 -740h110l239 740v92h-337v-92zM541 773h-104v-864h104v230h71v98h-71v244h71v98h-71v194z" />
    <glyph glyph-name="cid251" unicode="&#xac39;" horiz-adv-x="620" 
d="M41 671h218l-230 -367h121l228 367v92h-337v-92zM437 -91h104v319h-488v-96h384v-223zM541 773h-104v-505h104v112h71v96h-71v110h71v96h-71v91z" />
    <glyph glyph-name="cid4657" unicode="&#xac3a;" 
 />
    <glyph glyph-name="cid4658" unicode="&#xac3b;" 
 />
    <glyph glyph-name="cid252" unicode="&#xac3c;" horiz-adv-x="620" 
d="M41 671h218l-230 -377h121l228 377v92h-337v-92zM541 773h-104v-595h104v172h71v96h-71v130h71v96h-71v101zM167 238h-104v-324h492v96h-388v228z" />
    <glyph glyph-name="cid4659" unicode="&#xac3d;" 
 />
    <glyph glyph-name="cid4660" unicode="&#xac3e;" 
 />
    <glyph glyph-name="cid3066" unicode="&#xac3f;" 
 />
    <glyph glyph-name="cid253" unicode="&#xac40;" horiz-adv-x="620" 
d="M541 56v226h-478v-90h376v-50h-376v-228h492v90h-390v52h376zM41 671h218l-230 -333h121l228 333v92h-337v-92zM541 773h-104v-455h104v97h71v96h-71v90h71v96h-71v76z" />
    <glyph glyph-name="cid3067" unicode="&#xac41;" 
 />
    <glyph glyph-name="cid4661" unicode="&#xac42;" 
 />
    <glyph glyph-name="cid4662" unicode="&#xac43;" 
 />
    <glyph glyph-name="cid4663" unicode="&#xac44;" 
 />
    <glyph glyph-name="cid4664" unicode="&#xac45;" 
 />
    <glyph glyph-name="cid4665" unicode="&#xac46;" 
 />
    <glyph glyph-name="cid3068" unicode="&#xac47;" 
 />
    <glyph glyph-name="cid3069" unicode="&#xac48;" 
 />
    <glyph glyph-name="cid3070" unicode="&#xac49;" 
 />
    <glyph glyph-name="cid4666" unicode="&#xac4a;" 
 />
    <glyph glyph-name="cid254" unicode="&#xac4b;" horiz-adv-x="620" 
d="M41 671h218l-230 -367h121l228 367v92h-337v-92zM575 -86l-198 334h-133l-198 -334h117l147 260l148 -260h117zM541 773h-104v-535h104v134h71v96h-71v118h71v96h-71v91z" />
    <glyph glyph-name="cid3071" unicode="&#xac4c;" 
 />
    <glyph glyph-name="cid255" unicode="&#xac4d;" horiz-adv-x="620" 
d="M398 -96q35 0 64.5 14.5t50.5 38.5t32.5 56t11.5 68t-11.5 68t-32.5 56t-50.5 38.5t-64.5 14.5h-186q-35 0 -64.5 -14.5t-50.5 -38.5t-32.5 -56t-11.5 -68t11.5 -68t32.5 -56t50.5 -38.5t64.5 -14.5h186zM41 671h218l-230 -357h121l228 357v92h-337v-92zM541 773h-104
v-485h104v107h71v96h-71v100h71v96h-71v86zM155 81q0 40 20 62.5t55 22.5h150q34 0 54.5 -22.5t20.5 -62.5t-20.5 -62.5t-54.5 -22.5h-150q-35 0 -55 22.5t-20 62.5z" />
    <glyph glyph-name="cid4667" unicode="&#xac4e;" 
 />
    <glyph glyph-name="cid4668" unicode="&#xac4f;" 
 />
    <glyph glyph-name="cid4669" unicode="&#xac50;" 
 />
    <glyph glyph-name="cid4670" unicode="&#xac51;" 
 />
    <glyph glyph-name="cid4671" unicode="&#xac52;" 
 />
    <glyph glyph-name="cid4672" unicode="&#xac53;" 
 />
    <glyph glyph-name="cid256" unicode="&#xac54;" horiz-adv-x="620" 
d="M425 771h-96v-856h96v230h45v-236h98v864h-98v-200h-45v198zM41 666h156l-168 -738h101l166 738v92h-255v-92zM425 479h45v-240h-45v240z" />
    <glyph glyph-name="cid4673" unicode="&#xac55;" 
 />
    <glyph glyph-name="cid4674" unicode="&#xac56;" 
 />
    <glyph glyph-name="cid4675" unicode="&#xac57;" 
 />
    <glyph glyph-name="cid257" unicode="&#xac58;" horiz-adv-x="620" 
d="M425 771h-96v-588h96v163h45v-178h98v605h-98v-109h-45v107zM173 228h-104v-314h509v96h-405v218zM41 672h154l-166 -378h103l164 378v90h-255v-90zM425 572h45v-134h-45v134z" />
    <glyph glyph-name="cid4676" unicode="&#xac59;" 
 />
    <glyph glyph-name="cid4677" unicode="&#xac5a;" 
 />
    <glyph glyph-name="cid4678" unicode="&#xac5b;" 
 />
    <glyph glyph-name="cid258" unicode="&#xac5c;" horiz-adv-x="620" 
d="M568 51v221h-499v-90h397v-45h-397v-223h509v90h-407v47h397zM425 771h-96v-458h96v98h45v-103h98v465h-98v-84h-45v82zM41 672h154l-166 -344h103l164 344v90h-255v-90zM425 597h45v-94h-45v94z" />
    <glyph glyph-name="cid4679" unicode="&#xac5d;" 
 />
    <glyph glyph-name="cid4680" unicode="&#xac5e;" 
 />
    <glyph glyph-name="cid4681" unicode="&#xac5f;" 
 />
    <glyph glyph-name="cid4682" unicode="&#xac60;" 
 />
    <glyph glyph-name="cid4683" unicode="&#xac61;" 
 />
    <glyph glyph-name="cid4684" unicode="&#xac62;" 
 />
    <glyph glyph-name="cid4685" unicode="&#xac63;" 
 />
    <glyph glyph-name="cid3072" unicode="&#xac64;" 
 />
    <glyph glyph-name="cid259" unicode="&#xac65;" horiz-adv-x="620" 
d="M171 258h-102v-344h499v344h-102v-80h-295v80zM425 771h-96v-472h96v110h45v-115h98v479h-98v-83h-45v81zM41 672h154l-166 -358h103l164 358v90h-255v-90zM466 6h-295v82h295v-82zM425 598h45v-97h-45v97z" />
    <glyph glyph-name="cid4686" unicode="&#xac66;" 
 />
    <glyph glyph-name="cid4687" unicode="&#xac67;" 
 />
    <glyph glyph-name="cid4688" unicode="&#xac68;" 
 />
    <glyph glyph-name="cid4689" unicode="&#xac69;" 
 />
    <glyph glyph-name="cid4690" unicode="&#xac6a;" 
 />
    <glyph glyph-name="cid4691" unicode="&#xac6b;" 
 />
    <glyph glyph-name="cid4692" unicode="&#xac6c;" 
 />
    <glyph glyph-name="cid4693" unicode="&#xac6d;" 
 />
    <glyph glyph-name="cid4694" unicode="&#xac6e;" 
 />
    <glyph glyph-name="cid4695" unicode="&#xac6f;" 
 />
    <glyph glyph-name="cid260" unicode="&#xac70;" horiz-adv-x="620" 
d="M46 667h235l-247 -740h109l245 740v92h-342v-92zM336 306h120v-397h104v864h-104v-371h-120v-96z" />
    <glyph glyph-name="cid261" unicode="&#xac71;" horiz-adv-x="620" 
d="M46 671h223l-235 -367h121l233 367v92h-342v-92zM456 -91h104v319h-501v-96h397v-223zM353 457h103v-189h104v505h-104v-222h-103v-94z" />
    <glyph glyph-name="cid4696" unicode="&#xac72;" 
 />
    <glyph glyph-name="cid3073" unicode="&#xac73;" 
 />
    <glyph glyph-name="cid262" unicode="&#xac74;" horiz-adv-x="620" 
d="M46 671h223l-235 -377h121l233 377v92h-342v-92zM173 238h-104v-324h501v96h-397v228zM353 452h103v-274h104v595h-104v-227h-103v-94z" />
    <glyph glyph-name="cid3074" unicode="&#xac75;" 
 />
    <glyph glyph-name="cid4697" unicode="&#xac76;" 
 />
    <glyph glyph-name="cid263" unicode="&#xac77;" horiz-adv-x="620" 
d="M69 -86h503v94h-399v146h392v94h-496v-334zM46 671h223l-235 -357h121l233 357v92h-342v-92zM353 462h103v-174h104v485h-104v-217h-103v-94z" />
    <glyph glyph-name="cid264" unicode="&#xac78;" horiz-adv-x="620" 
d="M560 56v226h-491v-90h389v-50h-389v-228h503v90h-401v52h389zM46 671h223l-235 -333h121l233 333v92h-342v-92zM353 474h103v-156h104v455h-104v-205h-103v-94z" />
    <glyph glyph-name="cid3075" unicode="&#xac79;" 
 />
    <glyph glyph-name="cid265" unicode="&#xac7a;" horiz-adv-x="620" 
d="M560 -86v368h-238v-368h238zM46 671h223l-235 -333h121l233 333v92h-342v-92zM61 194h129v-54h-129v-226h236v88h-138v56h129v224h-227v-88zM353 474h103v-156h104v455h-104v-205h-103v-94zM467 196v-196h-51v196h51z" />
    <glyph glyph-name="cid4698" unicode="&#xac7b;" 
 />
    <glyph glyph-name="cid4699" unicode="&#xac7c;" 
 />
    <glyph glyph-name="cid4700" unicode="&#xac7d;" 
 />
    <glyph glyph-name="cid4701" unicode="&#xac7e;" 
 />
    <glyph glyph-name="cid4702" unicode="&#xac7f;" 
 />
    <glyph glyph-name="cid266" unicode="&#xac80;" horiz-adv-x="620" 
d="M560 -86v334h-491v-334h491zM46 671h223l-235 -357h121l233 357v92h-342v-92zM353 462h103v-174h104v485h-104v-217h-103v-94zM458 156v-150h-287v150h287z" />
    <glyph glyph-name="cid267" unicode="&#xac81;" horiz-adv-x="620" 
d="M171 268h-102v-354h491v354h-102v-85h-287v85zM46 671h223l-235 -347h121l233 347v92h-342v-92zM353 467h103v-163h104v469h-104v-212h-103v-94zM458 6h-287v87h287v-87z" />
    <glyph glyph-name="cid268" unicode="&#xac82;" horiz-adv-x="620" 
d="M393 -86l54 298l51 -298h96l-74 357h-146l-67 -327v324h-91v-85h-56v85h-94v-354h327zM46 671h223l-235 -347h121l233 347v92h-342v-92zM353 467h103v-163h104v469h-104v-212h-103v-94zM216 0h-56v99h56v-99z" />
    <glyph glyph-name="cid269" unicode="&#xac83;" horiz-adv-x="620" 
d="M46 671h223l-235 -367h121l233 367v92h-342v-92zM591 -86l-203 334h-133l-203 -334h117l152 260l153 -260h117zM353 457h103v-219h104v535h-104v-222h-103v-94z" />
    <glyph glyph-name="cid270" unicode="&#xac84;" horiz-adv-x="620" 
d="M397 -86l46 272l47 -272h98l-71 339h-146l-49 -272l-49 272h-146l-71 -339h98l47 272l46 -272h150zM46 671h223l-235 -357h121l233 357v92h-342v-92zM353 462h103v-174h104v485h-104v-217h-103v-94z" />
    <glyph glyph-name="cid271" unicode="&#xac85;" horiz-adv-x="620" 
d="M413 -96q35 0 64.5 14.5t50.5 38.5t32.5 56t11.5 68t-11.5 68t-32.5 56t-50.5 38.5t-64.5 14.5h-195q-35 0 -64.5 -14.5t-50.5 -38.5t-32.5 -56t-11.5 -68t11.5 -68t32.5 -56t50.5 -38.5t64.5 -14.5h195zM46 671h223l-235 -357h121l233 357v92h-342v-92zM353 462h103
v-174h104v485h-104v-217h-103v-94zM161 81q0 40 20 62.5t55 22.5h159q34 0 54.5 -22.5t20.5 -62.5t-20.5 -62.5t-54.5 -22.5h-159q-35 0 -55 22.5t-20 62.5z" />
    <glyph glyph-name="cid272" unicode="&#xac86;" horiz-adv-x="620" 
d="M584 -86l-168 242h148v92h-493v-92h145l-167 -242h120l147 222l148 -222h120zM46 671h223l-235 -357h121l233 357v92h-342v-92zM353 462h103v-174h104v485h-104v-217h-103v-94z" />
    <glyph glyph-name="cid3076" unicode="&#xac87;" 
 />
    <glyph glyph-name="cid4703" unicode="&#xac88;" 
 />
    <glyph glyph-name="cid273" unicode="&#xac89;" horiz-adv-x="620" 
d="M69 -86h501v90h-399v47h380v86h-380v45h390v90h-492v-358zM46 671h223l-235 -343h121l233 343v92h-342v-92zM353 469h103v-161h104v465h-104v-210h-103v-94z" />
    <glyph glyph-name="cid274" unicode="&#xac8a;" horiz-adv-x="620" 
d="M566 -86v92h-80v150h78v92h-498v-92h78v-150h-81v-92h503zM46 671h223l-235 -357h121l233 357v92h-342v-92zM353 462h103v-174h104v485h-104v-217h-103v-94zM384 6h-138v150h138v-150z" />
    <glyph glyph-name="cid275" unicode="&#xac8b;" horiz-adv-x="620" 
d="M449 -96q23 0 43.5 9t36.5 25t25 38t9 48t-9 48t-25 38t-36.5 25t-43.5 9h-264q-23 0 -44 -9t-37 -25t-25 -38t-9 -48t9 -48t25 -38t37 -25t44 -9h264zM46 671h223l-235 -323h121l233 323v92h-342v-92zM353 479h103v-161h104v455h-104v-200h-103v-94zM57 183h519v90h-207
v64h-105v-64h-207v-90zM206 -8q-16 0 -25.5 8t-9.5 24t9.5 24t25.5 8h222q16 0 25.5 -8t9.5 -24t-9.5 -24t-25.5 -8h-222z" />
    <glyph glyph-name="cid276" unicode="&#xac8c;" horiz-adv-x="620" 
d="M41 666h156l-168 -738h101l166 738v92h-255v-92zM260 310h75v-395h96v856h-96v-365h-75v-96zM568 773h-98v-864h98v864z" />
    <glyph glyph-name="cid277" unicode="&#xac8d;" horiz-adv-x="620" 
d="M464 -91h104v309h-509v-96h405v-213zM41 672h154l-166 -378h103l164 378v90h-255v-90zM265 451h70v-188h96v508h-96v-226h-70v-94zM568 773h-98v-515h98v515z" />
    <glyph glyph-name="cid4704" unicode="&#xac8e;" 
 />
    <glyph glyph-name="cid4705" unicode="&#xac8f;" 
 />
    <glyph glyph-name="cid278" unicode="&#xac90;" horiz-adv-x="620" 
d="M173 228h-104v-314h509v96h-405v218zM265 446h70v-263h96v588h-96v-231h-70v-94zM41 672h154l-166 -378h103l164 378v90h-255v-90zM568 773h-98v-605h98v605z" />
    <glyph glyph-name="cid4706" unicode="&#xac91;" 
 />
    <glyph glyph-name="cid4707" unicode="&#xac92;" 
 />
    <glyph glyph-name="cid3077" unicode="&#xac93;" 
 />
    <glyph glyph-name="cid279" unicode="&#xac94;" horiz-adv-x="620" 
d="M568 51v221h-499v-90h397v-45h-397v-223h509v90h-407v47h397zM41 672h154l-166 -344h103l164 344v90h-255v-90zM265 468h70v-155h96v458h-96v-209h-70v-94zM568 773h-98v-465h98v465z" />
    <glyph glyph-name="cid4708" unicode="&#xac95;" 
 />
    <glyph glyph-name="cid4709" unicode="&#xac96;" 
 />
    <glyph glyph-name="cid4710" unicode="&#xac97;" 
 />
    <glyph glyph-name="cid4711" unicode="&#xac98;" 
 />
    <glyph glyph-name="cid4712" unicode="&#xac99;" 
 />
    <glyph glyph-name="cid4713" unicode="&#xac9a;" 
 />
    <glyph glyph-name="cid4714" unicode="&#xac9b;" 
 />
    <glyph glyph-name="cid280" unicode="&#xac9c;" horiz-adv-x="620" 
d="M568 -86v324h-499v-324h499zM41 672h154l-166 -368h103l164 368v90h-255v-90zM265 456h70v-173h96v488h-96v-221h-70v-94zM568 773h-98v-495h98v495zM466 146v-140h-295v140h295z" />
    <glyph glyph-name="cid281" unicode="&#xac9d;" horiz-adv-x="620" 
d="M171 258h-102v-344h499v344h-102v-80h-295v80zM41 672h154l-166 -358h103l164 358v90h-255v-90zM265 461h70v-162h96v472h-96v-216h-70v-94zM568 773h-98v-479h98v479zM466 6h-295v82h295v-82z" />
    <glyph glyph-name="cid4715" unicode="&#xac9e;" 
 />
    <glyph glyph-name="cid282" unicode="&#xac9f;" horiz-adv-x="620" 
d="M599 -86l-207 324h-133l-207 -324h118l155 251l156 -251h118zM41 672h154l-166 -378h103l164 378v90h-255v-90zM265 451h70v-178h96v498h-96v-226h-70v-94zM568 773h-98v-545h98v545z" />
    <glyph glyph-name="cid283" unicode="&#xaca0;" horiz-adv-x="620" 
d="M401 -86l48 263l49 -263h98l-73 329h-146l-51 -266l-51 266h-146l-73 -329h98l49 263l48 -263h150zM41 672h154l-166 -368h103l164 368v90h-255v-90zM265 456h70v-173h96v488h-96v-221h-70v-94zM568 773h-98v-495h98v495z" />
    <glyph glyph-name="cid284" unicode="&#xaca1;" horiz-adv-x="620" 
d="M421 -96q35 0 64.5 14t50.5 37.5t32.5 54.5t11.5 66t-11.5 66t-32.5 54.5t-50.5 37.5t-64.5 14h-203q-35 0 -64.5 -14t-50.5 -37.5t-32.5 -54.5t-11.5 -66t11.5 -66t32.5 -54.5t50.5 -37.5t64.5 -14h203zM41 672h154l-166 -368h103l164 368v90h-255v-90zM265 456h70v-173
h96v488h-96v-221h-70v-94zM568 773h-98v-495h98v495zM161 76q0 38 20 59t55 21h167q34 0 54.5 -21t20.5 -59t-20.5 -59t-54.5 -21h-167q-35 0 -55 21t-20 59z" />
    <glyph glyph-name="cid4716" unicode="&#xaca2;" 
 />
    <glyph glyph-name="cid4717" unicode="&#xaca3;" 
 />
    <glyph glyph-name="cid4718" unicode="&#xaca4;" 
 />
    <glyph glyph-name="cid3078" unicode="&#xaca5;" 
 />
    <glyph glyph-name="cid4719" unicode="&#xaca6;" 
 />
    <glyph glyph-name="cid3079" unicode="&#xaca7;" 
 />
    <glyph glyph-name="cid285" unicode="&#xaca8;" horiz-adv-x="620" 
d="M46 667h235l-247 -740h109l176 532h137v-210h-153v-94h153v-246h104v864h-104v-220h-106l38 114v92h-342v-92z" />
    <glyph glyph-name="cid286" unicode="&#xaca9;" horiz-adv-x="620" 
d="M46 671h223l-235 -367h121l160 253h141v-86h-142v-92h142v-111h104v505h-104v-124h-82l14 22v92h-342v-92zM456 -91h104v319h-501v-96h397v-223z" />
    <glyph glyph-name="cid287" unicode="&#xacaa;" horiz-adv-x="620" 
d="M46 671h223l-235 -361h121l160 249h141v-83h-142v-92h142v-108h104v497h-104v-122h-81l13 20v92h-342v-92zM197 -91h102v327h-241v-94h139v-233zM458 -91h102v327h-229v-94h127v-233z" />
    <glyph glyph-name="cid4720" unicode="&#xacab;" 
 />
    <glyph glyph-name="cid288" unicode="&#xacac;" horiz-adv-x="620" 
d="M46 671h223l-235 -377h121l160 259h141v-90h-142v-92h142v-193h104v595h-104v-128h-84l16 26v92h-342v-92zM173 238h-104v-324h501v96h-397v228z" />
    <glyph glyph-name="cid4721" unicode="&#xacad;" 
 />
    <glyph glyph-name="cid4722" unicode="&#xacae;" 
 />
    <glyph glyph-name="cid289" unicode="&#xacaf;" horiz-adv-x="620" 
d="M46 671h223l-235 -357h121l161 247h140v-82h-142v-92h142v-99h104v485h-104v-120h-80l12 18v92h-342v-92zM69 -86h503v94h-399v146h392v94h-496v-334z" />
    <glyph glyph-name="cid290" unicode="&#xacb0;" horiz-adv-x="620" 
d="M560 56v226h-491v-90h389v-50h-389v-228h503v90h-401v52h389zM46 671h223l-235 -333h121l161 231h140v-76h-142v-92h142v-83h104v455h-104v-112h-75l7 10v92h-342v-92z" />
    <glyph glyph-name="cid3080" unicode="&#xacb1;" 
 />
    <glyph glyph-name="cid4723" unicode="&#xacb2;" 
 />
    <glyph glyph-name="cid4724" unicode="&#xacb3;" 
 />
    <glyph glyph-name="cid3081" unicode="&#xacb4;" 
 />
    <glyph glyph-name="cid4725" unicode="&#xacb5;" 
 />
    <glyph glyph-name="cid4726" unicode="&#xacb6;" 
 />
    <glyph glyph-name="cid291" unicode="&#xacb7;" horiz-adv-x="620" 
d="M46 671h223l-235 -333h121l161 231h140v-76h-142v-92h142v-83h104v455h-104v-112h-75l7 10v92h-342v-92zM61 194h116v-54h-116v-226h231v88h-133v56h116v224h-214v-88zM480 -96q22 0 40.5 9t32 25t21 36.5t7.5 43.5t-7.5 43.5t-21 36.5t-32 25t-40.5 9h-75
q-22 0 -40.5 -9t-32 -25t-21 -36.5t-7.5 -43.5t7.5 -43.5t21 -36.5t32 -25t40.5 -9h75zM299 155h287v88h-92v49h-103v-49h-92v-88zM396 18q0 14 7.5 22t19.5 8h39q12 0 19.5 -8t7.5 -22t-7.5 -22t-19.5 -8h-39q-12 0 -19.5 8t-7.5 22z" />
    <glyph glyph-name="cid292" unicode="&#xacb8;" horiz-adv-x="620" 
d="M560 -86v334h-491v-334h491zM46 671h223l-235 -357h121l161 247h140v-82h-142v-92h142v-99h104v485h-104v-120h-80l12 18v92h-342v-92zM458 156v-150h-287v150h287z" />
    <glyph glyph-name="cid293" unicode="&#xacb9;" horiz-adv-x="620" 
d="M171 268h-102v-354h491v354h-102v-85h-287v85zM46 671h223l-235 -347h121l162 241h139v-78h-142v-92h142v-91h104v469h-104v-116h-78l10 14v92h-342v-92zM458 6h-287v87h287v-87z" />
    <glyph glyph-name="cid4727" unicode="&#xacba;" 
 />
    <glyph glyph-name="cid294" unicode="&#xacbb;" horiz-adv-x="620" 
d="M46 671h223l-235 -367h121l160 253h141v-86h-142v-92h142v-141h104v535h-104v-124h-82l14 22v92h-342v-92zM591 -86l-203 334h-133l-203 -334h117l152 260l153 -260h117z" />
    <glyph glyph-name="cid295" unicode="&#xacbc;" horiz-adv-x="620" 
d="M46 671h223l-235 -357h121l161 247h140v-82h-142v-92h142v-99h104v485h-104v-120h-80l12 18v92h-342v-92zM397 -86l46 272l47 -272h98l-71 339h-146l-49 -272l-49 272h-146l-71 -339h98l47 272l46 -272h150z" />
    <glyph glyph-name="cid296" unicode="&#xacbd;" horiz-adv-x="620" 
d="M413 -96q35 0 64.5 14.5t50.5 38.5t32.5 56t11.5 68t-11.5 68t-32.5 56t-50.5 38.5t-64.5 14.5h-195q-35 0 -64.5 -14.5t-50.5 -38.5t-32.5 -56t-11.5 -68t11.5 -68t32.5 -56t50.5 -38.5t64.5 -14.5h195zM46 671h223l-235 -357h121l161 247h140v-82h-142v-92h142v-99h104
v485h-104v-120h-80l12 18v92h-342v-92zM161 81q0 40 20 62.5t55 22.5h159q34 0 54.5 -22.5t20.5 -62.5t-20.5 -62.5t-54.5 -22.5h-159q-35 0 -55 22.5t-20 62.5z" />
    <glyph glyph-name="cid3082" unicode="&#xacbe;" 
 />
    <glyph glyph-name="cid297" unicode="&#xacbf;" horiz-adv-x="620" 
d="M46 671h223l-235 -333h121l161 230h140v-78h-142v-92h142v-110h104v485h-104v-113h-76l8 11v92h-342v-92zM584 -86l-160 234h140v86h-194v74h-105v-74h-194v-86h137l-159 -234h115l152 233l153 -233h115z" />
    <glyph glyph-name="cid4728" unicode="&#xacc0;" 
 />
    <glyph glyph-name="cid298" unicode="&#xacc1;" horiz-adv-x="620" 
d="M46 671h223l-235 -343h121l161 237h140v-80h-142v-92h142v-85h104v465h-104v-116h-78l10 14v92h-342v-92zM69 -86h501v90h-399v47h380v86h-380v45h390v90h-492v-358z" />
    <glyph glyph-name="cid3083" unicode="&#xacc2;" 
 />
    <glyph glyph-name="cid4729" unicode="&#xacc3;" 
 />
    <glyph glyph-name="cid299" unicode="&#xacc4;" horiz-adv-x="620" 
d="M41 666h156l-168 -738h101l119 531h86v-210h-86v-94h86v-240h96v856h-96v-218h-65l26 113v92h-255v-92zM568 773h-98v-864h98v864z" />
    <glyph glyph-name="cid3084" unicode="&#xacc5;" 
 />
    <glyph glyph-name="cid4730" unicode="&#xacc6;" 
 />
    <glyph glyph-name="cid4731" unicode="&#xacc7;" 
 />
    <glyph glyph-name="cid300" unicode="&#xacc8;" horiz-adv-x="620" 
d="M243 361h92v-178h96v588h-96v-128h-52l13 29v90h-255v-90h154l-166 -378h103l111 257h92v-98h-92v-92zM173 228h-104v-314h509v96h-405v218zM568 773h-98v-605h98v605z" />
    <glyph glyph-name="cid4732" unicode="&#xacc9;" 
 />
    <glyph glyph-name="cid4733" unicode="&#xacca;" 
 />
    <glyph glyph-name="cid3085" unicode="&#xaccb;" 
 />
    <glyph glyph-name="cid301" unicode="&#xaccc;" horiz-adv-x="620" 
d="M568 51v221h-499v-90h397v-45h-397v-223h509v90h-407v47h397zM243 391h92v-78h96v458h-96v-112h-45l6 13v90h-255v-90h154l-166 -344h103l114 239h89v-84h-92v-92zM568 773h-98v-465h98v465z" />
    <glyph glyph-name="cid4734" unicode="&#xaccd;" 
 />
    <glyph glyph-name="cid4735" unicode="&#xacce;" 
 />
    <glyph glyph-name="cid4736" unicode="&#xaccf;" 
 />
    <glyph glyph-name="cid4737" unicode="&#xacd0;" 
 />
    <glyph glyph-name="cid4738" unicode="&#xacd1;" 
 />
    <glyph glyph-name="cid4739" unicode="&#xacd2;" 
 />
    <glyph glyph-name="cid4740" unicode="&#xacd3;" 
 />
    <glyph glyph-name="cid3086" unicode="&#xacd4;" 
 />
    <glyph glyph-name="cid302" unicode="&#xacd5;" horiz-adv-x="620" 
d="M171 258h-102v-344h499v344h-102v-80h-295v80zM41 672h154l-166 -358h103l114 249h89v-86h-92v-92h92v-86h96v472h-96v-116h-47l8 17v90h-255v-90zM568 773h-98v-479h98v479zM466 6h-295v82h295v-82z" />
    <glyph glyph-name="cid4741" unicode="&#xacd6;" 
 />
    <glyph glyph-name="cid303" unicode="&#xacd7;" horiz-adv-x="620" 
d="M243 369h92v-96h96v498h-96v-124h-50l11 25v90h-255v-90h154l-166 -378h103l113 261h90v-94h-92v-92zM599 -86l-207 324h-133l-207 -324h118l155 251l156 -251h118zM568 773h-98v-545h98v545z" />
    <glyph glyph-name="cid304" unicode="&#xacd8;" horiz-adv-x="620" 
d="M41 672h154l-166 -368h103l113 255h90v-90h-92v-92h92v-94h96v488h-96v-120h-49l10 21v90h-255v-90zM401 -86l48 263l49 -263h98l-73 329h-146l-51 -266l-51 266h-146l-73 -329h98l49 263l48 -263h150zM568 773h-98v-495h98v495z" />
    <glyph glyph-name="cid3087" unicode="&#xacd9;" 
 />
    <glyph glyph-name="cid4742" unicode="&#xacda;" 
 />
    <glyph glyph-name="cid4743" unicode="&#xacdb;" 
 />
    <glyph glyph-name="cid4744" unicode="&#xacdc;" 
 />
    <glyph glyph-name="cid4745" unicode="&#xacdd;" 
 />
    <glyph glyph-name="cid4746" unicode="&#xacde;" 
 />
    <glyph glyph-name="cid4747" unicode="&#xacdf;" 
 />
    <glyph glyph-name="cid305" unicode="&#xace0;" horiz-adv-x="620" 
d="M34 -71h551v97h-257v377h-105v-377h-189v-97zM557 199v564h-498v-97h393v-467h105z" />
    <glyph glyph-name="cid306" unicode="&#xace1;" horiz-adv-x="620" 
d="M34 299h551v96h-257v177h-105v-177h-189v-96zM453 -91h104v310h-502v-96h398v-214zM557 462v303h-498v-96h394v-207h104z" />
    <glyph glyph-name="cid4748" unicode="&#xace2;" 
 />
    <glyph glyph-name="cid4749" unicode="&#xace3;" 
 />
    <glyph glyph-name="cid307" unicode="&#xace4;" horiz-adv-x="620" 
d="M166 214h-104v-300h502v96h-398v204zM34 284h551v96h-257v187h-105v-187h-189v-96zM557 452v313h-498v-96h394v-217h104z" />
    <glyph glyph-name="cid4750" unicode="&#xace5;" 
 />
    <glyph glyph-name="cid4751" unicode="&#xace6;" 
 />
    <glyph glyph-name="cid308" unicode="&#xace7;" horiz-adv-x="620" 
d="M34 316h551v96h-257v166h-105v-166h-189v-96zM557 474v291h-498v-96h394v-195h104zM62 -86h502v94h-398v139h391v94h-495v-327z" />
    <glyph glyph-name="cid309" unicode="&#xace8;" horiz-adv-x="620" 
d="M557 60v229h-495v-88h393v-57h-393v-230h502v88h-400v58h393zM34 355h551v94h-257v143h-105v-143h-189v-94zM557 502v263h-498v-96h394v-167h104z" />
    <glyph glyph-name="cid3088" unicode="&#xace9;" 
 />
    <glyph glyph-name="cid310" unicode="&#xacea;" horiz-adv-x="620" 
d="M56 203h135v-61h-135v-228h245v86h-147v62h135v227h-233v-86zM563 -86v375h-236v-375h236zM470 205v-205h-49v205h49zM34 355h551v94h-257v143h-105v-143h-189v-94zM557 502v263h-498v-96h394v-167h104z" />
    <glyph glyph-name="cid3089" unicode="&#xaceb;" 
 />
    <glyph glyph-name="cid311" unicode="&#xacec;" horiz-adv-x="620" 
d="M375 -86l62 317l59 -317h97l-83 380h-146l-64 -294h-146v62h130v227h-228v-86h130v-61h-130v-228h319zM34 355h551v94h-257v143h-105v-143h-189v-94zM557 502v263h-498v-96h394v-167h104z" />
    <glyph glyph-name="cid4752" unicode="&#xaced;" 
 />
    <glyph glyph-name="cid3090" unicode="&#xacee;" 
 />
    <glyph glyph-name="cid312" unicode="&#xacef;" horiz-adv-x="620" 
d="M56 203h124v-61h-124v-228h239v86h-141v62h124v227h-222v-86zM305 159h279v86h-91v54h-103v-54h-85v-86zM478 -96q22 0 40.5 9t32 24.5t21 36.5t7.5 44t-7.5 44t-21 36.5t-32 24.5t-40.5 9h-67q-22 0 -40.5 -9t-32 -24.5t-21 -36.5t-7.5 -44t7.5 -44t21 -36.5t32 -24.5
t40.5 -9h67zM402 18q0 14 7.5 23t19.5 9h31q12 0 19.5 -9t7.5 -23t-7.5 -23t-19.5 -9h-31q-12 0 -19.5 9t-7.5 23zM34 355h551v94h-257v143h-105v-143h-189v-94zM557 502v263h-498v-96h394v-167h104z" />
    <glyph glyph-name="cid313" unicode="&#xacf0;" horiz-adv-x="620" 
d="M557 -86v327h-495v-327h495zM455 149v-143h-291v143h291zM34 316h551v96h-257v166h-105v-166h-189v-96zM557 474v291h-498v-96h394v-195h104z" />
    <glyph glyph-name="cid314" unicode="&#xacf1;" horiz-adv-x="620" 
d="M164 265h-102v-351h495v351h-102v-86h-291v86zM455 6h-291v83h291v-83zM34 324h551v96h-257v162h-105v-162h-189v-96zM557 482v283h-498v-96h394v-187h104z" />
    <glyph glyph-name="cid4753" unicode="&#xacf2;" 
 />
    <glyph glyph-name="cid315" unicode="&#xacf3;" horiz-adv-x="620" 
d="M34 299h551v96h-257v177h-105v-177h-189v-96zM557 462v303h-498v-96h394v-207h104zM584 -86l-206 316h-137l-206 -316h122l152 245l153 -245h122z" />
    <glyph glyph-name="cid4754" unicode="&#xacf4;" 
 />
    <glyph glyph-name="cid316" unicode="&#xacf5;" horiz-adv-x="620" 
d="M409 -96q35 0 64 14t50 38t32.5 55.5t11.5 66.5t-11.5 66.5t-32.5 55.5t-50 38t-64 14h-199q-35 0 -64 -14t-50 -38t-32.5 -55.5t-11.5 -66.5t11.5 -66.5t32.5 -55.5t50 -38t64 -14h199zM154 78q0 39 19.5 60.5t54.5 21.5h163q34 0 54 -21.5t20 -60.5t-20 -60.5
t-54 -21.5h-163q-35 0 -54.5 21.5t-19.5 60.5zM34 316h551v96h-257v166h-105v-166h-189v-96zM557 474v291h-498v-96h394v-195h104z" />
    <glyph glyph-name="cid317" unicode="&#xacf6;" horiz-adv-x="620" 
d="M582 -86l-159 241h138v86h-503v-86h137l-158 -241h120l152 239l153 -239h120zM34 316h551v96h-257v166h-105v-166h-189v-96zM557 474v291h-498v-96h394v-195h104z" />
    <glyph glyph-name="cid3091" unicode="&#xacf7;" 
 />
    <glyph glyph-name="cid4755" unicode="&#xacf8;" 
 />
    <glyph glyph-name="cid318" unicode="&#xacf9;" horiz-adv-x="620" 
d="M34 355h551v94h-257v143h-105v-143h-189v-94zM557 502v263h-498v-96h394v-167h104zM62 -86h502v88h-400v58h383v84h-383v57h393v88h-495v-375z" />
    <glyph glyph-name="cid3092" unicode="&#xacfa;" 
 />
    <glyph glyph-name="cid3093" unicode="&#xacfb;" 
 />
    <glyph glyph-name="cid319" unicode="&#xacfc;" horiz-adv-x="620" 
d="M541 773h-104v-864h104v425h73v98h-73v341zM382 179v582h-343v-95h239v-487h104zM22 -61h386v96h-178v358h-104v-358h-104v-96z" />
    <glyph glyph-name="cid320" unicode="&#xacfd;" horiz-adv-x="620" 
d="M437 -91h104v309h-488v-96h384v-213zM541 773h-104v-524h104v224h73v98h-73v202zM22 294h386v96h-178v177h-104v-177h-104v-96zM382 457v306h-343v-94h239v-212h104z" />
    <glyph glyph-name="cid4756" unicode="&#xacfe;" 
 />
    <glyph glyph-name="cid4757" unicode="&#xacff;" 
 />
    <glyph glyph-name="cid321" unicode="&#xad00;" horiz-adv-x="620" 
d="M541 773h-104v-628h104v302h73v98h-73v228zM167 209h-104v-295h492v96h-388v199zM22 279h386v96h-178v187h-104v-187h-104v-96zM382 447v316h-343v-94h239v-222h104z" />
    <glyph glyph-name="cid4758" unicode="&#xad01;" 
 />
    <glyph glyph-name="cid4759" unicode="&#xad02;" 
 />
    <glyph glyph-name="cid3094" unicode="&#xad03;" 
 />
    <glyph glyph-name="cid322" unicode="&#xad04;" horiz-adv-x="620" 
d="M541 57v227h-478v-88h376v-55h-376v-227h492v88h-390v55h376zM541 773h-104v-457h104v180h73v98h-73v179zM22 350h386v94h-178v143h-104v-143h-104v-94zM382 497v266h-343v-92h239v-174h104z" />
    <glyph glyph-name="cid4760" unicode="&#xad05;" 
 />
    <glyph glyph-name="cid323" unicode="&#xad06;" horiz-adv-x="620" 
d="M541 -86v370h-233v-370h233zM56 196h121v-56h-121v-226h230v88h-132v56h121v226h-219v-88zM541 773h-104v-457h104v180h73v98h-73v179zM22 350h386v94h-178v143h-104v-143h-104v-94zM382 497v266h-343v-92h239v-174h104zM448 198v-198h-46v198h46z" />
    <glyph glyph-name="cid4761" unicode="&#xad07;" 
 />
    <glyph glyph-name="cid4762" unicode="&#xad08;" 
 />
    <glyph glyph-name="cid4763" unicode="&#xad09;" 
 />
    <glyph glyph-name="cid4764" unicode="&#xad0a;" 
 />
    <glyph glyph-name="cid4765" unicode="&#xad0b;" 
 />
    <glyph glyph-name="cid324" unicode="&#xad0c;" horiz-adv-x="620" 
d="M541 -86v326h-478v-326h478zM541 773h-104v-502h104v210h73v98h-73v194zM22 311h386v96h-178v166h-104v-166h-104v-96zM382 469v294h-343v-94h239v-200h104zM439 148v-142h-274v142h274z" />
    <glyph glyph-name="cid325" unicode="&#xad0d;" horiz-adv-x="620" 
d="M165 256h-102v-342h478v342h-102v-79h-274v79zM541 773h-104v-481h104v194h73v98h-73v189zM22 319h386v96h-178v162h-104v-162h-104v-96zM382 477v286h-343v-94h239v-192h104zM439 6h-274v81h274v-81z" />
    <glyph glyph-name="cid4766" unicode="&#xad0e;" 
 />
    <glyph glyph-name="cid326" unicode="&#xad0f;" horiz-adv-x="620" 
d="M575 -86l-197 316h-135l-197 -316h121l143 244l144 -244h121zM541 773h-104v-568h104v268h73v98h-73v202zM22 294h386v96h-178v177h-104v-177h-104v-96zM382 457v306h-343v-94h239v-212h104z" />
    <glyph glyph-name="cid327" unicode="&#xad10;" horiz-adv-x="620" 
d="M387 -86l45 260l45 -260h98l-69 327h-146l-47 -256l-47 256h-146l-69 -327h98l45 260l45 -260h148zM541 773h-104v-502h104v210h73v98h-73v194zM22 311h386v96h-178v166h-104v-166h-104v-96zM382 469v294h-343v-94h239v-200h104z" />
    <glyph glyph-name="cid328" unicode="&#xad11;" horiz-adv-x="620" 
d="M399 -96q35 0 64 14t50 37.5t32.5 55t11.5 66.5t-11.5 66.5t-32.5 55t-50 37.5t-64 14h-188q-35 0 -64 -14t-50 -37.5t-32.5 -55t-11.5 -66.5t11.5 -66.5t32.5 -55t50 -37.5t64 -14h188zM541 773h-104v-502h104v210h73v98h-73v194zM22 311h386v96h-178v166h-104v-166
h-104v-96zM382 469v294h-343v-94h239v-200h104zM155 77q0 38 19.5 59.5t54.5 21.5h152q34 0 54 -21.5t20 -59.5t-20 -59.5t-54 -21.5h-152q-35 0 -54.5 21.5t-19.5 59.5z" />
    <glyph glyph-name="cid329" unicode="&#xad12;" horiz-adv-x="620" 
d="M568 -86l-155 240h135v86h-483v-86h132l-154 -240h115l147 238l148 -238h115zM541 773h-104v-502h104v210h73v98h-73v194zM22 311h386v96h-178v166h-104v-166h-104v-96zM382 469v294h-343v-94h239v-200h104z" />
    <glyph glyph-name="cid4767" unicode="&#xad13;" 
 />
    <glyph glyph-name="cid4768" unicode="&#xad14;" 
 />
    <glyph glyph-name="cid4769" unicode="&#xad15;" 
 />
    <glyph glyph-name="cid4770" unicode="&#xad16;" 
 />
    <glyph glyph-name="cid4771" unicode="&#xad17;" 
 />
    <glyph glyph-name="cid330" unicode="&#xad18;" horiz-adv-x="620" 
d="M434 771h-96v-735h-157v357h-96v-357h-63v-96h316v-25h96v415h36v-421h98v864h-98v-347h-36v345zM303 189v571h-262v-95h166v-476h96z" />
    <glyph glyph-name="cid3095" unicode="&#xad19;" 
 />
    <glyph glyph-name="cid4772" unicode="&#xad1a;" 
 />
    <glyph glyph-name="cid4773" unicode="&#xad1b;" 
 />
    <glyph glyph-name="cid331" unicode="&#xad1c;" horiz-adv-x="620" 
d="M434 771h-96v-396h-157v187h-96v-187h-63v-96h316v-124h96v309h36v-319h98v628h-98v-213h-36v211zM173 205h-104v-291h509v96h-405v195zM303 447v315h-262v-94h166v-221h96z" />
    <glyph glyph-name="cid4774" unicode="&#xad1d;" 
 />
    <glyph glyph-name="cid4775" unicode="&#xad1e;" 
 />
    <glyph glyph-name="cid3096" unicode="&#xad1f;" 
 />
    <glyph glyph-name="cid332" unicode="&#xad20;" horiz-adv-x="620" 
d="M568 56v224h-499v-88h397v-52h-397v-226h509v88h-407v54h397zM434 771h-96v-323h-157v139h-96v-139h-63v-94h316v-32h96v173h36v-179h98v457h-98v-182h-36v180zM303 497v265h-262v-92h166v-173h96z" />
    <glyph glyph-name="cid4776" unicode="&#xad21;" 
 />
    <glyph glyph-name="cid333" unicode="&#xad22;" horiz-adv-x="620" 
d="M434 771h-96v-323h-157v139h-96v-139h-63v-94h316v-32h96v173h36v-179h98v457h-98v-182h-36v180zM568 -86v366h-236v-366h236zM61 194h135v-56h-135v-224h245v86h-147v58h135v222h-233v-86zM303 497v265h-262v-92h166v-173h96zM475 196v-196h-49v196h49z" />
    <glyph glyph-name="cid4777" unicode="&#xad23;" 
 />
    <glyph glyph-name="cid4778" unicode="&#xad24;" 
 />
    <glyph glyph-name="cid4779" unicode="&#xad25;" 
 />
    <glyph glyph-name="cid4780" unicode="&#xad26;" 
 />
    <glyph glyph-name="cid4781" unicode="&#xad27;" 
 />
    <glyph glyph-name="cid3097" unicode="&#xad28;" 
 />
    <glyph glyph-name="cid334" unicode="&#xad29;" horiz-adv-x="620" 
d="M171 256h-102v-342h499v342h-102v-79h-295v79zM434 771h-96v-352h-157v158h-96v-158h-63v-96h316v-25h96v182h36v-188h98v481h-98v-197h-36v195zM303 477v285h-262v-94h166v-191h96zM466 6h-295v81h295v-81z" />
    <glyph glyph-name="cid4782" unicode="&#xad2a;" 
 />
    <glyph glyph-name="cid3098" unicode="&#xad2b;" 
 />
    <glyph glyph-name="cid335" unicode="&#xad2c;" horiz-adv-x="620" 
d="M434 771h-96v-364h-157v166h-96v-166h-63v-96h316v-34h96v198h36v-204h98v502h-98v-202h-36v200zM400 -86l47 260l51 -260h98l-75 327h-146l-49 -258l-49 258h-146l-75 -327h98l51 260l47 -260h148zM303 469v293h-262v-94h166v-199h96z" />
    <glyph glyph-name="cid336" unicode="&#xad2d;" horiz-adv-x="620" 
d="M422 -96q35 0 64 13.5t50 37t32.5 54.5t11.5 66t-11.5 66t-32.5 54.5t-50 37t-64 13.5h-205q-35 0 -64 -13.5t-50 -37t-32.5 -54.5t-11.5 -66t11.5 -66t32.5 -54.5t50 -37t64 -13.5h205zM434 771h-96v-364h-157v166h-96v-166h-63v-96h316v-34h96v198h36v-204h98v502h-98
v-202h-36v200zM161 75q0 38 19.5 58.5t54.5 20.5h169q34 0 54 -20.5t20 -58.5t-20 -58.5t-54 -20.5h-169q-35 0 -54.5 20.5t-19.5 58.5zM303 469v293h-262v-94h166v-199h96z" />
    <glyph glyph-name="cid4783" unicode="&#xad2e;" 
 />
    <glyph glyph-name="cid4784" unicode="&#xad2f;" 
 />
    <glyph glyph-name="cid4785" unicode="&#xad30;" 
 />
    <glyph glyph-name="cid4786" unicode="&#xad31;" 
 />
    <glyph glyph-name="cid4787" unicode="&#xad32;" 
 />
    <glyph glyph-name="cid4788" unicode="&#xad33;" 
 />
    <glyph glyph-name="cid337" unicode="&#xad34;" horiz-adv-x="620" 
d="M27 -61h395v96h-183v358h-104v-358h-108v-96zM395 179v582h-351v-95h247v-487h104zM560 773h-104v-864h104v864z" />
    <glyph glyph-name="cid338" unicode="&#xad35;" horiz-adv-x="620" 
d="M560 773h-104v-524h104v524zM27 294h395v96h-183v177h-104v-177h-108v-96zM395 457v306h-351v-94h247v-212h104zM456 -91h104v309h-501v-96h397v-213z" />
    <glyph glyph-name="cid4789" unicode="&#xad36;" 
 />
    <glyph glyph-name="cid4790" unicode="&#xad37;" 
 />
    <glyph glyph-name="cid339" unicode="&#xad38;" horiz-adv-x="620" 
d="M560 773h-104v-628h104v628zM173 209h-104v-295h501v96h-397v199zM27 279h395v96h-183v187h-104v-187h-108v-96zM395 447v316h-351v-94h247v-222h104z" />
    <glyph glyph-name="cid4791" unicode="&#xad39;" 
 />
    <glyph glyph-name="cid4792" unicode="&#xad3a;" 
 />
    <glyph glyph-name="cid3099" unicode="&#xad3b;" 
 />
    <glyph glyph-name="cid340" unicode="&#xad3c;" horiz-adv-x="620" 
d="M560 773h-104v-457h104v457zM27 350h395v94h-183v143h-104v-143h-108v-94zM560 57v227h-491v-88h389v-55h-389v-227h503v88h-401v55h389zM395 497v266h-351v-92h247v-174h104z" />
    <glyph glyph-name="cid4793" unicode="&#xad3d;" 
 />
    <glyph glyph-name="cid3100" unicode="&#xad3e;" 
 />
    <glyph glyph-name="cid4794" unicode="&#xad3f;" 
 />
    <glyph glyph-name="cid4795" unicode="&#xad40;" 
 />
    <glyph glyph-name="cid4796" unicode="&#xad41;" 
 />
    <glyph glyph-name="cid4797" unicode="&#xad42;" 
 />
    <glyph glyph-name="cid4798" unicode="&#xad43;" 
 />
    <glyph glyph-name="cid341" unicode="&#xad44;" horiz-adv-x="620" 
d="M560 773h-104v-502h104v502zM27 311h395v96h-183v166h-104v-166h-108v-96zM395 469v294h-351v-94h247v-200h104zM560 -86v326h-491v-326h491zM458 148v-142h-287v142h287z" />
    <glyph glyph-name="cid342" unicode="&#xad45;" horiz-adv-x="620" 
d="M560 773h-104v-481h104v481zM171 256h-102v-342h491v342h-102v-79h-287v79zM458 6h-287v81h287v-81zM27 319h395v96h-183v162h-104v-162h-108v-96zM395 477v286h-351v-94h247v-192h104z" />
    <glyph glyph-name="cid4799" unicode="&#xad46;" 
 />
    <glyph glyph-name="cid343" unicode="&#xad47;" horiz-adv-x="620" 
d="M560 773h-104v-568h104v568zM27 294h395v96h-183v177h-104v-177h-108v-96zM395 457v306h-351v-94h247v-212h104zM591 -86l-202 316h-135l-202 -316h121l148 244l149 -244h121z" />
    <glyph glyph-name="cid3101" unicode="&#xad48;" 
 />
    <glyph glyph-name="cid344" unicode="&#xad49;" horiz-adv-x="620" 
d="M414 -96q35 0 64 14t50 37.5t32.5 55t11.5 66.5t-11.5 66.5t-32.5 55t-50 37.5t-64 14h-197q-35 0 -64 -14t-50 -37.5t-32.5 -55t-11.5 -66.5t11.5 -66.5t32.5 -55t50 -37.5t64 -14h197zM161 77q0 38 19.5 59.5t54.5 21.5h161q34 0 54 -21.5t20 -59.5t-20 -59.5
t-54 -21.5h-161q-35 0 -54.5 21.5t-19.5 59.5zM560 773h-104v-502h104v502zM27 311h395v96h-183v166h-104v-166h-108v-96zM395 469v294h-351v-94h247v-200h104z" />
    <glyph glyph-name="cid4800" unicode="&#xad4a;" 
 />
    <glyph glyph-name="cid4801" unicode="&#xad4b;" 
 />
    <glyph glyph-name="cid4802" unicode="&#xad4c;" 
 />
    <glyph glyph-name="cid4803" unicode="&#xad4d;" 
 />
    <glyph glyph-name="cid4804" unicode="&#xad4e;" 
 />
    <glyph glyph-name="cid4805" unicode="&#xad4f;" 
 />
    <glyph glyph-name="cid345" unicode="&#xad50;" horiz-adv-x="620" 
d="M557 209v554h-498v-97h395v-457h103zM34 -71h551v97h-180v367h-103v-367h-68v367h-103v-367h-97v-97z" />
    <glyph glyph-name="cid3102" unicode="&#xad51;" 
 />
    <glyph glyph-name="cid4806" unicode="&#xad52;" 
 />
    <glyph glyph-name="cid4807" unicode="&#xad53;" 
 />
    <glyph glyph-name="cid346" unicode="&#xad54;" horiz-adv-x="620" 
d="M166 214h-104v-300h502v96h-398v204zM557 457v308h-498v-96h395v-212h103zM34 282h551v96h-180v184h-103v-184h-68v184h-103v-184h-97v-96z" />
    <glyph glyph-name="cid4808" unicode="&#xad55;" 
 />
    <glyph glyph-name="cid4809" unicode="&#xad56;" 
 />
    <glyph glyph-name="cid3103" unicode="&#xad57;" 
 />
    <glyph glyph-name="cid347" unicode="&#xad58;" horiz-adv-x="620" 
d="M557 60v229h-495v-88h393v-57h-393v-230h502v88h-400v58h393zM557 507v258h-498v-96h395v-162h103zM34 353h551v94h-180v140h-103v-140h-68v140h-103v-140h-97v-94z" />
    <glyph glyph-name="cid4810" unicode="&#xad59;" 
 />
    <glyph glyph-name="cid4811" unicode="&#xad5a;" 
 />
    <glyph glyph-name="cid4812" unicode="&#xad5b;" 
 />
    <glyph glyph-name="cid4813" unicode="&#xad5c;" 
 />
    <glyph glyph-name="cid4814" unicode="&#xad5d;" 
 />
    <glyph glyph-name="cid4815" unicode="&#xad5e;" 
 />
    <glyph glyph-name="cid4816" unicode="&#xad5f;" 
 />
    <glyph glyph-name="cid348" unicode="&#xad60;" horiz-adv-x="620" 
d="M557 -86v327h-495v-327h495zM455 149v-143h-291v143h291zM557 479v286h-498v-96h395v-190h103zM34 314h551v96h-180v163h-103v-163h-68v163h-103v-163h-97v-96z" />
    <glyph glyph-name="cid349" unicode="&#xad61;" horiz-adv-x="620" 
d="M164 265h-102v-351h495v351h-102v-86h-291v86zM455 6h-291v83h291v-83zM557 487v278h-498v-96h395v-182h103zM34 322h551v96h-180v159h-103v-159h-68v159h-103v-159h-97v-96z" />
    <glyph glyph-name="cid4817" unicode="&#xad62;" 
 />
    <glyph glyph-name="cid350" unicode="&#xad63;" horiz-adv-x="620" 
d="M557 467v298h-498v-96h395v-202h103zM34 297h551v96h-180v174h-103v-174h-68v174h-103v-174h-97v-96zM584 -86l-206 316h-137l-206 -316h122l152 245l153 -245h122z" />
    <glyph glyph-name="cid4818" unicode="&#xad64;" 
 />
    <glyph glyph-name="cid351" unicode="&#xad65;" horiz-adv-x="620" 
d="M409 -96q35 0 64 14t50 38t32.5 55.5t11.5 66.5t-11.5 66.5t-32.5 55.5t-50 38t-64 14h-199q-35 0 -64 -14t-50 -38t-32.5 -55.5t-11.5 -66.5t11.5 -66.5t32.5 -55.5t50 -38t64 -14h199zM154 78q0 39 19.5 60.5t54.5 21.5h163q34 0 54 -21.5t20 -60.5t-20 -60.5
t-54 -21.5h-163q-35 0 -54.5 21.5t-19.5 60.5zM557 479v286h-498v-96h395v-190h103zM34 314h551v96h-180v163h-103v-163h-68v163h-103v-163h-97v-96z" />
    <glyph glyph-name="cid4819" unicode="&#xad66;" 
 />
    <glyph glyph-name="cid4820" unicode="&#xad67;" 
 />
    <glyph glyph-name="cid4821" unicode="&#xad68;" 
 />
    <glyph glyph-name="cid4822" unicode="&#xad69;" 
 />
    <glyph glyph-name="cid4823" unicode="&#xad6a;" 
 />
    <glyph glyph-name="cid4824" unicode="&#xad6b;" 
 />
    <glyph glyph-name="cid352" unicode="&#xad6c;" horiz-adv-x="620" 
d="M34 227h223v-318h105v318h223v96h-551v-96zM557 378v387h-498v-96h394v-291h104z" />
    <glyph glyph-name="cid353" unicode="&#xad6d;" horiz-adv-x="620" 
d="M34 337h223v-108h-202v-96h398v-224h104v320h-195v108h223v96h-33v332h-493v-96h389v-236h-414v-96z" />
    <glyph glyph-name="cid4825" unicode="&#xad6e;" 
 />
    <glyph glyph-name="cid4826" unicode="&#xad6f;" 
 />
    <glyph glyph-name="cid354" unicode="&#xad70;" horiz-adv-x="620" 
d="M34 323h229v-193h105v193h217v96h-33v346h-493v-96h389v-250h-414v-96zM166 224h-104v-310h502v96h-398v214z" />
    <glyph glyph-name="cid4827" unicode="&#xad71;" 
 />
    <glyph glyph-name="cid4828" unicode="&#xad72;" 
 />
    <glyph glyph-name="cid355" unicode="&#xad73;" horiz-adv-x="620" 
d="M34 351h223v-100h-195v-337h502v94h-398v149h391v94h-195v100h223v96h-33v318h-493v-96h389v-222h-414v-96z" />
    <glyph glyph-name="cid356" unicode="&#xad74;" horiz-adv-x="620" 
d="M34 390h223v-91h-195v-88h393v-62h-393v-235h502v88h-400v63h393v234h-195v91h223v94h-33v281h-493v-94h389v-187h-414v-94z" />
    <glyph glyph-name="cid357" unicode="&#xad75;" horiz-adv-x="620" 
d="M561 -91v390h-199v91h223v94h-33v281h-493v-94h389v-187h-414v-94h223v-91h-199v-86h143v-66h-143v-233h291v86h-191v67h143v208h32v-66h126v-300h102z" />
    <glyph glyph-name="cid358" unicode="&#xad76;" horiz-adv-x="620" 
d="M563 -86v385h-201v91h223v94h-33v281h-493v-94h389v-187h-414v-94h223v-91h-201v-86h135v-66h-135v-233h245v86h-147v67h135v208h38v-361h236zM470 215v-215h-49v215h49z" />
    <glyph glyph-name="cid4829" unicode="&#xad77;" 
 />
    <glyph glyph-name="cid3104" unicode="&#xad78;" 
 />
    <glyph glyph-name="cid4830" unicode="&#xad79;" 
 />
    <glyph glyph-name="cid4831" unicode="&#xad7a;" 
 />
    <glyph glyph-name="cid359" unicode="&#xad7b;" horiz-adv-x="620" 
d="M34 390h223v-91h-201v-86h124v-66h-124v-233h239v86h-141v67h124v208h84v115h223v94h-33v281h-493v-94h389v-187h-414v-94zM478 -96q22 0 40.5 9.5t32 25t21 37t7.5 45.5t-7.5 45.5t-21 37t-32 25t-40.5 9.5h-67q-22 0 -40.5 -9.5t-32 -25t-21 -37t-7.5 -45.5t7.5 -45.5
t21 -37t32 -25t40.5 -9.5h67zM305 167h279v86h-91v56h-103v-56h-85v-86zM402 21q0 16 7.5 25.5t19.5 9.5h31q12 0 19.5 -9.5t7.5 -25.5t-7.5 -25.5t-19.5 -9.5h-31q-12 0 -19.5 9.5t-7.5 25.5z" />
    <glyph glyph-name="cid360" unicode="&#xad7c;" horiz-adv-x="620" 
d="M34 351h223v-100h-195v-337h495v337h-195v100h223v96h-33v318h-493v-96h389v-222h-414v-96zM455 159v-153h-291v153h291z" />
    <glyph glyph-name="cid361" unicode="&#xad7d;" horiz-adv-x="620" 
d="M164 275h-102v-361h495v361h-102v-91h-291v91zM34 361h223v-128h105v128h223v96h-33v308h-493v-96h389v-212h-414v-96zM455 6h-291v88h291v-88z" />
    <glyph glyph-name="cid4832" unicode="&#xad7e;" 
 />
    <glyph glyph-name="cid362" unicode="&#xad7f;" horiz-adv-x="620" 
d="M34 351h223v-124h105v124h223v96h-33v318h-493v-96h389v-222h-414v-96zM584 -86l-207 281h-135l-207 -281h123l151 212l152 -212h123z" />
    <glyph glyph-name="cid4833" unicode="&#xad80;" 
 />
    <glyph glyph-name="cid363" unicode="&#xad81;" horiz-adv-x="620" 
d="M34 351h223v-89h-47q-35 0 -64 -14.5t-50 -39t-32.5 -57t-11.5 -68.5t11.5 -68.5t32.5 -57t50 -39t64 -14.5h199q35 0 64 14.5t50 39t32.5 57t11.5 68.5t-11.5 68.5t-32.5 57t-50 39t-64 14.5h-47v89h223v96h-33v318h-493v-96h389v-222h-414v-96zM154 83q0 41 19.5 64
t54.5 23h163q34 0 54 -23t20 -64t-20 -64t-54 -23h-163q-35 0 -54.5 23t-19.5 64z" />
    <glyph glyph-name="cid364" unicode="&#xad82;" horiz-adv-x="620" 
d="M582 -86l-160 251h139v86h-199v100h223v96h-33v318h-493v-96h389v-222h-414v-96h223v-100h-199v-86h138l-159 -251h120l152 249l153 -249h120z" />
    <glyph glyph-name="cid365" unicode="&#xad83;" horiz-adv-x="620" 
d="M34 386h223v-83h105v83h223v94h-33v285h-493v-94h389v-191h-414v-94zM582 -86l-158 215h137v86h-199v58h-105v-58h-199v-86h136l-157 -215h120l152 213l153 -213h120z" />
    <glyph glyph-name="cid4834" unicode="&#xad84;" 
 />
    <glyph glyph-name="cid4835" unicode="&#xad85;" 
 />
    <glyph glyph-name="cid3105" unicode="&#xad86;" 
 />
    <glyph glyph-name="cid4836" unicode="&#xad87;" 
 />
    <glyph glyph-name="cid366" unicode="&#xad88;" horiz-adv-x="620" 
d="M329 84h127v-175h104v864h-104v-595h-127v-94zM27 265h131v-351h104v351h160v96h-395v-96zM389 396v367h-345v-95h241v-272h104z" />
    <glyph glyph-name="cid367" unicode="&#xad89;" horiz-adv-x="620" 
d="M27 384h119v-128h104v128h172v94h-33v285h-345v-94h241v-191h-258v-94zM456 -91h104v297h-501v-96h397v-201zM332 260h228v513h-104v-427h-124v-86z" />
    <glyph glyph-name="cid4837" unicode="&#xad8a;" 
 />
    <glyph glyph-name="cid4838" unicode="&#xad8b;" 
 />
    <glyph glyph-name="cid368" unicode="&#xad8c;" horiz-adv-x="620" 
d="M27 365h142v-142h104v142h149v96h-33v302h-345v-94h241v-208h-258v-96zM332 225h124v-77h104v625h-104v-460h-124v-88zM170 208h-104v-294h504v96h-400v198z" />
    <glyph glyph-name="cid4839" unicode="&#xad8d;" 
 />
    <glyph glyph-name="cid4840" unicode="&#xad8e;" 
 />
    <glyph glyph-name="cid3106" unicode="&#xad8f;" 
 />
    <glyph glyph-name="cid369" unicode="&#xad90;" horiz-adv-x="620" 
d="M560 50v220h-491v-88h389v-48h-389v-220h503v88h-401v48h389zM27 428h131v-126h104v126h160v94h-33v241h-345v-94h241v-147h-258v-94zM332 306h228v467h-104v-381h-124v-86z" />
    <glyph glyph-name="cid4841" unicode="&#xad91;" 
 />
    <glyph glyph-name="cid4842" unicode="&#xad92;" 
 />
    <glyph glyph-name="cid4843" unicode="&#xad93;" 
 />
    <glyph glyph-name="cid4844" unicode="&#xad94;" 
 />
    <glyph glyph-name="cid4845" unicode="&#xad95;" 
 />
    <glyph glyph-name="cid4846" unicode="&#xad96;" 
 />
    <glyph glyph-name="cid4847" unicode="&#xad97;" 
 />
    <glyph glyph-name="cid3107" unicode="&#xad98;" 
 />
    <glyph glyph-name="cid3108" unicode="&#xad99;" 
 />
    <glyph glyph-name="cid4848" unicode="&#xad9a;" 
 />
    <glyph glyph-name="cid3109" unicode="&#xad9b;" 
 />
    <glyph glyph-name="cid370" unicode="&#xad9c;" horiz-adv-x="620" 
d="M395 -86l48 246l47 -246h98l-71 313h-146l-49 -243l-49 243h-146l-71 -313h98l47 246l48 -246h146zM27 398h131v-125h104v125h160v94h-33v271h-345v-94h241v-177h-258v-94zM332 277h228v496h-104v-410h-124v-86z" />
    <glyph glyph-name="cid371" unicode="&#xad9d;" horiz-adv-x="620" 
d="M414 -96q35 0 64 13t50 35.5t32.5 52t11.5 63.5t-11.5 63.5t-32.5 52t-50 35.5t-64 13h-197q-35 0 -64 -13t-50 -35.5t-32.5 -52t-11.5 -63.5t11.5 -63.5t32.5 -52t50 -35.5t64 -13h197zM27 398h119v-125h104v125h172v94h-33v271h-345v-94h241v-177h-258v-94zM332 277
h228v496h-104v-410h-124v-86zM161 68q0 36 19.5 54t54.5 18h161q34 0 54 -18t20 -54t-20 -54t-54 -18h-161q-35 0 -54.5 18t-19.5 54z" />
    <glyph glyph-name="cid4849" unicode="&#xad9e;" 
 />
    <glyph glyph-name="cid4850" unicode="&#xad9f;" 
 />
    <glyph glyph-name="cid4851" unicode="&#xada0;" 
 />
    <glyph glyph-name="cid4852" unicode="&#xada1;" 
 />
    <glyph glyph-name="cid4853" unicode="&#xada2;" 
 />
    <glyph glyph-name="cid4854" unicode="&#xada3;" 
 />
    <glyph glyph-name="cid372" unicode="&#xada4;" horiz-adv-x="620" 
d="M256 94h82v-179h96v856h-96v-410h-316v-96h93v-351h104v351h119v-77h-82v-94zM568 773h-98v-864h98v864zM296 396v366h-255v-94h159v-272h96z" />
    <glyph glyph-name="cid3110" unicode="&#xada5;" 
 />
    <glyph glyph-name="cid4855" unicode="&#xada6;" 
 />
    <glyph glyph-name="cid4856" unicode="&#xada7;" 
 />
    <glyph glyph-name="cid3111" unicode="&#xada8;" 
 />
    <glyph glyph-name="cid4857" unicode="&#xada9;" 
 />
    <glyph glyph-name="cid4858" unicode="&#xadaa;" 
 />
    <glyph glyph-name="cid3112" unicode="&#xadab;" 
 />
    <glyph glyph-name="cid3113" unicode="&#xadac;" 
 />
    <glyph glyph-name="cid4859" unicode="&#xadad;" 
 />
    <glyph glyph-name="cid4860" unicode="&#xadae;" 
 />
    <glyph glyph-name="cid4861" unicode="&#xadaf;" 
 />
    <glyph glyph-name="cid4862" unicode="&#xadb0;" 
 />
    <glyph glyph-name="cid4863" unicode="&#xadb1;" 
 />
    <glyph glyph-name="cid4864" unicode="&#xadb2;" 
 />
    <glyph glyph-name="cid4865" unicode="&#xadb3;" 
 />
    <glyph glyph-name="cid3114" unicode="&#xadb4;" 
 />
    <glyph glyph-name="cid3115" unicode="&#xadb5;" 
 />
    <glyph glyph-name="cid4866" unicode="&#xadb6;" 
 />
    <glyph glyph-name="cid373" unicode="&#xadb7;" horiz-adv-x="620" 
d="M22 383h93v-175h104v175h119v-38h-82v-84h178v510h-96v-292h-42v283h-255v-92h159v-191h-178v-96zM599 -86l-206 304h-135l-206 -304h121l152 233l153 -233h121zM568 773h-98v-575h98v575z" />
    <glyph glyph-name="cid374" unicode="&#xadb8;" horiz-adv-x="620" 
d="M256 279h178v492h-96v-281h-42v272h-255v-92h159v-180h-178v-94h93v-125h104v125h119v-33h-82v-84zM400 -86l47 251l51 -251h98l-75 317h-146l-49 -250l-49 250h-146l-75 -317h98l51 251l47 -251h148zM568 773h-98v-502h98v502z" />
    <glyph glyph-name="cid3116" unicode="&#xadb9;" 
 />
    <glyph glyph-name="cid4867" unicode="&#xadba;" 
 />
    <glyph glyph-name="cid4868" unicode="&#xadbb;" 
 />
    <glyph glyph-name="cid4869" unicode="&#xadbc;" 
 />
    <glyph glyph-name="cid4870" unicode="&#xadbd;" 
 />
    <glyph glyph-name="cid4871" unicode="&#xadbe;" 
 />
    <glyph glyph-name="cid4872" unicode="&#xadbf;" 
 />
    <glyph glyph-name="cid375" unicode="&#xadc0;" horiz-adv-x="620" 
d="M560 773h-104v-864h104v864zM389 376v387h-345v-95h241v-292h104zM27 235h136v-321h104v321h155v96h-395v-96z" />
    <glyph glyph-name="cid376" unicode="&#xadc1;" horiz-adv-x="620" 
d="M27 363h142v-112h104v112h149v96h-33v304h-345v-94h241v-210h-258v-96zM456 -91h104v307h-501v-96h397v-211zM560 773h-104v-522h104v522z" />
    <glyph glyph-name="cid4873" unicode="&#xadc2;" 
 />
    <glyph glyph-name="cid4874" unicode="&#xadc3;" 
 />
    <glyph glyph-name="cid377" unicode="&#xadc4;" horiz-adv-x="620" 
d="M27 345h167v-157h104v157h124v96h-33v322h-345v-94h241v-228h-258v-96zM170 228h-104v-314h504v96h-400v218zM560 773h-104v-605h104v605z" />
    <glyph glyph-name="cid4875" unicode="&#xadc5;" 
 />
    <glyph glyph-name="cid4876" unicode="&#xadc6;" 
 />
    <glyph glyph-name="cid3117" unicode="&#xadc7;" 
 />
    <glyph glyph-name="cid378" unicode="&#xadc8;" horiz-adv-x="620" 
d="M560 55v225h-491v-88h389v-53h-389v-225h503v88h-401v53h389zM27 412h142v-100h104v100h149v94h-33v257h-345v-92h241v-165h-258v-94zM560 773h-104v-457h104v457z" />
    <glyph glyph-name="cid4877" unicode="&#xadc9;" 
 />
    <glyph glyph-name="cid3118" unicode="&#xadca;" 
 />
    <glyph glyph-name="cid4878" unicode="&#xadcb;" 
 />
    <glyph glyph-name="cid4879" unicode="&#xadcc;" 
 />
    <glyph glyph-name="cid4880" unicode="&#xadcd;" 
 />
    <glyph glyph-name="cid4881" unicode="&#xadce;" 
 />
    <glyph glyph-name="cid4882" unicode="&#xadcf;" 
 />
    <glyph glyph-name="cid379" unicode="&#xadd0;" horiz-adv-x="620" 
d="M560 -86v322h-491v-322h491zM27 377h142v-106h104v106h149v96h-33v290h-345v-94h241v-196h-258v-96zM560 773h-104v-502h104v502zM458 144v-138h-287v138h287z" />
    <glyph glyph-name="cid380" unicode="&#xadd1;" horiz-adv-x="620" 
d="M171 246h-102v-332h491v332h-102v-74h-287v74zM27 386h142v-109h104v109h149v96h-33v281h-345v-94h241v-187h-258v-96zM560 773h-104v-491h104v491zM458 6h-287v76h287v-76z" />
    <glyph glyph-name="cid4883" unicode="&#xadd2;" 
 />
    <glyph glyph-name="cid381" unicode="&#xadd3;" horiz-adv-x="620" 
d="M27 363h109v-137h104v137h182v96h-33v304h-345v-94h241v-210h-258v-96zM591 -86l-202 312h-135l-202 -312h121l148 241l149 -241h121zM560 773h-104v-567h104v567z" />
    <glyph glyph-name="cid3119" unicode="&#xadd4;" 
 />
    <glyph glyph-name="cid382" unicode="&#xadd5;" horiz-adv-x="620" 
d="M414 -96q35 0 64 13.5t50 37t32.5 54.5t11.5 66t-11.5 66t-32.5 54.5t-50 37t-64 13.5h-197q-35 0 -64 -13.5t-50 -37t-32.5 -54.5t-11.5 -66t11.5 -66t32.5 -54.5t50 -37t64 -13.5h197zM27 377h142v-106h104v106h149v96h-33v290h-345v-94h241v-196h-258v-96zM560 773
h-104v-502h104v502zM161 75q0 38 19.5 58.5t54.5 20.5h161q34 0 54 -20.5t20 -58.5t-20 -58.5t-54 -20.5h-161q-35 0 -54.5 20.5t-19.5 58.5z" />
    <glyph glyph-name="cid4884" unicode="&#xadd6;" 
 />
    <glyph glyph-name="cid4885" unicode="&#xadd7;" 
 />
    <glyph glyph-name="cid4886" unicode="&#xadd8;" 
 />
    <glyph glyph-name="cid4887" unicode="&#xadd9;" 
 />
    <glyph glyph-name="cid4888" unicode="&#xadda;" 
 />
    <glyph glyph-name="cid4889" unicode="&#xaddb;" 
 />
    <glyph glyph-name="cid383" unicode="&#xaddc;" horiz-adv-x="620" 
d="M557 388v377h-498v-96h394v-281h104zM34 239h95v-328h104v328h153v-328h104v328h95v96h-551v-96z" />
    <glyph glyph-name="cid3120" unicode="&#xaddd;" 
 />
    <glyph glyph-name="cid4890" unicode="&#xadde;" 
 />
    <glyph glyph-name="cid4891" unicode="&#xaddf;" 
 />
    <glyph glyph-name="cid384" unicode="&#xade0;" horiz-adv-x="620" 
d="M34 325h170v-187h103v187h70v-187h103v187h105v96h-33v344h-493v-96h389v-248h-414v-96zM166 220h-104v-306h502v96h-398v210z" />
    <glyph glyph-name="cid4892" unicode="&#xade1;" 
 />
    <glyph glyph-name="cid4893" unicode="&#xade2;" 
 />
    <glyph glyph-name="cid4894" unicode="&#xade3;" 
 />
    <glyph glyph-name="cid385" unicode="&#xade4;" horiz-adv-x="620" 
d="M34 392h110v-93h-82v-88h393v-62h-393v-235h502v88h-400v63h393v234h-82v93h110v94h-33v279h-493v-94h389v-185h-414v-94zM247 392h125v-93h-125v93z" />
    <glyph glyph-name="cid4895" unicode="&#xade5;" 
 />
    <glyph glyph-name="cid4896" unicode="&#xade6;" 
 />
    <glyph glyph-name="cid4897" unicode="&#xade7;" 
 />
    <glyph glyph-name="cid3121" unicode="&#xade8;" 
 />
    <glyph glyph-name="cid4898" unicode="&#xade9;" 
 />
    <glyph glyph-name="cid4899" unicode="&#xadea;" 
 />
    <glyph glyph-name="cid4900" unicode="&#xadeb;" 
 />
    <glyph glyph-name="cid386" unicode="&#xadec;" horiz-adv-x="620" 
d="M34 353h110v-102h-82v-337h495v337h-82v102h110v96h-33v316h-493v-96h389v-220h-414v-96zM455 159v-153h-291v153h291zM247 353h125v-102h-125v102z" />
    <glyph glyph-name="cid387" unicode="&#xaded;" horiz-adv-x="620" 
d="M34 363h125v-88h-97v-361h495v361h-97v88h125v96h-33v306h-493v-96h389v-210h-414v-96zM164 184v61h98v118h95v-118h98v-61h-291zM455 6h-291v88h291v-88z" />
    <glyph glyph-name="cid4901" unicode="&#xadee;" 
 />
    <glyph glyph-name="cid3122" unicode="&#xadef;" 
 />
    <glyph glyph-name="cid4902" unicode="&#xadf0;" 
 />
    <glyph glyph-name="cid3123" unicode="&#xadf1;" 
 />
    <glyph glyph-name="cid4903" unicode="&#xadf2;" 
 />
    <glyph glyph-name="cid4904" unicode="&#xadf3;" 
 />
    <glyph glyph-name="cid4905" unicode="&#xadf4;" 
 />
    <glyph glyph-name="cid4906" unicode="&#xadf5;" 
 />
    <glyph glyph-name="cid4907" unicode="&#xadf6;" 
 />
    <glyph glyph-name="cid4908" unicode="&#xadf7;" 
 />
    <glyph glyph-name="cid388" unicode="&#xadf8;" horiz-adv-x="620" 
d="M34 -71h551v97h-551v-97zM555 103v660h-496v-97h391v-563h105z" />
    <glyph glyph-name="cid389" unicode="&#xadf9;" horiz-adv-x="620" 
d="M34 329h551v96h-33v340h-493v-96h389v-244h-414v-96zM453 -91h104v320h-502v-96h398v-224z" />
    <glyph glyph-name="cid4909" unicode="&#xadfa;" 
 />
    <glyph glyph-name="cid4910" unicode="&#xadfb;" 
 />
    <glyph glyph-name="cid390" unicode="&#xadfc;" horiz-adv-x="620" 
d="M34 313h551v96h-33v356h-493v-96h389v-260h-414v-96zM166 224h-104v-310h502v96h-398v214z" />
    <glyph glyph-name="cid4911" unicode="&#xadfd;" 
 />
    <glyph glyph-name="cid3124" unicode="&#xadfe;" 
 />
    <glyph glyph-name="cid391" unicode="&#xadff;" horiz-adv-x="620" 
d="M34 343h551v96h-33v326h-493v-96h389v-230h-414v-96zM62 -86h502v94h-398v149h391v94h-495v-337z" />
    <glyph glyph-name="cid392" unicode="&#xae00;" horiz-adv-x="620" 
d="M557 65v234h-495v-88h393v-62h-393v-235h502v88h-400v63h393zM34 382h551v94h-33v289h-493v-94h389v-195h-414v-94z" />
    <glyph glyph-name="cid393" unicode="&#xae01;" horiz-adv-x="620" 
d="M34 382h551v94h-33v289h-493v-94h389v-195h-414v-94zM58 213h143v-66h-143v-233h291v86h-191v67h143v232h-243v-86zM561 -91v390h-228v-90h126v-300h102z" />
    <glyph glyph-name="cid394" unicode="&#xae02;" horiz-adv-x="620" 
d="M34 382h551v94h-33v289h-493v-94h389v-195h-414v-94zM563 -86v385h-236v-385h236zM56 213h135v-66h-135v-233h245v86h-147v67h135v232h-233v-86zM470 215v-215h-49v215h49z" />
    <glyph glyph-name="cid3125" unicode="&#xae03;" 
 />
    <glyph glyph-name="cid3126" unicode="&#xae04;" 
 />
    <glyph glyph-name="cid4912" unicode="&#xae05;" 
 />
    <glyph glyph-name="cid4913" unicode="&#xae06;" 
 />
    <glyph glyph-name="cid395" unicode="&#xae07;" horiz-adv-x="620" 
d="M34 382h551v94h-33v289h-493v-94h389v-195h-414v-94zM56 213h124v-66h-124v-233h239v86h-141v67h124v232h-222v-86zM478 -96q22 0 40.5 9.5t32 25t21 37t7.5 45.5t-7.5 45.5t-21 37t-32 25t-40.5 9.5h-67q-22 0 -40.5 -9.5t-32 -25t-21 -37t-7.5 -45.5t7.5 -45.5t21 -37
t32 -25t40.5 -9.5h67zM305 167h279v86h-91v56h-103v-56h-85v-86zM402 21q0 16 7.5 25.5t19.5 9.5h31q12 0 19.5 -9.5t7.5 -25.5t-7.5 -25.5t-19.5 -9.5h-31q-12 0 -19.5 9.5t-7.5 25.5z" />
    <glyph glyph-name="cid396" unicode="&#xae08;" horiz-adv-x="620" 
d="M557 -86v337h-495v-337h495zM34 343h551v96h-33v326h-493v-96h389v-230h-414v-96zM455 159v-153h-291v153h291z" />
    <glyph glyph-name="cid397" unicode="&#xae09;" horiz-adv-x="620" 
d="M164 275h-102v-361h495v361h-102v-91h-291v91zM34 351h551v96h-33v318h-493v-96h389v-222h-414v-96zM455 6h-291v88h291v-88z" />
    <glyph glyph-name="cid4914" unicode="&#xae0a;" 
 />
    <glyph glyph-name="cid398" unicode="&#xae0b;" horiz-adv-x="620" 
d="M34 326h551v96h-33v343h-493v-96h389v-247h-414v-96zM584 -86l-206 326h-137l-206 -326h122l152 254l153 -254h122z" />
    <glyph glyph-name="cid4915" unicode="&#xae0c;" 
 />
    <glyph glyph-name="cid399" unicode="&#xae0d;" horiz-adv-x="620" 
d="M409 -96q35 0 64 14.5t50 39t32.5 57t11.5 68.5t-11.5 68.5t-32.5 57t-50 39t-64 14.5h-199q-35 0 -64 -14.5t-50 -39t-32.5 -57t-11.5 -68.5t11.5 -68.5t32.5 -57t50 -39t64 -14.5h199zM34 343h551v96h-33v326h-493v-96h389v-230h-414v-96zM154 83q0 41 19.5 64t54.5 23
h163q34 0 54 -23t20 -64t-20 -64t-54 -23h-163q-35 0 -54.5 23t-19.5 64z" />
    <glyph glyph-name="cid3127" unicode="&#xae0e;" 
 />
    <glyph glyph-name="cid400" unicode="&#xae0f;" horiz-adv-x="620" 
d="M34 351h551v96h-33v318h-493v-96h389v-222h-414v-96zM582 -86l-158 217h137v86h-199v77h-105v-77h-199v-86h137l-158 -217h120l152 215l153 -215h120z" />
    <glyph glyph-name="cid4916" unicode="&#xae10;" 
 />
    <glyph glyph-name="cid401" unicode="&#xae11;" horiz-adv-x="620" 
d="M62 -86h502v88h-400v63h383v84h-383v62h393v88h-495v-385zM34 382h551v94h-33v289h-493v-94h389v-195h-414v-94z" />
    <glyph glyph-name="cid3128" unicode="&#xae12;" 
 />
    <glyph glyph-name="cid402" unicode="&#xae13;" horiz-adv-x="620" 
d="M34 382h551v94h-33v289h-493v-94h389v-195h-414v-94zM444 -96q23 0 43.5 9t36.5 25.5t25 38.5t9 49t-9 49t-25 38.5t-36.5 25.5t-43.5 9h-268q-23 0 -44 -9t-37 -25.5t-25 -38.5t-9 -49t9 -49t25 -38.5t37 -25.5t44 -9h268zM48 185h523v90h-209v54h-105v-54h-209v-90z
M197 -8q-16 0 -25.5 8.5t-9.5 25.5t9.5 25.5t25.5 8.5h226q16 0 25.5 -8.5t9.5 -25.5t-9.5 -25.5t-25.5 -8.5h-226z" />
    <glyph glyph-name="cid403" unicode="&#xae14;" horiz-adv-x="620" 
d="M27 -61h395v96h-395v-96zM390 169v592h-346v-95h242v-497h104zM560 773h-104v-864h104v864z" />
    <glyph glyph-name="cid3129" unicode="&#xae15;" 
 />
    <glyph glyph-name="cid4917" unicode="&#xae16;" 
 />
    <glyph glyph-name="cid4918" unicode="&#xae17;" 
 />
    <glyph glyph-name="cid404" unicode="&#xae18;" horiz-adv-x="620" 
d="M27 328h395v96h-33v339h-345v-94h241v-245h-258v-96zM173 229h-104v-315h501v96h-397v219zM560 773h-104v-608h104v608z" />
    <glyph glyph-name="cid4919" unicode="&#xae19;" 
 />
    <glyph glyph-name="cid4920" unicode="&#xae1a;" 
 />
    <glyph glyph-name="cid4921" unicode="&#xae1b;" 
 />
    <glyph glyph-name="cid3130" unicode="&#xae1c;" 
 />
    <glyph glyph-name="cid4922" unicode="&#xae1d;" 
 />
    <glyph glyph-name="cid4923" unicode="&#xae1e;" 
 />
    <glyph glyph-name="cid4924" unicode="&#xae1f;" 
 />
    <glyph glyph-name="cid3131" unicode="&#xae20;" 
 />
    <glyph glyph-name="cid4925" unicode="&#xae21;" 
 />
    <glyph glyph-name="cid4926" unicode="&#xae22;" 
 />
    <glyph glyph-name="cid4927" unicode="&#xae23;" 
 />
    <glyph glyph-name="cid3132" unicode="&#xae24;" 
 />
    <glyph glyph-name="cid3133" unicode="&#xae25;" 
 />
    <glyph glyph-name="cid4928" unicode="&#xae26;" 
 />
    <glyph glyph-name="cid3134" unicode="&#xae27;" 
 />
    <glyph glyph-name="cid4929" unicode="&#xae28;" 
 />
    <glyph glyph-name="cid405" unicode="&#xae29;" horiz-adv-x="620" 
d="M414 -96q35 0 64 14.5t50 38.5t32.5 56.5t11.5 68.5t-11.5 68.5t-32.5 56.5t-50 38.5t-64 14.5h-197q-35 0 -64 -14.5t-50 -38.5t-32.5 -56.5t-11.5 -68.5t11.5 -68.5t32.5 -56.5t50 -38.5t64 -14.5h197zM27 348h395v96h-33v319h-345v-94h241v-225h-258v-96zM560 773
h-104v-492h104v492zM161 82q0 40 19.5 63t54.5 23h161q34 0 54 -23t20 -63t-20 -63t-54 -23h-161q-35 0 -54.5 23t-19.5 63z" />
    <glyph glyph-name="cid4930" unicode="&#xae2a;" 
 />
    <glyph glyph-name="cid4931" unicode="&#xae2b;" 
 />
    <glyph glyph-name="cid4932" unicode="&#xae2c;" 
 />
    <glyph glyph-name="cid4933" unicode="&#xae2d;" 
 />
    <glyph glyph-name="cid4934" unicode="&#xae2e;" 
 />
    <glyph glyph-name="cid4935" unicode="&#xae2f;" 
 />
    <glyph glyph-name="cid406" unicode="&#xae30;" horiz-adv-x="620" 
d="M560 773h-104v-864h104v864zM46 667h235l-247 -740h109l245 740v92h-342v-92z" />
    <glyph glyph-name="cid407" unicode="&#xae31;" horiz-adv-x="620" 
d="M456 -91h104v319h-501v-96h397v-223zM560 773h-104v-505h104v505zM46 671h223l-235 -367h121l233 367v92h-342v-92z" />
    <glyph glyph-name="cid4936" unicode="&#xae32;" 
 />
    <glyph glyph-name="cid4937" unicode="&#xae33;" 
 />
    <glyph glyph-name="cid408" unicode="&#xae34;" horiz-adv-x="620" 
d="M560 773h-104v-595h104v595zM173 238h-104v-324h501v96h-397v228zM46 671h223l-235 -377h121l233 377v92h-342v-92z" />
    <glyph glyph-name="cid4938" unicode="&#xae35;" 
 />
    <glyph glyph-name="cid4939" unicode="&#xae36;" 
 />
    <glyph glyph-name="cid409" unicode="&#xae37;" horiz-adv-x="620" 
d="M560 773h-104v-485h104v485zM69 -86h503v94h-399v146h392v94h-496v-334zM46 671h223l-235 -357h121l233 357v92h-342v-92z" />
    <glyph glyph-name="cid410" unicode="&#xae38;" horiz-adv-x="620" 
d="M560 773h-104v-455h104v455zM560 56v226h-491v-90h389v-50h-389v-228h503v90h-401v52h389zM46 671h223l-235 -333h121l233 333v92h-342v-92z" />
    <glyph glyph-name="cid3135" unicode="&#xae39;" 
 />
    <glyph glyph-name="cid411" unicode="&#xae3a;" horiz-adv-x="620" 
d="M61 194h129v-54h-129v-226h236v88h-138v56h129v224h-227v-88zM560 -86v368h-238v-368h238zM467 196v-196h-51v196h51zM560 773h-104v-455h104v455zM46 671h223l-235 -333h121l233 333v92h-342v-92z" />
    <glyph glyph-name="cid4940" unicode="&#xae3b;" 
 />
    <glyph glyph-name="cid3136" unicode="&#xae3c;" 
 />
    <glyph glyph-name="cid4941" unicode="&#xae3d;" 
 />
    <glyph glyph-name="cid4942" unicode="&#xae3e;" 
 />
    <glyph glyph-name="cid4943" unicode="&#xae3f;" 
 />
    <glyph glyph-name="cid412" unicode="&#xae40;" horiz-adv-x="620" 
d="M560 773h-104v-485h104v485zM560 -86v334h-491v-334h491zM458 156v-150h-287v150h287zM46 671h223l-235 -357h121l233 357v92h-342v-92z" />
    <glyph glyph-name="cid413" unicode="&#xae41;" horiz-adv-x="620" 
d="M560 773h-104v-469h104v469zM171 268h-102v-354h491v354h-102v-85h-287v85zM458 6h-287v87h287v-87zM46 671h223l-235 -347h121l233 347v92h-342v-92z" />
    <glyph glyph-name="cid4944" unicode="&#xae42;" 
 />
    <glyph glyph-name="cid414" unicode="&#xae43;" horiz-adv-x="620" 
d="M560 773h-104v-535h104v535zM46 671h223l-235 -367h121l233 367v92h-342v-92zM591 -86l-203 334h-133l-203 -334h117l152 260l153 -260h117z" />
    <glyph glyph-name="cid415" unicode="&#xae44;" horiz-adv-x="620" 
d="M397 -86l46 272l47 -272h98l-71 339h-146l-49 -272l-49 272h-146l-71 -339h98l47 272l46 -272h150zM46 671h223l-235 -357h121l233 357v92h-342v-92zM560 773h-104v-485h104v485z" />
    </font>
</defs>
</svg>
